<svg width="19" height="19" viewBox="0 0 19 19" fill="none" xmlns="http://www.w3.org/2000/svg">
<path fill-rule="evenodd" clip-rule="evenodd" d="M3.1095 0.272452L5.50064 2.52721C6.56208 1.57748 7.9636 1 9.5 1C10.9236 1 12.2315 1.49582 13.2602 2.32418L15.4361 0.272452C15.8379 -0.106445 16.4708 -0.0878663 16.8497 0.313949C17.2286 0.715764 17.21 1.34866 16.8082 1.72755L14.589 3.82013C15.1663 4.74205 15.5 5.83205 15.5 7V10V19H3.5V10V7C3.5 5.94635 3.7716 4.95613 4.2486 4.09553L1.73739 1.72755C1.33558 1.34866 1.317 0.715764 1.6959 0.313949C2.07479 -0.0878663 2.70769 -0.106445 3.1095 0.272452ZM5.5 10V17H13.5V10H5.5ZM9.5 3C7.29086 3 5.5 4.79086 5.5 7V8H13.5V7C13.5 4.79086 11.7091 3 9.5 3ZM17 8.5V14.5C17 15.0523 17.4477 15.5 18 15.5C18.5523 15.5 19 15.0523 19 14.5V8.5C19 7.94772 18.5523 7.5 18 7.5C17.4477 7.5 17 7.94772 17 8.5ZM0 14.5V8.5C0 7.94772 0.447715 7.5 1 7.5C1.55228 7.5 2 7.94772 2 8.5V14.5C2 15.0523 1.55228 15.5 1 15.5C0.447715 15.5 0 15.0523 0 14.5Z" fill="#42E37B"/>
</svg>
