<svg width="76" height="69" viewBox="0 0 76 69" fill="none" xmlns="http://www.w3.org/2000/svg">
<path d="M42.4762 8.55005C38.3718 8.55005 35.031 12.5437 35.031 17.4248C35.031 22.3059 38.3718 26.2996 42.4762 26.2996C46.5807 26.2996 49.9215 22.3059 49.9215 17.4248C49.9215 12.5437 46.5807 8.55005 42.4762 8.55005ZM42.4762 23.7956C39.7718 23.7956 37.5764 20.943 37.5764 17.4565C37.5764 13.97 39.7718 11.1174 42.4762 11.1174C45.1807 11.1174 47.3761 13.97 47.3761 17.4565C47.3761 20.943 45.1807 23.7956 42.4762 23.7956Z" fill="white"/>
<path d="M63.9843 5H20.9993C20.2993 5 19.7266 5.57052 19.7266 6.26781V16.759C20.5856 16.9491 21.4447 17.171 22.2719 17.488V16.03C26.6945 15.4595 30.1944 11.973 30.7671 7.56732H54.1846C54.7573 11.973 58.2572 15.4595 62.6798 16.03V18.8509C58.2572 19.4214 54.7573 22.9079 54.1846 27.3135H32.6444C32.9943 28.1376 33.2807 28.9617 33.5034 29.8491H63.9843C64.6843 29.8491 65.257 29.2786 65.257 28.5813V6.26781C65.257 5.57052 64.6843 5 63.9843 5ZM22.2719 13.4627V7.53563H28.2218C27.649 10.5467 25.2628 12.9238 22.2719 13.4627ZM62.7116 27.3452H56.7618C57.3027 24.3341 59.689 21.957 62.7116 21.4182V27.3452ZM62.7116 13.4627C59.689 12.9238 57.3027 10.5467 56.7618 7.53563H62.7116V13.4627Z" fill="white"/>
<path d="M16.0677 50.3246C24.9447 50.3246 32.1354 43.1298 32.1354 34.3185C32.1354 25.4755 24.9129 18.3124 16.0677 18.3124C7.22252 18.2807 0 25.4755 0 34.3185C0 43.1298 7.22252 50.3246 16.0677 50.3246ZM16.0677 20.8163C23.5448 20.8163 29.5901 26.8701 29.5901 34.2868C29.5901 41.7352 23.513 47.7573 16.0677 47.7573C8.62248 47.789 2.54538 41.7352 2.54538 34.3185C2.54538 26.8701 8.62248 20.8163 16.0677 20.8163Z" fill="white"/>
<path d="M22.4948 35.3959C22.3675 35.0473 22.1766 34.762 21.9539 34.5085C21.7312 34.2549 21.4448 34.0647 21.1585 33.9063C20.8403 33.7161 20.5221 33.6527 20.1722 33.5576V33.5259C20.7767 33.3041 21.2858 32.9871 21.6676 32.5434C22.0494 32.0996 22.2403 31.5291 22.2403 30.8318C22.2403 30.2296 22.113 29.6908 21.8585 29.2787C21.6357 28.8667 21.2858 28.5181 20.8721 28.2962C20.4585 28.0743 19.9813 27.9159 19.504 27.7891C18.9949 27.6623 18.5177 27.6306 18.0086 27.6306H17.6586H15.9723V25.095H13.0451V27.6306H12.9815H10.1179V30.0394H12.9815V37.678H10.1179V40.1185H12.9815H13.0133V42.6542H15.9087V40.1185H17.9768C18.5813 40.1185 19.154 40.0552 19.7267 39.9284C20.2994 39.8016 20.8085 39.5797 21.2539 39.3262C21.6676 39.0726 22.0494 38.6923 22.3357 38.2168C22.5903 37.7731 22.7494 37.2026 22.7494 36.5053C22.7494 36.0615 22.7175 35.6812 22.4948 35.3959ZM17.4041 30.0077C18.0404 30.0077 18.5495 30.1345 18.8677 30.3247C19.2176 30.5149 19.3767 30.8318 19.3767 31.2439C19.3767 31.6876 19.1858 32.0362 18.8677 32.2581C18.5495 32.48 18.1359 32.6068 17.5631 32.6068H15.9087H15.9405V30.0394H17.4041V30.0077ZM19.504 36.9173C19.3767 37.1075 19.1858 37.266 18.9949 37.3611C18.804 37.4878 18.5813 37.5512 18.2949 37.5829C18.0722 37.6146 17.7859 37.6463 17.5631 37.6463H15.9087V34.7937H17.595C18.2313 34.7937 18.7722 34.9205 19.154 35.1107C19.5358 35.3009 19.7267 35.6495 19.7267 36.1883C19.7267 36.4736 19.6631 36.7588 19.504 36.9173Z" fill="white"/>
<path d="M60.0404 33.4307C58.5131 39.0407 53.3587 43.1927 47.2498 43.1927H35.7957V45.7283H47.2498C54.7905 45.7283 61.0903 40.467 62.6812 33.4307H60.0404Z" fill="white"/>
<path d="M33.5352 44.3022C33.5352 44.6191 33.6624 44.9361 33.917 45.1896L45.3712 56.6L47.1848 54.7933L36.5896 44.3022L47.1212 33.811L45.3076 32.0044L33.8533 43.4147C33.6624 43.6366 33.5352 43.9852 33.5352 44.3022Z" fill="white"/>
<g opacity="0.3">
<path opacity="0.3" d="M43.771 2.38354C43.771 3.63491 42.7572 4.76709 41.3855 4.76709C40.1331 4.76709 39 3.75408 39 2.38354C39 1.13218 40.0138 0 41.3855 0C42.787 0 43.771 1.01301 43.771 2.38354Z" fill="white"/>
<path opacity="0.3" d="M50.1523 2.38354C50.1523 3.63491 49.1385 4.76709 47.7668 4.76709C46.5145 4.76709 45.3813 3.75408 45.3813 2.38354C45.3813 1.13218 46.3952 0 47.7668 0C49.1385 0 50.1523 1.01301 50.1523 2.38354Z" fill="white"/>
<path opacity="0.3" d="M56.5334 2.38354C56.5334 3.63491 55.5196 4.76709 54.1479 4.76709C52.8956 4.76709 51.7625 3.75408 51.7625 2.38354C51.7625 1.13218 52.7763 0 54.1479 0C55.5196 0 56.5334 1.01301 56.5334 2.38354Z" fill="white"/>
<path opacity="0.3" d="M62.9148 2.38354C62.9148 3.63491 61.901 4.76709 60.5293 4.76709C59.2769 4.76709 58.1438 3.75408 58.1438 2.38354C58.1438 1.13218 59.1576 0 60.5293 0C61.901 0 62.9148 1.01301 62.9148 2.38354Z" fill="white"/>
<path opacity="0.3" d="M69.2961 2.38354C69.2961 3.63491 68.2823 4.76709 66.9106 4.76709C65.6583 4.76709 64.5251 3.75408 64.5251 2.38354C64.5251 1.13218 65.539 0 66.9106 0C68.2823 0 69.2961 1.01301 69.2961 2.38354Z" fill="white"/>
<path opacity="0.3" d="M75.6772 2.38354C75.6772 3.63491 74.6634 4.76709 73.2917 4.76709C72.0394 4.76709 70.9062 3.75408 70.9062 2.38354C70.9062 1.13218 71.9201 0 73.2917 0C74.6634 0 75.6772 1.01301 75.6772 2.38354Z" fill="white"/>
<path opacity="0.3" d="M43.771 8.16382C43.771 9.41518 42.7572 10.5474 41.3855 10.5474C40.1331 10.5474 39 9.53436 39 8.16382C39 6.91246 40.0138 5.78027 41.3855 5.78027C42.787 5.78027 43.771 6.79328 43.771 8.16382Z" fill="white"/>
<path opacity="0.3" d="M50.1523 8.16382C50.1523 9.41518 49.1385 10.5474 47.7668 10.5474C46.5145 10.5474 45.3813 9.53436 45.3813 8.16382C45.3813 6.91246 46.3952 5.78027 47.7668 5.78027C49.1385 5.78027 50.1523 6.79328 50.1523 8.16382Z" fill="white"/>
<path opacity="0.3" d="M56.5334 8.16382C56.5334 9.41518 55.5196 10.5474 54.1479 10.5474C52.8956 10.5474 51.7625 9.53436 51.7625 8.16382C51.7625 6.91246 52.7763 5.78027 54.1479 5.78027C55.5196 5.78027 56.5334 6.79328 56.5334 8.16382Z" fill="white"/>
<path opacity="0.3" d="M62.9148 8.16382C62.9148 9.41518 61.901 10.5474 60.5293 10.5474C59.2769 10.5474 58.1438 9.53436 58.1438 8.16382C58.1438 6.91246 59.1576 5.78027 60.5293 5.78027C61.901 5.78027 62.9148 6.79328 62.9148 8.16382Z" fill="white"/>
<path opacity="0.3" d="M69.2961 8.16382C69.2961 9.41518 68.2823 10.5474 66.9106 10.5474C65.6583 10.5474 64.5251 9.53436 64.5251 8.16382C64.5251 6.91246 65.539 5.78027 66.9106 5.78027C68.2823 5.78027 69.2961 6.79328 69.2961 8.16382Z" fill="white"/>
<path opacity="0.3" d="M75.6772 8.16382C75.6772 9.41518 74.6634 10.5474 73.2917 10.5474C72.0394 10.5474 70.9062 9.53436 70.9062 8.16382C70.9062 6.91246 71.9201 5.78027 73.2917 5.78027C74.6634 5.78027 75.6772 6.79328 75.6772 8.16382Z" fill="white"/>
<path opacity="0.3" d="M69.2961 13.9438C69.2961 15.1952 68.2823 16.3274 66.9106 16.3274C65.6583 16.3274 64.5251 15.3144 64.5251 13.9438C64.5251 12.6925 65.539 11.5603 66.9106 11.5603C68.2823 11.5603 69.2961 12.5733 69.2961 13.9438Z" fill="white"/>
<path opacity="0.3" d="M75.6772 13.9438C75.6772 15.1952 74.6634 16.3274 73.2917 16.3274C72.0394 16.3274 70.9062 15.3144 70.9062 13.9438C70.9062 12.6925 71.9201 11.5603 73.2917 11.5603C74.6634 11.5603 75.6772 12.5733 75.6772 13.9438Z" fill="white"/>
<path opacity="0.3" d="M69.2961 19.7238C69.2961 20.9752 68.2823 22.1074 66.9106 22.1074C65.6583 22.1074 64.5251 21.0944 64.5251 19.7238C64.5251 18.4725 65.539 17.3403 66.9106 17.3403C68.2823 17.3403 69.2961 18.3533 69.2961 19.7238Z" fill="white"/>
<path opacity="0.3" d="M75.6772 19.7238C75.6772 20.9752 74.6634 22.1074 73.2917 22.1074C72.0394 22.1074 70.9062 21.0944 70.9062 19.7238C70.9062 18.4725 71.9201 17.3403 73.2917 17.3403C74.6634 17.3403 75.6772 18.3533 75.6772 19.7238Z" fill="white"/>
<path opacity="0.3" d="M69.2961 25.5039C69.2961 26.7553 68.2823 27.8875 66.9106 27.8875C65.6583 27.8875 64.5251 26.8744 64.5251 25.5039C64.5251 24.2525 65.539 23.1204 66.9106 23.1204C68.2823 23.1502 69.2961 24.1334 69.2961 25.5039Z" fill="white"/>
<path opacity="0.3" d="M75.6772 25.5039C75.6772 26.7553 74.6634 27.8875 73.2917 27.8875C72.0394 27.8875 70.9062 26.8744 70.9062 25.5039C70.9062 24.2525 71.9201 23.1204 73.2917 23.1204C74.6634 23.1502 75.6772 24.1334 75.6772 25.5039Z" fill="white"/>
<path opacity="0.3" d="M43.771 31.2842C43.771 32.5355 42.7572 33.6677 41.3855 33.6677C40.1331 33.6677 39 32.6547 39 31.2842C39 30.0328 40.0138 28.9006 41.3855 28.9006C42.787 28.9304 43.771 29.9136 43.771 31.2842Z" fill="white"/>
<path opacity="0.3" d="M50.1523 31.2842C50.1523 32.5355 49.1385 33.6677 47.7668 33.6677C46.5145 33.6677 45.3813 32.6547 45.3813 31.2842C45.3813 30.0328 46.3952 28.9006 47.7668 28.9006C49.1385 28.9304 50.1523 29.9136 50.1523 31.2842Z" fill="white"/>
<path opacity="0.3" d="M56.5334 31.2842C56.5334 32.5355 55.5196 33.6677 54.1479 33.6677C52.8956 33.6677 51.7625 32.6547 51.7625 31.2842C51.7625 30.0328 52.7763 28.9006 54.1479 28.9006C55.5196 28.9304 56.5334 29.9136 56.5334 31.2842Z" fill="white"/>
<path opacity="0.3" d="M62.9148 31.2842C62.9148 32.5355 61.901 33.6677 60.5293 33.6677C59.2769 33.6677 58.1438 32.6547 58.1438 31.2842C58.1438 30.0328 59.1576 28.9006 60.5293 28.9006C61.901 28.9304 62.9148 29.9136 62.9148 31.2842Z" fill="white"/>
<path opacity="0.3" d="M69.2961 31.2842C69.2961 32.5355 68.2823 33.6677 66.9106 33.6677C65.6583 33.6677 64.5251 32.6547 64.5251 31.2842C64.5251 30.0328 65.539 28.9006 66.9106 28.9006C68.2823 28.9304 69.2961 29.9136 69.2961 31.2842Z" fill="white"/>
<path opacity="0.3" d="M43.771 37.094C43.771 38.3454 42.7572 39.4775 41.3855 39.4775C40.1331 39.4775 39 38.4645 39 37.094C39 35.8426 40.0138 34.7104 41.3855 34.7104C42.787 34.7104 43.771 35.6937 43.771 37.094Z" fill="white"/>
<path opacity="0.3" d="M50.1523 37.094C50.1523 38.3454 49.1385 39.4775 47.7668 39.4775C46.5145 39.4775 45.3813 38.4645 45.3813 37.094C45.3813 35.8426 46.3952 34.7104 47.7668 34.7104C49.1385 34.7104 50.1523 35.6937 50.1523 37.094Z" fill="white"/>
<path opacity="0.3" d="M56.5334 37.094C56.5334 38.3454 55.5196 39.4775 54.1479 39.4775C52.8956 39.4775 51.7625 38.4645 51.7625 37.094C51.7625 35.8426 52.7763 34.7104 54.1479 34.7104C55.5196 34.7104 56.5334 35.6937 56.5334 37.094Z" fill="white"/>
<path opacity="0.3" d="M62.9148 37.094C62.9148 38.3454 61.901 39.4775 60.5293 39.4775C59.2769 39.4775 58.1438 38.4645 58.1438 37.094C58.1438 35.8426 59.1576 34.7104 60.5293 34.7104C61.901 34.7104 62.9148 35.6937 62.9148 37.094Z" fill="white"/>
<path opacity="0.3" d="M69.2961 37.094C69.2961 38.3454 68.2823 39.4775 66.9106 39.4775C65.6583 39.4775 64.5251 38.4645 64.5251 37.094C64.5251 35.8426 65.539 34.7104 66.9106 34.7104C68.2823 34.7104 69.2961 35.6937 69.2961 37.094Z" fill="white"/>
<path opacity="0.3" d="M43.771 42.8741C43.771 44.1254 42.7572 45.2576 41.3855 45.2576C40.1331 45.2576 39 44.2446 39 42.8741C39 41.6227 40.0138 40.4905 41.3855 40.4905C42.787 40.4905 43.771 41.5035 43.771 42.8741Z" fill="white"/>
<path opacity="0.3" d="M50.1523 42.8741C50.1523 44.1254 49.1385 45.2576 47.7668 45.2576C46.5145 45.2576 45.3813 44.2446 45.3813 42.8741C45.3813 41.6227 46.3952 40.4905 47.7668 40.4905C49.1385 40.4905 50.1523 41.5035 50.1523 42.8741Z" fill="white"/>
<path opacity="0.3" d="M56.5334 42.8741C56.5334 44.1254 55.5196 45.2576 54.1479 45.2576C52.8956 45.2576 51.7625 44.2446 51.7625 42.8741C51.7625 41.6227 52.7763 40.4905 54.1479 40.4905C55.5196 40.4905 56.5334 41.5035 56.5334 42.8741Z" fill="white"/>
<path opacity="0.3" d="M62.9148 42.8741C62.9148 44.1254 61.901 45.2576 60.5293 45.2576C59.2769 45.2576 58.1438 44.2446 58.1438 42.8741C58.1438 41.6227 59.1576 40.4905 60.5293 40.4905C61.901 40.4905 62.9148 41.5035 62.9148 42.8741Z" fill="white"/>
<path opacity="0.3" d="M43.771 48.6543C43.771 49.9056 42.7572 51.0378 41.3855 51.0378C40.1331 51.0378 39 50.0248 39 48.6543C39 47.4029 40.0138 46.2708 41.3855 46.2708C42.787 46.2708 43.771 47.2837 43.771 48.6543Z" fill="white"/>
<path opacity="0.3" d="M50.1523 48.6543C50.1523 49.9056 49.1385 51.0378 47.7668 51.0378C46.5145 51.0378 45.3813 50.0248 45.3813 48.6543C45.3813 47.4029 46.3952 46.2708 47.7668 46.2708C49.1385 46.2708 50.1523 47.2837 50.1523 48.6543Z" fill="white"/>
<path opacity="0.3" d="M43.771 54.4343C43.771 55.6857 42.7572 56.8179 41.3855 56.8179C40.1331 56.8179 39 55.8049 39 54.4343C39 53.183 40.0138 52.0508 41.3855 52.0508C42.787 52.0508 43.771 53.0638 43.771 54.4343Z" fill="white"/>
<path opacity="0.3" d="M43.771 60.2144C43.771 61.4657 42.7572 62.5979 41.3855 62.5979C40.1331 62.5979 39 61.5849 39 60.2144C39 58.963 40.0138 57.8308 41.3855 57.8308C42.787 57.8606 43.771 58.8438 43.771 60.2144Z" fill="white"/>
<path opacity="0.3" d="M43.771 65.9946C43.771 67.246 42.7572 68.3782 41.3855 68.3782C40.1331 68.3782 39 67.3652 39 65.9946C39 64.7433 40.0138 63.6111 41.3855 63.6111C42.787 63.6409 43.771 64.6241 43.771 65.9946Z" fill="white"/>
</g>
</svg>
