<svg width="118" height="67" viewBox="0 0 118 67" fill="none" xmlns="http://www.w3.org/2000/svg">
<path d="M100.842 19.2458C98.0061 19.2458 95.6499 19.7659 93.2537 21.3259H104.396L106.553 19.2458H100.842Z" fill="white"/>
<path d="M105.834 31.53V44.6543H29.3549V21.3667H81.4725C82.2712 20.1663 83.1498 19.0059 84.1882 18.0056H27.6776C26.759 18.0056 26.0002 18.7659 26.0002 19.6862V46.3748C26.0002 47.2951 26.759 48.0554 27.6776 48.0554H107.511C108.43 48.0554 109.189 47.2951 109.189 46.3748V28.2089L105.834 31.53Z" fill="white"/>
<path d="M83.6295 33.6108H80.4346C80.4346 22.6473 89.3405 13.7244 100.283 13.7244H114.261V16.9254H100.283C91.0977 16.9254 83.6295 24.4078 83.6295 33.6108Z" fill="white"/>
<path d="M102.679 31.05L100.403 28.7693L113.622 15.525L100.403 2.28073L102.679 0L117.056 14.4046C117.695 15.0448 117.695 16.0452 117.056 16.6854L102.679 31.05Z" fill="white"/>
<path d="M40.9373 31.1297C41.3367 31.5699 41.5364 32.2101 41.5364 32.9703V36.4115H39.7392V33.2104C39.7392 32.8103 39.6194 32.4902 39.4197 32.2901C39.22 32.09 38.9405 31.97 38.5811 31.97C38.2216 31.97 37.982 32.09 37.7424 32.2901C37.5427 32.4902 37.4229 32.8103 37.4229 33.2104V36.4115H35.6257V28.6089H37.4229V31.3298C37.6226 31.0497 37.8622 30.8496 38.1817 30.6896C38.5012 30.5295 38.8606 30.4495 39.26 30.4495C39.9788 30.4495 40.538 30.6896 40.9373 31.1297Z" fill="white"/>
<path d="M46.0884 34.8911V36.4116H45.1698C44.5309 36.4116 44.0117 36.2515 43.6522 35.9314C43.2928 35.6113 43.0931 35.0911 43.0931 34.3709V32.0101H42.3743V30.5296H43.0931V29.0891H44.8903V30.5296H46.0884V32.0101H44.8903V34.3709C44.8903 34.531 44.9302 34.691 45.0101 34.731C45.09 34.811 45.2497 34.8511 45.4494 34.8511H46.0884V34.8911Z" fill="white"/>
<path d="M50.3626 34.8911V36.4116H49.444C48.805 36.4116 48.2858 36.2515 47.9264 35.9314C47.567 35.6113 47.3673 35.0911 47.3673 34.3709V32.0101H46.6484V30.5296H47.3673V29.0891H49.1645V30.5296H50.3626V32.0101H49.1645V34.3709C49.1645 34.531 49.2044 34.691 49.2843 34.731C49.3641 34.811 49.5239 34.8511 49.7236 34.8511H50.3626V34.8911Z" fill="white"/>
<path d="M53.8769 30.6895C54.1964 30.5295 54.5558 30.4495 54.9552 30.4495C55.4344 30.4495 55.8737 30.5695 56.2731 30.8096C56.6724 31.0496 56.9919 31.4098 57.1916 31.8499C57.4312 32.29 57.551 32.8502 57.551 33.4504C57.551 34.0506 57.4312 34.5707 57.1916 35.0509C56.952 35.531 56.6325 35.8511 56.2731 36.1312C55.8737 36.3713 55.4344 36.4913 54.9552 36.4913C54.5558 36.4913 54.1964 36.4113 53.8769 36.2512C53.5574 36.0912 53.3177 35.8511 53.158 35.611V39.2522H51.3608V30.5695H53.158V31.4098C53.3177 31.0897 53.5574 30.8496 53.8769 30.6895ZM55.3545 32.4101C55.1149 32.17 54.7954 32.0099 54.436 32.0099C54.0765 32.0099 53.757 32.13 53.5174 32.4101C53.2778 32.6901 53.158 33.0102 53.158 33.4904C53.158 33.9305 53.2778 34.2906 53.5174 34.5707C53.757 34.8508 54.0765 34.9708 54.436 34.9708C54.7954 34.9708 55.1149 34.8508 55.3545 34.5707C55.5941 34.2906 55.714 33.9305 55.714 33.4904C55.714 33.0102 55.5941 32.6501 55.3545 32.4101Z" fill="white"/>
<path d="M59.5073 36.2113C59.1079 36.0512 58.7884 35.8111 58.5488 35.491C58.3092 35.1709 58.1894 34.8508 58.1494 34.4507H59.9466C59.9865 34.6508 60.0664 34.8108 60.2261 34.9309C60.3859 35.0509 60.5856 35.1309 60.8651 35.1309C61.1047 35.1309 61.2645 35.0909 61.3843 35.0109C61.5041 34.9309 61.584 34.8108 61.584 34.6508C61.584 34.4907 61.5041 34.3707 61.3044 34.2906C61.1447 34.2106 60.8252 34.1306 60.4657 34.0106C60.0264 33.9305 59.7069 33.8105 59.4274 33.6905C59.1478 33.5704 58.9082 33.4104 58.7085 33.1703C58.5088 32.9302 58.389 32.6101 58.389 32.21C58.389 31.8899 58.4689 31.5698 58.6686 31.2897C58.8683 31.0096 59.1478 30.8095 59.5073 30.6495C59.8667 30.4894 60.306 30.4094 60.7852 30.4094C61.5041 30.4094 62.1032 30.6095 62.5425 30.9696C62.9818 31.3297 63.2214 31.8099 63.2613 32.4101H61.584C61.544 32.21 61.4642 32.0499 61.3044 31.9299C61.1447 31.8099 60.945 31.7699 60.7054 31.7699C60.5057 31.7699 60.3459 31.8099 60.2261 31.8899C60.1063 31.9699 60.0664 32.09 60.0664 32.21C60.0664 32.37 60.1463 32.4901 60.3459 32.6101C60.5057 32.6901 60.7852 32.7702 61.1846 32.8502C61.6239 32.9702 61.9833 33.0903 62.2629 33.1703C62.5425 33.2903 62.7821 33.4504 62.9818 33.6905C63.1814 33.9305 63.3013 34.2506 63.3013 34.6508C63.3013 35.0109 63.2214 35.291 63.0217 35.5711C62.822 35.8511 62.5425 36.0512 62.183 36.2113C61.8236 36.3713 61.3843 36.4513 60.9051 36.4513C60.3859 36.4913 59.9466 36.4113 59.5073 36.2113Z" fill="white"/>
<path d="M64.4601 31.9298C64.2604 31.7298 64.1406 31.5297 64.1406 31.2496C64.1406 30.9695 64.2604 30.7294 64.4601 30.5294C64.6598 30.3293 64.8994 30.2493 65.2189 30.2493C65.5384 30.2493 65.778 30.3293 65.9777 30.5294C66.1774 30.7294 66.2972 30.9695 66.2972 31.2496C66.2972 31.5297 66.1774 31.7698 65.9777 31.9298C65.778 32.1299 65.5384 32.2099 65.2189 32.2099C64.8994 32.2099 64.6598 32.0899 64.4601 31.9298ZM64.4601 36.2112C64.2604 36.0111 64.1406 35.8111 64.1406 35.531C64.1406 35.2509 64.2604 35.0108 64.4601 34.8108C64.6598 34.6107 64.8994 34.5307 65.2189 34.5307C65.5384 34.5307 65.778 34.6107 65.9777 34.8108C66.1774 35.0108 66.2972 35.2509 66.2972 35.531C66.2972 35.8111 66.1774 36.0512 65.9777 36.2112C65.778 36.4113 65.5384 36.4913 65.2189 36.4913C64.8994 36.4913 64.6598 36.4113 64.4601 36.2112Z" fill="white"/>
<path d="M71.4087 26.3682L68.5731 38.3722H66.8159L69.6514 26.3682H71.4087Z" fill="white"/>
<path d="M76.1613 26.3682L73.3258 38.3722H71.5686L74.4041 26.3682H76.1613Z" fill="white"/>
<g opacity="0.3">
<path opacity="0.3" d="M65.9944 9.77103C64.7431 9.77103 63.6109 8.75718 63.6109 7.38551C63.6109 6.13312 64.6239 5 65.9944 5C67.2458 5 68.3779 6.01384 68.3779 7.38551C68.3779 8.787 67.3649 9.77103 65.9944 9.77103Z" fill="white"/>
<path opacity="0.3" d="M65.9944 16.1521C64.7431 16.1521 63.6109 15.1383 63.6109 13.7666C63.6109 12.5142 64.6239 11.3811 65.9944 11.3811C67.2458 11.3811 68.3779 12.3949 68.3779 13.7666C68.3779 15.1681 67.3649 16.1521 65.9944 16.1521Z" fill="white"/>
<path opacity="0.3" d="M65.9944 22.5334C64.7431 22.5334 63.6109 21.5196 63.6109 20.1479C63.6109 18.8956 64.6239 17.7625 65.9944 17.7625C67.2458 17.7625 68.3779 18.7763 68.3779 20.1479C68.3779 21.5494 67.3649 22.5334 65.9944 22.5334Z" fill="white"/>
<path opacity="0.3" d="M60.2144 9.77103C58.963 9.77103 57.8308 8.75718 57.8308 7.38551C57.8308 6.13312 58.8438 5 60.2144 5C61.4657 5 62.5979 6.01384 62.5979 7.38551C62.5979 8.787 61.5849 9.77103 60.2144 9.77103Z" fill="white"/>
<path opacity="0.3" d="M60.2144 16.1521C58.963 16.1521 57.8308 15.1383 57.8308 13.7666C57.8308 12.5142 58.8438 11.3811 60.2144 11.3811C61.4657 11.3811 62.5979 12.3949 62.5979 13.7666C62.5979 15.1681 61.5849 16.1521 60.2144 16.1521Z" fill="white"/>
<path opacity="0.3" d="M60.2144 22.5334C58.963 22.5334 57.8308 21.5196 57.8308 20.1479C57.8308 18.8956 58.8438 17.7625 60.2144 17.7625C61.4657 17.7625 62.5979 18.7763 62.5979 20.1479C62.5979 21.5494 61.5849 22.5334 60.2144 22.5334Z" fill="white"/>
<path opacity="0.3" d="M54.4343 9.77103C53.183 9.77103 52.0508 8.75718 52.0508 7.38551C52.0508 6.13312 53.0638 5 54.4343 5C55.6857 5 56.8179 6.01384 56.8179 7.38551C56.8179 8.787 55.8049 9.77103 54.4343 9.77103Z" fill="white"/>
<path opacity="0.3" d="M54.4341 16.1521C53.1827 16.1521 52.0505 15.1383 52.0505 13.7666C52.0505 12.5142 53.0635 11.3811 54.4341 11.3811C55.6854 11.3811 56.8176 12.3949 56.8176 13.7666C56.8176 15.1681 55.8046 16.1521 54.4341 16.1521Z" fill="white"/>
<path opacity="0.3" d="M54.4341 22.5334C53.1827 22.5334 52.0505 21.5196 52.0505 20.1479C52.0505 18.8956 53.0635 17.7625 54.4341 17.7625C55.6854 17.7625 56.8176 18.7763 56.8176 20.1479C56.8176 21.5494 55.8046 22.5334 54.4341 22.5334Z" fill="white"/>
<path opacity="0.3" d="M48.6541 9.77103C47.4027 9.77103 46.2706 8.75718 46.2706 7.38551C46.2706 6.13312 47.2836 5 48.6541 5C49.9054 5 51.0376 6.01384 51.0376 7.38551C51.0078 8.787 50.0246 9.77103 48.6541 9.77103Z" fill="white"/>
<path opacity="0.3" d="M48.6541 16.1521C47.4027 16.1521 46.2706 15.1383 46.2706 13.7666C46.2706 12.5142 47.2836 11.3811 48.6541 11.3811C49.9054 11.3811 51.0376 12.3949 51.0376 13.7666C51.0078 15.1681 50.0246 16.1521 48.6541 16.1521Z" fill="white"/>
<path opacity="0.3" d="M42.874 9.77103C41.6226 9.77103 40.4904 8.75718 40.4904 7.38551C40.4904 6.13312 41.5034 5 42.874 5C44.1254 5 45.2576 6.01384 45.2576 7.38551C45.2278 8.787 44.2445 9.77103 42.874 9.77103Z" fill="white"/>
<path opacity="0.3" d="M42.874 16.1521C41.6226 16.1521 40.4904 15.1383 40.4904 13.7666C40.4904 12.5142 41.5034 11.3811 42.874 11.3811C44.1254 11.3811 45.2576 12.3949 45.2576 13.7666C45.2278 15.1681 44.2445 16.1521 42.874 16.1521Z" fill="white"/>
<path opacity="0.3" d="M37.0937 9.77103C35.8424 9.77103 34.7102 8.75718 34.7102 7.38551C34.7102 6.13312 35.7232 5 37.0938 5C38.3451 5 39.4773 6.01384 39.4773 7.38551C39.4475 8.787 38.4643 9.77103 37.0937 9.77103Z" fill="white"/>
<path opacity="0.3" d="M37.0937 16.1521C35.8424 16.1521 34.7102 15.1383 34.7102 13.7666C34.7102 12.5142 35.7232 11.3811 37.0938 11.3811C38.3451 11.3811 39.4773 12.3949 39.4773 13.7666C39.4475 15.1681 38.4643 16.1521 37.0937 16.1521Z" fill="white"/>
<path opacity="0.3" d="M31.2839 9.77103C30.0326 9.77103 28.9004 8.75718 28.9004 7.38551C28.9004 6.13312 29.9134 5 31.2839 5C32.5353 5 33.6675 6.01384 33.6675 7.38551C33.6675 8.787 32.6545 9.77103 31.2839 9.77103Z" fill="white"/>
<path opacity="0.3" d="M31.2839 16.1521C30.0326 16.1521 28.9004 15.1383 28.9004 13.7666C28.9004 12.5142 29.9134 11.3811 31.2839 11.3811C32.5353 11.3811 33.6675 12.3949 33.6675 13.7666C33.6675 15.1681 32.6545 16.1521 31.2839 16.1521Z" fill="white"/>
<path opacity="0.3" d="M31.2839 22.5334C30.0326 22.5334 28.9004 21.5196 28.9004 20.1479C28.9004 18.8956 29.9134 17.7625 31.2839 17.7625C32.5353 17.7625 33.6675 18.7763 33.6675 20.1479C33.6675 21.5494 32.6545 22.5334 31.2839 22.5334Z" fill="white"/>
<path opacity="0.3" d="M25.5037 9.77103C24.2523 9.77103 23.1202 8.75718 23.1202 7.38551C23.1202 6.13312 24.1332 5 25.5037 5C26.755 5 27.8872 6.01384 27.8872 7.38551C27.8872 8.787 26.8742 9.77103 25.5037 9.77103Z" fill="white"/>
<path opacity="0.3" d="M25.5037 16.1521C24.2523 16.1521 23.1202 15.1383 23.1202 13.7666C23.1202 12.5142 24.1332 11.3811 25.5037 11.3811C26.755 11.3811 27.8872 12.3949 27.8872 13.7666C27.8872 15.1681 26.8742 16.1521 25.5037 16.1521Z" fill="white"/>
<path opacity="0.3" d="M25.5037 22.5334C24.2523 22.5334 23.1202 21.5196 23.1202 20.1479C23.1202 18.8956 24.1332 17.7625 25.5037 17.7625C26.755 17.7625 27.8872 18.7763 27.8872 20.1479C27.8872 21.5494 26.8742 22.5334 25.5037 22.5334Z" fill="white"/>
<path opacity="0.3" d="M25.5037 28.9146C24.2523 28.9146 23.1202 27.9007 23.1202 26.5291C23.1202 25.2767 24.1332 24.1436 25.5037 24.1436C26.755 24.1436 27.8872 25.1574 27.8872 26.5291C27.8872 27.9306 26.8742 28.9146 25.5037 28.9146Z" fill="white"/>
<path opacity="0.3" d="M19.7239 9.77103C18.4725 9.77103 17.3403 8.75718 17.3403 7.38551C17.3403 6.13312 18.3533 5 19.7239 5C20.9752 5 22.1074 6.01384 22.1074 7.38551C22.1074 8.787 21.0944 9.77103 19.7239 9.77103Z" fill="white"/>
<path opacity="0.3" d="M19.7236 16.1521C18.4723 16.1521 17.3401 15.1383 17.3401 13.7666C17.3401 12.5142 18.3531 11.3811 19.7236 11.3811C20.975 11.3811 22.1072 12.3949 22.1072 13.7666C22.1072 15.1681 21.0942 16.1521 19.7236 16.1521Z" fill="white"/>
<path opacity="0.3" d="M19.7236 22.5334C18.4723 22.5334 17.3401 21.5196 17.3401 20.1479C17.3401 18.8956 18.3531 17.7625 19.7236 17.7625C20.975 17.7625 22.1072 18.7763 22.1072 20.1479C22.1072 21.5494 21.0942 22.5334 19.7236 22.5334Z" fill="white"/>
<path opacity="0.3" d="M19.7236 28.9146C18.4723 28.9146 17.3401 27.9007 17.3401 26.5291C17.3401 25.2767 18.3531 24.1436 19.7236 24.1436C20.975 24.1436 22.1072 25.1574 22.1072 26.5291C22.1072 27.9306 21.0942 28.9146 19.7236 28.9146Z" fill="white"/>
<path opacity="0.3" d="M19.7236 35.2959C18.4723 35.2959 17.3401 34.2821 17.3401 32.9104C17.3401 31.658 18.3531 30.5249 19.7236 30.5249C20.975 30.5249 22.1072 31.5387 22.1072 32.9104C22.1072 34.2821 21.0942 35.2959 19.7236 35.2959Z" fill="white"/>
<path opacity="0.3" d="M13.9436 28.9146C12.6922 28.9146 11.5601 27.9007 11.5601 26.5291C11.5601 25.2767 12.5731 24.1436 13.9436 24.1436C15.195 24.1436 16.3271 25.1574 16.3271 26.5291C16.2974 27.9306 15.3141 28.9146 13.9436 28.9146Z" fill="white"/>
<path opacity="0.3" d="M13.9436 35.2959C12.6922 35.2959 11.5601 34.2821 11.5601 32.9104C11.5601 31.658 12.5731 30.5249 13.9436 30.5249C15.195 30.5249 16.3271 31.5387 16.3271 32.9104C16.2974 34.2821 15.3141 35.2959 13.9436 35.2959Z" fill="white"/>
<path opacity="0.3" d="M8.1636 28.9146C6.91226 28.9146 5.78009 27.9007 5.78009 26.5291C5.78009 25.2767 6.79308 24.1436 8.1636 24.1436C9.41495 24.1436 10.5471 25.1574 10.5471 26.5291C10.5173 27.9306 9.53413 28.9146 8.1636 28.9146Z" fill="white"/>
<path opacity="0.3" d="M8.1636 35.2959C6.91226 35.2959 5.78009 34.2821 5.78009 32.9104C5.78009 31.658 6.79308 30.5249 8.1636 30.5249C9.41495 30.5249 10.5471 31.5387 10.5471 32.9104C10.5173 34.2821 9.53413 35.2959 8.1636 35.2959Z" fill="white"/>
<path opacity="0.3" d="M8.1636 41.677C6.91226 41.677 5.78009 40.6632 5.78009 39.2915C5.78009 38.0391 6.79308 36.906 8.1636 36.906C9.41495 36.906 10.5471 37.9198 10.5471 39.2915C10.5173 40.6632 9.53413 41.677 8.1636 41.677Z" fill="white"/>
<path opacity="0.3" d="M2.3833 35.2959C1.13194 35.2959 -0.000244305 34.2821 -0.000244245 32.9104C-0.00024419 31.658 1.01276 30.5249 2.3833 30.5249C3.63466 30.5249 4.76685 31.5387 4.76685 32.9104C4.73705 34.2821 3.75384 35.2959 2.3833 35.2959Z" fill="white"/>
<path opacity="0.3" d="M2.3833 41.677C1.13194 41.677 -0.000244305 40.6632 -0.000244245 39.2915C-0.00024419 38.0391 1.01276 36.906 2.3833 36.906C3.63466 36.906 4.76685 37.9198 4.76685 39.2915C4.73705 40.6632 3.75384 41.677 2.3833 41.677Z" fill="white"/>
</g>
<g opacity="0.3">
<path opacity="0.3" d="M115.504 34.771C114.253 34.771 113.121 33.7572 113.121 32.3855C113.121 31.1331 114.134 30 115.504 30C116.756 30 117.888 31.0138 117.888 32.3855C117.888 33.787 116.875 34.771 115.504 34.771Z" fill="white"/>
<path opacity="0.3" d="M115.504 41.1521C114.253 41.1521 113.121 40.1383 113.121 38.7666C113.121 37.5142 114.134 36.3811 115.504 36.3811C116.756 36.3811 117.888 37.3949 117.888 38.7666C117.888 40.1681 116.875 41.1521 115.504 41.1521Z" fill="white"/>
<path opacity="0.3" d="M115.504 47.5334C114.253 47.5334 113.121 46.5196 113.121 45.1479C113.121 43.8956 114.134 42.7625 115.504 42.7625C116.756 42.7625 117.888 43.7763 117.888 45.1479C117.888 46.5494 116.875 47.5334 115.504 47.5334Z" fill="white"/>
<path opacity="0.3" d="M115.504 53.9146C114.253 53.9146 113.121 52.9007 113.121 51.5291C113.121 50.2767 114.134 49.1436 115.504 49.1436C116.756 49.1436 117.888 50.1574 117.888 51.5291C117.888 52.9306 116.875 53.9146 115.504 53.9146Z" fill="white"/>
<path opacity="0.3" d="M109.724 34.771C108.473 34.771 107.341 33.7572 107.341 32.3855C107.341 31.1331 108.354 30 109.724 30C110.975 30 112.108 31.0138 112.108 32.3855C112.108 33.787 111.095 34.771 109.724 34.771Z" fill="white"/>
<path opacity="0.3" d="M109.724 41.1521C108.473 41.1521 107.341 40.1383 107.341 38.7666C107.341 37.5142 108.354 36.3811 109.724 36.3811C110.975 36.3811 112.108 37.3949 112.108 38.7666C112.108 40.1681 111.095 41.1521 109.724 41.1521Z" fill="white"/>
<path opacity="0.3" d="M109.724 47.5334C108.473 47.5334 107.341 46.5196 107.341 45.1479C107.341 43.8956 108.354 42.7625 109.724 42.7625C110.975 42.7625 112.108 43.7763 112.108 45.1479C112.108 46.5494 111.095 47.5334 109.724 47.5334Z" fill="white"/>
<path opacity="0.3" d="M109.724 53.9146C108.473 53.9146 107.341 52.9007 107.341 51.5291C107.341 50.2767 108.354 49.1436 109.724 49.1436C110.975 49.1436 112.108 50.1574 112.108 51.5291C112.108 52.9306 111.095 53.9146 109.724 53.9146Z" fill="white"/>
<path opacity="0.3" d="M109.724 60.2959C108.473 60.2959 107.341 59.2821 107.341 57.9104C107.341 56.658 108.354 55.5249 109.724 55.5249C110.975 55.5249 112.108 56.5387 112.108 57.9104C112.108 59.2821 111.095 60.2959 109.724 60.2959Z" fill="white"/>
<path opacity="0.3" d="M103.944 53.9146C102.692 53.9146 101.56 52.9007 101.56 51.5291C101.56 50.2767 102.573 49.1436 103.944 49.1436C105.195 49.1436 106.327 50.1574 106.327 51.5291C106.298 52.9306 105.314 53.9146 103.944 53.9146Z" fill="white"/>
<path opacity="0.3" d="M103.944 60.2959C102.692 60.2959 101.56 59.2821 101.56 57.9104C101.56 56.658 102.573 55.5249 103.944 55.5249C105.195 55.5249 106.327 56.5387 106.327 57.9104C106.298 59.2821 105.314 60.2959 103.944 60.2959Z" fill="white"/>
<path opacity="0.3" d="M98.1638 53.9146C96.9125 53.9146 95.7803 52.9007 95.7803 51.5291C95.7803 50.2767 96.7933 49.1436 98.1638 49.1436C99.4152 49.1436 100.547 50.1574 100.547 51.5291C100.518 52.9306 99.5344 53.9146 98.1638 53.9146Z" fill="white"/>
<path opacity="0.3" d="M98.1638 60.2959C96.9125 60.2959 95.7803 59.2821 95.7803 57.9104C95.7803 56.658 96.7933 55.5249 98.1638 55.5249C99.4152 55.5249 100.547 56.5387 100.547 57.9104C100.518 59.2821 99.5344 60.2959 98.1638 60.2959Z" fill="white"/>
<path opacity="0.3" d="M98.1638 66.677C96.9125 66.677 95.7803 65.6632 95.7803 64.2915C95.7803 63.0391 96.7933 61.906 98.1638 61.906C99.4152 61.906 100.547 62.9198 100.547 64.2915C100.518 65.6632 99.5344 66.677 98.1638 66.677Z" fill="white"/>
<path opacity="0.3" d="M92.3838 60.2959C91.1324 60.2959 90.0002 59.2821 90.0002 57.9104C90.0002 56.658 91.0133 55.5249 92.3838 55.5249C93.6352 55.5249 94.7673 56.5387 94.7673 57.9104C94.7375 59.2821 93.7543 60.2959 92.3838 60.2959Z" fill="white"/>
<path opacity="0.3" d="M92.3838 66.677C91.1324 66.677 90.0002 65.6632 90.0002 64.2915C90.0002 63.0391 91.0133 61.906 92.3838 61.906C93.6352 61.906 94.7673 62.9198 94.7673 64.2915C94.7375 65.6632 93.7543 66.677 92.3838 66.677Z" fill="white"/>
</g>
</svg>
