<svg width="72" height="74" viewBox="0 0 72 74" fill="none" xmlns="http://www.w3.org/2000/svg">
<path d="M19.3284 41.0864V57.6975L22.0459 54.9744V38.6697C21.0268 39.3164 20.1097 40.1334 19.3284 41.0864Z" fill="white"/>
<path d="M44.602 25.1221H20.6876C19.9403 25.1221 19.3289 25.7348 19.3289 26.4836V31.9979C20.2121 31.5214 21.0953 31.1129 22.0464 30.7725V27.8452H28.3987C28.2967 28.4579 28.0929 29.0706 27.8551 29.6493C28.0929 29.6493 28.3307 29.6152 28.5345 29.6152H30.7425C30.9124 29.0366 31.0483 28.4579 31.1502 27.8452H34.1734C34.7849 32.5766 38.5215 36.3209 43.2432 36.9336V61.9863C38.5215 62.599 34.7849 66.3433 34.1734 71.0747H31.1502C30.6406 67.1943 28.025 63.9606 24.4582 62.599L22.2842 64.7775C25.4094 65.4242 27.8551 67.9091 28.3987 71.0747H22.0464V64.9817L19.3289 67.7048V72.4703C19.3289 73.2192 19.9403 73.8319 20.6876 73.8319H44.602C45.3493 73.8319 45.9608 73.2192 45.9608 72.4703V26.4836C45.9608 25.7348 45.3493 25.1221 44.602 25.1221ZM43.2432 71.1088H36.9249C37.5024 67.875 40.0501 65.3221 43.2772 64.7435V71.1088H43.2432ZM43.2432 34.1764C40.0162 33.5978 37.4685 31.0449 36.891 27.8112H43.2432V34.1764Z" fill="white"/>
<path d="M23.1328 49.46C23.1328 53.851 27.4129 57.4251 32.6442 57.4251C37.8755 57.4251 42.1556 53.851 42.1556 49.46C42.1556 45.069 37.8755 41.4949 32.6442 41.4949C27.4129 41.4949 23.1328 45.103 23.1328 49.46ZM39.4381 49.46C39.4381 52.3533 36.3809 54.702 32.6442 54.702C28.9076 54.702 25.8504 52.3533 25.8504 49.46C25.8504 46.5667 28.9076 44.218 32.6442 44.218C36.3809 44.218 39.4381 46.6007 39.4381 49.46Z" fill="white"/>
<path d="M14.3694 67.7729H11.6519V48.7111C11.6519 39.3844 19.227 31.7937 28.5346 31.7937V34.5168C20.7217 34.5168 14.3694 40.8821 14.3694 48.7111V67.7729Z" fill="white"/>
<path d="M13.1801 70.2236C12.8404 70.2236 12.5007 70.0874 12.229 69.8151L0 57.5611L1.93626 55.6208L13.1801 66.8877L24.424 55.6208L26.3602 57.5611L14.1312 69.8151C13.8935 70.0874 13.5198 70.2236 13.1801 70.2236Z" fill="white"/>
<path d="M49.5023 25H48.1631L48.2146 73.7266H49.5538C50.3264 73.7266 50.893 73.1085 50.893 72.3874V26.3392C50.893 25.6181 50.2749 25 49.5023 25Z" fill="white"/>
<path d="M54.6534 25H53.3142L53.3657 73.7266H54.7049C55.4775 73.7266 56.0441 73.1085 56.0441 72.3874V26.3392C56.0441 25.6181 55.426 25 54.6534 25Z" fill="white"/>
<path d="M59.8048 25H58.4656L58.5171 73.7266H59.8563C60.6289 73.7266 61.1955 73.1085 61.1955 72.3874V26.3392C61.1955 25.6181 60.5774 25 59.8048 25Z" fill="white"/>
<g opacity="0.3">
<path opacity="0.3" d="M39.7715 2.38354C39.7715 3.63491 38.7576 4.76709 37.386 4.76709C36.1336 4.76709 35.0005 3.75408 35.0005 2.38354C35.0005 1.13218 36.0143 0 37.386 0C38.7576 0 39.7715 1.01301 39.7715 2.38354Z" fill="white"/>
<path opacity="0.3" d="M46.1521 2.38354C46.1521 3.63491 45.1383 4.76709 43.7666 4.76709C42.5142 4.76709 41.3811 3.75408 41.3811 2.38354C41.3811 1.13218 42.3949 0 43.7666 0C45.1383 0 46.1521 1.01301 46.1521 2.38354Z" fill="white"/>
<path opacity="0.3" d="M52.5334 2.38354C52.5334 3.63491 51.5196 4.76709 50.1479 4.76709C48.8956 4.76709 47.7625 3.75408 47.7625 2.38354C47.7625 1.13218 48.7763 0 50.1479 0C51.5196 0 52.5334 1.01301 52.5334 2.38354Z" fill="white"/>
<path opacity="0.3" d="M39.771 8.16379C39.771 9.41513 38.7572 10.5473 37.3855 10.5473C36.1331 10.5473 35 9.53431 35 8.16379C35 6.91244 36.0138 5.78027 37.3855 5.78027C38.7572 5.78027 39.771 6.79327 39.771 8.16379Z" fill="white"/>
<path opacity="0.3" d="M46.1521 8.16379C46.1521 9.41513 45.1383 10.5473 43.7666 10.5473C42.5142 10.5473 41.3811 9.53431 41.3811 8.16379C41.3811 6.91244 42.3949 5.78027 43.7666 5.78027C45.1383 5.78027 46.1521 6.79327 46.1521 8.16379Z" fill="white"/>
<path opacity="0.3" d="M52.5334 8.16379C52.5334 9.41513 51.5196 10.5473 50.1479 10.5473C48.8956 10.5473 47.7625 9.53431 47.7625 8.16379C47.7625 6.91244 48.7763 5.78027 50.1479 5.78027C51.5196 5.78027 52.5334 6.79327 52.5334 8.16379Z" fill="white"/>
<path opacity="0.3" d="M39.771 13.9736C39.771 15.2249 38.7572 16.3571 37.3855 16.3571C36.1331 16.3571 35 15.3441 35 13.9736C35 12.7223 36.0138 11.5901 37.3855 11.5901C38.7572 11.5901 39.771 12.5733 39.771 13.9736Z" fill="white"/>
<path opacity="0.3" d="M46.1521 13.9736C46.1521 15.2249 45.1383 16.3571 43.7666 16.3571C42.5142 16.3571 41.3811 15.3441 41.3811 13.9736C41.3811 12.7223 42.3949 11.5901 43.7666 11.5901C45.1383 11.5901 46.1521 12.5733 46.1521 13.9736Z" fill="white"/>
<path opacity="0.3" d="M52.5334 13.9736C52.5334 15.2249 51.5196 16.3571 50.1479 16.3571C48.8956 16.3571 47.7625 15.3441 47.7625 13.9736C47.7625 12.7223 48.7763 11.5901 50.1479 11.5901C51.5196 11.5901 52.5334 12.5733 52.5334 13.9736Z" fill="white"/>
<path opacity="0.3" d="M39.771 19.7537C39.771 21.005 38.7572 22.1372 37.3855 22.1372C36.1331 22.1372 35 21.1242 35 19.7537C35 18.5023 36.0138 17.3701 37.3855 17.3701C38.7572 17.3701 39.771 18.3831 39.771 19.7537Z" fill="white"/>
<path opacity="0.3" d="M46.1521 19.7537C46.1521 21.005 45.1383 22.1372 43.7666 22.1372C42.5142 22.1372 41.3811 21.1242 41.3811 19.7537C41.3811 18.5023 42.3949 17.3701 43.7666 17.3701C45.1383 17.3701 46.1521 18.3831 46.1521 19.7537Z" fill="white"/>
<path opacity="0.3" d="M52.5334 19.7537C52.5334 21.005 51.5196 22.1372 50.1479 22.1372C48.8956 22.1372 47.7625 21.1242 47.7625 19.7537C47.7625 18.5023 48.7763 17.3701 50.1479 17.3701C51.5196 17.3701 52.5334 18.3831 52.5334 19.7537Z" fill="white"/>
<path opacity="0.3" d="M58.9146 19.7537C58.9146 21.005 57.9008 22.1372 56.5291 22.1372C55.2767 22.1372 54.1436 21.1242 54.1436 19.7537C54.1436 18.5023 55.1574 17.3701 56.5291 17.3701C57.9306 17.3701 58.9146 18.3831 58.9146 19.7537Z" fill="white"/>
<path opacity="0.3" d="M65.2959 19.7537C65.2959 21.005 64.2821 22.1372 62.9104 22.1372C61.658 22.1372 60.5249 21.1242 60.5249 19.7537C60.5249 18.5023 61.5387 17.3701 62.9104 17.3701C64.3119 17.3701 65.2959 18.3831 65.2959 19.7537Z" fill="white"/>
<path opacity="0.3" d="M71.6771 19.7537C71.6771 21.005 70.6632 22.1372 69.2915 22.1372C68.0391 22.1372 66.906 21.1242 66.906 19.7537C66.906 18.5023 67.9199 17.3701 69.2915 17.3701C70.6632 17.3701 71.6771 18.3831 71.6771 19.7537Z" fill="white"/>
<path opacity="0.3" d="M39.771 25.5339C39.771 26.7853 38.7572 27.9175 37.3855 27.9175C36.1331 27.9175 35 26.9045 35 25.5339C35 24.2826 36.0138 23.1504 37.3855 23.1504C38.7572 23.1504 39.771 24.1634 39.771 25.5339Z" fill="white"/>
<path opacity="0.3" d="M46.1521 25.5339C46.1521 26.7853 45.1383 27.9175 43.7666 27.9175C42.5142 27.9175 41.3811 26.9045 41.3811 25.5339C41.3811 24.2826 42.3949 23.1504 43.7666 23.1504C45.1383 23.1504 46.1521 24.1634 46.1521 25.5339Z" fill="white"/>
<path opacity="0.3" d="M52.5334 25.5339C52.5334 26.7853 51.5196 27.9175 50.1479 27.9175C48.8956 27.9175 47.7625 26.9045 47.7625 25.5339C47.7625 24.2826 48.7763 23.1504 50.1479 23.1504C51.5196 23.1504 52.5334 24.1634 52.5334 25.5339Z" fill="white"/>
<path opacity="0.3" d="M58.9146 25.5339C58.9146 26.7853 57.9008 27.9175 56.5291 27.9175C55.2767 27.9175 54.1436 26.9045 54.1436 25.5339C54.1436 24.2826 55.1574 23.1504 56.5291 23.1504C57.9306 23.1504 58.9146 24.1634 58.9146 25.5339Z" fill="white"/>
<path opacity="0.3" d="M65.2959 25.5339C65.2959 26.7853 64.2821 27.9175 62.9104 27.9175C61.658 27.9175 60.5249 26.9045 60.5249 25.5339C60.5249 24.2826 61.5387 23.1504 62.9104 23.1504C64.3119 23.1504 65.2959 24.1634 65.2959 25.5339Z" fill="white"/>
<path opacity="0.3" d="M71.6771 25.5339C71.6771 26.7853 70.6632 27.9175 69.2915 27.9175C68.0391 27.9175 66.906 26.9045 66.906 25.5339C66.906 24.2826 67.9199 23.1504 69.2915 23.1504C70.6632 23.1504 71.6771 24.1634 71.6771 25.5339Z" fill="white"/>
<path opacity="0.3" d="M65.2959 31.314C65.2959 32.5653 64.2821 33.6975 62.9104 33.6975C61.658 33.6975 60.5249 32.6845 60.5249 31.314C60.5249 30.0626 61.5387 28.9304 62.9104 28.9304C64.3119 28.9304 65.2959 29.9434 65.2959 31.314Z" fill="white"/>
<path opacity="0.3" d="M71.6771 31.314C71.6771 32.5653 70.6632 33.6975 69.2915 33.6975C68.0391 33.6975 66.906 32.6845 66.906 31.314C66.906 30.0626 67.9199 28.9304 69.2915 28.9304C70.6632 28.9304 71.6771 29.9434 71.6771 31.314Z" fill="white"/>
<path opacity="0.3" d="M65.2959 37.094C65.2959 38.3454 64.2821 39.4775 62.9104 39.4775C61.658 39.4775 60.5249 38.4645 60.5249 37.094C60.5249 35.8426 61.5387 34.7104 62.9104 34.7104C64.3119 34.7402 65.2959 35.7235 65.2959 37.094Z" fill="white"/>
<path opacity="0.3" d="M71.6771 37.094C71.6771 38.3454 70.6632 39.4775 69.2915 39.4775C68.0391 39.4775 66.906 38.4645 66.906 37.094C66.906 35.8426 67.9199 34.7104 69.2915 34.7104C70.6632 34.7402 71.6771 35.7235 71.6771 37.094Z" fill="white"/>
<path opacity="0.3" d="M65.2959 42.8741C65.2959 44.1254 64.2821 45.2576 62.9104 45.2576C61.658 45.2576 60.5249 44.2446 60.5249 42.8741C60.5249 41.6227 61.5387 40.4905 62.9104 40.4905C64.3119 40.5203 65.2959 41.5035 65.2959 42.8741Z" fill="white"/>
<path opacity="0.3" d="M71.6771 42.8741C71.6771 44.1254 70.6632 45.2576 69.2915 45.2576C68.0391 45.2576 66.906 44.2446 66.906 42.8741C66.906 41.6227 67.9199 40.4905 69.2915 40.4905C70.6632 40.5203 71.6771 41.5035 71.6771 42.8741Z" fill="white"/>
<path opacity="0.3" d="M65.2959 48.6841C65.2959 49.9354 64.2821 51.0676 62.9104 51.0676C61.658 51.0676 60.5249 50.0546 60.5249 48.6841C60.5249 47.4327 61.5387 46.3005 62.9104 46.3005C64.3119 46.3005 65.2959 47.2837 65.2959 48.6841Z" fill="white"/>
<path opacity="0.3" d="M71.6771 48.6841C71.6771 49.9354 70.6632 51.0676 69.2915 51.0676C68.0391 51.0676 66.906 50.0546 66.906 48.6841C66.906 47.4327 67.9199 46.3005 69.2915 46.3005C70.6632 46.3005 71.6771 47.2837 71.6771 48.6841Z" fill="white"/>
<path opacity="0.3" d="M65.2959 54.4642C65.2959 55.7156 64.2821 56.8478 62.9104 56.8478C61.658 56.8478 60.5249 55.8347 60.5249 54.4642C60.5249 53.2128 61.5387 52.0806 62.9104 52.0806C64.3119 52.0806 65.2959 53.0936 65.2959 54.4642Z" fill="white"/>
<path opacity="0.3" d="M71.6771 54.4642C71.6771 55.7156 70.6632 56.8478 69.2915 56.8478C68.0391 56.8478 66.906 55.8347 66.906 54.4642C66.906 53.2128 67.9199 52.0806 69.2915 52.0806C70.6632 52.0806 71.6771 53.0936 71.6771 54.4642Z" fill="white"/>
<path opacity="0.3" d="M65.2959 60.2444C65.2959 61.4957 64.2821 62.6279 62.9104 62.6279C61.658 62.6279 60.5249 61.6149 60.5249 60.2444C60.5249 58.993 61.5387 57.8608 62.9104 57.8608C64.3119 57.8608 65.2959 58.8738 65.2959 60.2444Z" fill="white"/>
<path opacity="0.3" d="M71.6771 60.2444C71.6771 61.4957 70.6632 62.6279 69.2915 62.6279C68.0391 62.6279 66.906 61.6149 66.906 60.2444C66.906 58.993 67.9199 57.8608 69.2915 57.8608C70.6632 57.8608 71.6771 58.8738 71.6771 60.2444Z" fill="white"/>
<path opacity="0.3" d="M65.2959 66.0242C65.2959 67.2756 64.2821 68.4078 62.9104 68.4078C61.658 68.4078 60.5249 67.3948 60.5249 66.0242C60.5249 64.7728 61.5387 63.6406 62.9104 63.6406C64.3119 63.6406 65.2959 64.6537 65.2959 66.0242Z" fill="white"/>
<path opacity="0.3" d="M71.6771 66.0242C71.6771 67.2756 70.6632 68.4078 69.2915 68.4078C68.0391 68.4078 66.906 67.3948 66.906 66.0242C66.906 64.7728 67.9199 63.6406 69.2915 63.6406C70.6632 63.6406 71.6771 64.6537 71.6771 66.0242Z" fill="white"/>
</g>
</svg>
