<svg width="58" height="69" viewBox="0 0 58 69" fill="none" xmlns="http://www.w3.org/2000/svg">
<g opacity="0.3">
<path opacity="0.3" d="M25.6743 2.68555C25.6743 3.93691 24.6605 5.06909 23.2888 5.06909C22.0364 5.06909 20.9033 4.05609 20.9033 2.68555C20.9033 1.43419 21.9172 0.302002 23.2888 0.302002C24.6605 0.302002 25.6743 1.31501 25.6743 2.68555Z" fill="#064750"/>
<path opacity="0.3" d="M32.0547 2.68555C32.0547 3.93691 31.0409 5.06909 29.6692 5.06909C28.4168 5.06909 27.2837 4.05609 27.2837 2.68555C27.2837 1.43419 28.2975 0.302002 29.6692 0.302002C31.0409 0.302002 32.0547 1.31501 32.0547 2.68555Z" fill="#064750"/>
<path opacity="0.3" d="M38.436 2.68555C38.436 3.93691 37.4222 5.06909 36.0505 5.06909C34.7982 5.06909 33.665 4.05609 33.665 2.68555C33.665 1.43419 34.6789 0.302002 36.0505 0.302002C37.4222 0.302002 38.436 1.31501 38.436 2.68555Z" fill="#064750"/>
<path opacity="0.3" d="M25.6738 8.46567C25.6738 9.71701 24.66 10.8492 23.2883 10.8492C22.0359 10.8492 20.9028 9.83619 20.9028 8.46567C20.9028 7.21432 21.9167 6.08215 23.2883 6.08215C24.66 6.08215 25.6738 7.09515 25.6738 8.46567Z" fill="#064750"/>
<path opacity="0.3" d="M32.0552 8.46567C32.0552 9.71701 31.0413 10.8492 29.6697 10.8492C28.4173 10.8492 27.2842 9.83619 27.2842 8.46567C27.2842 7.21432 28.298 6.08215 29.6697 6.08215C31.0413 6.08215 32.0552 7.09515 32.0552 8.46567Z" fill="#064750"/>
<path opacity="0.3" d="M38.4365 8.46567C38.4365 9.71701 37.4227 10.8492 36.051 10.8492C34.7986 10.8492 33.6655 9.83619 33.6655 8.46567C33.6655 7.21432 34.6794 6.08215 36.051 6.08215C37.4227 6.08215 38.4365 7.09515 38.4365 8.46567Z" fill="#064750"/>
<path opacity="0.3" d="M25.6738 14.2756C25.6738 15.5269 24.66 16.6591 23.2883 16.6591C22.0359 16.6591 20.9028 15.6461 20.9028 14.2756C20.9028 13.0243 21.9167 11.8921 23.2883 11.8921C24.66 11.8921 25.6738 12.8753 25.6738 14.2756Z" fill="#064750"/>
<path opacity="0.3" d="M32.0552 14.2756C32.0552 15.5269 31.0413 16.6591 29.6697 16.6591C28.4173 16.6591 27.2842 15.6461 27.2842 14.2756C27.2842 13.0243 28.298 11.8921 29.6697 11.8921C31.0413 11.8921 32.0552 12.8753 32.0552 14.2756Z" fill="#064750"/>
<path opacity="0.3" d="M38.4365 14.2756C38.4365 15.5269 37.4227 16.6591 36.051 16.6591C34.7986 16.6591 33.6655 15.6461 33.6655 14.2756C33.6655 13.0243 34.6794 11.8921 36.051 11.8921C37.4227 11.8921 38.4365 12.8753 38.4365 14.2756Z" fill="#064750"/>
<path opacity="0.3" d="M25.6738 20.0557C25.6738 21.307 24.66 22.4392 23.2883 22.4392C22.0359 22.4392 20.9028 21.4262 20.9028 20.0557C20.9028 18.8043 21.9167 17.6721 23.2883 17.6721C24.66 17.6721 25.6738 18.6851 25.6738 20.0557Z" fill="#064750"/>
<path opacity="0.3" d="M32.0552 20.0557C32.0552 21.307 31.0413 22.4392 29.6697 22.4392C28.4173 22.4392 27.2842 21.4262 27.2842 20.0557C27.2842 18.8043 28.298 17.6721 29.6697 17.6721C31.0413 17.6721 32.0552 18.6851 32.0552 20.0557Z" fill="#064750"/>
<path opacity="0.3" d="M38.4365 20.0557C38.4365 21.307 37.4227 22.4392 36.051 22.4392C34.7986 22.4392 33.6655 21.4262 33.6655 20.0557C33.6655 18.8043 34.6794 17.6721 36.051 17.6721C37.4227 17.6721 38.4365 18.6851 38.4365 20.0557Z" fill="#064750"/>
<path opacity="0.3" d="M44.8174 20.0557C44.8174 21.307 43.8036 22.4392 42.4319 22.4392C41.1795 22.4392 40.0464 21.4262 40.0464 20.0557C40.0464 18.8043 41.0602 17.6721 42.4319 17.6721C43.8334 17.6721 44.8174 18.6851 44.8174 20.0557Z" fill="#064750"/>
<path opacity="0.3" d="M51.1987 20.0557C51.1987 21.307 50.1849 22.4392 48.8132 22.4392C47.5609 22.4392 46.4277 21.4262 46.4277 20.0557C46.4277 18.8043 47.4416 17.6721 48.8132 17.6721C50.2147 17.6721 51.1987 18.6851 51.1987 20.0557Z" fill="#064750"/>
<path opacity="0.3" d="M57.5797 20.0557C57.5797 21.307 56.5658 22.4392 55.1941 22.4392C53.9417 22.4392 52.8086 21.4262 52.8086 20.0557C52.8086 18.8043 53.8224 17.6721 55.1941 17.6721C56.5658 17.6721 57.5797 18.6851 57.5797 20.0557Z" fill="#064750"/>
<path opacity="0.3" d="M25.6738 25.8358C25.6738 27.0872 24.66 28.2194 23.2883 28.2194C22.0359 28.2194 20.9028 27.2064 20.9028 25.8358C20.9028 24.5845 21.9167 23.4523 23.2883 23.4523C24.66 23.4523 25.6738 24.4653 25.6738 25.8358Z" fill="#064750"/>
<path opacity="0.3" d="M32.0552 25.8358C32.0552 27.0872 31.0413 28.2194 29.6697 28.2194C28.4173 28.2194 27.2842 27.2064 27.2842 25.8358C27.2842 24.5845 28.298 23.4523 29.6697 23.4523C31.0413 23.4523 32.0552 24.4653 32.0552 25.8358Z" fill="#064750"/>
<path opacity="0.3" d="M38.4365 25.8358C38.4365 27.0872 37.4227 28.2194 36.051 28.2194C34.7986 28.2194 33.6655 27.2064 33.6655 25.8358C33.6655 24.5845 34.6794 23.4523 36.051 23.4523C37.4227 23.4523 38.4365 24.4653 38.4365 25.8358Z" fill="#064750"/>
<path opacity="0.3" d="M44.8174 25.8358C44.8174 27.0872 43.8036 28.2194 42.4319 28.2194C41.1795 28.2194 40.0464 27.2064 40.0464 25.8358C40.0464 24.5845 41.0602 23.4523 42.4319 23.4523C43.8334 23.4523 44.8174 24.4653 44.8174 25.8358Z" fill="#064750"/>
<path opacity="0.3" d="M51.1987 25.8358C51.1987 27.0872 50.1849 28.2194 48.8132 28.2194C47.5609 28.2194 46.4277 27.2064 46.4277 25.8358C46.4277 24.5845 47.4416 23.4523 48.8132 23.4523C50.2147 23.4523 51.1987 24.4653 51.1987 25.8358Z" fill="#064750"/>
<path opacity="0.3" d="M57.5797 25.8358C57.5797 27.0872 56.5658 28.2194 55.1941 28.2194C53.9417 28.2194 52.8086 27.2064 52.8086 25.8358C52.8086 24.5845 53.8224 23.4523 55.1941 23.4523C56.5658 23.4523 57.5797 24.4653 57.5797 25.8358Z" fill="#064750"/>
<path opacity="0.3" d="M51.1987 31.616C51.1987 32.8673 50.1849 33.9995 48.8132 33.9995C47.5609 33.9995 46.4277 32.9865 46.4277 31.616C46.4277 30.3646 47.4416 29.2324 48.8132 29.2324C50.2147 29.2324 51.1987 30.2454 51.1987 31.616Z" fill="#064750"/>
<path opacity="0.3" d="M57.5797 31.616C57.5797 32.8673 56.5658 33.9995 55.1941 33.9995C53.9417 33.9995 52.8086 32.9865 52.8086 31.616C52.8086 30.3646 53.8224 29.2324 55.1941 29.2324C56.5658 29.2324 57.5797 30.2454 57.5797 31.616Z" fill="#064750"/>
<path opacity="0.3" d="M51.1987 37.396C51.1987 38.6474 50.1849 39.7795 48.8132 39.7795C47.5609 39.7795 46.4277 38.7665 46.4277 37.396C46.4277 36.1446 47.4416 35.0125 48.8132 35.0125C50.2147 35.0422 51.1987 36.0255 51.1987 37.396Z" fill="#064750"/>
<path opacity="0.3" d="M57.5797 37.396C57.5797 38.6474 56.5658 39.7795 55.1941 39.7795C53.9417 39.7795 52.8086 38.7665 52.8086 37.396C52.8086 36.1446 53.8224 35.0125 55.1941 35.0125C56.5658 35.0422 57.5797 36.0255 57.5797 37.396Z" fill="#064750"/>
<path opacity="0.3" d="M51.1987 43.1761C51.1987 44.4274 50.1849 45.5596 48.8132 45.5596C47.5609 45.5596 46.4277 44.5466 46.4277 43.1761C46.4277 41.9247 47.4416 40.7925 48.8132 40.7925C50.2147 40.8223 51.1987 41.8055 51.1987 43.1761Z" fill="#064750"/>
<path opacity="0.3" d="M57.5797 43.1761C57.5797 44.4274 56.5658 45.5596 55.1941 45.5596C53.9417 45.5596 52.8086 44.5466 52.8086 43.1761C52.8086 41.9247 53.8224 40.7925 55.1941 40.7925C56.5658 40.8223 57.5797 41.8055 57.5797 43.1761Z" fill="#064750"/>
<path opacity="0.3" d="M51.1987 48.9861C51.1987 50.2374 50.1849 51.3696 48.8132 51.3696C47.5609 51.3696 46.4277 50.3566 46.4277 48.9861C46.4277 47.7347 47.4416 46.6025 48.8132 46.6025C50.2147 46.6025 51.1987 47.5858 51.1987 48.9861Z" fill="#064750"/>
<path opacity="0.3" d="M57.5797 48.9861C57.5797 50.2374 56.5658 51.3696 55.1941 51.3696C53.9417 51.3696 52.8086 50.3566 52.8086 48.9861C52.8086 47.7347 53.8224 46.6025 55.1941 46.6025C56.5658 46.6025 57.5797 47.5858 57.5797 48.9861Z" fill="#064750"/>
<path opacity="0.3" d="M51.1987 54.7662C51.1987 56.0176 50.1849 57.1498 48.8132 57.1498C47.5609 57.1498 46.4277 56.1367 46.4277 54.7662C46.4277 53.5148 47.4416 52.3826 48.8132 52.3826C50.2147 52.3826 51.1987 53.3956 51.1987 54.7662Z" fill="#064750"/>
<path opacity="0.3" d="M57.5797 54.7662C57.5797 56.0176 56.5658 57.1498 55.1941 57.1498C53.9417 57.1498 52.8086 56.1367 52.8086 54.7662C52.8086 53.5148 53.8224 52.3826 55.1941 52.3826C56.5658 52.3826 57.5797 53.3956 57.5797 54.7662Z" fill="#064750"/>
<path opacity="0.3" d="M51.1987 60.5463C51.1987 61.7976 50.1849 62.9298 48.8132 62.9298C47.5609 62.9298 46.4277 61.9168 46.4277 60.5463C46.4277 59.2949 47.4416 58.1627 48.8132 58.1627C50.2147 58.1627 51.1987 59.1757 51.1987 60.5463Z" fill="#064750"/>
<path opacity="0.3" d="M57.5797 60.5463C57.5797 61.7976 56.5658 62.9298 55.1941 62.9298C53.9417 62.9298 52.8086 61.9168 52.8086 60.5463C52.8086 59.2949 53.8224 58.1627 55.1941 58.1627C56.5658 58.1627 57.5797 59.1757 57.5797 60.5463Z" fill="#064750"/>
<path opacity="0.3" d="M51.1987 66.3264C51.1987 67.5777 50.1849 68.71 48.8132 68.71C47.5609 68.71 46.4277 67.6969 46.4277 66.3264C46.4277 65.075 47.4416 63.9427 48.8132 63.9427C50.2147 63.9427 51.1987 64.9558 51.1987 66.3264Z" fill="#064750"/>
<path opacity="0.3" d="M57.5797 66.3264C57.5797 67.5777 56.5658 68.71 55.1941 68.71C53.9417 68.71 52.8086 67.6969 52.8086 66.3264C52.8086 65.075 53.8224 63.9427 55.1941 63.9427C56.5658 63.9427 57.5797 64.9558 57.5797 66.3264Z" fill="#064750"/>
</g>
<path d="M33.5161 20.2648C33.4266 19.9965 33.3074 19.7281 33.1881 19.4597C33.1583 19.6983 33.1285 19.9666 33.0986 20.2052L33.5161 20.2648Z" fill="#064750"/>
<path d="M13.8952 11.3259C15.9228 9.00195 18.9047 7.54201 22.2146 7.54201C25.7034 7.54201 28.8046 9.18071 30.8323 11.7133C32.7407 13.0242 34.3211 14.7523 35.484 16.7485C34.5894 10.2235 28.9835 5.15845 22.1848 5.15845C15.6247 5.15845 10.138 9.89578 9.00488 16.1526C10.2573 14.216 11.9271 12.5475 13.8952 11.3259Z" fill="#064750"/>
<path d="M41.4482 67.5778H2.65387C1.19275 67.5778 0 66.386 0 64.9261V32.6886C0 31.2286 1.19275 30.0369 2.65387 30.0369H6.82851V32.4204H2.65387C2.50478 32.4204 2.38551 32.5396 2.38551 32.6886V64.8963C2.38551 65.0452 2.50478 65.1644 2.65387 65.1644H41.4482C41.5973 65.1644 41.7165 65.0452 41.7165 64.8963V32.6886C41.7165 32.5396 41.5973 32.4204 41.4482 32.4204H37.3928V30.0369H41.4482C42.9093 30.0369 44.1021 31.2286 44.1021 32.6886V64.8963C44.1021 66.386 42.9093 67.5778 41.4482 67.5778Z" fill="#064750"/>
<path d="M33.5759 27.1464C33.4268 26.7592 33.2777 26.3719 33.0988 25.9847C33.0392 26.3124 32.9796 26.64 32.9199 26.9677L33.5759 27.1464Z" fill="#064750"/>
<path d="M11.4503 27.0272C11.331 26.5506 11.2714 26.074 11.2118 25.5676C10.9434 26.1038 10.675 26.6697 10.4961 27.2654L11.4503 27.0272Z" fill="#064750"/>
<path d="M12.6727 18.9235C14.5811 15.6461 18.1296 13.4413 22.2148 13.4413C26.4192 13.4413 30.0869 15.8248 31.9655 19.281C33.4266 20.5026 34.679 21.9923 35.6332 23.6608C35.2158 16.6293 29.3713 11.0577 22.2446 11.0577C15.2968 11.0577 9.57158 16.3611 8.88574 23.1543C9.83994 21.5156 11.152 20.0854 12.6727 18.9235Z" fill="#064750"/>
<path d="M22.0659 44.6361C14.6709 44.6361 8.64746 38.6176 8.64746 31.2286C8.64746 23.8395 14.6709 17.821 22.0659 17.821C29.461 17.821 35.4844 23.8395 35.4844 31.2286C35.4844 38.6176 29.461 44.6361 22.0659 44.6361ZM22.0659 20.2046C15.9829 20.2046 11.033 25.1505 11.033 31.2286C11.033 37.3067 15.9829 42.2525 22.0659 42.2525C28.149 42.2525 33.0989 37.3067 33.0989 31.2286C33.0989 25.1505 28.149 20.2046 22.0659 20.2046Z" fill="#064750"/>
<path d="M26.9857 33.3135C26.9857 33.8498 26.8664 34.2967 26.6576 34.6543C26.4489 35.0118 26.1507 35.3097 25.8227 35.5183C25.4649 35.7269 25.0772 35.9056 24.63 35.995C24.1827 36.0844 23.7354 36.144 23.2583 36.144H19.3521V26.3715H23.2583C23.646 26.3715 24.0336 26.4013 24.4212 26.4906C24.8089 26.58 25.1667 26.6992 25.4947 26.878C25.8227 27.0567 26.0911 27.3249 26.27 27.6526C26.4787 27.9804 26.5682 28.3975 26.5682 28.8742C26.5682 29.4105 26.4191 29.8574 26.1209 30.2149C25.8227 30.5725 25.4351 30.8108 24.958 30.9896V31.0194C25.2263 31.079 25.4947 31.1385 25.7333 31.2875C25.9718 31.4067 26.1805 31.5557 26.3595 31.7642C26.5384 31.943 26.6875 32.1813 26.7769 32.4495C26.9558 32.6878 26.9857 32.9858 26.9857 33.3135ZM24.3318 29.2019C24.3318 28.8742 24.2125 28.6358 23.9441 28.4869C23.7056 28.3379 23.3179 28.2485 22.811 28.2485H21.6481V30.2745H22.9303C23.3776 30.2745 23.7056 30.1851 23.9441 30.0064C24.1827 29.8276 24.3318 29.5594 24.3318 29.2019ZM24.63 33.0752C24.63 32.6581 24.4809 32.3899 24.1827 32.2409C23.8845 32.092 23.467 32.0026 22.9601 32.0026H21.6481V34.2371H22.9601C23.139 34.2371 23.3478 34.2074 23.5267 34.1776C23.7354 34.1478 23.9143 34.0882 24.0634 33.9988C24.2125 33.9094 24.3616 33.7902 24.4511 33.6413C24.5703 33.5221 24.63 33.3135 24.63 33.0752Z" fill="#064750"/>
<path d="M22.99 26.3715H17.1157V28.248H22.99V26.3715Z" fill="#064750"/>
<path d="M21.6675 30.2635V24.394H19.4012V30.2635H21.6675Z" fill="#064750"/>
<path d="M22.99 34.2377H17.1157V36.144H22.99V34.2377Z" fill="#064750"/>
<path d="M21.647 38.1385V32.269H19.3807V38.1385H21.647Z" fill="#064750"/>
<path d="M34.2913 60.6953H9.83984V63.0782H34.2913V60.6953Z" fill="#064750"/>
<path d="M34.2913 56.375H9.83984V58.7579H34.2913V56.375Z" fill="#064750"/>
<path d="M34.2913 52.0845H9.83984V54.4674H34.2913V52.0845Z" fill="#064750"/>
<path d="M34.2913 47.7942H9.83984V50.1771H34.2913V47.7942Z" fill="#064750"/>
</svg>
