<svg width="48" height="69" viewBox="0 0 48 69" fill="none" xmlns="http://www.w3.org/2000/svg">
<g opacity="0.3">
<path opacity="0.3" d="M4.77103 2.75034C4.77103 4.00168 3.75718 5.13385 2.38551 5.13385C1.13312 5.13385 0 4.12086 0 2.75034C0 1.49899 1.01384 0.366821 2.38551 0.366821C3.787 0.366821 4.77103 1.37981 4.77103 2.75034Z" fill="#064750"/>
<path opacity="0.3" d="M11.1519 2.75034C11.1519 4.00168 10.138 5.13385 8.76636 5.13385C7.51397 5.13385 6.38086 4.12086 6.38086 2.75034C6.38086 1.49899 7.3947 0.366821 8.76636 0.366821C10.1678 0.366821 11.1519 1.37981 11.1519 2.75034Z" fill="#064750"/>
<path opacity="0.3" d="M17.5332 2.75034C17.5332 4.00168 16.5194 5.13385 15.1477 5.13385C13.8953 5.13385 12.7622 4.12086 12.7622 2.75034C12.7622 1.49899 13.776 0.366821 15.1477 0.366821C16.5492 0.366821 17.5332 1.37981 17.5332 2.75034Z" fill="#064750"/>
<path opacity="0.3" d="M4.77103 8.53052C4.77103 9.78188 3.75718 10.9141 2.38551 10.9141C1.13312 10.9141 0 9.90106 0 8.53052C0 7.27916 1.01384 6.14697 2.38551 6.14697C3.787 6.14697 4.77103 7.15998 4.77103 8.53052Z" fill="#064750"/>
<path opacity="0.3" d="M11.1519 8.53052C11.1519 9.78188 10.138 10.9141 8.76636 10.9141C7.51397 10.9141 6.38086 9.90106 6.38086 8.53052C6.38086 7.27916 7.3947 6.14697 8.76636 6.14697C10.1678 6.14697 11.1519 7.15998 11.1519 8.53052Z" fill="#064750"/>
<path opacity="0.3" d="M17.5337 8.53052C17.5337 9.78188 16.5199 10.9141 15.1482 10.9141C13.8958 10.9141 12.7627 9.90106 12.7627 8.53052C12.7627 7.27916 13.7765 6.14697 15.1482 6.14697C16.5497 6.14697 17.5337 7.15998 17.5337 8.53052Z" fill="#064750"/>
<path opacity="0.3" d="M4.77103 14.3105C4.77103 15.5619 3.75718 16.6941 2.38551 16.6941C1.13312 16.6941 0 15.6811 0 14.3105C0 13.0592 1.01384 11.927 2.38551 11.927C3.787 11.927 4.77103 12.94 4.77103 14.3105Z" fill="#064750"/>
<path opacity="0.3" d="M11.1519 14.3105C11.1519 15.5619 10.138 16.6941 8.76636 16.6941C7.51397 16.6941 6.38086 15.6811 6.38086 14.3105C6.38086 13.0592 7.3947 11.927 8.76636 11.927C10.1678 11.927 11.1519 12.94 11.1519 14.3105Z" fill="#064750"/>
<path opacity="0.3" d="M17.5337 14.3105C17.5337 15.5619 16.5199 16.6941 15.1482 16.6941C13.8958 16.6941 12.7627 15.6811 12.7627 14.3105C12.7627 13.0592 13.7765 11.927 15.1482 11.927C16.5497 11.927 17.5337 12.94 17.5337 14.3105Z" fill="#064750"/>
<path opacity="0.3" d="M4.77103 20.0907C4.77103 21.342 3.75718 22.4742 2.38551 22.4742C1.13312 22.4742 0 21.4612 0 20.0907C0 18.8393 1.01384 17.7072 2.38551 17.7072C3.787 17.7369 4.77103 18.7201 4.77103 20.0907Z" fill="#064750"/>
<path opacity="0.3" d="M11.1519 20.0907C11.1519 21.342 10.138 22.4742 8.76636 22.4742C7.51397 22.4742 6.38086 21.4612 6.38086 20.0907C6.38086 18.8393 7.3947 17.7072 8.76636 17.7072C10.1678 17.7369 11.1519 18.7201 11.1519 20.0907Z" fill="#064750"/>
<path opacity="0.3" d="M4.77103 25.8708C4.77103 27.1222 3.75718 28.2544 2.38551 28.2544C1.13312 28.2544 0 27.2414 0 25.8708C0 24.6194 1.01384 23.4872 2.38551 23.4872C3.787 23.517 4.77103 24.5002 4.77103 25.8708Z" fill="#064750"/>
<path opacity="0.3" d="M11.1519 25.8708C11.1519 27.1222 10.138 28.2544 8.76636 28.2544C7.51397 28.2544 6.38086 27.2414 6.38086 25.8708C6.38086 24.6194 7.3947 23.4872 8.76636 23.4872C10.1678 23.517 11.1519 24.5002 11.1519 25.8708Z" fill="#064750"/>
<path opacity="0.3" d="M4.77103 31.6509C4.77103 32.9022 3.75718 34.0344 2.38551 34.0344C1.13312 34.0344 0 33.0214 0 31.6509C0 30.3995 1.01384 29.2673 2.38551 29.2673C3.787 29.2971 4.77103 30.2803 4.77103 31.6509Z" fill="#064750"/>
<path opacity="0.3" d="M11.1519 31.6509C11.1519 32.9022 10.138 34.0344 8.76636 34.0344C7.51397 34.0344 6.38086 33.0214 6.38086 31.6509C6.38086 30.3995 7.3947 29.2673 8.76636 29.2673C10.1678 29.2971 11.1519 30.2803 11.1519 31.6509Z" fill="#064750"/>
<path opacity="0.3" d="M4.77103 37.4608C4.77103 38.7122 3.75718 39.8444 2.38551 39.8444C1.13312 39.8444 0 38.8314 0 37.4608C0 36.2095 1.01384 35.0773 2.38551 35.0773C3.787 35.0773 4.77103 36.0903 4.77103 37.4608Z" fill="#064750"/>
<path opacity="0.3" d="M11.1519 37.4608C11.1519 38.7122 10.138 39.8444 8.76636 39.8444C7.51397 39.8444 6.38086 38.8314 6.38086 37.4608C6.38086 36.2095 7.3947 35.0773 8.76636 35.0773C10.1678 35.0773 11.1519 36.0903 11.1519 37.4608Z" fill="#064750"/>
<path opacity="0.3" d="M17.5337 37.4608C17.5337 38.7122 16.5199 39.8444 15.1482 39.8444C13.8958 39.8444 12.7627 38.8314 12.7627 37.4608C12.7627 36.2095 13.7765 35.0773 15.1482 35.0773C16.5497 35.0773 17.5337 36.0903 17.5337 37.4608Z" fill="#064750"/>
<path opacity="0.3" d="M4.77103 43.2409C4.77103 44.4923 3.75718 45.6245 2.38551 45.6245C1.13312 45.6245 0 44.6115 0 43.2409C0 41.9896 1.01384 40.8574 2.38551 40.8574C3.787 40.8574 4.77103 41.8704 4.77103 43.2409Z" fill="#064750"/>
<path opacity="0.3" d="M11.1519 43.2409C11.1519 44.4923 10.138 45.6245 8.76636 45.6245C7.51397 45.6245 6.38086 44.6115 6.38086 43.2409C6.38086 41.9896 7.3947 40.8574 8.76636 40.8574C10.1678 40.8574 11.1519 41.8704 11.1519 43.2409Z" fill="#064750"/>
<path opacity="0.3" d="M17.5337 43.2409C17.5337 44.4923 16.5199 45.6245 15.1482 45.6245C13.8958 45.6245 12.7627 44.6115 12.7627 43.2409C12.7627 41.9896 13.7765 40.8574 15.1482 40.8574C16.5497 40.8574 17.5337 41.8704 17.5337 43.2409Z" fill="#064750"/>
<path opacity="0.3" d="M23.9146 43.2409C23.9146 44.4923 22.9007 45.6245 21.5291 45.6245C20.2767 45.6245 19.1436 44.6115 19.1436 43.2409C19.1436 41.9896 20.1574 40.8574 21.5291 40.8574C22.9306 40.8574 23.9146 41.8704 23.9146 43.2409Z" fill="#064750"/>
<path opacity="0.3" d="M4.77103 49.021C4.77103 50.2724 3.75718 51.4045 2.38551 51.4045C1.13312 51.4045 0 50.3915 0 49.021C0 47.7696 1.01384 46.6375 2.38551 46.6375C3.787 46.6375 4.77103 47.6505 4.77103 49.021Z" fill="#064750"/>
<path opacity="0.3" d="M11.1519 49.021C11.1519 50.2724 10.138 51.4045 8.76636 51.4045C7.51397 51.4045 6.38086 50.3915 6.38086 49.021C6.38086 47.7696 7.3947 46.6375 8.76636 46.6375C10.1678 46.6375 11.1519 47.6505 11.1519 49.021Z" fill="#064750"/>
<path opacity="0.3" d="M17.5337 49.021C17.5337 50.2724 16.5199 51.4045 15.1482 51.4045C13.8958 51.4045 12.7627 50.3915 12.7627 49.021C12.7627 47.7696 13.7765 46.6375 15.1482 46.6375C16.5497 46.6375 17.5337 47.6505 17.5337 49.021Z" fill="#064750"/>
<path opacity="0.3" d="M23.9146 49.021C23.9146 50.2724 22.9007 51.4045 21.5291 51.4045C20.2767 51.4045 19.1436 50.3915 19.1436 49.021C19.1436 47.7696 20.1574 46.6375 21.5291 46.6375C22.9306 46.6375 23.9146 47.6505 23.9146 49.021Z" fill="#064750"/>
<path opacity="0.3" d="M30.2959 49.021C30.2959 50.2724 29.2821 51.4045 27.9104 51.4045C26.658 51.4045 25.5249 50.3915 25.5249 49.021C25.5249 47.7696 26.5387 46.6375 27.9104 46.6375C29.2821 46.6375 30.2959 47.6505 30.2959 49.021Z" fill="#064750"/>
<path opacity="0.3" d="M23.9146 54.8011C23.9146 56.0525 22.9007 57.1847 21.5291 57.1847C20.2767 57.1847 19.1436 56.1717 19.1436 54.8011C19.1436 53.5498 20.1574 52.4176 21.5291 52.4176C22.9306 52.4474 23.9146 53.4306 23.9146 54.8011Z" fill="#064750"/>
<path opacity="0.3" d="M30.2959 54.8011C30.2959 56.0525 29.2821 57.1847 27.9104 57.1847C26.658 57.1847 25.5249 56.1717 25.5249 54.8011C25.5249 53.5498 26.5387 52.4176 27.9104 52.4176C29.2821 52.4474 30.2959 53.4306 30.2959 54.8011Z" fill="#064750"/>
<path opacity="0.3" d="M23.9146 60.5813C23.9146 61.8326 22.9007 62.9648 21.5291 62.9648C20.2767 62.9648 19.1436 61.9518 19.1436 60.5813C19.1436 59.3299 20.1574 58.1978 21.5291 58.1978C22.9306 58.2275 23.9146 59.2107 23.9146 60.5813Z" fill="#064750"/>
<path opacity="0.3" d="M30.2959 60.5813C30.2959 61.8326 29.2821 62.9648 27.9104 62.9648C26.658 62.9648 25.5249 61.9518 25.5249 60.5813C25.5249 59.3299 26.5387 58.1978 27.9104 58.1978C29.2821 58.2275 30.2959 59.2107 30.2959 60.5813Z" fill="#064750"/>
<path opacity="0.3" d="M36.6768 60.5813C36.6768 61.8326 35.6629 62.9648 34.2913 62.9648C33.0389 62.9648 31.9058 61.9518 31.9058 60.5813C31.9058 59.3299 32.9196 58.1978 34.2913 58.1978C35.6629 58.2275 36.6768 59.2107 36.6768 60.5813Z" fill="#064750"/>
<path opacity="0.3" d="M30.2959 66.3613C30.2959 67.6127 29.2821 68.7449 27.9104 68.7449C26.658 68.7449 25.5249 67.7319 25.5249 66.3613C25.5249 65.11 26.5387 63.9778 27.9104 63.9778C29.2821 64.0076 30.2959 64.9908 30.2959 66.3613Z" fill="#064750"/>
<path opacity="0.3" d="M36.6768 66.3613C36.6768 67.6127 35.6629 68.7449 34.2913 68.7449C33.0389 68.7449 31.9058 67.7319 31.9058 66.3613C31.9058 65.11 32.9196 63.9778 34.2913 63.9778C35.6629 64.0076 36.6768 64.9908 36.6768 66.3613Z" fill="#064750"/>
</g>
<path d="M25.1971 54.3649H13.2994C11.5699 54.3649 10.1685 52.9645 10.1685 51.2365V34.2537H12.554V51.2365C12.554 51.6536 12.882 51.9813 13.2994 51.9813H25.1971V54.3649Z" fill="#064750"/>
<path d="M47.7104 47.4526H45.3249V10.4182C45.3249 10.0011 44.9968 9.67335 44.5794 9.67335H13.2994C12.882 9.67335 12.554 10.0011 12.554 10.4182V27.401H10.1685V10.4182C10.1685 8.69013 11.5699 7.28979 13.2994 7.28979H44.5794C46.3089 7.28979 47.7104 8.69013 47.7104 10.4182V47.4526Z" fill="#064750"/>
<path d="M29.9684 59.6382C29.4018 59.6382 28.8651 59.4595 28.388 59.1019C27.6723 58.5954 27.2549 57.7612 27.2549 56.8972V16.5556C27.2549 14.7084 28.5073 13.0697 30.2666 12.5632L44.2516 8.54092C45.0865 8.30256 45.9513 8.45154 46.6371 8.98783C47.323 9.52413 47.7106 10.2988 47.7106 11.1628V50.9979C47.7106 52.8153 46.5477 54.3944 44.8182 54.9605L30.7735 59.4893C30.535 59.5787 30.2368 59.6382 29.9684 59.6382ZM44.9971 10.8351C44.9673 10.8351 44.9374 10.8351 44.9076 10.8351L30.9226 14.8573C30.1771 15.0659 29.6404 15.7809 29.6404 16.5556V56.927C29.6404 57.0759 29.7298 57.1653 29.7895 57.1951C29.8491 57.2249 29.9386 57.2845 30.0877 57.2547L44.1323 52.7259C44.8778 52.4876 45.3549 51.8023 45.3549 51.0277V11.1628C45.3549 11.0139 45.2655 10.9245 45.2356 10.8947C45.176 10.8649 45.0865 10.8351 44.9971 10.8351Z" fill="#064750"/>
<path d="M21.0822 29.6355H2.80322V32.0184H21.0822V29.6355Z" fill="#064750"/>
<path d="M17.7129 37.5013L16.0132 35.803L21.0228 30.7975L16.0132 25.792L17.7129 24.0938L23.5574 29.9335C24.0345 30.4102 24.0345 31.1551 23.5574 31.6318L17.7129 37.5013Z" fill="#064750"/>
</svg>
