<svg width="52" height="76" viewBox="0 0 52 76" fill="none" xmlns="http://www.w3.org/2000/svg">
<path d="M51.0795 27.9546H48.694V20.4762H41.2095V18.0927H49.8867C50.5427 18.0927 51.0795 18.629 51.0795 19.2844V27.9546Z" fill="#224FFF"/>
<path d="M50.9901 68.3558H8.7666V70.7387H50.9901V68.3558Z" fill="#224FFF"/>
<path d="M30.2959 72.7356H8.7666V75.1185H30.2959V72.7356Z" fill="#224FFF"/>
<g opacity="0.3">
<path opacity="0.3" d="M4.771 2.68896C4.771 3.94033 3.75716 5.07251 2.3855 5.07251C1.13311 5.07251 0 4.0595 0 2.68896C0 1.4376 1.01384 0.30542 2.3855 0.30542C3.78698 0.30542 4.771 1.31843 4.771 2.68896Z" fill="#224FFF"/>
<path opacity="0.3" d="M11.1523 2.68896C11.1523 3.94033 10.1385 5.07251 8.76685 5.07251C7.51446 5.07251 6.38135 4.0595 6.38135 2.68896C6.38135 1.4376 7.39518 0.30542 8.76685 0.30542C10.1385 0.30542 11.1523 1.31843 11.1523 2.68896Z" fill="#224FFF"/>
<path opacity="0.3" d="M17.5334 2.68896C17.5334 3.94033 16.5196 5.07251 15.1479 5.07251C13.8956 5.07251 12.7625 4.0595 12.7625 2.68896C12.7625 1.4376 13.7763 0.30542 15.1479 0.30542C16.5196 0.30542 17.5334 1.31843 17.5334 2.68896Z" fill="#224FFF"/>
<path opacity="0.3" d="M23.9148 2.68896C23.9148 3.94033 22.901 5.07251 21.5293 5.07251C20.2769 5.07251 19.1438 4.0595 19.1438 2.68896C19.1438 1.4376 20.1576 0.30542 21.5293 0.30542C22.901 0.30542 23.9148 1.31843 23.9148 2.68896Z" fill="#224FFF"/>
<path opacity="0.3" d="M30.2961 2.68896C30.2961 3.94033 29.2823 5.07251 27.9106 5.07251C26.6583 5.07251 25.5251 4.0595 25.5251 2.68896C25.5251 1.4376 26.539 0.30542 27.9106 0.30542C29.2823 0.30542 30.2961 1.31843 30.2961 2.68896Z" fill="#224FFF"/>
<path opacity="0.3" d="M36.6772 2.68896C36.6772 3.94033 35.6634 5.07251 34.2917 5.07251C33.0394 5.07251 31.9062 4.0595 31.9062 2.68896C31.9062 1.4376 32.9201 0.30542 34.2917 0.30542C35.6634 0.30542 36.6772 1.31843 36.6772 2.68896Z" fill="#224FFF"/>
<path opacity="0.3" d="M4.771 8.46912C4.771 9.72048 3.75716 10.8527 2.3855 10.8527C1.13311 10.8527 0 9.83965 0 8.46912C0 7.21776 1.01384 6.08557 2.3855 6.08557C3.78698 6.08557 4.771 7.09858 4.771 8.46912Z" fill="#224FFF"/>
<path opacity="0.3" d="M11.1523 8.46912C11.1523 9.72048 10.1385 10.8527 8.76685 10.8527C7.51446 10.8527 6.38135 9.83965 6.38135 8.46912C6.38135 7.21776 7.39518 6.08557 8.76685 6.08557C10.1385 6.08557 11.1523 7.09858 11.1523 8.46912Z" fill="#224FFF"/>
<path opacity="0.3" d="M17.5334 8.46912C17.5334 9.72048 16.5196 10.8527 15.1479 10.8527C13.8956 10.8527 12.7625 9.83965 12.7625 8.46912C12.7625 7.21776 13.7763 6.08557 15.1479 6.08557C16.5196 6.08557 17.5334 7.09858 17.5334 8.46912Z" fill="#224FFF"/>
<path opacity="0.3" d="M23.9148 8.46912C23.9148 9.72048 22.901 10.8527 21.5293 10.8527C20.2769 10.8527 19.1438 9.83965 19.1438 8.46912C19.1438 7.21776 20.1576 6.08557 21.5293 6.08557C22.901 6.08557 23.9148 7.09858 23.9148 8.46912Z" fill="#224FFF"/>
<path opacity="0.3" d="M30.2961 8.46912C30.2961 9.72048 29.2823 10.8527 27.9106 10.8527C26.6583 10.8527 25.5251 9.83965 25.5251 8.46912C25.5251 7.21776 26.539 6.08557 27.9106 6.08557C29.2823 6.08557 30.2961 7.09858 30.2961 8.46912Z" fill="#224FFF"/>
<path opacity="0.3" d="M36.6772 8.46912C36.6772 9.72048 35.6634 10.8527 34.2917 10.8527C33.0394 10.8527 31.9062 9.83965 31.9062 8.46912C31.9062 7.21776 32.9201 6.08557 34.2917 6.08557C35.6634 6.08557 36.6772 7.09858 36.6772 8.46912Z" fill="#224FFF"/>
<path opacity="0.3" d="M30.2961 14.2493C30.2961 15.5006 29.2823 16.6328 27.9106 16.6328C26.6583 16.6328 25.5251 15.6198 25.5251 14.2493C25.5251 12.9979 26.539 11.8657 27.9106 11.8657C29.2823 11.8657 30.2961 12.8787 30.2961 14.2493Z" fill="#224FFF"/>
<path opacity="0.3" d="M36.6772 14.2493C36.6772 15.5006 35.6634 16.6328 34.2917 16.6328C33.0394 16.6328 31.9062 15.6198 31.9062 14.2493C31.9062 12.9979 32.9201 11.8657 34.2917 11.8657C35.6634 11.8657 36.6772 12.8787 36.6772 14.2493Z" fill="#224FFF"/>
<path opacity="0.3" d="M30.2961 20.0293C30.2961 21.2806 29.2823 22.4128 27.9106 22.4128C26.6583 22.4128 25.5251 21.3998 25.5251 20.0293C25.5251 18.7779 26.539 17.6458 27.9106 17.6458C29.2823 17.6458 30.2961 18.6587 30.2961 20.0293Z" fill="#224FFF"/>
<path opacity="0.3" d="M36.6772 20.0293C36.6772 21.2806 35.6634 22.4128 34.2917 22.4128C33.0394 22.4128 31.9062 21.3998 31.9062 20.0293C31.9062 18.7779 32.9201 17.6458 34.2917 17.6458C35.6634 17.6458 36.6772 18.6587 36.6772 20.0293Z" fill="#224FFF"/>
<path opacity="0.3" d="M30.2961 25.8093C30.2961 27.0607 29.2823 28.1929 27.9106 28.1929C26.6583 28.1929 25.5251 27.1799 25.5251 25.8093C25.5251 24.558 26.539 23.4258 27.9106 23.4258C29.2823 23.4556 30.2961 24.4388 30.2961 25.8093Z" fill="#224FFF"/>
<path opacity="0.3" d="M36.6772 25.8093C36.6772 27.0607 35.6634 28.1929 34.2917 28.1929C33.0394 28.1929 31.9062 27.1799 31.9062 25.8093C31.9062 24.558 32.9201 23.4258 34.2917 23.4258C35.6634 23.4556 36.6772 24.4388 36.6772 25.8093Z" fill="#224FFF"/>
<path opacity="0.3" d="M4.771 31.5896C4.771 32.841 3.75716 33.9731 2.3855 33.9731C1.13311 33.9731 0 32.9601 0 31.5896C0 30.3382 1.01384 29.2061 2.3855 29.2061C3.78698 29.2358 4.771 30.2191 4.771 31.5896Z" fill="#224FFF"/>
<path opacity="0.3" d="M11.1523 31.5896C11.1523 32.841 10.1385 33.9731 8.76685 33.9731C7.51446 33.9731 6.38135 32.9601 6.38135 31.5896C6.38135 30.3382 7.39518 29.2061 8.76685 29.2061C10.1385 29.2358 11.1523 30.2191 11.1523 31.5896Z" fill="#224FFF"/>
<path opacity="0.3" d="M17.5334 31.5896C17.5334 32.841 16.5196 33.9731 15.1479 33.9731C13.8956 33.9731 12.7625 32.9601 12.7625 31.5896C12.7625 30.3382 13.7763 29.2061 15.1479 29.2061C16.5196 29.2358 17.5334 30.2191 17.5334 31.5896Z" fill="#224FFF"/>
<path opacity="0.3" d="M23.9148 31.5896C23.9148 32.841 22.901 33.9731 21.5293 33.9731C20.2769 33.9731 19.1438 32.9601 19.1438 31.5896C19.1438 30.3382 20.1576 29.2061 21.5293 29.2061C22.901 29.2358 23.9148 30.2191 23.9148 31.5896Z" fill="#224FFF"/>
<path opacity="0.3" d="M30.2961 31.5896C30.2961 32.841 29.2823 33.9731 27.9106 33.9731C26.6583 33.9731 25.5251 32.9601 25.5251 31.5896C25.5251 30.3382 26.539 29.2061 27.9106 29.2061C29.2823 29.2358 30.2961 30.2191 30.2961 31.5896Z" fill="#224FFF"/>
<path opacity="0.3" d="M4.771 37.3994C4.771 38.6508 3.75716 39.783 2.3855 39.783C1.13311 39.783 0 38.77 0 37.3994C0 36.1481 1.01384 35.0159 2.3855 35.0159C3.78698 35.0159 4.771 35.9991 4.771 37.3994Z" fill="#224FFF"/>
<path opacity="0.3" d="M11.1523 37.3994C11.1523 38.6508 10.1385 39.783 8.76685 39.783C7.51446 39.783 6.38135 38.77 6.38135 37.3994C6.38135 36.1481 7.39518 35.0159 8.76685 35.0159C10.1385 35.0159 11.1523 35.9991 11.1523 37.3994Z" fill="#224FFF"/>
<path opacity="0.3" d="M17.5334 37.3994C17.5334 38.6508 16.5196 39.783 15.1479 39.783C13.8956 39.783 12.7625 38.77 12.7625 37.3994C12.7625 36.1481 13.7763 35.0159 15.1479 35.0159C16.5196 35.0159 17.5334 35.9991 17.5334 37.3994Z" fill="#224FFF"/>
<path opacity="0.3" d="M23.9148 37.3994C23.9148 38.6508 22.901 39.783 21.5293 39.783C20.2769 39.783 19.1438 38.77 19.1438 37.3994C19.1438 36.1481 20.1576 35.0159 21.5293 35.0159C22.901 35.0159 23.9148 35.9991 23.9148 37.3994Z" fill="#224FFF"/>
<path opacity="0.3" d="M30.2961 37.3994C30.2961 38.6508 29.2823 39.783 27.9106 39.783C26.6583 39.783 25.5251 38.77 25.5251 37.3994C25.5251 36.1481 26.539 35.0159 27.9106 35.0159C29.2823 35.0159 30.2961 35.9991 30.2961 37.3994Z" fill="#224FFF"/>
<path opacity="0.3" d="M4.771 43.1795C4.771 44.4309 3.75716 45.563 2.3855 45.563C1.13311 45.563 0 44.55 0 43.1795C0 41.9281 1.01384 40.7959 2.3855 40.7959C3.78698 40.7959 4.771 41.8089 4.771 43.1795Z" fill="#224FFF"/>
<path opacity="0.3" d="M11.1523 43.1795C11.1523 44.4309 10.1385 45.563 8.76685 45.563C7.51446 45.563 6.38135 44.55 6.38135 43.1795C6.38135 41.9281 7.39518 40.7959 8.76685 40.7959C10.1385 40.7959 11.1523 41.8089 11.1523 43.1795Z" fill="#224FFF"/>
<path opacity="0.3" d="M17.5334 43.1795C17.5334 44.4309 16.5196 45.563 15.1479 45.563C13.8956 45.563 12.7625 44.55 12.7625 43.1795C12.7625 41.9281 13.7763 40.7959 15.1479 40.7959C16.5196 40.7959 17.5334 41.8089 17.5334 43.1795Z" fill="#224FFF"/>
<path opacity="0.3" d="M23.9148 43.1795C23.9148 44.4309 22.901 45.563 21.5293 45.563C20.2769 45.563 19.1438 44.55 19.1438 43.1795C19.1438 41.9281 20.1576 40.7959 21.5293 40.7959C22.901 40.7959 23.9148 41.8089 23.9148 43.1795Z" fill="#224FFF"/>
<path opacity="0.3" d="M4.771 48.9597C4.771 50.211 3.75716 51.3432 2.3855 51.3432C1.13311 51.3432 0 50.3302 0 48.9597C0 47.7083 1.01384 46.5762 2.3855 46.5762C3.78698 46.5762 4.771 47.5892 4.771 48.9597Z" fill="#224FFF"/>
<path opacity="0.3" d="M11.1523 48.9597C11.1523 50.211 10.1385 51.3432 8.76685 51.3432C7.51446 51.3432 6.38135 50.3302 6.38135 48.9597C6.38135 47.7083 7.39518 46.5762 8.76685 46.5762C10.1385 46.5762 11.1523 47.5892 11.1523 48.9597Z" fill="#224FFF"/>
<path opacity="0.3" d="M4.771 54.7397C4.771 55.9911 3.75716 57.1233 2.3855 57.1233C1.13311 57.1233 0 56.1103 0 54.7397C0 53.4884 1.01384 52.3562 2.3855 52.3562C3.78698 52.3562 4.771 53.3692 4.771 54.7397Z" fill="#224FFF"/>
<path opacity="0.3" d="M4.771 60.5198C4.771 61.7711 3.75716 62.9033 2.3855 62.9033C1.13311 62.9033 0 61.8903 0 60.5198C0 59.2684 1.01384 58.1362 2.3855 58.1362C3.78698 58.166 4.771 59.1492 4.771 60.5198Z" fill="#224FFF"/>
<path opacity="0.3" d="M4.771 66.3C4.771 67.5514 3.75716 68.6836 2.3855 68.6836C1.13311 68.6836 0 67.6706 0 66.3C0 65.0487 1.01384 63.9165 2.3855 63.9165C3.78698 63.9463 4.771 64.9295 4.771 66.3Z" fill="#224FFF"/>
</g>
<path d="M51.1393 66.2999H48.4556V34.6583L43.953 34.6285L43.9232 66.2999H41.2395V34.6583C41.2395 33.1686 42.4621 31.947 43.953 31.947H48.4258C49.9167 31.947 51.1393 33.1686 51.1393 34.6583V66.2999Z" fill="#224FFF"/>
<path d="M35.0073 66.3H32.3236V48.6319L27.821 48.6022L27.7911 66.2702H25.1074V48.6022C25.1074 47.1124 26.33 45.8909 27.821 45.8909H32.2938C33.7848 45.8909 35.0073 47.1124 35.0073 48.6022V66.3Z" fill="#224FFF"/>
<path d="M18.8754 66.2999H16.1917V60.49L11.6891 60.4602L11.6593 66.2999H8.97559V60.49C8.97559 59.0003 10.1981 57.7787 11.6891 57.7787H16.1619C17.6528 57.7787 18.8754 59.0003 18.8754 60.49V66.2999Z" fill="#224FFF"/>
<path d="M48.1629 19.6925L7.88135 54.0906L9.43121 55.9025L49.7128 21.5045L48.1629 19.6925Z" fill="#224FFF"/>
</svg>
