<svg width="48" height="69" viewBox="0 0 48 69" fill="none" xmlns="http://www.w3.org/2000/svg">
<g opacity="0.3">
<path opacity="0.3" d="M4.77103 2.75034C4.77103 4.00168 3.75718 5.13385 2.38551 5.13385C1.13312 5.13385 0 4.12086 0 2.75034C0 1.49899 1.01384 0.366821 2.38551 0.366821C3.787 0.366821 4.77103 1.37981 4.77103 2.75034Z" fill="#224FFF"/>
<path opacity="0.3" d="M11.1521 2.75034C11.1521 4.00168 10.1383 5.13385 8.7666 5.13385C7.51422 5.13385 6.3811 4.12086 6.3811 2.75034C6.3811 1.49899 7.39494 0.366821 8.7666 0.366821C10.1681 0.366821 11.1521 1.37981 11.1521 2.75034Z" fill="#224FFF"/>
<path opacity="0.3" d="M17.5334 2.75034C17.5334 4.00168 16.5196 5.13385 15.1479 5.13385C13.8956 5.13385 12.7625 4.12086 12.7625 2.75034C12.7625 1.49899 13.7763 0.366821 15.1479 0.366821C16.5494 0.366821 17.5334 1.37981 17.5334 2.75034Z" fill="#224FFF"/>
<path opacity="0.3" d="M4.77103 8.53052C4.77103 9.78188 3.75718 10.9141 2.38551 10.9141C1.13312 10.9141 0 9.90106 0 8.53052C0 7.27916 1.01384 6.14697 2.38551 6.14697C3.787 6.14697 4.77103 7.15998 4.77103 8.53052Z" fill="#224FFF"/>
<path opacity="0.3" d="M11.1521 8.53052C11.1521 9.78188 10.1383 10.9141 8.7666 10.9141C7.51422 10.9141 6.3811 9.90106 6.3811 8.53052C6.3811 7.27916 7.39494 6.14697 8.7666 6.14697C10.1681 6.14697 11.1521 7.15998 11.1521 8.53052Z" fill="#224FFF"/>
<path opacity="0.3" d="M17.5334 8.53052C17.5334 9.78188 16.5196 10.9141 15.1479 10.9141C13.8956 10.9141 12.7625 9.90106 12.7625 8.53052C12.7625 7.27916 13.7763 6.14697 15.1479 6.14697C16.5494 6.14697 17.5334 7.15998 17.5334 8.53052Z" fill="#224FFF"/>
<path opacity="0.3" d="M4.77103 14.3105C4.77103 15.5619 3.75718 16.6941 2.38551 16.6941C1.13312 16.6941 0 15.6811 0 14.3105C0 13.0592 1.01384 11.927 2.38551 11.927C3.787 11.927 4.77103 12.94 4.77103 14.3105Z" fill="#224FFF"/>
<path opacity="0.3" d="M11.1521 14.3105C11.1521 15.5619 10.1383 16.6941 8.7666 16.6941C7.51422 16.6941 6.3811 15.6811 6.3811 14.3105C6.3811 13.0592 7.39494 11.927 8.7666 11.927C10.1681 11.927 11.1521 12.94 11.1521 14.3105Z" fill="#224FFF"/>
<path opacity="0.3" d="M17.5334 14.3105C17.5334 15.5619 16.5196 16.6941 15.1479 16.6941C13.8956 16.6941 12.7625 15.6811 12.7625 14.3105C12.7625 13.0592 13.7763 11.927 15.1479 11.927C16.5494 11.927 17.5334 12.94 17.5334 14.3105Z" fill="#224FFF"/>
<path opacity="0.3" d="M4.77103 20.0907C4.77103 21.342 3.75718 22.4742 2.38551 22.4742C1.13312 22.4742 0 21.4612 0 20.0907C0 18.8393 1.01384 17.7072 2.38551 17.7072C3.787 17.7369 4.77103 18.7201 4.77103 20.0907Z" fill="#224FFF"/>
<path opacity="0.3" d="M11.1521 20.0907C11.1521 21.342 10.1383 22.4742 8.7666 22.4742C7.51422 22.4742 6.3811 21.4612 6.3811 20.0907C6.3811 18.8393 7.39494 17.7072 8.7666 17.7072C10.1681 17.7369 11.1521 18.7201 11.1521 20.0907Z" fill="#224FFF"/>
<path opacity="0.3" d="M4.77103 25.8708C4.77103 27.1222 3.75718 28.2544 2.38551 28.2544C1.13312 28.2544 0 27.2414 0 25.8708C0 24.6194 1.01384 23.4872 2.38551 23.4872C3.787 23.517 4.77103 24.5002 4.77103 25.8708Z" fill="#224FFF"/>
<path opacity="0.3" d="M11.1521 25.8708C11.1521 27.1222 10.1383 28.2544 8.7666 28.2544C7.51422 28.2544 6.3811 27.2414 6.3811 25.8708C6.3811 24.6194 7.39494 23.4872 8.7666 23.4872C10.1681 23.517 11.1521 24.5002 11.1521 25.8708Z" fill="#224FFF"/>
<path opacity="0.3" d="M4.77103 31.6509C4.77103 32.9022 3.75718 34.0344 2.38551 34.0344C1.13312 34.0344 0 33.0214 0 31.6509C0 30.3995 1.01384 29.2673 2.38551 29.2673C3.787 29.2971 4.77103 30.2803 4.77103 31.6509Z" fill="#224FFF"/>
<path opacity="0.3" d="M11.1521 31.6509C11.1521 32.9022 10.1383 34.0344 8.7666 34.0344C7.51422 34.0344 6.3811 33.0214 6.3811 31.6509C6.3811 30.3995 7.39494 29.2673 8.7666 29.2673C10.1681 29.2971 11.1521 30.2803 11.1521 31.6509Z" fill="#224FFF"/>
<path opacity="0.3" d="M4.77103 37.4608C4.77103 38.7122 3.75718 39.8444 2.38551 39.8444C1.13312 39.8444 0 38.8314 0 37.4608C0 36.2095 1.01384 35.0773 2.38551 35.0773C3.787 35.0773 4.77103 36.0903 4.77103 37.4608Z" fill="#224FFF"/>
<path opacity="0.3" d="M11.1521 37.4608C11.1521 38.7122 10.1383 39.8444 8.7666 39.8444C7.51422 39.8444 6.3811 38.8314 6.3811 37.4608C6.3811 36.2095 7.39494 35.0773 8.7666 35.0773C10.1681 35.0773 11.1521 36.0903 11.1521 37.4608Z" fill="#224FFF"/>
<path opacity="0.3" d="M17.5334 37.4608C17.5334 38.7122 16.5196 39.8444 15.1479 39.8444C13.8956 39.8444 12.7625 38.8314 12.7625 37.4608C12.7625 36.2095 13.7763 35.0773 15.1479 35.0773C16.5494 35.0773 17.5334 36.0903 17.5334 37.4608Z" fill="#224FFF"/>
<path opacity="0.3" d="M4.77103 43.2409C4.77103 44.4923 3.75718 45.6245 2.38551 45.6245C1.13312 45.6245 0 44.6115 0 43.2409C0 41.9896 1.01384 40.8574 2.38551 40.8574C3.787 40.8574 4.77103 41.8704 4.77103 43.2409Z" fill="#224FFF"/>
<path opacity="0.3" d="M11.1521 43.2409C11.1521 44.4923 10.1383 45.6245 8.7666 45.6245C7.51422 45.6245 6.3811 44.6115 6.3811 43.2409C6.3811 41.9896 7.39494 40.8574 8.7666 40.8574C10.1681 40.8574 11.1521 41.8704 11.1521 43.2409Z" fill="#224FFF"/>
<path opacity="0.3" d="M17.5334 43.2409C17.5334 44.4923 16.5196 45.6245 15.1479 45.6245C13.8956 45.6245 12.7625 44.6115 12.7625 43.2409C12.7625 41.9896 13.7763 40.8574 15.1479 40.8574C16.5494 40.8574 17.5334 41.8704 17.5334 43.2409Z" fill="#224FFF"/>
<path opacity="0.3" d="M23.9146 43.2409C23.9146 44.4923 22.9007 45.6245 21.5291 45.6245C20.2767 45.6245 19.1436 44.6115 19.1436 43.2409C19.1436 41.9896 20.1574 40.8574 21.5291 40.8574C22.9306 40.8574 23.9146 41.8704 23.9146 43.2409Z" fill="#224FFF"/>
<path opacity="0.3" d="M4.77103 49.021C4.77103 50.2724 3.75718 51.4045 2.38551 51.4045C1.13312 51.4045 0 50.3915 0 49.021C0 47.7696 1.01384 46.6375 2.38551 46.6375C3.787 46.6375 4.77103 47.6505 4.77103 49.021Z" fill="#224FFF"/>
<path opacity="0.3" d="M11.1521 49.021C11.1521 50.2724 10.1383 51.4045 8.7666 51.4045C7.51422 51.4045 6.3811 50.3915 6.3811 49.021C6.3811 47.7696 7.39494 46.6375 8.7666 46.6375C10.1681 46.6375 11.1521 47.6505 11.1521 49.021Z" fill="#224FFF"/>
<path opacity="0.3" d="M17.5334 49.021C17.5334 50.2724 16.5196 51.4045 15.1479 51.4045C13.8956 51.4045 12.7625 50.3915 12.7625 49.021C12.7625 47.7696 13.7763 46.6375 15.1479 46.6375C16.5494 46.6375 17.5334 47.6505 17.5334 49.021Z" fill="#224FFF"/>
<path opacity="0.3" d="M23.9146 49.021C23.9146 50.2724 22.9007 51.4045 21.5291 51.4045C20.2767 51.4045 19.1436 50.3915 19.1436 49.021C19.1436 47.7696 20.1574 46.6375 21.5291 46.6375C22.9306 46.6375 23.9146 47.6505 23.9146 49.021Z" fill="#224FFF"/>
<path opacity="0.3" d="M30.2959 49.021C30.2959 50.2724 29.2821 51.4045 27.9104 51.4045C26.658 51.4045 25.5249 50.3915 25.5249 49.021C25.5249 47.7696 26.5387 46.6375 27.9104 46.6375C29.2821 46.6375 30.2959 47.6505 30.2959 49.021Z" fill="#224FFF"/>
<path opacity="0.3" d="M23.9146 54.8011C23.9146 56.0525 22.9007 57.1847 21.5291 57.1847C20.2767 57.1847 19.1436 56.1717 19.1436 54.8011C19.1436 53.5498 20.1574 52.4176 21.5291 52.4176C22.9306 52.4474 23.9146 53.4306 23.9146 54.8011Z" fill="#224FFF"/>
<path opacity="0.3" d="M30.2959 54.8011C30.2959 56.0525 29.2821 57.1847 27.9104 57.1847C26.658 57.1847 25.5249 56.1717 25.5249 54.8011C25.5249 53.5498 26.5387 52.4176 27.9104 52.4176C29.2821 52.4474 30.2959 53.4306 30.2959 54.8011Z" fill="#224FFF"/>
<path opacity="0.3" d="M23.9146 60.5813C23.9146 61.8326 22.9007 62.9648 21.5291 62.9648C20.2767 62.9648 19.1436 61.9518 19.1436 60.5813C19.1436 59.3299 20.1574 58.1978 21.5291 58.1978C22.9306 58.2275 23.9146 59.2107 23.9146 60.5813Z" fill="#224FFF"/>
<path opacity="0.3" d="M30.2959 60.5813C30.2959 61.8326 29.2821 62.9648 27.9104 62.9648C26.658 62.9648 25.5249 61.9518 25.5249 60.5813C25.5249 59.3299 26.5387 58.1978 27.9104 58.1978C29.2821 58.2275 30.2959 59.2107 30.2959 60.5813Z" fill="#224FFF"/>
<path opacity="0.3" d="M36.677 60.5813C36.677 61.8326 35.6632 62.9648 34.2915 62.9648C33.0391 62.9648 31.906 61.9518 31.906 60.5813C31.906 59.3299 32.9198 58.1978 34.2915 58.1978C35.6632 58.2275 36.677 59.2107 36.677 60.5813Z" fill="#224FFF"/>
<path opacity="0.3" d="M30.2959 66.3613C30.2959 67.6127 29.2821 68.7449 27.9104 68.7449C26.658 68.7449 25.5249 67.7319 25.5249 66.3613C25.5249 65.11 26.5387 63.9778 27.9104 63.9778C29.2821 64.0076 30.2959 64.9908 30.2959 66.3613Z" fill="#224FFF"/>
<path opacity="0.3" d="M36.677 66.3613C36.677 67.6127 35.6632 68.7449 34.2915 68.7449C33.0391 68.7449 31.906 67.7319 31.906 66.3613C31.906 65.11 32.9198 63.9778 34.2915 63.9778C35.6632 64.0076 36.677 64.9908 36.677 66.3613Z" fill="#224FFF"/>
</g>
<path d="M25.1967 54.3649H13.2989C11.5695 54.3649 10.168 52.9645 10.168 51.2365V34.2537H12.5535V51.2365C12.5535 51.6536 12.8815 51.9813 13.2989 51.9813H25.1967V54.3649Z" fill="#224FFF"/>
<path d="M47.7099 47.4526H45.3244V10.4182C45.3244 10.0011 44.9964 9.67335 44.5789 9.67335H13.2989C12.8815 9.67335 12.5535 10.0011 12.5535 10.4182V27.401H10.168V10.4182C10.168 8.69013 11.5695 7.28979 13.2989 7.28979H44.5789C46.3084 7.28979 47.7099 8.69013 47.7099 10.4182V47.4526V47.4526Z" fill="#224FFF"/>
<path d="M29.9679 59.6382C29.4013 59.6382 28.8646 59.4595 28.3875 59.1019C27.6719 58.5954 27.2544 57.7612 27.2544 56.8972V16.5556C27.2544 14.7084 28.5068 13.0697 30.2661 12.5632L44.2511 8.54092C45.0861 8.30256 45.9508 8.45154 46.6366 8.98783C47.3225 9.52413 47.7101 10.2988 47.7101 11.1628V50.9979C47.7101 52.8153 46.5472 54.3944 44.8177 54.9605L30.773 59.4893C30.5345 59.5787 30.2363 59.6382 29.9679 59.6382ZM44.9966 10.8351C44.9668 10.8351 44.937 10.8351 44.9071 10.8351L30.9221 14.8573C30.1766 15.0659 29.6399 15.7809 29.6399 16.5556V56.927C29.6399 57.0759 29.7294 57.1653 29.789 57.1951C29.8486 57.2249 29.9381 57.2845 30.0872 57.2547L44.1319 52.7259C44.8773 52.4876 45.3544 51.8023 45.3544 51.0277V11.1628C45.3544 11.0139 45.265 10.9245 45.2351 10.8947C45.1755 10.8649 45.0861 10.8351 44.9966 10.8351Z" fill="#224FFF"/>
<path d="M21.0819 29.6355H2.80298V32.0184H21.0819V29.6355Z" fill="#224FFF"/>
<path d="M17.7124 37.5013L16.0127 35.803L21.0223 30.7975L16.0127 25.792L17.7124 24.0938L23.5569 29.9335C24.034 30.4102 24.034 31.1551 23.5569 31.6318L17.7124 37.5013Z" fill="#224FFF"/>
</svg>
