<svg width="25" height="26" viewBox="0 0 25 26" fill="none" xmlns="http://www.w3.org/2000/svg">
<path fill-rule="evenodd" clip-rule="evenodd" d="M7.8125 0.155273H17.1875C21.5016 0.155273 25 3.65371 25 7.96777V17.3428C25 21.6568 21.5016 25.1553 17.1875 25.1553H7.8125C3.49844 25.1553 0 21.6568 0 17.3428V7.96777C0 3.65371 3.49844 0.155273 7.8125 0.155273ZM17.1875 22.811C20.2031 22.811 22.6563 20.3578 22.6563 17.3422V7.96711C22.6563 4.95146 20.2031 2.49831 17.1875 2.49831H7.8125C4.79688 2.49831 2.34375 4.95146 2.34375 7.96711V17.3422C2.34375 20.3578 4.79688 22.811 7.8125 22.811H17.1875Z" fill="white"/>
<path fill-rule="evenodd" clip-rule="evenodd" d="M6.25 12.6553C6.25 9.20371 9.04843 6.40527 12.5 6.40527C15.9515 6.40527 18.7499 9.20371 18.7499 12.6553C18.7499 16.1068 15.9515 18.9053 12.5 18.9053C9.04843 18.9053 6.25 16.1068 6.25 12.6553ZM8.59375 12.6544C8.59375 14.8076 10.3469 16.5607 12.5 16.5607C14.6532 16.5607 16.4063 14.8076 16.4063 12.6544C16.4063 10.4998 14.6532 8.74821 12.5 8.74821C10.3469 8.74821 8.59375 10.4998 8.59375 12.6544Z" fill="white"/>
<ellipse cx="19.2186" cy="5.93585" rx="0.83282" ry="0.832575" fill="white"/>
</svg>
