<svg width="25" height="26" viewBox="0 0 25 26" fill="none" xmlns="http://www.w3.org/2000/svg">
<path fill-rule="evenodd" clip-rule="evenodd" d="M25 12.6553C25 5.75215 19.4039 0.155273 12.5 0.155273C5.5961 0.155273 0 5.75215 0 12.6553C0 19.5592 5.59601 25.1553 12.5 25.1553C19.4039 25.1553 25 19.5593 25 12.6553ZM18.5645 9.04253C19.1808 8.97061 19.7684 8.81202 20.3144 8.5761C19.9059 9.16989 19.3894 9.69021 18.7957 10.1059L18.8043 10.4888C18.8043 14.3952 15.7402 18.9015 10.1371 18.9015C8.41606 18.9015 6.81601 18.4117 5.4668 17.5726C5.70588 17.5999 5.94806 17.614 6.19418 17.614C7.62148 17.614 8.93482 17.1421 9.97775 16.3483C8.64416 16.3248 7.5191 15.4701 7.13164 14.2951C7.3176 14.3303 7.5082 14.3482 7.70429 14.3482C7.98243 14.3482 8.2512 14.3115 8.50668 14.2443C7.11293 13.9724 6.06296 12.7778 6.06296 11.345V11.3075C6.47463 11.5301 6.94344 11.6622 7.44341 11.6778C6.62618 11.1488 6.08871 10.2425 6.08871 9.21752C6.08871 8.67531 6.23872 8.16829 6.50123 7.73155C8.00276 9.51986 10.2481 10.6973 12.7793 10.8207C12.7271 10.6043 12.7005 10.3785 12.7005 10.1464C12.7005 8.51363 14.0645 7.19089 15.7457 7.19089C16.6223 7.19089 17.4137 7.54953 17.9692 8.12375C18.6637 7.99176 19.3153 7.74563 19.9043 7.40578C19.677 8.09715 19.1942 8.67608 18.5645 9.04253Z" fill="white"/>
</svg>
