<svg width="1440" height="824" viewBox="0 0 1440 824" fill="none" xmlns="http://www.w3.org/2000/svg">
<g opacity="0.05">
<path d="M1420.18 189.543C1413.67 189.543 1407.8 184.333 1407.8 177.168C1407.8 170.654 1413.01 164.792 1420.18 164.792C1426.7 164.792 1432.57 170.003 1432.57 177.168C1432.57 183.681 1426.7 189.543 1420.18 189.543Z" fill="#064750"/>
<path d="M1420.18 222.11C1413.67 222.11 1407.8 216.899 1407.8 209.735C1407.8 203.221 1413.01 197.359 1420.18 197.359C1426.7 197.359 1432.57 202.57 1432.57 209.735C1432.57 216.899 1426.7 222.11 1420.18 222.11Z" fill="#064750"/>
<path d="M1420.18 254.678C1413.67 254.678 1407.8 249.467 1407.8 242.302C1407.8 235.789 1413.01 229.927 1420.18 229.927C1426.7 229.927 1432.57 235.138 1432.57 242.302C1432.57 249.467 1426.7 254.678 1420.18 254.678Z" fill="#064750"/>
<path d="M1420.18 287.896C1413.67 287.896 1407.8 282.686 1407.8 275.521C1407.8 269.007 1413.01 263.145 1420.18 263.145C1426.7 263.145 1432.57 268.356 1432.57 275.521C1432.57 282.034 1426.7 287.896 1420.18 287.896Z" fill="#064750"/>
<path d="M1420.18 320.464C1413.67 320.464 1407.8 315.253 1407.8 308.089C1407.8 301.575 1413.01 295.713 1420.18 295.713C1426.7 295.713 1432.57 300.924 1432.57 308.089C1432.57 315.253 1426.7 320.464 1420.18 320.464Z" fill="#064750"/>
<path d="M1420.18 353.683C1413.67 353.683 1407.8 348.472 1407.8 341.307C1407.8 334.794 1413.01 328.931 1420.18 328.931C1426.7 328.931 1432.57 334.142 1432.57 341.307C1432.57 347.821 1426.7 353.683 1420.18 353.683Z" fill="#064750"/>
<path d="M1420.18 386.251C1413.67 386.251 1407.8 381.04 1407.8 373.875C1407.8 367.362 1413.01 361.499 1420.18 361.499C1426.7 361.499 1432.57 366.71 1432.57 373.875C1432.57 381.04 1426.7 386.251 1420.18 386.251Z" fill="#064750"/>
<path d="M1420.18 419.469C1413.67 419.469 1407.8 414.258 1407.8 407.093C1407.8 400.58 1413.01 394.718 1420.18 394.718C1426.7 394.718 1432.57 399.929 1432.57 407.093C1432.57 413.607 1426.7 419.469 1420.18 419.469Z" fill="#064750"/>
<path d="M1420.18 452.036C1413.67 452.036 1407.8 446.825 1407.8 439.66C1407.8 433.147 1413.01 427.284 1420.18 427.284C1426.7 427.284 1432.57 432.495 1432.57 439.66C1432.57 446.825 1426.7 452.036 1420.18 452.036Z" fill="#064750"/>
<path d="M1387.59 189.543C1381.07 189.543 1375.21 184.333 1375.21 177.168C1375.21 170.654 1380.42 164.792 1387.59 164.792C1394.11 164.792 1399.98 170.003 1399.98 177.168C1399.32 183.681 1394.11 189.543 1387.59 189.543Z" fill="#064750"/>
<path d="M1387.59 222.11C1381.07 222.11 1375.21 216.899 1375.21 209.735C1375.21 203.221 1380.42 197.359 1387.59 197.359C1394.11 197.359 1399.98 202.57 1399.98 209.735C1399.32 216.899 1394.11 222.11 1387.59 222.11Z" fill="#064750"/>
<path d="M1387.59 254.678C1381.07 254.678 1375.21 249.467 1375.21 242.302C1375.21 235.789 1380.42 229.927 1387.59 229.927C1394.11 229.927 1399.98 235.138 1399.98 242.302C1399.32 249.467 1394.11 254.678 1387.59 254.678Z" fill="#064750"/>
<path d="M1387.59 287.896C1381.07 287.896 1375.21 282.686 1375.21 275.521C1375.21 269.007 1380.42 263.145 1387.59 263.145C1394.11 263.145 1399.98 268.356 1399.98 275.521C1399.32 282.034 1394.11 287.896 1387.59 287.896Z" fill="#064750"/>
<path d="M1387.59 320.464C1381.07 320.464 1375.21 315.253 1375.21 308.089C1375.21 301.575 1380.42 295.713 1387.59 295.713C1394.11 295.713 1399.98 300.924 1399.98 308.089C1399.32 315.253 1394.11 320.464 1387.59 320.464Z" fill="#064750"/>
<path d="M1387.59 353.683C1381.07 353.683 1375.21 348.472 1375.21 341.307C1375.21 334.794 1380.42 328.931 1387.59 328.931C1394.11 328.931 1399.98 334.142 1399.98 341.307C1399.32 347.821 1394.11 353.683 1387.59 353.683Z" fill="#064750"/>
<path d="M1387.59 386.251C1381.07 386.251 1375.21 381.04 1375.21 373.875C1375.21 367.362 1380.42 361.499 1387.59 361.499C1394.11 361.499 1399.98 366.71 1399.98 373.875C1399.32 381.04 1394.11 386.251 1387.59 386.251Z" fill="#064750"/>
<path d="M1387.59 419.469C1381.07 419.469 1375.21 414.258 1375.21 407.093C1375.21 400.58 1380.42 394.718 1387.59 394.718C1394.11 394.718 1399.98 399.929 1399.98 407.093C1399.32 413.607 1394.11 419.469 1387.59 419.469Z" fill="#064750"/>
<path d="M1354.34 189.543C1347.83 189.543 1341.96 184.333 1341.96 177.168C1341.96 170.654 1347.17 164.792 1354.34 164.792C1360.86 164.792 1366.73 170.003 1366.73 177.168C1366.73 183.681 1361.52 189.543 1354.34 189.543Z" fill="#064750"/>
<path d="M1354.34 222.11C1347.83 222.11 1341.96 216.899 1341.96 209.735C1341.96 203.221 1347.17 197.359 1354.34 197.359C1360.86 197.359 1366.73 202.57 1366.73 209.735C1366.73 216.899 1361.52 222.11 1354.34 222.11Z" fill="#064750"/>
<path d="M1354.34 254.678C1347.83 254.678 1341.96 249.467 1341.96 242.302C1341.96 235.789 1347.17 229.927 1354.34 229.927C1360.86 229.927 1366.73 235.138 1366.73 242.302C1366.73 249.467 1361.52 254.678 1354.34 254.678Z" fill="#064750"/>
<path d="M1354.34 287.896C1347.83 287.896 1341.96 282.686 1341.96 275.521C1341.96 269.007 1347.17 263.145 1354.34 263.145C1360.86 263.145 1366.73 268.356 1366.73 275.521C1366.73 282.034 1361.52 287.896 1354.34 287.896Z" fill="#064750"/>
<path d="M1354.34 320.464C1347.83 320.464 1341.96 315.253 1341.96 308.089C1341.96 301.575 1347.17 295.713 1354.34 295.713C1360.86 295.713 1366.73 300.924 1366.73 308.089C1366.73 315.253 1361.52 320.464 1354.34 320.464Z" fill="#064750"/>
<path d="M1354.34 353.683C1347.83 353.683 1341.96 348.472 1341.96 341.307C1341.96 334.794 1347.17 328.931 1354.34 328.931C1360.86 328.931 1366.73 334.142 1366.73 341.307C1366.73 347.821 1361.52 353.683 1354.34 353.683Z" fill="#064750"/>
<path d="M1354.34 386.251C1347.83 386.251 1341.96 381.04 1341.96 373.875C1341.96 367.362 1347.17 361.499 1354.34 361.499C1360.86 361.499 1366.73 366.71 1366.73 373.875C1366.73 381.04 1361.52 386.251 1354.34 386.251Z" fill="#064750"/>
<path d="M1354.34 419.469C1347.83 419.469 1341.96 414.258 1341.96 407.093C1341.96 400.58 1347.17 394.718 1354.34 394.718C1360.86 394.718 1366.73 399.929 1366.73 407.093C1366.73 413.607 1361.52 419.469 1354.34 419.469Z" fill="#064750"/>
<path d="M1309.37 177.168C1309.37 184.003 1314.91 189.543 1321.75 189.543C1328.59 189.543 1334.14 184.003 1334.14 177.168C1334.14 170.333 1328.59 164.792 1321.75 164.792C1314.91 164.792 1309.37 170.333 1309.37 177.168Z" fill="#064750"/>
<path d="M1321.75 222.11C1315.23 222.11 1309.37 216.899 1309.37 209.735C1309.37 203.221 1314.58 197.359 1321.75 197.359C1328.27 197.359 1334.14 202.57 1334.14 209.735C1334.14 216.899 1328.27 222.11 1321.75 222.11Z" fill="#064750"/>
<path d="M1309.37 242.954C1309.37 249.789 1314.91 255.33 1321.75 255.33C1328.59 255.33 1334.14 249.789 1334.14 242.954C1334.14 236.119 1328.59 230.579 1321.75 230.579C1314.91 230.579 1309.37 236.119 1309.37 242.954Z" fill="#064750"/>
<path d="M1321.75 287.896C1315.23 287.896 1309.37 282.686 1309.37 275.521C1309.37 269.007 1314.58 263.145 1321.75 263.145C1328.27 263.145 1334.14 268.356 1334.14 275.521C1334.14 282.034 1328.27 287.896 1321.75 287.896Z" fill="#064750"/>
<path d="M1288.5 189.543C1281.99 189.543 1276.12 184.333 1276.12 177.168C1276.12 170.654 1281.33 164.792 1288.5 164.792C1295.02 164.792 1300.89 170.003 1300.89 177.168C1300.89 183.681 1295.68 189.543 1288.5 189.543Z" fill="#064750"/>
<path d="M1288.5 222.11C1281.99 222.11 1276.12 216.899 1276.12 209.735C1276.12 203.221 1281.33 197.359 1288.5 197.359C1295.02 197.359 1300.89 202.57 1300.89 209.735C1300.89 216.899 1295.68 222.11 1288.5 222.11Z" fill="#064750"/>
<path d="M1288.5 254.678C1281.99 254.678 1276.12 249.467 1276.12 242.302C1276.12 235.789 1281.33 229.927 1288.5 229.927C1295.02 229.927 1300.89 235.138 1300.89 242.302C1300.89 249.467 1295.68 254.678 1288.5 254.678Z" fill="#064750"/>
<path d="M1288.5 287.896C1281.99 287.896 1276.12 282.686 1276.12 275.521C1276.12 269.007 1281.33 263.145 1288.5 263.145C1295.02 263.145 1300.89 268.356 1300.89 275.521C1300.89 282.034 1295.68 287.896 1288.5 287.896Z" fill="#064750"/>
<path d="M1243.53 177.168C1243.53 184.003 1249.07 189.543 1255.91 189.543C1262.75 189.543 1268.3 184.003 1268.3 177.168C1268.3 170.333 1262.75 164.792 1255.91 164.792C1249.07 164.792 1243.53 170.333 1243.53 177.168Z" fill="#064750"/>
<path d="M1255.91 222.11C1249.39 222.11 1243.53 216.899 1243.53 209.735C1243.53 203.221 1248.74 197.359 1255.91 197.359C1262.43 197.359 1268.3 202.57 1268.3 209.735C1268.3 216.899 1262.43 222.11 1255.91 222.11Z" fill="#064750"/>
<path d="M1243.53 242.954C1243.53 249.789 1249.07 255.33 1255.91 255.33C1262.75 255.33 1268.3 249.789 1268.3 242.954C1268.3 236.119 1262.75 230.579 1255.91 230.579C1249.07 230.579 1243.53 236.119 1243.53 242.954Z" fill="#064750"/>
<path d="M1255.91 287.896C1249.39 287.896 1243.53 282.686 1243.53 275.521C1243.53 269.007 1248.74 263.145 1255.91 263.145C1262.43 263.145 1268.3 268.356 1268.3 275.521C1268.3 282.034 1262.43 287.896 1255.91 287.896Z" fill="#064750"/>
<path d="M1222.66 222.11C1216.15 222.11 1210.28 216.899 1210.28 209.735C1210.28 203.221 1215.49 197.359 1222.66 197.359C1229.18 197.359 1235.05 202.57 1235.05 209.735C1235.05 216.899 1229.84 222.11 1222.66 222.11Z" fill="#064750"/>
<path d="M1222.66 254.678C1216.15 254.678 1210.28 249.467 1210.28 242.302C1210.28 235.789 1215.49 229.927 1222.66 229.927C1229.18 229.927 1235.05 235.138 1235.05 242.302C1235.05 249.467 1229.84 254.678 1222.66 254.678Z" fill="#064750"/>
<path d="M1222.66 287.896C1216.15 287.896 1210.28 282.686 1210.28 275.521C1210.28 269.007 1215.49 263.145 1222.66 263.145C1229.18 263.145 1235.05 268.356 1235.05 275.521C1235.05 282.034 1229.84 287.896 1222.66 287.896Z" fill="#064750"/>
<path d="M1190.07 222.11C1183.55 222.11 1177.68 216.899 1177.68 209.735C1177.68 203.221 1182.9 197.359 1190.07 197.359C1196.59 197.359 1202.46 202.57 1202.46 209.735C1202.46 216.899 1196.59 222.11 1190.07 222.11Z" fill="#064750"/>
<path d="M1177.68 242.954C1177.68 249.789 1183.23 255.33 1190.07 255.33C1196.91 255.33 1202.46 249.789 1202.46 242.954C1202.46 236.119 1196.91 230.579 1190.07 230.579C1183.23 230.579 1177.68 236.119 1177.68 242.954Z" fill="#064750"/>
<path d="M1190.07 287.896C1183.55 287.896 1177.68 282.686 1177.68 275.521C1177.68 269.007 1182.9 263.145 1190.07 263.145C1196.59 263.145 1202.46 268.356 1202.46 275.521C1202.46 282.034 1196.59 287.896 1190.07 287.896Z" fill="#064750"/>
<path d="M1156.82 222.11C1150.3 222.11 1144.44 216.899 1144.44 209.735C1144.44 203.221 1149.65 197.359 1156.82 197.359C1163.34 197.359 1169.21 202.57 1169.21 209.735C1169.21 216.899 1163.99 222.11 1156.82 222.11Z" fill="#064750"/>
<path d="M1156.82 254.678C1150.3 254.678 1144.44 249.467 1144.44 242.302C1144.44 235.789 1149.65 229.927 1156.82 229.927C1163.34 229.927 1169.21 235.138 1169.21 242.302C1169.21 249.467 1163.99 254.678 1156.82 254.678Z" fill="#064750"/>
<path d="M1156.82 287.896C1150.3 287.896 1144.44 282.686 1144.44 275.521C1144.44 269.007 1149.65 263.145 1156.82 263.145C1163.34 263.145 1169.21 268.356 1169.21 275.521C1169.21 282.034 1163.99 287.896 1156.82 287.896Z" fill="#064750"/>
<path d="M1124.23 222.11C1117.71 222.11 1111.84 216.899 1111.84 209.735C1111.84 203.221 1117.06 197.359 1124.23 197.359C1130.75 197.359 1136.62 202.57 1136.62 209.735C1136.62 216.899 1130.75 222.11 1124.23 222.11Z" fill="#064750"/>
<path d="M1111.84 242.954C1111.84 249.789 1117.39 255.33 1124.23 255.33C1131.07 255.33 1136.62 249.789 1136.62 242.954C1136.62 236.119 1131.07 230.578 1124.23 230.578C1117.39 230.578 1111.84 236.119 1111.84 242.954Z" fill="#064750"/>
<path d="M1124.23 287.896C1117.71 287.896 1111.84 282.686 1111.84 275.521C1111.84 269.007 1117.06 263.145 1124.23 263.145C1130.75 263.145 1136.62 268.356 1136.62 275.521C1136.62 282.034 1130.75 287.896 1124.23 287.896Z" fill="#064750"/>
<path d="M1090.98 254.678C1084.46 254.678 1078.6 249.467 1078.6 242.302C1078.6 235.789 1083.81 229.927 1090.98 229.927C1097.5 229.927 1103.37 235.138 1103.37 242.302C1103.37 249.467 1098.15 254.678 1090.98 254.678Z" fill="#064750"/>
<path d="M1090.98 287.896C1084.46 287.896 1078.6 282.686 1078.6 275.521C1078.6 269.007 1083.81 263.145 1090.98 263.145C1097.5 263.145 1103.37 268.356 1103.37 275.521C1103.37 282.034 1098.15 287.896 1090.98 287.896Z" fill="#064750"/>
<path d="M1058.39 287.896C1051.87 287.896 1046 282.686 1046 275.521C1046 269.007 1051.22 263.145 1058.39 263.145C1064.91 263.145 1070.78 268.356 1070.78 275.521C1070.78 282.034 1064.91 287.896 1058.39 287.896Z" fill="#064750"/>
</g>
<g opacity="0.05">
<path d="M-23.5102 811.282C-23.5102 804.932 -18.4262 799.216 -11.4357 799.216C-5.08076 799.216 0.63867 804.296 0.638671 811.282C0.638671 817.633 -4.44526 823.348 -11.4357 823.348C-18.4262 823.348 -23.5102 818.268 -23.5102 811.282Z" fill="#064750"/>
<path d="M8.25735 779.528C8.25735 773.178 13.3414 767.462 20.3318 767.462C26.6868 767.462 32.4062 772.543 32.4062 779.528C32.4062 785.879 27.3223 791.595 20.3318 791.595C13.9769 791.595 8.25735 785.879 8.25735 779.528Z" fill="#064750"/>
<path d="M-23.5102 779.528C-23.5102 773.178 -18.4262 767.462 -11.4357 767.462C-5.08076 767.462 0.63867 772.543 0.638671 779.528C0.638671 785.879 -4.44527 791.595 -11.4357 791.595C-18.4262 791.595 -23.5102 785.879 -23.5102 779.528Z" fill="#064750"/>
<path d="M8.25734 747.14C8.25734 740.79 13.3414 735.074 20.3318 735.074C26.6868 735.074 32.4062 740.154 32.4062 747.14C32.4062 753.491 27.3223 759.207 20.3318 759.207C13.9769 759.207 8.25734 754.126 8.25734 747.14Z" fill="#064750"/>
<path d="M-23.5102 747.14C-23.5102 740.79 -18.4262 735.074 -11.4357 735.074C-5.08076 735.074 0.63867 740.154 0.638671 747.14C0.638671 753.491 -4.44526 759.207 -11.4357 759.207C-18.4262 759.207 -23.5102 754.126 -23.5102 747.14Z" fill="#064750"/>
<path d="M40.6597 715.388C40.6597 709.037 45.7436 703.321 52.7341 703.321C59.0891 703.321 64.8086 708.402 64.8086 715.388C64.8086 721.738 59.7246 727.454 52.7341 727.454C45.7436 727.454 40.6597 721.738 40.6597 715.388Z" fill="#064750"/>
<path d="M8.25735 715.388C8.25735 709.037 13.3414 703.321 20.3318 703.321C26.6868 703.321 32.4062 708.402 32.4062 715.388C32.4062 721.738 27.3223 727.454 20.3318 727.454C13.9769 727.454 8.25735 721.738 8.25735 715.388Z" fill="#064750"/>
<path d="M-23.5102 715.388C-23.5102 709.037 -18.4262 703.321 -11.4357 703.321C-5.08076 703.321 0.63867 708.402 0.638671 715.388C0.638671 721.738 -4.44527 727.454 -11.4357 727.454C-18.4262 727.454 -23.5102 721.738 -23.5102 715.388Z" fill="#064750"/>
<path d="M72.4488 682.998C72.4488 676.648 77.5327 670.932 84.5232 670.932C90.8781 670.932 96.5977 676.013 96.5977 682.998C96.5977 689.349 91.5136 695.065 84.5232 695.065C78.1682 695.065 72.4488 689.984 72.4488 682.998Z" fill="#064750"/>
<path d="M40.6597 682.998C40.6597 676.648 45.7436 670.932 52.7341 670.932C59.0891 670.932 64.8086 676.013 64.8086 682.998C64.8086 689.349 59.7246 695.065 52.7341 695.065C45.7436 695.065 40.6597 689.984 40.6597 682.998Z" fill="#064750"/>
<path d="M8.25735 682.998C8.25735 676.648 13.3414 670.932 20.3318 670.932C26.6868 670.932 32.4062 676.013 32.4062 682.998C32.4062 689.349 27.3223 695.065 20.3318 695.065C13.9769 695.065 8.25735 689.984 8.25735 682.998Z" fill="#064750"/>
<path d="M-23.5102 682.998C-23.5102 676.648 -18.4262 670.932 -11.4357 670.932C-5.08076 670.932 0.63867 676.013 0.638671 682.998C0.638671 689.349 -4.44526 695.065 -11.4357 695.065C-18.4262 695.065 -23.5102 689.984 -23.5102 682.998Z" fill="#064750"/>
<path d="M104.851 651.246C104.851 644.895 109.935 639.18 116.926 639.18C123.281 639.18 129 644.26 129 651.246C129 657.597 123.916 663.312 116.926 663.312C109.935 663.312 104.851 657.597 104.851 651.246Z" fill="#064750"/>
<path d="M72.4488 651.246C72.4488 644.895 77.5327 639.18 84.5232 639.18C90.8781 639.18 96.5977 644.26 96.5977 651.246C96.5977 657.597 91.5136 663.312 84.5232 663.312C78.1682 663.312 72.4488 657.597 72.4488 651.246Z" fill="#064750"/>
<path d="M40.6597 651.246C40.6597 644.895 45.7436 639.18 52.7341 639.18C59.0891 639.18 64.8086 644.26 64.8086 651.246C64.8086 657.597 59.7246 663.312 52.7341 663.312C45.7436 663.312 40.6597 657.597 40.6597 651.246Z" fill="#064750"/>
<path d="M8.25735 651.246C8.25735 644.895 13.3414 639.18 20.3318 639.18C26.6868 639.18 32.4062 644.26 32.4062 651.246C32.4062 657.597 27.3223 663.312 20.3318 663.312C13.9769 663.312 8.25735 657.597 8.25735 651.246Z" fill="#064750"/>
<path d="M-23.5102 651.246C-23.5102 644.895 -18.4262 639.18 -11.4357 639.18C-5.08076 639.18 0.63867 644.26 0.638671 651.246C0.638671 657.597 -4.44526 663.312 -11.4357 663.312C-18.4262 663.312 -23.5102 657.597 -23.5102 651.246Z" fill="#064750"/>
<path d="M116.926 606.79C110.257 606.79 104.851 612.192 104.851 618.856C104.851 625.52 110.257 630.923 116.926 630.923C123.594 630.923 129 625.52 129 618.856C129 612.192 123.594 606.79 116.926 606.79Z" fill="#064750"/>
<path d="M72.4488 618.856C72.4488 612.506 77.5327 606.79 84.5232 606.79C90.8781 606.79 96.5977 611.871 96.5977 618.856C96.5977 625.207 91.5136 630.923 84.5232 630.923C78.1682 630.923 72.4488 625.842 72.4488 618.856Z" fill="#064750"/>
<path d="M52.7341 606.79C46.0656 606.79 40.6597 612.192 40.6597 618.856C40.6597 625.52 46.0656 630.923 52.7341 630.923C59.4026 630.923 64.8086 625.52 64.8086 618.856C64.8086 612.192 59.4026 606.79 52.7341 606.79Z" fill="#064750"/>
<path d="M8.25734 618.856C8.25734 612.506 13.3414 606.79 20.3318 606.79C26.6868 606.79 32.4062 611.871 32.4062 618.856C32.4062 625.207 27.3223 630.923 20.3318 630.923C13.9769 630.923 8.25734 625.842 8.25734 618.856Z" fill="#064750"/>
<path d="M-23.5102 618.856C-23.5102 612.506 -18.4262 606.79 -11.4357 606.79C-5.08076 606.79 0.63867 611.871 0.638671 618.856C0.638671 625.207 -4.44526 630.923 -11.4357 630.923C-18.4262 630.923 -23.5102 625.842 -23.5102 618.856Z" fill="#064750"/>
<path d="M104.851 587.104C104.851 580.753 109.935 575.038 116.926 575.038C123.281 575.038 129 580.118 129 587.104C129 593.455 123.916 599.17 116.926 599.17C109.935 599.17 104.851 593.455 104.851 587.104Z" fill="#064750"/>
<path d="M72.4488 587.104C72.4488 580.753 77.5327 575.038 84.5232 575.038C90.8781 575.038 96.5977 580.118 96.5977 587.104C96.5977 593.455 91.5136 599.17 84.5232 599.17C78.1682 599.17 72.4488 593.455 72.4488 587.104Z" fill="#064750"/>
<path d="M40.6597 587.104C40.6597 580.753 45.7436 575.038 52.7341 575.038C59.0891 575.038 64.8086 580.118 64.8086 587.104C64.8086 593.455 59.7246 599.17 52.7341 599.17C45.7436 599.17 40.6597 593.455 40.6597 587.104Z" fill="#064750"/>
<path d="M8.25735 587.104C8.25735 580.753 13.3414 575.038 20.3318 575.038C26.6868 575.038 32.4062 580.118 32.4062 587.104C32.4062 593.455 27.3223 599.17 20.3318 599.17C13.9769 599.17 8.25735 593.455 8.25735 587.104Z" fill="#064750"/>
<path d="M-23.5102 587.104C-23.5102 580.753 -18.4262 575.038 -11.4357 575.038C-5.08076 575.038 0.63867 580.118 0.638671 587.104C0.638671 593.455 -4.44526 599.17 -11.4357 599.17C-18.4262 599.17 -23.5102 593.455 -23.5102 587.104Z" fill="#064750"/>
<path d="M116.926 542.648C110.257 542.648 104.851 548.051 104.851 554.715C104.851 561.379 110.257 566.781 116.926 566.781C123.594 566.781 129 561.379 129 554.715C129 548.051 123.594 542.648 116.926 542.648Z" fill="#064750"/>
<path d="M72.4507 554.715C72.4507 548.364 77.5346 542.648 84.5251 542.648C90.8801 542.648 96.5996 547.729 96.5996 554.715C96.5996 561.065 91.5156 566.781 84.5251 566.781C78.1701 566.781 72.4507 561.7 72.4507 554.715Z" fill="#064750"/>
<path d="M52.7341 542.648C46.0656 542.648 40.6597 548.051 40.6597 554.715C40.6597 561.379 46.0656 566.781 52.7341 566.781C59.4026 566.781 64.8086 561.379 64.8086 554.715C64.8086 548.051 59.4026 542.648 52.7341 542.648Z" fill="#064750"/>
<path d="M8.25735 554.715C8.25735 548.364 13.3414 542.648 20.3318 542.648C26.6868 542.648 32.4062 547.729 32.4062 554.715C32.4062 561.065 27.3223 566.781 20.3318 566.781C13.9769 566.781 8.25735 561.7 8.25735 554.715Z" fill="#064750"/>
<path d="M-23.5102 554.715C-23.5102 548.364 -18.4262 542.648 -11.4357 542.648C-5.08076 542.648 0.63867 547.729 0.638671 554.715C0.638671 561.065 -4.44526 566.781 -11.4357 566.781C-18.4262 566.781 -23.5102 561.7 -23.5102 554.715Z" fill="#064750"/>
<path d="M104.851 522.962C104.851 516.611 109.935 510.896 116.926 510.896C123.281 510.896 129 515.976 129 522.962C129 529.313 123.916 535.028 116.926 535.028C109.935 535.028 104.851 529.313 104.851 522.962Z" fill="#064750"/>
<path d="M72.4507 522.962C72.4507 516.611 77.5346 510.896 84.5251 510.896C90.8801 510.896 96.5996 515.976 96.5996 522.962C96.5996 529.313 91.5156 535.028 84.5251 535.028C78.1701 535.028 72.4507 529.313 72.4507 522.962Z" fill="#064750"/>
<path d="M40.6597 522.962C40.6597 516.611 45.7436 510.896 52.7341 510.896C59.0891 510.896 64.8086 515.976 64.8086 522.962C64.8086 529.313 59.7246 535.028 52.7341 535.028C45.7436 535.028 40.6597 529.313 40.6597 522.962Z" fill="#064750"/>
<path d="M8.25735 522.962C8.25735 516.611 13.3414 510.896 20.3318 510.896C26.6868 510.896 32.4062 515.976 32.4062 522.962C32.4062 529.313 27.3223 535.028 20.3318 535.028C13.9769 535.028 8.25735 529.313 8.25735 522.962Z" fill="#064750"/>
<path d="M-23.5102 522.962C-23.5102 516.611 -18.4262 510.896 -11.4357 510.896C-5.08076 510.896 0.63867 515.976 0.638671 522.962C0.638671 529.313 -4.44526 535.028 -11.4357 535.028C-18.4262 535.028 -23.5102 529.313 -23.5102 522.962Z" fill="#064750"/>
<path d="M116.926 479.142C110.257 479.142 104.851 484.544 104.851 491.208C104.851 497.872 110.257 503.275 116.926 503.275C123.594 503.275 129 497.872 129 491.208C129 484.544 123.594 479.142 116.926 479.142Z" fill="#064750"/>
<path d="M72.4507 491.208C72.4507 484.858 77.5346 479.142 84.5251 479.142C90.8801 479.142 96.5996 484.222 96.5996 491.208C96.5996 497.559 91.5156 503.275 84.5251 503.275C78.1701 502.639 72.4507 497.559 72.4507 491.208Z" fill="#064750"/>
<path d="M52.7341 479.142C46.0656 479.142 40.6597 484.544 40.6597 491.208C40.6597 497.872 46.0656 503.275 52.7341 503.275C59.4026 503.275 64.8086 497.872 64.8086 491.208C64.8086 484.544 59.4026 479.142 52.7341 479.142Z" fill="#064750"/>
<path d="M8.25734 491.208C8.25734 484.858 13.3414 479.142 20.3318 479.142C26.6868 479.142 32.4062 484.222 32.4062 491.208C32.4062 497.559 27.3223 503.275 20.3318 503.275C13.9769 502.639 8.25734 497.559 8.25734 491.208Z" fill="#064750"/>
<path d="M-23.5102 491.208C-23.5102 484.858 -18.4262 479.142 -11.4357 479.142C-5.08076 479.142 0.63867 484.222 0.638671 491.208C0.638671 497.559 -4.44526 503.275 -11.4357 503.275C-18.4262 502.639 -23.5102 497.559 -23.5102 491.208Z" fill="#064750"/>
<path d="M72.4507 458.82C72.4507 452.47 77.5346 446.754 84.5251 446.754C90.8801 446.754 96.5996 451.834 96.5996 458.82C96.5996 465.171 91.5156 470.886 84.5251 470.886C78.1701 470.886 72.4507 465.171 72.4507 458.82Z" fill="#064750"/>
<path d="M40.6597 458.82C40.6597 452.47 45.7436 446.754 52.7341 446.754C59.0891 446.754 64.8086 451.834 64.8086 458.82C64.8086 465.171 59.7246 470.886 52.7341 470.886C45.7436 470.886 40.6597 465.171 40.6597 458.82Z" fill="#064750"/>
<path d="M8.25735 458.82C8.25735 452.47 13.3414 446.754 20.3318 446.754C26.6868 446.754 32.4062 451.834 32.4062 458.82C32.4062 465.171 27.3223 470.886 20.3318 470.886C13.9769 470.886 8.25735 465.171 8.25735 458.82Z" fill="#064750"/>
<path d="M-23.5102 458.82C-23.5102 452.47 -18.4262 446.754 -11.4357 446.754C-5.08076 446.754 0.63867 451.834 0.638671 458.82C0.638671 465.171 -4.44526 470.886 -11.4357 470.886C-18.4262 470.886 -23.5102 465.171 -23.5102 458.82Z" fill="#064750"/>
<path d="M72.4507 427.066C72.4507 420.716 77.5346 415 84.5251 415C90.8801 415 96.5996 420.08 96.5996 427.066C96.5996 433.417 91.5156 439.133 84.5251 439.133C78.1701 439.133 72.4507 433.417 72.4507 427.066Z" fill="#064750"/>
<path d="M52.7341 415C46.0656 415 40.6597 420.402 40.6597 427.066C40.6597 433.73 46.0656 439.133 52.7341 439.133C59.4026 439.133 64.8086 433.73 64.8086 427.066C64.8086 420.402 59.4026 415 52.7341 415Z" fill="#064750"/>
<path d="M8.25735 427.066C8.25735 420.716 13.3414 415 20.3318 415C26.6868 415 32.4062 420.08 32.4062 427.066C32.4062 433.417 27.3223 439.133 20.3318 439.133C13.9769 439.133 8.25735 433.417 8.25735 427.066Z" fill="#064750"/>
</g>
</svg>
