<svg width="345" height="435" viewBox="0 0 345 435" fill="none" xmlns="http://www.w3.org/2000/svg">
<g opacity="0.07">
<path d="M101.6 5.48413C101.6 7.98212 99.6 10.2803 96.8 10.2803C94.3 10.2803 92 8.28188 92 5.48413C92 2.98614 94 0.687988 96.8 0.687988C99.6 0.687988 101.6 2.98614 101.6 5.48413Z" fill="white"/>
<path d="M101.6 185.037C101.6 187.535 99.6 189.833 96.8 189.833C94.3 189.833 92 187.835 92 185.037C92 182.539 94 180.24 96.8 180.24C99.6 180.24 101.6 182.539 101.6 185.037Z" fill="white"/>
<path d="M114.6 5.48413C114.6 7.98212 112.6 10.2803 109.8 10.2803C107 10.2803 105 8.28188 105 5.48413C105 2.98614 107 0.687988 109.8 0.687988C112.6 0.687988 114.6 2.98614 114.6 5.48413Z" fill="white"/>
<path d="M114.6 185.037C114.6 187.535 112.6 189.833 109.8 189.833C107 189.833 105 187.835 105 185.037C105 182.539 107 180.24 109.8 180.24C112.6 180.24 114.6 182.539 114.6 185.037Z" fill="white"/>
<path d="M127.3 5.48413C127.3 7.98212 125.3 10.2803 122.5 10.2803C120 10.2803 117.7 8.28188 117.7 5.48413C117.7 2.98614 119.7 0.687988 122.5 0.687988C125 0.687988 127.3 2.98614 127.3 5.48413Z" fill="white"/>
<path d="M127.3 185.037C127.3 187.535 125.3 189.833 122.5 189.833C120 189.833 117.7 187.835 117.7 185.037C117.7 182.539 119.7 180.24 122.5 180.24C125 180.24 127.3 182.539 127.3 185.037Z" fill="white"/>
<path d="M140 185.037C140 187.535 138 189.833 135.2 189.833C132.7 189.833 130.4 187.835 130.4 185.037C130.4 182.539 132.4 180.24 135.2 180.24C138 180.24 140 182.539 140 185.037Z" fill="white"/>
<path d="M152.9 185.037C152.9 187.535 150.9 189.833 148.1 189.833C145.6 189.833 143.3 187.835 143.3 185.037C143.3 182.539 145.3 180.24 148.1 180.24C150.6 180.24 152.9 182.539 152.9 185.037Z" fill="white"/>
<path d="M229.8 5.48413C229.8 7.98212 227.8 10.2803 225 10.2803C222.5 10.2803 220.2 8.28188 220.2 5.48413C220.2 2.98614 222.2 0.687988 225 0.687988C227.5 0.687988 229.8 2.98614 229.8 5.48413Z" fill="white"/>
<path d="M242.5 5.48413C242.5 7.98212 240.5 10.2803 237.7 10.2803C235.2 10.2803 232.9 8.28188 232.9 5.48413C232.9 2.98614 234.9 0.687988 237.7 0.687988C240.5 0.687988 242.5 2.98614 242.5 5.48413Z" fill="white"/>
<path d="M255.4 5.48413C255.4 7.98212 253.4 10.2803 250.6 10.2803C248.1 10.2803 245.8 8.28188 245.8 5.48413C245.8 2.98614 247.8 0.687988 250.6 0.687988C253.1 0.687988 255.4 2.98614 255.4 5.48413Z" fill="white"/>
<path d="M12.1 5.48413C12.1 7.98212 10.1 10.2803 7.3 10.2803C4.8 10.2803 2.5 8.28188 2.5 5.48413C2.5 2.98614 4.5 0.687988 7.3 0.687988C10.1 0.687988 12.1 2.98614 12.1 5.48413Z" fill="white"/>
<path d="M12.1 185.037C12.1 187.535 10.1 189.833 7.3 189.833C4.8 189.833 2.5 187.835 2.5 185.037C2.5 182.539 4.5 180.24 7.3 180.24C10.1 180.24 12.1 182.539 12.1 185.037Z" fill="white"/>
<path d="M268.1 5.48413C268.1 7.98212 266.1 10.2803 263.3 10.2803C260.8 10.2803 258.5 8.28188 258.5 5.48413C258.5 2.98614 260.5 0.687988 263.3 0.687988C266.1 0.687988 268.1 2.98614 268.1 5.48413Z" fill="white"/>
<path d="M24.8002 5.48413C24.8002 7.98212 22.8002 10.2803 20.0002 10.2803C17.5002 10.2803 15.2002 8.28188 15.2002 5.48413C15.2002 2.98614 17.2002 0.687988 20.0002 0.687988C22.8002 0.687988 24.8002 2.98614 24.8002 5.48413Z" fill="white"/>
<path d="M24.8002 185.037C24.8002 187.535 22.8002 189.833 20.0002 189.833C17.5002 189.833 15.2002 187.835 15.2002 185.037C15.2002 182.539 17.2002 180.24 20.0002 180.24C22.8002 180.24 24.8002 182.539 24.8002 185.037Z" fill="white"/>
<path d="M280.8 5.48413C280.8 7.98212 278.8 10.2803 276 10.2803C273.5 10.2803 271.2 8.28188 271.2 5.48413C271.2 2.98614 273.2 0.687988 276 0.687988C278.8 0.687988 280.8 2.98614 280.8 5.48413Z" fill="white"/>
<path d="M37.8002 5.48413C37.8002 7.98212 35.8002 10.2803 33.0002 10.2803C30.5002 10.2803 28.2002 8.28188 28.2002 5.48413C28.2002 2.98614 30.2002 0.687988 33.0002 0.687988C35.5002 0.687988 37.8002 2.98614 37.8002 5.48413Z" fill="white"/>
<path d="M37.8002 185.037C37.8002 187.535 35.8002 189.833 33.0002 189.833C30.5002 189.833 28.2002 187.835 28.2002 185.037C28.2002 182.539 30.2002 180.24 33.0002 180.24C35.5002 180.24 37.8002 182.539 37.8002 185.037Z" fill="white"/>
<path d="M293.8 5.48413C293.8 7.98212 291.8 10.2803 289 10.2803C286.5 10.2803 284.2 8.28188 284.2 5.48413C284.2 2.98614 286.2 0.687988 289 0.687988C291.5 0.687988 293.8 2.98614 293.8 5.48413Z" fill="white"/>
<path d="M50.3998 5.48413C50.3998 7.98212 48.3998 10.2803 45.5998 10.2803C43.0998 10.2803 40.7998 8.28188 40.7998 5.48413C40.7998 2.98614 42.7998 0.687988 45.5998 0.687988C48.3998 0.687988 50.3998 2.98614 50.3998 5.48413Z" fill="white"/>
<path d="M50.3998 185.037C50.3998 187.535 48.3998 189.833 45.5998 189.833C43.0998 189.833 40.7998 187.835 40.7998 185.037C40.7998 182.539 42.7998 180.24 45.5998 180.24C48.3998 180.24 50.3998 182.539 50.3998 185.037Z" fill="white"/>
<path d="M306.4 5.48413C306.4 7.98212 304.4 10.2803 301.6 10.2803C299.1 10.2803 296.8 8.28188 296.8 5.48413C296.8 2.98614 298.8 0.687988 301.6 0.687988C304.4 0.687988 306.4 2.98614 306.4 5.48413Z" fill="white"/>
<path d="M63.3998 5.48413C63.3998 7.98212 61.3998 10.2803 58.5998 10.2803C56.0998 10.2803 53.7998 8.28188 53.7998 5.48413C53.7998 2.98614 55.7998 0.687988 58.5998 0.687988C61.0998 0.687988 63.3998 2.98614 63.3998 5.48413Z" fill="white"/>
<path d="M63.3998 185.037C63.3998 187.535 61.3998 189.833 58.5998 189.833C56.0998 189.833 53.7998 187.835 53.7998 185.037C53.7998 182.539 55.7998 180.24 58.5998 180.24C61.0998 180.24 63.3998 182.539 63.3998 185.037Z" fill="white"/>
<path d="M319.4 5.48413C319.4 7.98212 317.4 10.2803 314.6 10.2803C312.1 10.2803 309.8 8.28188 309.8 5.48413C309.8 2.98614 311.8 0.687988 314.6 0.687988C317.1 0.687988 319.4 2.98614 319.4 5.48413Z" fill="white"/>
<path d="M76.1 5.48413C76.1 7.98212 74.1 10.2803 71.3 10.2803C68.8 10.2803 66.5 8.28188 66.5 5.48413C66.5 2.98614 68.5 0.687988 71.3 0.687988C74 0.687988 76.1 2.98614 76.1 5.48413Z" fill="white"/>
<path d="M76.1 185.037C76.1 187.535 74.1 189.833 71.3 189.833C68.8 189.833 66.5 187.835 66.5 185.037C66.5 182.539 68.5 180.24 71.3 180.24C74 180.24 76.1 182.539 76.1 185.037Z" fill="white"/>
<path d="M332.1 5.48413C332.1 7.98212 330.1 10.2803 327.3 10.2803C324.8 10.2803 322.5 8.28188 322.5 5.48413C322.5 2.98614 324.5 0.687988 327.3 0.687988C330 0.687988 332.1 2.98614 332.1 5.48413Z" fill="white"/>
<path d="M88.9999 5.48413C88.9999 7.98212 86.9999 10.2803 84.1999 10.2803C81.6999 10.2803 79.3999 8.28188 79.3999 5.48413C79.3999 2.98614 81.3999 0.687988 84.1999 0.687988C86.6999 0.687988 88.9999 2.98614 88.9999 5.48413Z" fill="white"/>
<path d="M88.9999 185.037C88.9999 187.535 86.9999 189.833 84.1999 189.833C81.6999 189.833 79.3999 187.835 79.3999 185.037C79.3999 182.539 81.3999 180.24 84.1999 180.24C86.6999 180.24 88.9999 182.539 88.9999 185.037Z" fill="white"/>
<path d="M345 5.48413C345 7.98212 343 10.2803 340.2 10.2803C337.7 10.2803 335.4 8.28188 335.4 5.48413C335.4 2.98614 337.4 0.687988 340.2 0.687988C342.7 0.687988 345 2.98614 345 5.48413Z" fill="white"/>
<path d="M101.6 18.4735C101.6 20.9714 99.6 23.2695 96.8 23.2695C94.3 23.2695 92 21.2712 92 18.4735C92 15.9756 94 13.6775 96.8 13.6775C99.6 13.5776 101.6 15.6758 101.6 18.4735Z" fill="white"/>
<path d="M101.6 197.926C101.6 200.424 99.6 202.722 96.8 202.722C94.3 202.722 92 200.724 92 197.926C92 195.428 94 193.13 96.8 193.13C99.6 193.13 101.6 195.228 101.6 197.926Z" fill="white"/>
<path d="M109.8 202.822C112.5 202.822 114.6 200.624 114.6 198.026C114.6 195.428 112.4 193.23 109.8 193.23C107.1 193.23 105 195.428 105 198.026C105 200.624 107.1 202.822 109.8 202.822Z" fill="white"/>
<path d="M127.3 197.926C127.3 200.424 125.3 202.722 122.5 202.722C120 202.722 117.7 200.724 117.7 197.926C117.7 195.428 119.7 193.13 122.5 193.13C125 193.13 127.3 195.228 127.3 197.926Z" fill="white"/>
<path d="M140 197.926C140 200.424 138 202.722 135.2 202.722C132.7 202.722 130.4 200.724 130.4 197.926C130.4 195.428 132.4 193.13 135.2 193.13C138 193.13 140 195.228 140 197.926Z" fill="white"/>
<path d="M229.8 18.4735C229.8 20.9714 227.8 23.2695 225 23.2695C222.5 23.2695 220.2 21.2712 220.2 18.4735C220.2 15.9756 222.2 13.6775 225 13.6775C227.5 13.5776 229.8 15.6758 229.8 18.4735Z" fill="white"/>
<path d="M237.7 23.2695C240.4 23.2695 242.5 21.0714 242.5 18.4735C242.5 15.7757 240.3 13.6775 237.7 13.6775C235.1 13.6775 232.9 15.8757 232.9 18.4735C232.8 21.0714 235 23.2695 237.7 23.2695Z" fill="white"/>
<path d="M255.4 18.4735C255.4 20.9714 253.4 23.2695 250.6 23.2695C248.1 23.2695 245.8 21.2712 245.8 18.4735C245.8 15.9756 247.8 13.6775 250.6 13.6775C253.1 13.5776 255.4 15.6758 255.4 18.4735Z" fill="white"/>
<path d="M7.3 23.2695C10 23.2695 12.1 21.0714 12.1 18.4735C12.1 15.7757 9.9 13.6775 7.3 13.6775C4.6 13.6775 2.5 15.8757 2.5 18.4735C2.5 21.0714 4.6 23.2695 7.3 23.2695Z" fill="white"/>
<path d="M7.3 202.822C10 202.822 12.1 200.624 12.1 198.026C12.1 195.428 9.9 193.23 7.3 193.23C4.6 193.23 2.5 195.428 2.5 198.026C2.5 200.624 4.6 202.822 7.3 202.822Z" fill="white"/>
<path d="M263.3 23.2695C266 23.2695 268.1 21.0714 268.1 18.4735C268.1 15.7757 265.9 13.6775 263.3 13.6775C260.7 13.6775 258.5 15.8757 258.5 18.4735C258.5 21.0714 260.6 23.2695 263.3 23.2695Z" fill="white"/>
<path d="M24.8002 18.4735C24.8002 20.9714 22.8002 23.2695 20.0002 23.2695C17.5002 23.2695 15.2002 21.2712 15.2002 18.4735C15.2002 15.9756 17.2002 13.6775 20.0002 13.6775C22.8002 13.5776 24.8002 15.6758 24.8002 18.4735Z" fill="white"/>
<path d="M24.8002 197.926C24.8002 200.424 22.8002 202.722 20.0002 202.722C17.5002 202.722 15.2002 200.724 15.2002 197.926C15.2002 195.428 17.2002 193.13 20.0002 193.13C22.8002 193.13 24.8002 195.228 24.8002 197.926Z" fill="white"/>
<path d="M280.8 18.4735C280.8 20.9714 278.8 23.2695 276 23.2695C273.5 23.2695 271.2 21.2712 271.2 18.4735C271.2 15.9756 273.2 13.6775 276 13.6775C278.8 13.5776 280.8 15.6758 280.8 18.4735Z" fill="white"/>
<path d="M37.8002 18.4735C37.8002 20.9714 35.8002 23.2695 33.0002 23.2695C30.5002 23.2695 28.2002 21.2712 28.2002 18.4735C28.2002 15.9756 30.2002 13.6775 33.0002 13.6775C35.5002 13.5776 37.8002 15.6758 37.8002 18.4735Z" fill="white"/>
<path d="M37.8002 197.926C37.8002 200.424 35.8002 202.722 33.0002 202.722C30.5002 202.722 28.2002 200.724 28.2002 197.926C28.2002 195.428 30.2002 193.13 33.0002 193.13C35.5002 193.13 37.8002 195.228 37.8002 197.926Z" fill="white"/>
<path d="M293.8 18.4735C293.8 20.9714 291.8 23.2695 289 23.2695C286.5 23.2695 284.2 21.2712 284.2 18.4735C284.2 15.9756 286.2 13.6775 289 13.6775C291.5 13.5776 293.8 15.6758 293.8 18.4735Z" fill="white"/>
<path d="M45.5998 23.2695C48.2998 23.2695 50.3998 21.0714 50.3998 18.4735C50.3998 15.7757 48.1998 13.6775 45.5998 13.6775C42.8998 13.6775 40.7998 15.8757 40.7998 18.4735C40.7998 21.0714 42.9998 23.2695 45.5998 23.2695Z" fill="white"/>
<path d="M45.5998 202.822C48.2998 202.822 50.3998 200.624 50.3998 198.026C50.3998 195.428 48.1998 193.23 45.5998 193.23C42.8998 193.23 40.7998 195.428 40.7998 198.026C40.7998 200.624 42.9998 202.822 45.5998 202.822Z" fill="white"/>
<path d="M301.6 23.2695C304.3 23.2695 306.4 21.0714 306.4 18.4735C306.4 15.7757 304.2 13.6775 301.6 13.6775C298.9 13.6775 296.8 15.8757 296.8 18.4735C296.8 21.0714 299 23.2695 301.6 23.2695Z" fill="white"/>
<path d="M63.3998 18.4735C63.3998 20.9714 61.3998 23.2695 58.5998 23.2695C56.0998 23.2695 53.7998 21.2712 53.7998 18.4735C53.7998 15.9756 55.7998 13.6775 58.5998 13.6775C61.0998 13.5776 63.3998 15.6758 63.3998 18.4735Z" fill="white"/>
<path d="M63.3998 197.926C63.3998 200.424 61.3998 202.722 58.5998 202.722C56.0998 202.722 53.7998 200.724 53.7998 197.926C53.7998 195.428 55.7998 193.13 58.5998 193.13C61.0998 193.13 63.3998 195.228 63.3998 197.926Z" fill="white"/>
<path d="M319.4 18.4735C319.4 20.9714 317.4 23.2695 314.6 23.2695C312.1 23.2695 309.8 21.2712 309.8 18.4735C309.8 15.9756 311.8 13.6775 314.6 13.6775C317.1 13.5776 319.4 15.6758 319.4 18.4735Z" fill="white"/>
<path d="M71.1999 23.2695C73.8999 23.2695 75.9999 21.0714 75.9999 18.4735C75.9999 15.7757 73.7999 13.6775 71.1999 13.6775C68.5999 13.6775 66.3999 15.8757 66.3999 18.4735C66.3999 21.0714 68.5999 23.2695 71.1999 23.2695Z" fill="white"/>
<path d="M71.1999 202.822C73.8999 202.822 75.9999 200.624 75.9999 198.026C75.9999 195.428 73.7999 193.23 71.1999 193.23C68.5999 193.23 66.3999 195.428 66.3999 198.026C66.3999 200.624 68.5999 202.822 71.1999 202.822Z" fill="white"/>
<path d="M88.9999 18.4735C88.9999 20.9714 86.9999 23.2695 84.1999 23.2695C81.6999 23.2695 79.3999 21.2712 79.3999 18.4735C79.3999 15.9756 81.3999 13.6775 84.1999 13.6775C86.6999 13.5776 88.9999 15.6758 88.9999 18.4735Z" fill="white"/>
<path d="M88.9999 197.926C88.9999 200.424 86.9999 202.722 84.1999 202.722C81.6999 202.722 79.3999 200.724 79.3999 197.926C79.3999 195.428 81.3999 193.13 84.1999 193.13C86.6999 193.13 88.9999 195.228 88.9999 197.926Z" fill="white"/>
<path d="M101.6 210.616C101.6 213.114 99.6 215.412 96.8 215.412C94.3 215.412 92 213.414 92 210.616C92 208.118 94 205.82 96.8 205.82C99.6 205.82 101.6 208.118 101.6 210.616Z" fill="white"/>
<path d="M114.6 210.616C114.6 213.114 112.6 215.412 109.8 215.412C107 215.412 105 213.414 105 210.616C105 208.118 107 205.82 109.8 205.82C112.6 205.82 114.6 208.118 114.6 210.616Z" fill="white"/>
<path d="M127.3 210.616C127.3 213.114 125.3 215.412 122.5 215.412C120 215.412 117.7 213.414 117.7 210.616C117.7 208.118 119.7 205.82 122.5 205.82C125 205.82 127.3 208.118 127.3 210.616Z" fill="white"/>
<path d="M191.2 31.1627C191.2 33.6606 189.2 35.9587 186.4 35.9587C183.9 35.9587 181.6 33.9604 181.6 31.1627C181.6 28.6648 183.6 26.3667 186.4 26.3667C189.2 26.2667 191.2 28.5649 191.2 31.1627Z" fill="white"/>
<path d="M204.2 31.1627C204.2 33.6606 202.2 35.9587 199.4 35.9587C196.9 35.9587 194.6 33.9604 194.6 31.1627C194.6 28.6648 196.6 26.3667 199.4 26.3667C201.9 26.2667 204.2 28.5649 204.2 31.1627Z" fill="white"/>
<path d="M216.9 31.1627C216.9 33.6606 214.9 35.9587 212.1 35.9587C209.6 35.9587 207.3 33.9604 207.3 31.1627C207.3 28.6648 209.3 26.3667 212.1 26.3667C214.8 26.2667 216.9 28.5649 216.9 31.1627Z" fill="white"/>
<path d="M229.8 31.1627C229.8 33.6606 227.8 35.9587 225 35.9587C222.5 35.9587 220.2 33.9604 220.2 31.1627C220.2 28.6648 222.2 26.3667 225 26.3667C227.5 26.2667 229.8 28.5649 229.8 31.1627Z" fill="white"/>
<path d="M242.5 31.1627C242.5 33.6606 240.5 35.9587 237.7 35.9587C235.2 35.9587 232.9 33.9604 232.9 31.1627C232.9 28.6648 234.9 26.3667 237.7 26.3667C240.5 26.2667 242.5 28.5649 242.5 31.1627Z" fill="white"/>
<path d="M255.4 31.1627C255.4 33.6606 253.4 35.9587 250.6 35.9587C248.1 35.9587 245.8 33.9604 245.8 31.1627C245.8 28.6648 247.8 26.3667 250.6 26.3667C253.1 26.2667 255.4 28.5649 255.4 31.1627Z" fill="white"/>
<path d="M12.1 31.1627C12.1 33.6606 10.1 35.9587 7.3 35.9587C4.8 35.9587 2.5 33.9604 2.5 31.1627C2.5 28.6648 4.5 26.3667 7.3 26.3667C10.1 26.2667 12.1 28.5649 12.1 31.1627Z" fill="white"/>
<path d="M12.1 210.616C12.1 213.114 10.1 215.412 7.3 215.412C4.8 215.412 2.5 213.414 2.5 210.616C2.5 208.118 4.5 205.82 7.3 205.82C10.1 205.82 12.1 208.118 12.1 210.616Z" fill="white"/>
<path d="M268.1 31.1627C268.1 33.6606 266.1 35.9587 263.3 35.9587C260.8 35.9587 258.5 33.9604 258.5 31.1627C258.5 28.6648 260.5 26.3667 263.3 26.3667C266.1 26.2667 268.1 28.5649 268.1 31.1627Z" fill="white"/>
<path d="M24.8002 31.1627C24.8002 33.6606 22.8002 35.9587 20.0002 35.9587C17.5002 35.9587 15.2002 33.9604 15.2002 31.1627C15.2002 28.6648 17.2002 26.3667 20.0002 26.3667C22.8002 26.2667 24.8002 28.5649 24.8002 31.1627Z" fill="white"/>
<path d="M24.8002 210.616C24.8002 213.114 22.8002 215.412 20.0002 215.412C17.5002 215.412 15.2002 213.414 15.2002 210.616C15.2002 208.118 17.2002 205.82 20.0002 205.82C22.8002 205.82 24.8002 208.118 24.8002 210.616Z" fill="white"/>
<path d="M280.8 31.1627C280.8 33.6606 278.8 35.9587 276 35.9587C273.5 35.9587 271.2 33.9604 271.2 31.1627C271.2 28.6648 273.2 26.3667 276 26.3667C278.8 26.2667 280.8 28.5649 280.8 31.1627Z" fill="white"/>
<path d="M37.8002 31.1627C37.8002 33.6606 35.8002 35.9587 33.0002 35.9587C30.5002 35.9587 28.2002 33.9604 28.2002 31.1627C28.2002 28.6648 30.2002 26.3667 33.0002 26.3667C35.5002 26.2667 37.8002 28.5649 37.8002 31.1627Z" fill="white"/>
<path d="M37.8002 210.616C37.8002 213.114 35.8002 215.412 33.0002 215.412C30.5002 215.412 28.2002 213.414 28.2002 210.616C28.2002 208.118 30.2002 205.82 33.0002 205.82C35.5002 205.82 37.8002 208.118 37.8002 210.616Z" fill="white"/>
<path d="M293.8 31.1627C293.8 33.6606 291.8 35.9587 289 35.9587C286.5 35.9587 284.2 33.9604 284.2 31.1627C284.2 28.6648 286.2 26.3667 289 26.3667C291.5 26.2667 293.8 28.5649 293.8 31.1627Z" fill="white"/>
<path d="M50.3998 31.1627C50.3998 33.6606 48.3998 35.9587 45.5998 35.9587C43.0998 35.9587 40.7998 33.9604 40.7998 31.1627C40.7998 28.6648 42.7998 26.3667 45.5998 26.3667C48.3998 26.2667 50.3998 28.5649 50.3998 31.1627Z" fill="white"/>
<path d="M50.3998 210.616C50.3998 213.114 48.3998 215.412 45.5998 215.412C43.0998 215.412 40.7998 213.414 40.7998 210.616C40.7998 208.118 42.7998 205.82 45.5998 205.82C48.3998 205.82 50.3998 208.118 50.3998 210.616Z" fill="white"/>
<path d="M306.4 31.1627C306.4 33.6606 304.4 35.9587 301.6 35.9587C299.1 35.9587 296.8 33.9604 296.8 31.1627C296.8 28.6648 298.8 26.3667 301.6 26.3667C304.4 26.2667 306.4 28.5649 306.4 31.1627Z" fill="white"/>
<path d="M63.3998 31.1627C63.3998 33.6606 61.3998 35.9587 58.5998 35.9587C56.0998 35.9587 53.7998 33.9604 53.7998 31.1627C53.7998 28.6648 55.7998 26.3667 58.5998 26.3667C61.0998 26.2667 63.3998 28.5649 63.3998 31.1627Z" fill="white"/>
<path d="M63.3998 210.616C63.3998 213.114 61.3998 215.412 58.5998 215.412C56.0998 215.412 53.7998 213.414 53.7998 210.616C53.7998 208.118 55.7998 205.82 58.5998 205.82C61.0998 205.82 63.3998 208.118 63.3998 210.616Z" fill="white"/>
<path d="M76.1 31.1627C76.1 33.6606 74.1 35.9587 71.3 35.9587C68.8 35.9587 66.5 33.9604 66.5 31.1627C66.5 28.6648 68.5 26.3667 71.3 26.3667C74 26.2667 76.1 28.5649 76.1 31.1627Z" fill="white"/>
<path d="M76.1 210.616C76.1 213.114 74.1 215.412 71.3 215.412C68.8 215.412 66.5 213.414 66.5 210.616C66.5 208.118 68.5 205.82 71.3 205.82C74 205.82 76.1 208.118 76.1 210.616Z" fill="white"/>
<path d="M88.9999 210.616C88.9999 213.114 86.9999 215.412 84.1999 215.412C81.6999 215.412 79.3999 213.414 79.3999 210.616C79.3999 208.118 81.3999 205.82 84.1999 205.82C86.6999 205.82 88.9999 208.118 88.9999 210.616Z" fill="white"/>
<path d="M101.6 223.605C101.6 226.103 99.6 228.401 96.8 228.401C94.3 228.401 92 226.403 92 223.605C92 221.107 94 218.809 96.8 218.809C99.6 218.809 101.6 220.807 101.6 223.605Z" fill="white"/>
<path d="M109.8 228.401C112.5 228.401 114.6 226.203 114.6 223.605C114.6 220.907 112.4 218.809 109.8 218.809C107.1 218.809 105 221.007 105 223.605C104.9 226.203 107.1 228.401 109.8 228.401Z" fill="white"/>
<path d="M191.2 44.0527C191.2 46.5506 189.2 48.8486 186.4 48.8486C183.9 48.8486 181.6 46.8503 181.6 44.0527C181.6 41.5549 183.6 39.2568 186.4 39.2568C189.2 39.2568 191.2 41.2551 191.2 44.0527Z" fill="white"/>
<path d="M199.3 48.8486C202 48.8486 204.1 46.6505 204.1 44.0527C204.1 41.355 201.9 39.2568 199.3 39.2568C196.6 39.2568 194.5 41.455 194.5 44.0527C194.5 46.7504 196.7 48.8486 199.3 48.8486Z" fill="white"/>
<path d="M216.9 44.0527C216.9 46.5506 214.9 48.8486 212.1 48.8486C209.6 48.8486 207.3 46.8503 207.3 44.0527C207.3 41.5549 209.3 39.2568 212.1 39.2568C214.8 39.2568 216.9 41.2551 216.9 44.0527Z" fill="white"/>
<path d="M229.8 44.0527C229.8 46.5506 227.8 48.8486 225 48.8486C222.5 48.8486 220.2 46.8503 220.2 44.0527C220.2 41.5549 222.2 39.2568 225 39.2568C227.5 39.2568 229.8 41.2551 229.8 44.0527Z" fill="white"/>
<path d="M237.7 48.8486C240.4 48.8486 242.5 46.6505 242.5 44.0527C242.5 41.355 240.3 39.2568 237.7 39.2568C235.1 39.2568 232.9 41.455 232.9 44.0527C232.8 46.7504 235 48.8486 237.7 48.8486Z" fill="white"/>
<path d="M255.4 44.0527C255.4 46.5506 253.4 48.8486 250.6 48.8486C248.1 48.8486 245.8 46.8503 245.8 44.0527C245.8 41.5549 247.8 39.2568 250.6 39.2568C253.1 39.2568 255.4 41.2551 255.4 44.0527Z" fill="white"/>
<path d="M7.3 48.8486C10 48.8486 12.1 46.6505 12.1 44.0527C12.1 41.355 9.9 39.2568 7.3 39.2568C4.6 39.2568 2.5 41.455 2.5 44.0527C2.5 46.7504 4.6 48.8486 7.3 48.8486Z" fill="white"/>
<path d="M7.3 228.401C10 228.401 12.1 226.203 12.1 223.605C12.1 220.907 9.9 218.809 7.3 218.809C4.6 218.809 2.5 221.007 2.5 223.605C2.5 226.203 4.6 228.401 7.3 228.401Z" fill="white"/>
<path d="M263.3 48.8486C266 48.8486 268.1 46.6505 268.1 44.0527C268.1 41.355 265.9 39.2568 263.3 39.2568C260.7 39.2568 258.5 41.455 258.5 44.0527C258.5 46.7504 260.6 48.8486 263.3 48.8486Z" fill="white"/>
<path d="M24.8002 44.0527C24.8002 46.5506 22.8002 48.8486 20.0002 48.8486C17.5002 48.8486 15.2002 46.8503 15.2002 44.0527C15.2002 41.5549 17.2002 39.2568 20.0002 39.2568C22.8002 39.2568 24.8002 41.2551 24.8002 44.0527Z" fill="white"/>
<path d="M24.8002 223.605C24.8002 226.103 22.8002 228.401 20.0002 228.401C17.5002 228.401 15.2002 226.403 15.2002 223.605C15.2002 221.107 17.2002 218.809 20.0002 218.809C22.8002 218.809 24.8002 220.807 24.8002 223.605Z" fill="white"/>
<path d="M280.8 44.0527C280.8 46.5506 278.8 48.8486 276 48.8486C273.5 48.8486 271.2 46.8503 271.2 44.0527C271.2 41.5549 273.2 39.2568 276 39.2568C278.8 39.2568 280.8 41.2551 280.8 44.0527Z" fill="white"/>
<path d="M37.8002 44.0527C37.8002 46.5506 35.8002 48.8486 33.0002 48.8486C30.5002 48.8486 28.2002 46.8503 28.2002 44.0527C28.2002 41.5549 30.2002 39.2568 33.0002 39.2568C35.5002 39.2568 37.8002 41.2551 37.8002 44.0527Z" fill="white"/>
<path d="M37.8002 223.605C37.8002 226.103 35.8002 228.401 33.0002 228.401C30.5002 228.401 28.2002 226.403 28.2002 223.605C28.2002 221.107 30.2002 218.809 33.0002 218.809C35.5002 218.809 37.8002 220.807 37.8002 223.605Z" fill="white"/>
<path d="M293.8 44.0527C293.8 46.5506 291.8 48.8486 289 48.8486C286.5 48.8486 284.2 46.8503 284.2 44.0527C284.2 41.5549 286.2 39.2568 289 39.2568C291.5 39.2568 293.8 41.2551 293.8 44.0527Z" fill="white"/>
<path d="M45.5998 48.8486C48.2998 48.8486 50.3998 46.6505 50.3998 44.0527C50.3998 41.355 48.1998 39.2568 45.5998 39.2568C42.8998 39.2568 40.7998 41.455 40.7998 44.0527C40.7998 46.7504 42.9998 48.8486 45.5998 48.8486Z" fill="white"/>
<path d="M45.5998 228.401C48.2998 228.401 50.3998 226.203 50.3998 223.605C50.3998 220.907 48.1998 218.809 45.5998 218.809C42.8998 218.809 40.7998 221.007 40.7998 223.605C40.7998 226.203 42.9998 228.401 45.5998 228.401Z" fill="white"/>
<path d="M63.3998 44.0527C63.3998 46.5506 61.3998 48.8486 58.5998 48.8486C56.0998 48.8486 53.7998 46.8503 53.7998 44.0527C53.7998 41.5549 55.7998 39.2568 58.5998 39.2568C61.0998 39.2568 63.3998 41.2551 63.3998 44.0527Z" fill="white"/>
<path d="M63.3998 223.605C63.3998 226.103 61.3998 228.401 58.5998 228.401C56.0998 228.401 53.7998 226.403 53.7998 223.605C53.7998 221.107 55.7998 218.809 58.5998 218.809C61.0998 218.809 63.3998 220.807 63.3998 223.605Z" fill="white"/>
<path d="M71.1999 48.8486C73.8999 48.8486 75.9999 46.6505 75.9999 44.0527C75.9999 41.355 73.7999 39.2568 71.1999 39.2568C68.5999 39.2568 66.3999 41.455 66.3999 44.0527C66.3999 46.7504 68.5999 48.8486 71.1999 48.8486Z" fill="white"/>
<path d="M71.1999 228.401C73.8999 228.401 75.9999 226.203 75.9999 223.605C75.9999 220.907 73.7999 218.809 71.1999 218.809C68.5999 218.809 66.3999 221.007 66.3999 223.605C66.3999 226.203 68.5999 228.401 71.1999 228.401Z" fill="white"/>
<path d="M88.9999 223.605C88.9999 226.103 86.9999 228.401 84.1999 228.401C81.6999 228.401 79.3999 226.403 79.3999 223.605C79.3999 221.107 81.3999 218.809 84.1999 218.809C86.6999 218.809 88.9999 220.807 88.9999 223.605Z" fill="white"/>
<path d="M101.6 236.295C101.6 238.793 99.6 241.091 96.8 241.091C94.3 241.091 92 239.092 92 236.295C92 233.797 94 231.499 96.8 231.499C99.6 231.399 101.6 233.697 101.6 236.295Z" fill="white"/>
<path d="M114.6 236.295C114.6 238.793 112.6 241.091 109.8 241.091C107 241.091 105 239.092 105 236.295C105 233.797 107 231.499 109.8 231.499C112.6 231.399 114.6 233.697 114.6 236.295Z" fill="white"/>
<path d="M191.2 56.7422C191.2 59.2402 189.2 61.5383 186.4 61.5383C183.9 61.5383 181.6 59.5399 181.6 56.7422C181.6 54.2442 183.6 51.946 186.4 51.946C189.2 51.946 191.2 54.1443 191.2 56.7422Z" fill="white"/>
<path d="M204.2 56.7422C204.2 59.2402 202.2 61.5383 199.4 61.5383C196.9 61.5383 194.6 59.5399 194.6 56.7422C194.6 54.2442 196.6 51.946 199.4 51.946C201.9 51.946 204.2 54.1443 204.2 56.7422Z" fill="white"/>
<path d="M216.9 56.7422C216.9 59.2402 214.9 61.5383 212.1 61.5383C209.6 61.5383 207.3 59.5399 207.3 56.7422C207.3 54.2442 209.3 51.946 212.1 51.946C214.8 51.946 216.9 54.1443 216.9 56.7422Z" fill="white"/>
<path d="M229.8 56.7422C229.8 59.2402 227.8 61.5383 225 61.5383C222.5 61.5383 220.2 59.5399 220.2 56.7422C220.2 54.2442 222.2 51.946 225 51.946C227.5 51.946 229.8 54.1443 229.8 56.7422Z" fill="white"/>
<path d="M242.5 56.7422C242.5 59.2402 240.5 61.5383 237.7 61.5383C235.2 61.5383 232.9 59.5399 232.9 56.7422C232.9 54.2442 234.9 51.946 237.7 51.946C240.5 51.946 242.5 54.1443 242.5 56.7422Z" fill="white"/>
<path d="M255.4 56.7422C255.4 59.2402 253.4 61.5383 250.6 61.5383C248.1 61.5383 245.8 59.5399 245.8 56.7422C245.8 54.2442 247.8 51.946 250.6 51.946C253.1 51.946 255.4 54.1443 255.4 56.7422Z" fill="white"/>
<path d="M12.1 56.7422C12.1 59.2402 10.1 61.5383 7.3 61.5383C4.8 61.5383 2.5 59.5399 2.5 56.7422C2.5 54.2442 4.5 51.946 7.3 51.946C10.1 51.946 12.1 54.1443 12.1 56.7422Z" fill="white"/>
<path d="M12.1 236.295C12.1 238.793 10.1 241.091 7.3 241.091C4.8 241.091 2.5 239.092 2.5 236.295C2.5 233.797 4.5 231.499 7.3 231.499C10.1 231.399 12.1 233.697 12.1 236.295Z" fill="white"/>
<path d="M268.1 56.7422C268.1 59.2402 266.1 61.5383 263.3 61.5383C260.8 61.5383 258.5 59.5399 258.5 56.7422C258.5 54.2442 260.5 51.946 263.3 51.946C266.1 51.946 268.1 54.1443 268.1 56.7422Z" fill="white"/>
<path d="M24.8002 56.7422C24.8002 59.2402 22.8002 61.5383 20.0002 61.5383C17.5002 61.5383 15.2002 59.5399 15.2002 56.7422C15.2002 54.2442 17.2002 51.946 20.0002 51.946C22.8002 51.946 24.8002 54.1443 24.8002 56.7422Z" fill="white"/>
<path d="M24.8002 236.295C24.8002 238.793 22.8002 241.091 20.0002 241.091C17.5002 241.091 15.2002 239.092 15.2002 236.295C15.2002 233.797 17.2002 231.499 20.0002 231.499C22.8002 231.399 24.8002 233.697 24.8002 236.295Z" fill="white"/>
<path d="M280.8 56.7422C280.8 59.2402 278.8 61.5383 276 61.5383C273.5 61.5383 271.2 59.5399 271.2 56.7422C271.2 54.2442 273.2 51.946 276 51.946C278.8 51.946 280.8 54.1443 280.8 56.7422Z" fill="white"/>
<path d="M37.8002 56.7422C37.8002 59.2402 35.8002 61.5383 33.0002 61.5383C30.5002 61.5383 28.2002 59.5399 28.2002 56.7422C28.2002 54.2442 30.2002 51.946 33.0002 51.946C35.5002 51.946 37.8002 54.1443 37.8002 56.7422Z" fill="white"/>
<path d="M37.8002 236.295C37.8002 238.793 35.8002 241.091 33.0002 241.091C30.5002 241.091 28.2002 239.092 28.2002 236.295C28.2002 233.797 30.2002 231.499 33.0002 231.499C35.5002 231.399 37.8002 233.697 37.8002 236.295Z" fill="white"/>
<path d="M50.3998 56.7422C50.3998 59.2402 48.3998 61.5383 45.5998 61.5383C43.0998 61.5383 40.7998 59.5399 40.7998 56.7422C40.7998 54.2442 42.7998 51.946 45.5998 51.946C48.3998 51.946 50.3998 54.1443 50.3998 56.7422Z" fill="white"/>
<path d="M50.3998 236.295C50.3998 238.793 48.3998 241.091 45.5998 241.091C43.0998 241.091 40.7998 239.092 40.7998 236.295C40.7998 233.797 42.7998 231.499 45.5998 231.499C48.3998 231.399 50.3998 233.697 50.3998 236.295Z" fill="white"/>
<path d="M63.3998 56.7422C63.3998 59.2402 61.3998 61.5383 58.5998 61.5383C56.0998 61.5383 53.7998 59.5399 53.7998 56.7422C53.7998 54.2442 55.7998 51.946 58.5998 51.946C61.0998 51.946 63.3998 54.1443 63.3998 56.7422Z" fill="white"/>
<path d="M63.3998 236.295C63.3998 238.793 61.3998 241.091 58.5998 241.091C56.0998 241.091 53.7998 239.092 53.7998 236.295C53.7998 233.797 55.7998 231.499 58.5998 231.499C61.0998 231.399 63.3998 233.697 63.3998 236.295Z" fill="white"/>
<path d="M76.1 56.7422C76.1 59.2402 74.1 61.5383 71.3 61.5383C68.8 61.5383 66.5 59.5399 66.5 56.7422C66.5 54.2442 68.5 51.946 71.3 51.946C74 51.946 76.1 54.1443 76.1 56.7422Z" fill="white"/>
<path d="M76.1 236.295C76.1 238.793 74.1 241.091 71.3 241.091C68.8 241.091 66.5 239.092 66.5 236.295C66.5 233.797 68.5 231.499 71.3 231.499C74 231.399 76.1 233.697 76.1 236.295Z" fill="white"/>
<path d="M88.9999 56.7422C88.9999 59.2402 86.9999 61.5383 84.1999 61.5383C81.6999 61.5383 79.3999 59.5399 79.3999 56.7422C79.3999 54.2442 81.3999 51.946 84.1999 51.946C86.6999 51.946 88.9999 54.1443 88.9999 56.7422Z" fill="white"/>
<path d="M88.9999 236.295C88.9999 238.793 86.9999 241.091 84.1999 241.091C81.6999 241.091 79.3999 239.092 79.3999 236.295C79.3999 233.797 81.3999 231.499 84.1999 231.499C86.6999 231.399 88.9999 233.697 88.9999 236.295Z" fill="white"/>
<path d="M101.6 69.6315C101.6 72.1294 99.6 74.4275 96.8 74.4275C94.3 74.4275 92 72.4291 92 69.6315C92 67.1335 94 64.8354 96.8 64.8354C99.6 64.8354 101.6 66.8338 101.6 69.6315Z" fill="white"/>
<path d="M101.6 249.184C101.6 251.682 99.6 253.98 96.8 253.98C94.3 253.98 92 251.982 92 249.184C92 246.686 94 244.388 96.8 244.388C99.6 244.388 101.6 246.386 101.6 249.184Z" fill="white"/>
<path d="M109.8 253.98C112.5 253.98 114.6 251.782 114.6 249.184C114.6 246.586 112.4 244.388 109.8 244.388C107.1 244.388 105 246.586 105 249.184C105 251.782 107.1 253.98 109.8 253.98Z" fill="white"/>
<path d="M191.2 69.6315C191.2 72.1294 189.2 74.4275 186.4 74.4275C183.9 74.4275 181.6 72.4291 181.6 69.6315C181.6 67.1335 183.6 64.8354 186.4 64.8354C189.2 64.8354 191.2 66.8338 191.2 69.6315Z" fill="white"/>
<path d="M199.3 74.4275C202 74.4275 204.1 72.2293 204.1 69.6315C204.1 66.9337 201.9 64.8354 199.3 64.8354C196.6 64.8354 194.5 67.0336 194.5 69.6315C194.5 72.3292 196.7 74.4275 199.3 74.4275Z" fill="white"/>
<path d="M216.9 69.6315C216.9 72.1294 214.9 74.4275 212.1 74.4275C209.6 74.4275 207.3 72.4291 207.3 69.6315C207.3 67.1335 209.3 64.8354 212.1 64.8354C214.8 64.8354 216.9 66.8338 216.9 69.6315Z" fill="white"/>
<path d="M229.8 69.6315C229.8 72.1294 227.8 74.4275 225 74.4275C222.5 74.4275 220.2 72.4291 220.2 69.6315C220.2 67.1335 222.2 64.8354 225 64.8354C227.5 64.8354 229.8 66.8338 229.8 69.6315Z" fill="white"/>
<path d="M237.7 74.4275C240.4 74.4275 242.5 72.2293 242.5 69.6315C242.5 66.9337 240.3 64.8354 237.7 64.8354C235.1 64.8354 232.9 67.0336 232.9 69.6315C232.8 72.3292 235 74.4275 237.7 74.4275Z" fill="white"/>
<path d="M255.4 69.6315C255.4 72.1294 253.4 74.4275 250.6 74.4275C248.1 74.4275 245.8 72.4291 245.8 69.6315C245.8 67.1335 247.8 64.8354 250.6 64.8354C253.1 64.8354 255.4 66.8338 255.4 69.6315Z" fill="white"/>
<path d="M7.3 74.4275C10 74.4275 12.1 72.2293 12.1 69.6315C12.1 66.9337 9.9 64.8354 7.3 64.8354C4.6 64.8354 2.5 67.0336 2.5 69.6315C2.5 72.3292 4.6 74.4275 7.3 74.4275Z" fill="white"/>
<path d="M7.3 253.98C10 253.98 12.1 251.782 12.1 249.184C12.1 246.586 9.9 244.388 7.3 244.388C4.6 244.388 2.5 246.586 2.5 249.184C2.5 251.782 4.6 253.98 7.3 253.98Z" fill="white"/>
<path d="M263.3 74.4275C266 74.4275 268.1 72.2293 268.1 69.6315C268.1 66.9337 265.9 64.8354 263.3 64.8354C260.7 64.8354 258.5 67.0336 258.5 69.6315C258.5 72.3292 260.6 74.4275 263.3 74.4275Z" fill="white"/>
<path d="M24.8002 69.6315C24.8002 72.1294 22.8002 74.4275 20.0002 74.4275C17.5002 74.4275 15.2002 72.4291 15.2002 69.6315C15.2002 67.1335 17.2002 64.8354 20.0002 64.8354C22.8002 64.8354 24.8002 66.8338 24.8002 69.6315Z" fill="white"/>
<path d="M24.8002 249.184C24.8002 251.682 22.8002 253.98 20.0002 253.98C17.5002 253.98 15.2002 251.982 15.2002 249.184C15.2002 246.686 17.2002 244.388 20.0002 244.388C22.8002 244.388 24.8002 246.386 24.8002 249.184Z" fill="white"/>
<path d="M37.8002 69.6315C37.8002 72.1294 35.8002 74.4275 33.0002 74.4275C30.5002 74.4275 28.2002 72.4291 28.2002 69.6315C28.2002 67.1335 30.2002 64.8354 33.0002 64.8354C35.5002 64.8354 37.8002 66.8338 37.8002 69.6315Z" fill="white"/>
<path d="M37.8002 249.184C37.8002 251.682 35.8002 253.98 33.0002 253.98C30.5002 253.98 28.2002 251.982 28.2002 249.184C28.2002 246.686 30.2002 244.388 33.0002 244.388C35.5002 244.388 37.8002 246.386 37.8002 249.184Z" fill="white"/>
<path d="M45.5998 74.4275C48.2998 74.4275 50.3998 72.2293 50.3998 69.6315C50.3998 66.9337 48.1998 64.8354 45.5998 64.8354C42.8998 64.8354 40.7998 67.0336 40.7998 69.6315C40.7998 72.3292 42.9998 74.4275 45.5998 74.4275Z" fill="white"/>
<path d="M45.5998 253.98C48.2998 253.98 50.3998 251.782 50.3998 249.184C50.3998 246.586 48.1998 244.388 45.5998 244.388C42.8998 244.388 40.7998 246.586 40.7998 249.184C40.7998 251.782 42.9998 253.98 45.5998 253.98Z" fill="white"/>
<path d="M63.3998 69.6315C63.3998 72.1294 61.3998 74.4275 58.5998 74.4275C56.0998 74.4275 53.7998 72.4291 53.7998 69.6315C53.7998 67.1335 55.7998 64.8354 58.5998 64.8354C61.0998 64.8354 63.3998 66.8338 63.3998 69.6315Z" fill="white"/>
<path d="M63.3998 249.184C63.3998 251.682 61.3998 253.98 58.5998 253.98C56.0998 253.98 53.7998 251.982 53.7998 249.184C53.7998 246.686 55.7998 244.388 58.5998 244.388C61.0998 244.388 63.3998 246.386 63.3998 249.184Z" fill="white"/>
<path d="M71.1999 74.4275C73.8999 74.4275 75.9999 72.2293 75.9999 69.6315C75.9999 66.9337 73.7999 64.8354 71.1999 64.8354C68.5999 64.8354 66.3999 67.0336 66.3999 69.6315C66.3999 72.3292 68.5999 74.4275 71.1999 74.4275Z" fill="white"/>
<path d="M71.1999 253.98C73.8999 253.98 75.9999 251.782 75.9999 249.184C75.9999 246.586 73.7999 244.388 71.1999 244.388C68.5999 244.388 66.3999 246.586 66.3999 249.184C66.3999 251.782 68.5999 253.98 71.1999 253.98Z" fill="white"/>
<path d="M88.9999 69.6315C88.9999 72.1294 86.9999 74.4275 84.1999 74.4275C81.6999 74.4275 79.3999 72.4291 79.3999 69.6315C79.3999 67.1335 81.3999 64.8354 84.1999 64.8354C86.6999 64.8354 88.9999 66.8338 88.9999 69.6315Z" fill="white"/>
<path d="M88.9999 249.184C88.9999 251.682 86.9999 253.98 84.1999 253.98C81.6999 253.98 79.3999 251.982 79.3999 249.184C79.3999 246.686 81.3999 244.388 84.1999 244.388C86.6999 244.388 88.9999 246.386 88.9999 249.184Z" fill="white"/>
<path d="M101.6 82.321C101.6 84.819 99.6 87.1172 96.8 87.1172C94.3 87.1172 92 85.1188 92 82.321C92 79.823 94 77.5249 96.8 77.5249C99.6 77.5249 101.6 79.823 101.6 82.321Z" fill="white"/>
<path d="M101.6 261.874C101.6 264.372 99.6 266.67 96.8 266.67C94.3 266.67 92 264.671 92 261.874C92 259.376 94 257.078 96.8 257.078C99.6 257.078 101.6 259.376 101.6 261.874Z" fill="white"/>
<path d="M178.5 82.321C178.5 84.819 176.5 87.1172 173.7 87.1172C171.2 87.1172 168.9 85.1188 168.9 82.321C168.9 79.823 170.9 77.5249 173.7 77.5249C176.3 77.5249 178.5 79.823 178.5 82.321Z" fill="white"/>
<path d="M191.2 82.321C191.2 84.819 189.2 87.1172 186.4 87.1172C183.9 87.1172 181.6 85.1188 181.6 82.321C181.6 79.823 183.6 77.5249 186.4 77.5249C189.2 77.5249 191.2 79.823 191.2 82.321Z" fill="white"/>
<path d="M204.2 82.321C204.2 84.819 202.2 87.1172 199.4 87.1172C196.9 87.1172 194.6 85.1188 194.6 82.321C194.6 79.823 196.6 77.5249 199.4 77.5249C201.9 77.5249 204.2 79.823 204.2 82.321Z" fill="white"/>
<path d="M216.9 82.321C216.9 84.819 214.9 87.1172 212.1 87.1172C209.6 87.1172 207.3 85.1188 207.3 82.321C207.3 79.823 209.3 77.5249 212.1 77.5249C214.8 77.5249 216.9 79.823 216.9 82.321Z" fill="white"/>
<path d="M229.8 82.321C229.8 84.819 227.8 87.1172 225 87.1172C222.5 87.1172 220.2 85.1188 220.2 82.321C220.2 79.823 222.2 77.5249 225 77.5249C227.5 77.5249 229.8 79.823 229.8 82.321Z" fill="white"/>
<path d="M242.5 82.321C242.5 84.819 240.5 87.1172 237.7 87.1172C235.2 87.1172 232.9 85.1188 232.9 82.321C232.9 79.823 234.9 77.5249 237.7 77.5249C240.5 77.5249 242.5 79.823 242.5 82.321Z" fill="white"/>
<path d="M255.4 82.321C255.4 84.819 253.4 87.1172 250.6 87.1172C248.1 87.1172 245.8 85.1188 245.8 82.321C245.8 79.823 247.8 77.5249 250.6 77.5249C253.1 77.5249 255.4 79.823 255.4 82.321Z" fill="white"/>
<path d="M12.1 82.321C12.1 84.819 10.1 87.1172 7.3 87.1172C4.8 87.1172 2.5 85.1188 2.5 82.321C2.5 79.823 4.5 77.5249 7.3 77.5249C10.1 77.5249 12.1 79.823 12.1 82.321Z" fill="white"/>
<path d="M12.1 261.874C12.1 264.372 10.1 266.67 7.3 266.67C4.8 266.67 2.5 264.671 2.5 261.874C2.5 259.376 4.5 257.078 7.3 257.078C10.1 257.078 12.1 259.376 12.1 261.874Z" fill="white"/>
<path d="M24.8002 82.321C24.8002 84.819 22.8002 87.1172 20.0002 87.1172C17.5002 87.1172 15.2002 85.1188 15.2002 82.321C15.2002 79.823 17.2002 77.5249 20.0002 77.5249C22.8002 77.5249 24.8002 79.823 24.8002 82.321Z" fill="white"/>
<path d="M24.8002 261.874C24.8002 264.372 22.8002 266.67 20.0002 266.67C17.5002 266.67 15.2002 264.671 15.2002 261.874C15.2002 259.376 17.2002 257.078 20.0002 257.078C22.8002 257.078 24.8002 259.376 24.8002 261.874Z" fill="white"/>
<path d="M37.8002 82.321C37.8002 84.819 35.8002 87.1172 33.0002 87.1172C30.5002 87.1172 28.2002 85.1188 28.2002 82.321C28.2002 79.823 30.2002 77.5249 33.0002 77.5249C35.5002 77.5249 37.8002 79.823 37.8002 82.321Z" fill="white"/>
<path d="M37.8002 261.874C37.8002 264.372 35.8002 266.67 33.0002 266.67C30.5002 266.67 28.2002 264.671 28.2002 261.874C28.2002 259.376 30.2002 257.078 33.0002 257.078C35.5002 257.078 37.8002 259.376 37.8002 261.874Z" fill="white"/>
<path d="M50.3998 82.321C50.3998 84.819 48.3998 87.1172 45.5998 87.1172C43.0998 87.1172 40.7998 85.1188 40.7998 82.321C40.7998 79.823 42.7998 77.5249 45.5998 77.5249C48.3998 77.5249 50.3998 79.823 50.3998 82.321Z" fill="white"/>
<path d="M50.3998 261.874C50.3998 264.372 48.3998 266.67 45.5998 266.67C43.0998 266.67 40.7998 264.671 40.7998 261.874C40.7998 259.376 42.7998 257.078 45.5998 257.078C48.3998 257.078 50.3998 259.376 50.3998 261.874Z" fill="white"/>
<path d="M63.3998 82.321C63.3998 84.819 61.3998 87.1172 58.5998 87.1172C56.0998 87.1172 53.7998 85.1188 53.7998 82.321C53.7998 79.823 55.7998 77.5249 58.5998 77.5249C61.0998 77.5249 63.3998 79.823 63.3998 82.321Z" fill="white"/>
<path d="M63.3998 261.874C63.3998 264.372 61.3998 266.67 58.5998 266.67C56.0998 266.67 53.7998 264.671 53.7998 261.874C53.7998 259.376 55.7998 257.078 58.5998 257.078C61.0998 257.078 63.3998 259.376 63.3998 261.874Z" fill="white"/>
<path d="M76.1 82.321C76.1 84.819 74.1 87.1172 71.3 87.1172C68.8 87.1172 66.5 85.1188 66.5 82.321C66.5 79.823 68.5 77.5249 71.3 77.5249C74 77.5249 76.1 79.823 76.1 82.321Z" fill="white"/>
<path d="M76.1 261.874C76.1 264.372 74.1 266.67 71.3 266.67C68.8 266.67 66.5 264.671 66.5 261.874C66.5 259.376 68.5 257.078 71.3 257.078C74 257.078 76.1 259.376 76.1 261.874Z" fill="white"/>
<path d="M88.9999 82.321C88.9999 84.819 86.9999 87.1172 84.1999 87.1172C81.6999 87.1172 79.3999 85.1188 79.3999 82.321C79.3999 79.823 81.3999 77.5249 84.1999 77.5249C86.6999 77.5249 88.9999 79.823 88.9999 82.321Z" fill="white"/>
<path d="M88.9999 261.874C88.9999 264.372 86.9999 266.67 84.1999 266.67C81.6999 266.67 79.3999 264.671 79.3999 261.874C79.3999 259.376 81.3999 257.078 84.1999 257.078C86.6999 257.078 88.9999 259.376 88.9999 261.874Z" fill="white"/>
<path d="M101.6 95.3103C101.6 97.8082 99.6 100.106 96.8 100.106C94.3 100.106 92 98.1079 92 95.3103C92 92.8124 94 90.5144 96.8 90.5144C99.6 90.4145 101.6 92.5127 101.6 95.3103Z" fill="white"/>
<path d="M101.6 274.763C101.6 277.261 99.6 279.559 96.8 279.559C94.3 279.559 92 277.561 92 274.763C92 272.265 94 269.967 96.8 269.967C99.6 269.967 101.6 271.965 101.6 274.763Z" fill="white"/>
<path d="M109.8 100.106C112.5 100.106 114.6 97.9081 114.6 95.3103C114.6 92.6126 112.4 90.5144 109.8 90.5144C107.1 90.5144 105 92.7125 105 95.3103C104.9 97.9081 107.1 100.106 109.8 100.106Z" fill="white"/>
<path d="M173.7 100.106C176.4 100.106 178.5 97.9081 178.5 95.3103C178.5 92.6126 176.3 90.5144 173.7 90.5144C171.1 90.5144 168.9 92.7125 168.9 95.3103C168.9 97.9081 171.1 100.106 173.7 100.106Z" fill="white"/>
<path d="M191.2 95.3103C191.2 97.8082 189.2 100.106 186.4 100.106C183.9 100.106 181.6 98.1079 181.6 95.3103C181.6 92.8124 183.6 90.5144 186.4 90.5144C189.2 90.4145 191.2 92.5127 191.2 95.3103Z" fill="white"/>
<path d="M199.3 100.106C202 100.106 204.1 97.9081 204.1 95.3103C204.1 92.6126 201.9 90.5144 199.3 90.5144C196.6 90.5144 194.5 92.7125 194.5 95.3103C194.5 97.9081 196.7 100.106 199.3 100.106Z" fill="white"/>
<path d="M216.9 95.3103C216.9 97.8082 214.9 100.106 212.1 100.106C209.6 100.106 207.3 98.1079 207.3 95.3103C207.3 92.8124 209.3 90.5144 212.1 90.5144C214.8 90.4145 216.9 92.5127 216.9 95.3103Z" fill="white"/>
<path d="M229.8 95.3103C229.8 97.8082 227.8 100.106 225 100.106C222.5 100.106 220.2 98.1079 220.2 95.3103C220.2 92.8124 222.2 90.5144 225 90.5144C227.5 90.4145 229.8 92.5127 229.8 95.3103Z" fill="white"/>
<path d="M237.7 100.106C240.4 100.106 242.5 97.9081 242.5 95.3103C242.5 92.6126 240.3 90.5144 237.7 90.5144C235.1 90.5144 232.9 92.7125 232.9 95.3103C232.8 97.9081 235 100.106 237.7 100.106Z" fill="white"/>
<path d="M255.4 95.3103C255.4 97.8082 253.4 100.106 250.6 100.106C248.1 100.106 245.8 98.1079 245.8 95.3103C245.8 92.8124 247.8 90.5144 250.6 90.5144C253.1 90.4145 255.4 92.5127 255.4 95.3103Z" fill="white"/>
<path d="M7.3 100.106C10 100.106 12.1 97.9081 12.1 95.3103C12.1 92.6126 9.9 90.5144 7.3 90.5144C4.6 90.5144 2.5 92.7125 2.5 95.3103C2.5 97.9081 4.6 100.106 7.3 100.106Z" fill="white"/>
<path d="M7.3 279.659C10 279.659 12.1 277.461 12.1 274.863C12.1 272.165 9.9 270.067 7.3 270.067C4.6 270.067 2.5 272.265 2.5 274.863C2.5 277.461 4.6 279.659 7.3 279.659Z" fill="white"/>
<path d="M24.8002 95.3103C24.8002 97.8082 22.8002 100.106 20.0002 100.106C17.5002 100.106 15.2002 98.1079 15.2002 95.3103C15.2002 92.8124 17.2002 90.5144 20.0002 90.5144C22.8002 90.4145 24.8002 92.5127 24.8002 95.3103Z" fill="white"/>
<path d="M24.8002 274.763C24.8002 277.261 22.8002 279.559 20.0002 279.559C17.5002 279.559 15.2002 277.561 15.2002 274.763C15.2002 272.265 17.2002 269.967 20.0002 269.967C22.8002 269.967 24.8002 271.965 24.8002 274.763Z" fill="white"/>
<path d="M37.8002 95.3103C37.8002 97.8082 35.8002 100.106 33.0002 100.106C30.5002 100.106 28.2002 98.1079 28.2002 95.3103C28.2002 92.8124 30.2002 90.5144 33.0002 90.5144C35.5002 90.4145 37.8002 92.5127 37.8002 95.3103Z" fill="white"/>
<path d="M37.8002 274.763C37.8002 277.261 35.8002 279.559 33.0002 279.559C30.5002 279.559 28.2002 277.561 28.2002 274.763C28.2002 272.265 30.2002 269.967 33.0002 269.967C35.5002 269.967 37.8002 271.965 37.8002 274.763Z" fill="white"/>
<path d="M45.5998 100.106C48.2998 100.106 50.3998 97.9081 50.3998 95.3103C50.3998 92.6126 48.1998 90.5144 45.5998 90.5144C42.8998 90.5144 40.7998 92.7125 40.7998 95.3103C40.7998 97.9081 42.9998 100.106 45.5998 100.106Z" fill="white"/>
<path d="M45.5998 279.659C48.2998 279.659 50.3998 277.461 50.3998 274.863C50.3998 272.165 48.1998 270.067 45.5998 270.067C42.8998 270.067 40.7998 272.265 40.7998 274.863C40.7998 277.461 42.9998 279.659 45.5998 279.659Z" fill="white"/>
<path d="M63.3998 95.3103C63.3998 97.8082 61.3998 100.106 58.5998 100.106C56.0998 100.106 53.7998 98.1079 53.7998 95.3103C53.7998 92.8124 55.7998 90.5144 58.5998 90.5144C61.0998 90.4145 63.3998 92.5127 63.3998 95.3103Z" fill="white"/>
<path d="M63.3998 274.763C63.3998 277.261 61.3998 279.559 58.5998 279.559C56.0998 279.559 53.7998 277.561 53.7998 274.763C53.7998 272.265 55.7998 269.967 58.5998 269.967C61.0998 269.967 63.3998 271.965 63.3998 274.763Z" fill="white"/>
<path d="M71.1999 100.106C73.8999 100.106 75.9999 97.9081 75.9999 95.3103C75.9999 92.6126 73.7999 90.5144 71.1999 90.5144C68.5999 90.5144 66.3999 92.7125 66.3999 95.3103C66.3999 97.9081 68.5999 100.106 71.1999 100.106Z" fill="white"/>
<path d="M71.1999 279.659C73.8999 279.659 75.9999 277.461 75.9999 274.863C75.9999 272.165 73.7999 270.067 71.1999 270.067C68.5999 270.067 66.3999 272.265 66.3999 274.863C66.3999 277.461 68.5999 279.659 71.1999 279.659Z" fill="white"/>
<path d="M88.9999 95.3103C88.9999 97.8082 86.9999 100.106 84.1999 100.106C81.6999 100.106 79.3999 98.1079 79.3999 95.3103C79.3999 92.8124 81.3999 90.5144 84.1999 90.5144C86.6999 90.4145 88.9999 92.5127 88.9999 95.3103Z" fill="white"/>
<path d="M88.9999 274.763C88.9999 277.261 86.9999 279.559 84.1999 279.559C81.6999 279.559 79.3999 277.561 79.3999 274.763C79.3999 272.265 81.3999 269.967 84.1999 269.967C86.6999 269.967 88.9999 271.965 88.9999 274.763Z" fill="white"/>
<path d="M101.6 107.9C101.6 110.398 99.6 112.697 96.8 112.697C94.3 112.697 92 110.698 92 107.9C92 105.402 94 103.104 96.8 103.104C99.6 103.104 101.6 105.402 101.6 107.9Z" fill="white"/>
<path d="M101.6 287.453C101.6 289.951 99.6 292.249 96.8 292.249C94.3 292.249 92 290.25 92 287.453C92 284.955 94 282.656 96.8 282.656C99.6 282.656 101.6 284.955 101.6 287.453Z" fill="white"/>
<path d="M114.6 107.9C114.6 110.398 112.6 112.697 109.8 112.697C107 112.697 105 110.698 105 107.9C105 105.402 107 103.104 109.8 103.104C112.6 103.104 114.6 105.402 114.6 107.9Z" fill="white"/>
<path d="M127.3 107.9C127.3 110.398 125.3 112.697 122.5 112.697C120 112.697 117.7 110.698 117.7 107.9C117.7 105.402 119.7 103.104 122.5 103.104C125 103.104 127.3 105.402 127.3 107.9Z" fill="white"/>
<path d="M140 107.9C140 110.398 138 112.697 135.2 112.697C132.7 112.697 130.4 110.698 130.4 107.9C130.4 105.402 132.4 103.104 135.2 103.104C138 103.104 140 105.402 140 107.9Z" fill="white"/>
<path d="M152.9 107.9C152.9 110.398 150.9 112.697 148.1 112.697C145.6 112.697 143.3 110.698 143.3 107.9C143.3 105.402 145.3 103.104 148.1 103.104C150.6 103.104 152.9 105.402 152.9 107.9Z" fill="white"/>
<path d="M165.6 107.9C165.6 110.398 163.6 112.697 160.8 112.697C158.3 112.697 156 110.698 156 107.9C156 105.402 158 103.104 160.8 103.104C163.6 103.104 165.6 105.402 165.6 107.9Z" fill="white"/>
<path d="M178.5 107.9C178.5 110.398 176.5 112.697 173.7 112.697C171.2 112.697 168.9 110.698 168.9 107.9C168.9 105.402 170.9 103.104 173.7 103.104C176.3 103.104 178.5 105.402 178.5 107.9Z" fill="white"/>
<path d="M191.2 107.9C191.2 110.398 189.2 112.697 186.4 112.697C183.9 112.697 181.6 110.698 181.6 107.9C181.6 105.402 183.6 103.104 186.4 103.104C189.2 103.104 191.2 105.402 191.2 107.9Z" fill="white"/>
<path d="M204.2 107.9C204.2 110.398 202.2 112.697 199.4 112.697C196.9 112.697 194.6 110.698 194.6 107.9C194.6 105.402 196.6 103.104 199.4 103.104C201.9 103.104 204.2 105.402 204.2 107.9Z" fill="white"/>
<path d="M216.9 107.9C216.9 110.398 214.9 112.697 212.1 112.697C209.6 112.697 207.3 110.698 207.3 107.9C207.3 105.402 209.3 103.104 212.1 103.104C214.8 103.104 216.9 105.402 216.9 107.9Z" fill="white"/>
<path d="M229.8 107.9C229.8 110.398 227.8 112.697 225 112.697C222.5 112.697 220.2 110.698 220.2 107.9C220.2 105.402 222.2 103.104 225 103.104C227.5 103.104 229.8 105.402 229.8 107.9Z" fill="white"/>
<path d="M242.5 107.9C242.5 110.398 240.5 112.697 237.7 112.697C235.2 112.697 232.9 110.698 232.9 107.9C232.9 105.402 234.9 103.104 237.7 103.104C240.5 103.104 242.5 105.402 242.5 107.9Z" fill="white"/>
<path d="M12.1 107.9C12.1 110.398 10.1 112.697 7.3 112.697C4.8 112.697 2.5 110.698 2.5 107.9C2.5 105.402 4.5 103.104 7.3 103.104C10.1 103.104 12.1 105.402 12.1 107.9Z" fill="white"/>
<path d="M12.1 287.453C12.1 289.951 10.1 292.249 7.3 292.249C4.8 292.249 2.5 290.25 2.5 287.453C2.5 284.955 4.5 282.656 7.3 282.656C10.1 282.656 12.1 284.955 12.1 287.453Z" fill="white"/>
<path d="M24.8002 107.9C24.8002 110.398 22.8002 112.697 20.0002 112.697C17.5002 112.697 15.2002 110.698 15.2002 107.9C15.2002 105.402 17.2002 103.104 20.0002 103.104C22.8002 103.104 24.8002 105.402 24.8002 107.9Z" fill="white"/>
<path d="M24.8002 287.453C24.8002 289.951 22.8002 292.249 20.0002 292.249C17.5002 292.249 15.2002 290.25 15.2002 287.453C15.2002 284.955 17.2002 282.656 20.0002 282.656C22.8002 282.656 24.8002 284.955 24.8002 287.453Z" fill="white"/>
<path d="M37.8002 107.9C37.8002 110.398 35.8002 112.697 33.0002 112.697C30.5002 112.697 28.2002 110.698 28.2002 107.9C28.2002 105.402 30.2002 103.104 33.0002 103.104C35.5002 103.104 37.8002 105.402 37.8002 107.9Z" fill="white"/>
<path d="M37.8002 287.453C37.8002 289.951 35.8002 292.249 33.0002 292.249C30.5002 292.249 28.2002 290.25 28.2002 287.453C28.2002 284.955 30.2002 282.656 33.0002 282.656C35.5002 282.656 37.8002 284.955 37.8002 287.453Z" fill="white"/>
<path d="M50.3998 107.9C50.3998 110.398 48.3998 112.697 45.5998 112.697C43.0998 112.697 40.7998 110.698 40.7998 107.9C40.7998 105.402 42.7998 103.104 45.5998 103.104C48.3998 103.104 50.3998 105.402 50.3998 107.9Z" fill="white"/>
<path d="M50.3998 287.453C50.3998 289.951 48.3998 292.249 45.5998 292.249C43.0998 292.249 40.7998 290.25 40.7998 287.453C40.7998 284.955 42.7998 282.656 45.5998 282.656C48.3998 282.656 50.3998 284.955 50.3998 287.453Z" fill="white"/>
<path d="M63.3998 107.9C63.3998 110.398 61.3998 112.697 58.5998 112.697C56.0998 112.697 53.7998 110.698 53.7998 107.9C53.7998 105.402 55.7998 103.104 58.5998 103.104C61.0998 103.104 63.3998 105.402 63.3998 107.9Z" fill="white"/>
<path d="M63.3998 287.453C63.3998 289.951 61.3998 292.249 58.5998 292.249C56.0998 292.249 53.7998 290.25 53.7998 287.453C53.7998 284.955 55.7998 282.656 58.5998 282.656C61.0998 282.656 63.3998 284.955 63.3998 287.453Z" fill="white"/>
<path d="M76.1 107.9C76.1 110.398 74.1 112.697 71.3 112.697C68.8 112.697 66.5 110.698 66.5 107.9C66.5 105.402 68.5 103.104 71.3 103.104C74 103.104 76.1 105.402 76.1 107.9Z" fill="white"/>
<path d="M76.1 287.453C76.1 289.951 74.1 292.249 71.3 292.249C68.8 292.249 66.5 290.25 66.5 287.453C66.5 284.955 68.5 282.656 71.3 282.656C74 282.656 76.1 284.955 76.1 287.453Z" fill="white"/>
<path d="M88.9999 107.9C88.9999 110.398 86.9999 112.697 84.1999 112.697C81.6999 112.697 79.3999 110.698 79.3999 107.9C79.3999 105.402 81.3999 103.104 84.1999 103.104C86.6999 103.104 88.9999 105.402 88.9999 107.9Z" fill="white"/>
<path d="M88.9999 287.453C88.9999 289.951 86.9999 292.249 84.1999 292.249C81.6999 292.249 79.3999 290.25 79.3999 287.453C79.3999 284.955 81.3999 282.656 84.1999 282.656C86.6999 282.656 88.9999 284.955 88.9999 287.453Z" fill="white"/>
<path d="M101.6 120.59C101.6 123.088 99.6 125.386 96.8 125.386C94.3 125.386 92 123.387 92 120.59C92 118.092 94 115.794 96.8 115.794C99.6 116.093 101.6 118.092 101.6 120.59Z" fill="white"/>
<path d="M109.8 125.486C112.5 125.486 114.6 123.287 114.6 120.69C114.6 117.992 112.4 115.894 109.8 115.894C107.1 115.894 105 118.092 105 120.69C104.9 123.287 107.1 125.486 109.8 125.486Z" fill="white"/>
<path d="M127.3 120.59C127.3 123.088 125.3 125.386 122.5 125.386C120 125.386 117.7 123.387 117.7 120.59C117.7 118.092 119.7 115.794 122.5 115.794C125 116.093 127.3 118.092 127.3 120.59Z" fill="white"/>
<path d="M140 120.59C140 123.088 138 125.386 135.2 125.386C132.7 125.386 130.4 123.387 130.4 120.59C130.4 118.092 132.4 115.794 135.2 115.794C137.9 116.093 140 118.092 140 120.59Z" fill="white"/>
<path d="M152.9 120.59C152.9 123.088 150.9 125.386 148.1 125.386C145.6 125.386 143.3 123.387 143.3 120.59C143.3 118.092 145.3 115.794 148.1 115.794C150.6 116.093 152.9 118.092 152.9 120.59Z" fill="white"/>
<path d="M165.6 120.59C165.6 123.088 163.6 125.386 160.8 125.386C158.3 125.386 156 123.387 156 120.59C156 118.092 158 115.794 160.8 115.794C163.6 116.093 165.6 118.092 165.6 120.59Z" fill="white"/>
<path d="M173.7 125.486C176.4 125.486 178.5 123.287 178.5 120.69C178.5 117.992 176.3 115.894 173.7 115.894C171.1 115.894 168.9 118.092 168.9 120.69C168.9 123.287 171.1 125.486 173.7 125.486Z" fill="white"/>
<path d="M191.2 120.59C191.2 123.088 189.2 125.386 186.4 125.386C183.9 125.386 181.6 123.387 181.6 120.59C181.6 118.092 183.6 115.794 186.4 115.794C189.2 116.093 191.2 118.092 191.2 120.59Z" fill="white"/>
<path d="M199.3 125.486C202 125.486 204.1 123.287 204.1 120.69C204.1 117.992 201.9 115.894 199.3 115.894C196.6 115.894 194.5 118.092 194.5 120.69C194.5 123.287 196.7 125.486 199.3 125.486Z" fill="white"/>
<path d="M216.9 120.59C216.9 123.088 214.9 125.386 212.1 125.386C209.6 125.386 207.3 123.387 207.3 120.59C207.3 118.092 209.3 115.794 212.1 115.794C214.8 116.093 216.9 118.092 216.9 120.59Z" fill="white"/>
<path d="M229.8 120.59C229.8 123.088 227.8 125.386 225 125.386C222.5 125.386 220.2 123.387 220.2 120.59C220.2 118.092 222.2 115.794 225 115.794C227.5 116.093 229.8 118.092 229.8 120.59Z" fill="white"/>
<path d="M237.7 125.486C240.4 125.486 242.5 123.287 242.5 120.69C242.5 117.992 240.3 115.894 237.7 115.894C235.1 115.894 232.9 118.092 232.9 120.69C232.8 123.287 235 125.486 237.7 125.486Z" fill="white"/>
<path d="M7.3 125.486C10 125.486 12.1 123.287 12.1 120.69C12.1 117.992 9.9 115.894 7.3 115.894C4.6 115.894 2.5 118.092 2.5 120.69C2.5 123.287 4.6 125.486 7.3 125.486Z" fill="white"/>
<path d="M7.3 304.938C10 304.938 12.1 302.74 12.1 300.142C12.1 297.544 9.9 295.346 7.3 295.346C4.6 295.346 2.5 297.544 2.5 300.142C2.5 302.74 4.6 304.938 7.3 304.938Z" fill="white"/>
<path d="M24.8002 120.59C24.8002 123.088 22.8002 125.386 20.0002 125.386C17.5002 125.386 15.2002 123.387 15.2002 120.59C15.2002 118.092 17.2002 115.794 20.0002 115.794C22.8002 116.093 24.8002 118.092 24.8002 120.59Z" fill="white"/>
<path d="M24.8002 300.142C24.8002 302.64 22.8002 304.938 20.0002 304.938C17.5002 304.938 15.2002 302.94 15.2002 300.142C15.2002 297.644 17.2002 295.346 20.0002 295.346C22.8002 295.546 24.8002 297.644 24.8002 300.142Z" fill="white"/>
<path d="M37.8002 120.59C37.8002 123.088 35.8002 125.386 33.0002 125.386C30.5002 125.386 28.2002 123.387 28.2002 120.59C28.2002 118.092 30.2002 115.794 33.0002 115.794C35.5002 116.093 37.8002 118.092 37.8002 120.59Z" fill="white"/>
<path d="M37.8002 300.142C37.8002 302.64 35.8002 304.938 33.0002 304.938C30.5002 304.938 28.2002 302.94 28.2002 300.142C28.2002 297.644 30.2002 295.346 33.0002 295.346C35.5002 295.546 37.8002 297.644 37.8002 300.142Z" fill="white"/>
<path d="M45.5998 125.486C48.2998 125.486 50.3998 123.287 50.3998 120.69C50.3998 117.992 48.1998 115.894 45.5998 115.894C42.8998 115.894 40.7998 118.092 40.7998 120.69C40.7998 123.287 42.9998 125.486 45.5998 125.486Z" fill="white"/>
<path d="M45.5998 304.938C48.2998 304.938 50.3998 302.74 50.3998 300.142C50.3998 297.544 48.1998 295.346 45.5998 295.346C42.8998 295.346 40.7998 297.544 40.7998 300.142C40.7998 302.74 42.9998 304.938 45.5998 304.938Z" fill="white"/>
<path d="M63.3998 120.59C63.3998 123.088 61.3998 125.386 58.5998 125.386C56.0998 125.386 53.7998 123.387 53.7998 120.59C53.7998 118.092 55.7998 115.794 58.5998 115.794C61.0998 116.093 63.3998 118.092 63.3998 120.59Z" fill="white"/>
<path d="M63.3998 300.142C63.3998 302.64 61.3998 304.938 58.5998 304.938C56.0998 304.938 53.7998 302.94 53.7998 300.142C53.7998 297.644 55.7998 295.346 58.5998 295.346C61.0998 295.546 63.3998 297.644 63.3998 300.142Z" fill="white"/>
<path d="M71.1999 125.486C73.8999 125.486 75.9999 123.287 75.9999 120.69C75.9999 117.992 73.7999 115.894 71.1999 115.894C68.5999 115.894 66.3999 118.092 66.3999 120.69C66.3999 123.287 68.5999 125.486 71.1999 125.486Z" fill="white"/>
<path d="M71.1999 304.938C73.8999 304.938 75.9999 302.74 75.9999 300.142C75.9999 297.544 73.7999 295.346 71.1999 295.346C68.5999 295.346 66.3999 297.544 66.3999 300.142C66.3999 302.74 68.5999 304.938 71.1999 304.938Z" fill="white"/>
<path d="M88.9999 120.59C88.9999 123.088 86.9999 125.386 84.1999 125.386C81.6999 125.386 79.3999 123.387 79.3999 120.59C79.3999 118.092 81.3999 115.794 84.1999 115.794C86.6999 116.093 88.9999 118.092 88.9999 120.59Z" fill="white"/>
<path d="M88.9999 300.142C88.9999 302.64 86.9999 304.938 84.1999 304.938C81.6999 304.938 79.3999 302.94 79.3999 300.142C79.3999 297.644 81.3999 295.346 84.1999 295.346C86.6999 295.546 88.9999 297.644 88.9999 300.142Z" fill="white"/>
<path d="M101.6 133.579C101.6 136.077 99.6 138.375 96.8 138.375C94.3 138.375 92 136.377 92 133.579C92 131.081 94 128.783 96.8 128.783C99.6 128.783 101.6 130.781 101.6 133.579Z" fill="white"/>
<path d="M114.6 133.579C114.6 136.077 112.6 138.375 109.8 138.375C107 138.375 105 136.377 105 133.579C105 131.081 107 128.783 109.8 128.783C112.6 128.783 114.6 130.781 114.6 133.579Z" fill="white"/>
<path d="M127.3 133.579C127.3 136.077 125.3 138.375 122.5 138.375C120 138.375 117.7 136.377 117.7 133.579C117.7 131.081 119.7 128.783 122.5 128.783C125 128.783 127.3 130.781 127.3 133.579Z" fill="white"/>
<path d="M140 133.579C140 136.077 138 138.375 135.2 138.375C132.7 138.375 130.4 136.377 130.4 133.579C130.4 131.081 132.4 128.783 135.2 128.783C138 128.783 140 130.781 140 133.579Z" fill="white"/>
<path d="M152.9 133.579C152.9 136.077 150.9 138.375 148.1 138.375C145.6 138.375 143.3 136.377 143.3 133.579C143.3 131.081 145.3 128.783 148.1 128.783C150.6 128.783 152.9 130.781 152.9 133.579Z" fill="white"/>
<path d="M165.6 133.579C165.6 136.077 163.6 138.375 160.8 138.375C158.3 138.375 156 136.377 156 133.579C156 131.081 158 128.783 160.8 128.783C163.6 128.783 165.6 130.781 165.6 133.579Z" fill="white"/>
<path d="M178.5 133.579C178.5 136.077 176.5 138.375 173.7 138.375C171.2 138.375 168.9 136.377 168.9 133.579C168.9 131.081 170.9 128.783 173.7 128.783C176.3 128.783 178.5 130.781 178.5 133.579Z" fill="white"/>
<path d="M191.2 133.579C191.2 136.077 189.2 138.375 186.4 138.375C183.9 138.375 181.6 136.377 181.6 133.579C181.6 131.081 183.6 128.783 186.4 128.783C189.2 128.783 191.2 130.781 191.2 133.579Z" fill="white"/>
<path d="M204.2 133.579C204.2 136.077 202.2 138.375 199.4 138.375C196.9 138.375 194.6 136.377 194.6 133.579C194.6 131.081 196.6 128.783 199.4 128.783C201.9 128.783 204.2 130.781 204.2 133.579Z" fill="white"/>
<path d="M216.9 133.579C216.9 136.077 214.9 138.375 212.1 138.375C209.6 138.375 207.3 136.377 207.3 133.579C207.3 131.081 209.3 128.783 212.1 128.783C214.8 128.783 216.9 130.781 216.9 133.579Z" fill="white"/>
<path d="M229.8 133.579C229.8 136.077 227.8 138.375 225 138.375C222.5 138.375 220.2 136.377 220.2 133.579C220.2 131.081 222.2 128.783 225 128.783C227.5 128.783 229.8 130.781 229.8 133.579Z" fill="white"/>
<path d="M12.1 133.579C12.1 136.077 10.1 138.375 7.3 138.375C4.8 138.375 2.5 136.377 2.5 133.579C2.5 131.081 4.5 128.783 7.3 128.783C10.1 128.783 12.1 130.781 12.1 133.579Z" fill="white"/>
<path d="M12.1 313.131C12.1 315.629 10.1 317.927 7.3 317.927C4.8 317.927 2.5 315.929 2.5 313.131C2.5 310.634 4.5 308.335 7.3 308.335C10.1 308.236 12.1 310.334 12.1 313.131Z" fill="white"/>
<path d="M24.8002 133.579C24.8002 136.077 22.8002 138.375 20.0002 138.375C17.5002 138.375 15.2002 136.377 15.2002 133.579C15.2002 131.081 17.2002 128.783 20.0002 128.783C22.8002 128.783 24.8002 130.781 24.8002 133.579Z" fill="white"/>
<path d="M24.8002 313.131C24.8002 315.629 22.8002 317.927 20.0002 317.927C17.5002 317.927 15.2002 315.929 15.2002 313.131C15.2002 310.634 17.2002 308.335 20.0002 308.335C22.8002 308.236 24.8002 310.334 24.8002 313.131Z" fill="white"/>
<path d="M37.8002 133.579C37.8002 136.077 35.8002 138.375 33.0002 138.375C30.5002 138.375 28.2002 136.377 28.2002 133.579C28.2002 131.081 30.2002 128.783 33.0002 128.783C35.5002 128.783 37.8002 130.781 37.8002 133.579Z" fill="white"/>
<path d="M37.8002 313.131C37.8002 315.629 35.8002 317.927 33.0002 317.927C30.5002 317.927 28.2002 315.929 28.2002 313.131C28.2002 310.634 30.2002 308.335 33.0002 308.335C35.5002 308.236 37.8002 310.334 37.8002 313.131Z" fill="white"/>
<path d="M50.3998 133.579C50.3998 136.077 48.3998 138.375 45.5998 138.375C43.0998 138.375 40.7998 136.377 40.7998 133.579C40.7998 131.081 42.7998 128.783 45.5998 128.783C48.3998 128.783 50.3998 130.781 50.3998 133.579Z" fill="white"/>
<path d="M50.3998 313.131C50.3998 315.629 48.3998 317.927 45.5998 317.927C43.0998 317.927 40.7998 315.929 40.7998 313.131C40.7998 310.634 42.7998 308.335 45.5998 308.335C48.3998 308.236 50.3998 310.334 50.3998 313.131Z" fill="white"/>
<path d="M63.3998 133.579C63.3998 136.077 61.3998 138.375 58.5998 138.375C56.0998 138.375 53.7998 136.377 53.7998 133.579C53.7998 131.081 55.7998 128.783 58.5998 128.783C61.0998 128.783 63.3998 130.781 63.3998 133.579Z" fill="white"/>
<path d="M76.1 133.579C76.1 136.077 74.1 138.375 71.3 138.375C68.8 138.375 66.5 136.377 66.5 133.579C66.5 131.081 68.5 128.783 71.3 128.783C74 128.783 76.1 130.781 76.1 133.579Z" fill="white"/>
<path d="M88.9999 133.579C88.9999 136.077 86.9999 138.375 84.1999 138.375C81.6999 138.375 79.3999 136.377 79.3999 133.579C79.3999 131.081 81.3999 128.783 84.1999 128.783C86.6999 128.783 88.9999 130.781 88.9999 133.579Z" fill="white"/>
<path d="M101.6 146.269C101.6 148.767 99.6 151.065 96.8 151.065C94.3 151.065 92 149.067 92 146.269C92 143.771 94 141.473 96.8 141.473C99.6 141.373 101.6 143.671 101.6 146.269Z" fill="white"/>
<path d="M114.6 146.269C114.6 148.767 112.6 151.065 109.8 151.065C107 151.065 105 149.067 105 146.269C105 143.771 107 141.473 109.8 141.473C112.6 141.373 114.6 143.671 114.6 146.269Z" fill="white"/>
<path d="M127.3 146.269C127.3 148.767 125.3 151.065 122.5 151.065C120 151.065 117.7 149.067 117.7 146.269C117.7 143.771 119.7 141.473 122.5 141.473C125 141.373 127.3 143.671 127.3 146.269Z" fill="white"/>
<path d="M140 146.269C140 148.767 138 151.065 135.2 151.065C132.7 151.065 130.4 149.066 130.4 146.269C130.4 143.771 132.4 141.472 135.2 141.472C138 141.472 140 143.671 140 146.269Z" fill="white"/>
<path d="M152.9 146.269C152.9 148.767 150.9 151.065 148.1 151.065C145.6 151.065 143.3 149.067 143.3 146.269C143.3 143.771 145.3 141.473 148.1 141.473C150.6 141.373 152.9 143.671 152.9 146.269Z" fill="white"/>
<path d="M165.6 146.269C165.6 148.767 163.6 151.065 160.8 151.065C158.3 151.065 156 149.067 156 146.269C156 143.771 158 141.473 160.8 141.473C163.6 141.373 165.6 143.671 165.6 146.269Z" fill="white"/>
<path d="M178.5 146.269C178.5 148.767 176.5 151.065 173.7 151.065C171.2 151.065 168.9 149.067 168.9 146.269C168.9 143.771 170.9 141.473 173.7 141.473C176.3 141.373 178.5 143.671 178.5 146.269Z" fill="white"/>
<path d="M191.2 146.269C191.2 148.767 189.2 151.065 186.4 151.065C183.9 151.065 181.6 149.067 181.6 146.269C181.6 143.771 183.6 141.473 186.4 141.473C189.2 141.373 191.2 143.671 191.2 146.269Z" fill="white"/>
<path d="M204.2 146.269C204.2 148.767 202.2 151.065 199.4 151.065C196.9 151.065 194.6 149.067 194.6 146.269C194.6 143.771 196.6 141.473 199.4 141.473C201.9 141.373 204.2 143.671 204.2 146.269Z" fill="white"/>
<path d="M216.9 146.269C216.9 148.767 214.9 151.065 212.1 151.065C209.6 151.065 207.3 149.067 207.3 146.269C207.3 143.771 209.3 141.473 212.1 141.473C214.8 141.373 216.9 143.671 216.9 146.269Z" fill="white"/>
<path d="M229.8 146.269C229.8 148.767 227.8 151.065 225 151.065C222.5 151.065 220.2 149.067 220.2 146.269C220.2 143.771 222.2 141.473 225 141.473C227.5 141.373 229.8 143.671 229.8 146.269Z" fill="white"/>
<path d="M12.1 146.269C12.1 148.767 10.1 151.065 7.3 151.065C4.8 151.065 2.5 149.067 2.5 146.269C2.5 143.771 4.5 141.473 7.3 141.473C10.1 141.373 12.1 143.671 12.1 146.269Z" fill="white"/>
<path d="M12.1 325.721C12.1 328.219 10.1 330.517 7.3 330.517C4.8 330.517 2.5 328.519 2.5 325.721C2.5 323.223 4.5 320.925 7.3 320.925C10.1 320.925 12.1 323.223 12.1 325.721Z" fill="white"/>
<path d="M24.8002 146.269C24.8002 148.767 22.8002 151.065 20.0002 151.065C17.5002 151.065 15.2002 149.067 15.2002 146.269C15.2002 143.771 17.2002 141.473 20.0002 141.473C22.8002 141.373 24.8002 143.671 24.8002 146.269Z" fill="white"/>
<path d="M24.8002 325.721C24.8002 328.219 22.8002 330.517 20.0002 330.517C17.5002 330.517 15.2002 328.519 15.2002 325.721C15.2002 323.223 17.2002 320.925 20.0002 320.925C22.8002 320.925 24.8002 323.223 24.8002 325.721Z" fill="white"/>
<path d="M37.8002 146.269C37.8002 148.767 35.8002 151.065 33.0002 151.065C30.5002 151.065 28.2002 149.067 28.2002 146.269C28.2002 143.771 30.2002 141.473 33.0002 141.473C35.5002 141.373 37.8002 143.671 37.8002 146.269Z" fill="white"/>
<path d="M50.3998 146.269C50.3998 148.767 48.3998 151.065 45.5998 151.065C43.0998 151.065 40.7998 149.067 40.7998 146.269C40.7998 143.771 42.7998 141.473 45.5998 141.473C48.3998 141.373 50.3998 143.671 50.3998 146.269Z" fill="white"/>
<path d="M63.3998 146.269C63.3998 148.767 61.3998 151.065 58.5998 151.065C56.0998 151.065 53.7998 149.067 53.7998 146.269C53.7998 143.771 55.7998 141.473 58.5998 141.473C61.0998 141.373 63.3998 143.671 63.3998 146.269Z" fill="white"/>
<path d="M76.1 146.269C76.1 148.767 74.1 151.065 71.3 151.065C68.8 151.065 66.5 149.067 66.5 146.269C66.5 143.771 68.5 141.473 71.3 141.473C74 141.373 76.1 143.671 76.1 146.269Z" fill="white"/>
<path d="M88.9999 146.269C88.9999 148.767 86.9999 151.065 84.1999 151.065C81.6999 151.065 79.3999 149.067 79.3999 146.269C79.3999 143.771 81.3999 141.473 84.1999 141.473C86.6999 141.373 88.9999 143.671 88.9999 146.269Z" fill="white"/>
<path d="M101.6 159.158C101.6 161.656 99.6 163.954 96.8 163.954C94.3 163.954 92 161.956 92 159.158C92 156.66 94 154.362 96.8 154.362C99.6 154.362 101.6 156.36 101.6 159.158Z" fill="white"/>
<path d="M114.6 159.158C114.6 161.656 112.6 163.954 109.8 163.954C107 163.954 105 161.956 105 159.158C105 156.66 107 154.362 109.8 154.362C112.6 154.362 114.6 156.36 114.6 159.158Z" fill="white"/>
<path d="M127.3 159.158C127.3 161.656 125.3 163.954 122.5 163.954C120 163.954 117.7 161.956 117.7 159.158C117.7 156.66 119.7 154.362 122.5 154.362C125 154.362 127.3 156.36 127.3 159.158Z" fill="white"/>
<path d="M140 159.158C140 161.656 138 163.954 135.2 163.954C132.7 163.954 130.4 161.956 130.4 159.158C130.4 156.66 132.4 154.362 135.2 154.362C138 154.362 140 156.36 140 159.158Z" fill="white"/>
<path d="M152.9 159.158C152.9 161.656 150.9 163.954 148.1 163.954C145.6 163.954 143.3 161.956 143.3 159.158C143.3 156.66 145.3 154.362 148.1 154.362C150.6 154.362 152.9 156.36 152.9 159.158Z" fill="white"/>
<path d="M165.6 159.158C165.6 161.656 163.6 163.954 160.8 163.954C158.3 163.954 156 161.956 156 159.158C156 156.66 158 154.362 160.8 154.362C163.6 154.362 165.6 156.36 165.6 159.158Z" fill="white"/>
<path d="M178.5 159.158C178.5 161.656 176.5 163.954 173.7 163.954C171.2 163.954 168.9 161.956 168.9 159.158C168.9 156.66 170.9 154.362 173.7 154.362C176.3 154.362 178.5 156.36 178.5 159.158Z" fill="white"/>
<path d="M191.2 159.158C191.2 161.656 189.2 163.954 186.4 163.954C183.9 163.954 181.6 161.956 181.6 159.158C181.6 156.66 183.6 154.362 186.4 154.362C189.2 154.362 191.2 156.36 191.2 159.158Z" fill="white"/>
<path d="M204.2 159.158C204.2 161.656 202.2 163.954 199.4 163.954C196.9 163.954 194.6 161.956 194.6 159.158C194.6 156.66 196.6 154.362 199.4 154.362C201.9 154.362 204.2 156.36 204.2 159.158Z" fill="white"/>
<path d="M216.9 159.158C216.9 161.656 214.9 163.954 212.1 163.954C209.6 163.954 207.3 161.956 207.3 159.158C207.3 156.66 209.3 154.362 212.1 154.362C214.8 154.362 216.9 156.36 216.9 159.158Z" fill="white"/>
<path d="M12.1 159.158C12.1 161.656 10.1 163.954 7.3 163.954C4.8 163.954 2.5 161.956 2.5 159.158C2.5 156.66 4.5 154.362 7.3 154.362C10.1 154.362 12.1 156.36 12.1 159.158Z" fill="white"/>
<path d="M24.8002 159.158C24.8002 161.656 22.8002 163.954 20.0002 163.954C17.5002 163.954 15.2002 161.956 15.2002 159.158C15.2002 156.66 17.2002 154.362 20.0002 154.362C22.8002 154.362 24.8002 156.36 24.8002 159.158Z" fill="white"/>
<path d="M37.8002 159.158C37.8002 161.656 35.8002 163.954 33.0002 163.954C30.5002 163.954 28.2002 161.956 28.2002 159.158C28.2002 156.66 30.2002 154.362 33.0002 154.362C35.5002 154.362 37.8002 156.36 37.8002 159.158Z" fill="white"/>
<path d="M50.3998 159.158C50.3998 161.656 48.3998 163.954 45.5998 163.954C43.0998 163.954 40.7998 161.956 40.7998 159.158C40.7998 156.66 42.7998 154.362 45.5998 154.362C48.3998 154.362 50.3998 156.36 50.3998 159.158Z" fill="white"/>
<path d="M63.3998 159.158C63.3998 161.656 61.3998 163.954 58.5998 163.954C56.0998 163.954 53.7998 161.956 53.7998 159.158C53.7998 156.66 55.7998 154.362 58.5998 154.362C61.0998 154.362 63.3998 156.36 63.3998 159.158Z" fill="white"/>
<path d="M76.1 159.158C76.1 161.656 74.1 163.954 71.3 163.954C68.8 163.954 66.5 161.956 66.5 159.158C66.5 156.66 68.5 154.362 71.3 154.362C74 154.362 76.1 156.36 76.1 159.158Z" fill="white"/>
<path d="M88.9999 159.158C88.9999 161.656 86.9999 163.954 84.1999 163.954C81.6999 163.954 79.3999 161.956 79.3999 159.158C79.3999 156.66 81.3999 154.362 84.1999 154.362C86.6999 154.362 88.9999 156.36 88.9999 159.158Z" fill="white"/>
<path d="M101.6 171.848C101.6 174.346 99.6 176.644 96.8 176.644C94.3 176.644 92 174.645 92 171.848C92 169.35 94 167.052 96.8 167.052C99.6 167.052 101.6 169.35 101.6 171.848Z" fill="white"/>
<path d="M114.6 171.848C114.6 174.346 112.6 176.644 109.8 176.644C107 176.644 105 174.645 105 171.848C105 169.35 107 167.052 109.8 167.052C112.6 167.052 114.6 169.35 114.6 171.848Z" fill="white"/>
<path d="M127.3 171.848C127.3 174.346 125.3 176.644 122.5 176.644C120 176.644 117.7 174.645 117.7 171.848C117.7 169.35 119.7 167.052 122.5 167.052C125 167.052 127.3 169.35 127.3 171.848Z" fill="white"/>
<path d="M140 171.848C140 174.346 138 176.644 135.2 176.644C132.7 176.644 130.4 174.645 130.4 171.848C130.4 169.35 132.4 167.052 135.2 167.052C138 167.052 140 169.35 140 171.848Z" fill="white"/>
<path d="M152.9 171.848C152.9 174.346 150.9 176.644 148.1 176.644C145.6 176.644 143.3 174.645 143.3 171.848C143.3 169.35 145.3 167.052 148.1 167.052C150.6 167.052 152.9 169.35 152.9 171.848Z" fill="white"/>
<path d="M165.6 171.848C165.6 174.346 163.6 176.644 160.8 176.644C158.3 176.644 156 174.645 156 171.848C156 169.35 158 167.052 160.8 167.052C163.6 167.052 165.6 169.35 165.6 171.848Z" fill="white"/>
<path d="M178.5 171.848C178.5 174.346 176.5 176.644 173.7 176.644C171.2 176.644 168.9 174.645 168.9 171.848C168.9 169.35 170.9 167.052 173.7 167.052C176.3 167.052 178.5 169.35 178.5 171.848Z" fill="white"/>
<path d="M191.2 171.848C191.2 174.346 189.2 176.644 186.4 176.644C183.9 176.644 181.6 174.645 181.6 171.848C181.6 169.35 183.6 167.052 186.4 167.052C189.2 167.052 191.2 169.35 191.2 171.848Z" fill="white"/>
<path d="M204.2 171.848C204.2 174.346 202.2 176.644 199.4 176.644C196.9 176.644 194.6 174.645 194.6 171.848C194.6 169.35 196.6 167.052 199.4 167.052C201.9 167.052 204.2 169.35 204.2 171.848Z" fill="white"/>
<path d="M216.9 171.848C216.9 174.346 214.9 176.644 212.1 176.644C209.6 176.644 207.3 174.645 207.3 171.848C207.3 169.35 209.3 167.052 212.1 167.052C214.8 167.052 216.9 169.35 216.9 171.848Z" fill="white"/>
<path d="M12.1 171.848C12.1 174.346 10.1 176.644 7.3 176.644C4.8 176.644 2.5 174.645 2.5 171.848C2.5 169.35 4.5 167.052 7.3 167.052C10.1 167.052 12.1 169.35 12.1 171.848Z" fill="white"/>
<path d="M24.8002 171.848C24.8002 174.346 22.8002 176.644 20.0002 176.644C17.5002 176.644 15.2002 174.645 15.2002 171.848C15.2002 169.35 17.2002 167.052 20.0002 167.052C22.8002 167.052 24.8002 169.35 24.8002 171.848Z" fill="white"/>
<path d="M37.8002 171.848C37.8002 174.346 35.8002 176.644 33.0002 176.644C30.5002 176.644 28.2002 174.645 28.2002 171.848C28.2002 169.35 30.2002 167.052 33.0002 167.052C35.5002 167.052 37.8002 169.35 37.8002 171.848Z" fill="white"/>
<path d="M50.3998 171.848C50.3998 174.346 48.3998 176.644 45.5998 176.644C43.0998 176.644 40.7998 174.645 40.7998 171.848C40.7998 169.35 42.7998 167.052 45.5998 167.052C48.3998 167.052 50.3998 169.35 50.3998 171.848Z" fill="white"/>
<path d="M63.3998 171.848C63.3998 174.346 61.3998 176.644 58.5998 176.644C56.0998 176.644 53.7998 174.645 53.7998 171.848C53.7998 169.35 55.7998 167.052 58.5998 167.052C61.0998 167.052 63.3998 169.35 63.3998 171.848Z" fill="white"/>
<path d="M76.1 171.848C76.1 174.346 74.1 176.644 71.3 176.644C68.8 176.644 66.5 174.645 66.5 171.848C66.5 169.35 68.5 167.052 71.3 167.052C74 167.052 76.1 169.35 76.1 171.848Z" fill="white"/>
<path d="M88.9999 171.848C88.9999 174.346 86.9999 176.644 84.1999 176.644C81.6999 176.644 79.3999 174.645 79.3999 171.848C79.3999 169.35 81.3999 167.052 84.1999 167.052C86.6999 167.052 88.9999 169.35 88.9999 171.848Z" fill="white"/>
</g>
</svg>
