<svg width="667" height="409" viewBox="0 0 667 409" fill="none" xmlns="http://www.w3.org/2000/svg">
<g opacity="0.05">
<path d="M513.555 396.282C513.555 389.932 518.64 384.216 525.631 384.216C531.987 384.216 537.707 389.296 537.707 396.282C537.707 402.633 532.623 408.348 525.631 408.348C518.64 408.348 513.555 403.268 513.555 396.282Z" fill="#214EF7"/>
<path d="M289.193 396.282C289.193 389.932 294.277 384.216 301.269 384.216C307.625 384.216 313.345 389.296 313.345 396.282C313.345 402.633 308.26 408.348 301.269 408.348C294.277 408.348 289.193 403.268 289.193 396.282Z" fill="#214EF7"/>
<path d="M224.999 396.282C224.999 389.932 230.084 384.216 237.076 384.216C243.432 384.216 249.152 389.296 249.152 396.282C249.152 402.633 244.067 408.348 237.076 408.348C230.084 408.348 224.999 403.268 224.999 396.282Z" fill="#214EF7"/>
<path d="M192.582 396.282C192.582 389.932 197.667 384.216 204.658 384.216C211.014 384.216 216.735 389.296 216.735 396.282C216.735 402.633 211.65 408.348 204.658 408.348C198.303 408.348 192.582 403.268 192.582 396.282Z" fill="#214EF7"/>
<path d="M160.804 396.282C160.804 389.932 165.888 384.216 172.88 384.216C179.236 384.216 184.956 389.296 184.956 396.282C184.956 402.633 179.871 408.348 172.88 408.348C165.888 408.348 160.804 403.268 160.804 396.282Z" fill="#214EF7"/>
<path d="M128.389 396.282C128.389 389.932 133.474 384.216 140.465 384.216C146.821 384.216 152.541 389.296 152.541 396.282C152.541 402.633 147.457 408.348 140.465 408.348C134.109 408.348 128.389 403.268 128.389 396.282Z" fill="#214EF7"/>
<path d="M96.609 396.282C96.609 389.932 101.694 384.216 108.685 384.216C115.041 384.216 120.761 389.296 120.761 396.282C120.761 402.633 115.677 408.348 108.685 408.348C101.694 408.348 96.609 403.268 96.609 396.282Z" fill="#214EF7"/>
<path d="M64.1946 396.282C64.1946 389.932 69.2793 384.216 76.2708 384.216C82.6267 384.216 88.3469 389.296 88.3469 396.282C88.3469 402.633 83.2623 408.348 76.2708 408.348C69.9149 408.348 64.1946 403.268 64.1946 396.282Z" fill="#214EF7"/>
<path d="M545.335 364.528C545.335 358.178 550.42 352.462 557.411 352.462C563.767 352.462 569.487 357.543 569.487 364.528C569.487 370.879 564.403 376.595 557.411 376.595C551.055 376.595 545.335 370.879 545.335 364.528Z" fill="#214EF7"/>
<path d="M513.555 364.528C513.555 358.178 518.64 352.462 525.631 352.462C531.987 352.462 537.707 357.543 537.707 364.528C537.707 370.879 532.623 376.595 525.631 376.595C518.64 376.595 513.555 370.879 513.555 364.528Z" fill="#214EF7"/>
<path d="M481.14 364.528C481.14 358.178 486.225 352.462 493.216 352.462C499.572 352.462 505.293 357.543 505.293 364.528C505.293 370.879 500.208 376.595 493.216 376.595C486.861 376.595 481.14 370.879 481.14 364.528Z" fill="#214EF7"/>
<path d="M449.361 364.528C449.361 358.178 454.445 352.462 461.437 352.462C467.793 352.462 473.513 357.543 473.513 364.528C473.513 370.879 468.428 376.595 461.437 376.595C454.445 376.595 449.361 370.879 449.361 364.528Z" fill="#214EF7"/>
<path d="M416.946 364.528C416.946 358.178 422.031 352.462 429.022 352.462C435.378 352.462 441.098 357.543 441.098 364.528C441.098 370.879 436.013 376.595 429.022 376.595C422.666 376.595 416.946 370.879 416.946 364.528Z" fill="#214EF7"/>
<path d="M224.999 364.528C224.999 358.178 230.084 352.462 237.076 352.462C243.432 352.462 249.152 357.543 249.152 364.528C249.152 370.879 244.067 376.595 237.076 376.595C230.084 376.595 224.999 370.879 224.999 364.528Z" fill="#214EF7"/>
<path d="M192.582 364.528C192.582 358.178 197.667 352.462 204.658 352.462C211.014 352.462 216.735 357.543 216.735 364.528C216.735 370.879 211.65 376.595 204.658 376.595C198.303 376.595 192.582 370.879 192.582 364.528Z" fill="#214EF7"/>
<path d="M160.804 364.528C160.804 358.178 165.888 352.462 172.88 352.462C179.236 352.462 184.956 357.543 184.956 364.528C184.956 370.879 179.871 376.595 172.88 376.595C165.888 376.595 160.804 370.879 160.804 364.528Z" fill="#214EF7"/>
<path d="M128.389 364.528C128.389 358.178 133.474 352.462 140.465 352.462C146.821 352.462 152.541 357.543 152.541 364.528C152.541 370.879 147.457 376.595 140.465 376.595C134.109 376.595 128.389 370.879 128.389 364.528Z" fill="#214EF7"/>
<path d="M96.609 364.528C96.609 358.178 101.694 352.462 108.685 352.462C115.041 352.462 120.761 357.543 120.761 364.528C120.761 370.879 115.677 376.595 108.685 376.595C101.694 376.595 96.609 370.879 96.609 364.528Z" fill="#214EF7"/>
<path d="M64.1946 364.528C64.1946 358.178 69.2793 352.462 76.2708 352.462C82.6267 352.462 88.3469 357.543 88.3469 364.528C88.3469 370.879 83.2623 376.595 76.2708 376.595C69.9149 376.595 64.1946 370.879 64.1946 364.528Z" fill="#214EF7"/>
<path d="M32.4158 364.528C32.4158 358.178 37.5005 352.462 44.492 352.462C50.8479 352.462 56.5681 357.543 56.5681 364.528C56.5681 370.879 51.4834 376.595 44.492 376.595C37.5005 376.595 32.4158 370.879 32.4158 364.528Z" fill="#214EF7"/>
<path d="M6.18868e-05 364.528C6.13311e-05 358.178 5.08473 352.462 12.0762 352.462C18.4321 352.462 24.1523 357.543 24.1523 364.528C24.1523 370.879 19.0677 376.595 12.0762 376.595C5.72032 376.595 6.24424e-05 370.879 6.18868e-05 364.528Z" fill="#214EF7"/>
<path d="M545.335 332.14C545.335 325.79 550.42 320.074 557.411 320.074C563.767 320.074 569.487 325.154 569.487 332.14C569.487 338.491 564.403 344.207 557.411 344.207C551.055 344.207 545.335 339.126 545.335 332.14Z" fill="#214EF7"/>
<path d="M513.555 332.14C513.555 325.79 518.64 320.074 525.631 320.074C531.987 320.074 537.707 325.154 537.707 332.14C537.707 338.491 532.623 344.207 525.631 344.207C518.64 344.207 513.555 339.126 513.555 332.14Z" fill="#214EF7"/>
<path d="M481.14 332.14C481.14 325.789 486.225 320.074 493.216 320.074C499.572 320.074 505.293 325.154 505.293 332.14C505.293 338.491 500.208 344.207 493.216 344.207C486.861 344.207 481.14 339.126 481.14 332.14Z" fill="#214EF7"/>
<path d="M449.361 332.14C449.361 325.79 454.445 320.074 461.437 320.074C467.793 320.074 473.513 325.154 473.513 332.14C473.513 338.491 468.428 344.207 461.437 344.207C454.445 344.207 449.361 339.126 449.361 332.14Z" fill="#214EF7"/>
<path d="M416.946 332.14C416.946 325.79 422.031 320.074 429.022 320.074C435.378 320.074 441.098 325.154 441.098 332.14C441.098 338.491 436.013 344.207 429.022 344.207C422.666 344.207 416.946 339.126 416.946 332.14Z" fill="#214EF7"/>
<path d="M385.167 332.14C385.167 325.79 390.252 320.074 397.243 320.074C403.599 320.074 409.32 325.154 409.32 332.14C409.32 338.491 404.235 344.207 397.243 344.207C390.252 344.207 385.167 339.126 385.167 332.14Z" fill="#214EF7"/>
<path d="M160.804 332.14C160.804 325.79 165.888 320.074 172.88 320.074C179.236 320.074 184.956 325.154 184.956 332.14C184.956 338.491 179.871 344.207 172.88 344.207C165.888 344.207 160.804 339.126 160.804 332.14Z" fill="#214EF7"/>
<path d="M128.389 332.14C128.389 325.79 133.474 320.074 140.465 320.074C146.821 320.074 152.541 325.154 152.541 332.14C152.541 338.491 147.457 344.207 140.465 344.207C134.109 344.207 128.389 339.126 128.389 332.14Z" fill="#214EF7"/>
<path d="M96.609 332.14C96.609 325.79 101.694 320.074 108.685 320.074C115.041 320.074 120.761 325.154 120.761 332.14C120.761 338.491 115.677 344.207 108.685 344.207C101.694 344.207 96.609 339.126 96.609 332.14Z" fill="#214EF7"/>
<path d="M64.1946 332.14C64.1946 325.79 69.2793 320.074 76.2708 320.074C82.6267 320.074 88.3469 325.154 88.3469 332.14C88.3469 338.491 83.2623 344.207 76.2708 344.207C69.9149 344.207 64.1946 339.126 64.1946 332.14Z" fill="#214EF7"/>
<path d="M32.4158 332.14C32.4158 325.79 37.5005 320.074 44.492 320.074C50.8479 320.074 56.5681 325.154 56.5681 332.14C56.5681 338.491 51.4834 344.207 44.492 344.207C37.5005 344.207 32.4158 339.126 32.4158 332.14Z" fill="#214EF7"/>
<path d="M6.18868e-05 332.14C6.13311e-05 325.79 5.08473 320.074 12.0762 320.074C18.4321 320.074 24.1523 325.154 24.1523 332.14C24.1523 338.491 19.0677 344.207 12.0762 344.207C5.72032 344.207 6.2498e-05 339.126 6.18868e-05 332.14Z" fill="#214EF7"/>
<path d="M577.751 300.388C577.751 294.037 582.835 288.321 589.827 288.321C596.183 288.321 601.903 293.402 601.903 300.388C601.903 306.738 596.818 312.454 589.827 312.454C582.835 312.454 577.751 306.738 577.751 300.388Z" fill="#214EF7"/>
<path d="M545.335 300.388C545.335 294.037 550.42 288.321 557.411 288.321C563.767 288.321 569.487 293.402 569.487 300.388C569.487 306.738 564.403 312.454 557.411 312.454C551.055 312.454 545.335 306.738 545.335 300.388Z" fill="#214EF7"/>
<path d="M513.555 300.388C513.555 294.037 518.64 288.321 525.631 288.321C531.987 288.321 537.707 293.402 537.707 300.388C537.707 306.738 532.623 312.454 525.631 312.454C518.64 312.454 513.555 306.738 513.555 300.388Z" fill="#214EF7"/>
<path d="M481.14 300.388C481.14 294.037 486.225 288.321 493.216 288.321C499.572 288.321 505.293 293.402 505.293 300.388C505.293 306.738 500.208 312.454 493.216 312.454C486.861 312.454 481.14 306.738 481.14 300.388Z" fill="#214EF7"/>
<path d="M449.361 300.388C449.361 294.037 454.445 288.321 461.437 288.321C467.793 288.321 473.513 293.402 473.513 300.388C473.513 306.738 468.428 312.454 461.437 312.454C454.445 312.454 449.361 306.738 449.361 300.388Z" fill="#214EF7"/>
<path d="M416.946 300.388C416.946 294.037 422.031 288.321 429.022 288.321C435.378 288.321 441.098 293.402 441.098 300.388C441.098 306.738 436.013 312.454 429.022 312.454C422.666 312.454 416.946 306.738 416.946 300.388Z" fill="#214EF7"/>
<path d="M385.167 300.388C385.167 294.037 390.252 288.321 397.243 288.321C403.599 288.321 409.32 293.402 409.32 300.388C409.32 306.738 404.235 312.454 397.243 312.454C390.252 312.454 385.167 306.738 385.167 300.388Z" fill="#214EF7"/>
<path d="M352.752 300.388C352.752 294.037 357.836 288.321 364.828 288.321C371.184 288.321 376.904 293.402 376.904 300.388C376.904 306.738 371.819 312.454 364.828 312.454C358.472 312.454 352.752 306.738 352.752 300.388Z" fill="#214EF7"/>
<path d="M320.973 300.388C320.973 294.037 326.057 288.321 333.049 288.321C339.405 288.321 345.125 293.402 345.125 300.388C345.125 306.738 340.04 312.454 333.049 312.454C326.057 312.454 320.973 306.738 320.973 300.388Z" fill="#214EF7"/>
<path d="M289.193 300.388C289.193 294.037 294.277 288.321 301.269 288.321C307.625 288.321 313.345 293.402 313.345 300.388C313.345 306.738 308.26 312.454 301.269 312.454C294.277 312.454 289.193 306.738 289.193 300.388Z" fill="#214EF7"/>
<path d="M256.778 300.388C256.778 294.037 261.863 288.321 268.854 288.321C275.21 288.321 280.93 293.402 280.93 300.388C280.93 306.738 275.846 312.454 268.854 312.454C262.498 312.454 256.778 306.738 256.778 300.388Z" fill="#214EF7"/>
<path d="M224.999 300.388C224.999 294.037 230.084 288.321 237.076 288.321C243.432 288.321 249.152 293.402 249.152 300.388C249.152 306.738 244.067 312.454 237.076 312.454C230.084 312.454 224.999 306.738 224.999 300.388Z" fill="#214EF7"/>
<path d="M192.582 300.388C192.582 294.037 197.667 288.321 204.658 288.321C211.014 288.321 216.735 293.402 216.735 300.388C216.735 306.738 211.65 312.454 204.658 312.454C198.303 312.454 192.582 306.738 192.582 300.388Z" fill="#214EF7"/>
<path d="M160.804 300.388C160.804 294.037 165.888 288.321 172.88 288.321C179.236 288.321 184.956 293.402 184.956 300.388C184.956 306.738 179.871 312.454 172.88 312.454C165.888 312.454 160.804 306.738 160.804 300.388Z" fill="#214EF7"/>
<path d="M128.389 300.388C128.389 294.037 133.474 288.321 140.465 288.321C146.821 288.321 152.541 293.402 152.541 300.388C152.541 306.738 147.457 312.454 140.465 312.454C134.109 312.454 128.389 306.738 128.389 300.388Z" fill="#214EF7"/>
<path d="M96.609 300.388C96.609 294.037 101.694 288.321 108.685 288.321C115.041 288.321 120.761 293.402 120.761 300.388C120.761 306.738 115.677 312.454 108.685 312.454C101.694 312.454 96.609 306.738 96.609 300.388Z" fill="#214EF7"/>
<path d="M64.1946 300.388C64.1946 294.037 69.2793 288.321 76.2708 288.321C82.6267 288.321 88.3469 293.402 88.3469 300.388C88.3469 306.738 83.2623 312.454 76.2708 312.454C69.9149 312.454 64.1946 306.738 64.1946 300.388Z" fill="#214EF7"/>
<path d="M32.4158 300.388C32.4158 294.037 37.5005 288.321 44.492 288.321C50.8479 288.321 56.5681 293.402 56.5681 300.388C56.5681 306.738 51.4834 312.454 44.492 312.454C37.5005 312.454 32.4158 306.738 32.4158 300.388Z" fill="#214EF7"/>
<path d="M6.18868e-05 300.388C6.13311e-05 294.037 5.08473 288.321 12.0762 288.321C18.4321 288.321 24.1523 293.402 24.1523 300.388C24.1523 306.738 19.0677 312.454 12.0762 312.454C5.72032 312.454 6.24424e-05 306.738 6.18868e-05 300.388Z" fill="#214EF7"/>
<path d="M609.53 267.998C609.53 261.648 614.614 255.932 621.606 255.932C627.962 255.932 633.682 261.013 633.682 267.998C633.682 274.349 628.597 280.065 621.606 280.065C615.25 280.065 609.53 274.984 609.53 267.998Z" fill="#214EF7"/>
<path d="M577.751 267.998C577.751 261.648 582.835 255.932 589.827 255.932C596.183 255.932 601.903 261.013 601.903 267.998C601.903 274.349 596.818 280.065 589.827 280.065C582.835 280.065 577.751 274.984 577.751 267.998Z" fill="#214EF7"/>
<path d="M545.335 267.998C545.335 261.648 550.42 255.932 557.411 255.932C563.767 255.932 569.487 261.013 569.487 267.998C569.487 274.349 564.403 280.065 557.411 280.065C551.055 280.065 545.335 274.984 545.335 267.998Z" fill="#214EF7"/>
<path d="M513.555 267.998C513.555 261.648 518.64 255.932 525.631 255.932C531.987 255.932 537.707 261.013 537.707 267.998C537.707 274.349 532.623 280.065 525.631 280.065C518.64 280.065 513.555 274.984 513.555 267.998Z" fill="#214EF7"/>
<path d="M481.14 267.998C481.14 261.648 486.225 255.932 493.216 255.932C499.572 255.932 505.293 261.013 505.293 267.998C505.293 274.349 500.208 280.065 493.216 280.065C486.861 280.065 481.14 274.984 481.14 267.998Z" fill="#214EF7"/>
<path d="M449.361 267.998C449.361 261.648 454.445 255.932 461.437 255.932C467.793 255.932 473.513 261.013 473.513 267.998C473.513 274.349 468.428 280.065 461.437 280.065C454.445 280.065 449.361 274.984 449.361 267.998Z" fill="#214EF7"/>
<path d="M416.946 267.998C416.946 261.648 422.031 255.932 429.022 255.932C435.378 255.932 441.098 261.013 441.098 267.998C441.098 274.349 436.013 280.065 429.022 280.065C422.666 280.065 416.946 274.984 416.946 267.998Z" fill="#214EF7"/>
<path d="M385.167 267.998C385.167 261.648 390.252 255.932 397.243 255.932C403.599 255.932 409.32 261.013 409.32 267.998C409.32 274.349 404.235 280.065 397.243 280.065C390.252 280.065 385.167 274.984 385.167 267.998Z" fill="#214EF7"/>
<path d="M352.752 267.998C352.752 261.648 357.836 255.932 364.828 255.932C371.184 255.932 376.904 261.013 376.904 267.998C376.904 274.349 371.819 280.065 364.828 280.065C358.472 280.065 352.752 274.984 352.752 267.998Z" fill="#214EF7"/>
<path d="M320.973 267.998C320.973 261.648 326.057 255.932 333.049 255.932C339.405 255.932 345.125 261.013 345.125 267.998C345.125 274.349 340.04 280.065 333.049 280.065C326.057 280.065 320.973 274.984 320.973 267.998Z" fill="#214EF7"/>
<path d="M289.193 267.998C289.193 261.648 294.277 255.932 301.269 255.932C307.625 255.932 313.345 261.013 313.345 267.998C313.345 274.349 308.26 280.065 301.269 280.065C294.277 280.065 289.193 274.984 289.193 267.998Z" fill="#214EF7"/>
<path d="M256.778 267.998C256.778 261.648 261.863 255.932 268.854 255.932C275.21 255.932 280.93 261.013 280.93 267.998C280.93 274.349 275.846 280.065 268.854 280.065C262.498 280.065 256.778 274.984 256.778 267.998Z" fill="#214EF7"/>
<path d="M224.999 267.998C224.999 261.648 230.084 255.932 237.076 255.932C243.432 255.932 249.152 261.013 249.152 267.998C249.152 274.349 244.067 280.065 237.076 280.065C230.084 280.065 224.999 274.984 224.999 267.998Z" fill="#214EF7"/>
<path d="M192.582 267.998C192.582 261.648 197.667 255.932 204.658 255.932C211.014 255.932 216.735 261.013 216.735 267.998C216.735 274.349 211.65 280.065 204.658 280.065C198.303 280.065 192.582 274.984 192.582 267.998Z" fill="#214EF7"/>
<path d="M128.389 267.998C128.389 261.648 133.474 255.932 140.465 255.932C146.821 255.932 152.541 261.013 152.541 267.998C152.541 274.349 147.457 280.065 140.465 280.065C134.109 280.065 128.389 274.984 128.389 267.998Z" fill="#214EF7"/>
<path d="M96.609 267.998C96.609 261.648 101.694 255.932 108.685 255.932C115.041 255.932 120.761 261.013 120.761 267.998C120.761 274.349 115.677 280.065 108.685 280.065C101.694 280.065 96.609 274.984 96.609 267.998Z" fill="#214EF7"/>
<path d="M64.1946 267.998C64.1946 261.648 69.2793 255.932 76.2708 255.932C82.6267 255.932 88.3469 261.013 88.3469 267.998C88.3469 274.349 83.2623 280.065 76.2708 280.065C69.9149 280.065 64.1946 274.984 64.1946 267.998Z" fill="#214EF7"/>
<path d="M32.4158 267.998C32.4158 261.648 37.5005 255.932 44.492 255.932C50.8479 255.932 56.5681 261.013 56.5681 267.998C56.5681 274.349 51.4834 280.065 44.492 280.065C37.5005 280.065 32.4158 274.984 32.4158 267.998Z" fill="#214EF7"/>
<path d="M641.944 236.246C641.944 229.895 647.029 224.18 654.02 224.18C660.376 224.18 666.096 229.26 666.096 236.246C666.096 242.597 661.012 248.312 654.02 248.312C647.029 248.312 641.944 242.597 641.944 236.246Z" fill="#214EF7"/>
<path d="M609.53 236.246C609.53 229.895 614.614 224.18 621.606 224.18C627.962 224.18 633.682 229.26 633.682 236.246C633.682 242.597 628.597 248.312 621.606 248.312C615.25 248.312 609.53 242.597 609.53 236.246Z" fill="#214EF7"/>
<path d="M577.751 236.246C577.751 229.895 582.835 224.18 589.827 224.18C596.183 224.18 601.903 229.26 601.903 236.246C601.903 242.597 596.818 248.312 589.827 248.312C582.835 248.312 577.751 242.597 577.751 236.246Z" fill="#214EF7"/>
<path d="M545.335 236.246C545.335 229.895 550.42 224.18 557.411 224.18C563.767 224.18 569.487 229.26 569.487 236.246C569.487 242.597 564.403 248.312 557.411 248.312C551.055 248.312 545.335 242.597 545.335 236.246Z" fill="#214EF7"/>
<path d="M513.555 236.246C513.555 229.895 518.64 224.18 525.631 224.18C531.987 224.18 537.707 229.26 537.707 236.246C537.707 242.597 532.623 248.312 525.631 248.312C518.64 248.312 513.555 242.597 513.555 236.246Z" fill="#214EF7"/>
<path d="M481.14 236.246C481.14 229.895 486.225 224.18 493.216 224.18C499.572 224.18 505.293 229.26 505.293 236.246C505.293 242.597 500.208 248.312 493.216 248.312C486.861 248.312 481.14 242.597 481.14 236.246Z" fill="#214EF7"/>
<path d="M449.361 236.246C449.361 229.895 454.445 224.18 461.437 224.18C467.793 224.18 473.513 229.26 473.513 236.246C473.513 242.597 468.428 248.312 461.437 248.312C454.445 248.312 449.361 242.597 449.361 236.246Z" fill="#214EF7"/>
<path d="M416.946 236.246C416.946 229.895 422.031 224.18 429.022 224.18C435.378 224.18 441.098 229.26 441.098 236.246C441.098 242.597 436.013 248.312 429.022 248.312C422.666 248.312 416.946 242.597 416.946 236.246Z" fill="#214EF7"/>
<path d="M385.167 236.246C385.167 229.895 390.252 224.18 397.243 224.18C403.599 224.18 409.32 229.26 409.32 236.246C409.32 242.597 404.235 248.312 397.243 248.312C390.252 248.312 385.167 242.597 385.167 236.246Z" fill="#214EF7"/>
<path d="M352.752 236.246C352.752 229.895 357.836 224.18 364.828 224.18C371.184 224.18 376.904 229.26 376.904 236.246C376.904 242.597 371.819 248.312 364.828 248.312C358.472 248.312 352.752 242.597 352.752 236.246Z" fill="#214EF7"/>
<path d="M320.973 236.246C320.973 229.895 326.057 224.18 333.049 224.18C339.405 224.18 345.125 229.26 345.125 236.246C345.125 242.597 340.04 248.312 333.049 248.312C326.057 248.312 320.973 242.597 320.973 236.246Z" fill="#214EF7"/>
<path d="M289.193 236.246C289.193 229.895 294.277 224.18 301.269 224.18C307.625 224.18 313.345 229.26 313.345 236.246C313.345 242.597 308.26 248.312 301.269 248.312C294.277 248.312 289.193 242.597 289.193 236.246Z" fill="#214EF7"/>
<path d="M256.778 236.246C256.778 229.895 261.863 224.18 268.854 224.18C275.21 224.18 280.93 229.26 280.93 236.246C280.93 242.597 275.846 248.312 268.854 248.312C262.498 248.312 256.778 242.597 256.778 236.246Z" fill="#214EF7"/>
<path d="M224.999 236.246C224.999 229.895 230.084 224.18 237.076 224.18C243.432 224.18 249.152 229.26 249.152 236.246C249.152 242.597 244.067 248.312 237.076 248.312C230.084 248.312 224.999 242.597 224.999 236.246Z" fill="#214EF7"/>
<path d="M192.582 236.246C192.582 229.895 197.667 224.18 204.658 224.18C211.014 224.18 216.735 229.26 216.735 236.246C216.735 242.597 211.65 248.312 204.658 248.312C198.303 248.312 192.582 242.597 192.582 236.246Z" fill="#214EF7"/>
<path d="M128.389 236.246C128.389 229.895 133.474 224.18 140.465 224.18C146.821 224.18 152.541 229.26 152.541 236.246C152.541 242.597 147.457 248.312 140.465 248.312C134.109 248.312 128.389 242.597 128.389 236.246Z" fill="#214EF7"/>
<path d="M96.609 236.246C96.609 229.895 101.694 224.18 108.685 224.18C115.041 224.18 120.761 229.26 120.761 236.246C120.761 242.597 115.677 248.312 108.685 248.312C101.694 248.312 96.609 242.597 96.609 236.246Z" fill="#214EF7"/>
<path d="M64.1946 236.246C64.1946 229.895 69.2793 224.18 76.2708 224.18C82.6267 224.18 88.3469 229.26 88.3469 236.246C88.3469 242.597 83.2623 248.312 76.2708 248.312C69.9149 248.312 64.1946 242.597 64.1946 236.246Z" fill="#214EF7"/>
<path d="M32.4158 236.246C32.4158 229.895 37.5005 224.18 44.492 224.18C50.8479 224.18 56.5681 229.26 56.5681 236.246C56.5681 242.597 51.4834 248.312 44.492 248.312C37.5005 248.312 32.4158 242.597 32.4158 236.246Z" fill="#214EF7"/>
<path d="M654.02 191.79C647.351 191.79 641.944 197.192 641.944 203.856C641.944 210.52 647.351 215.923 654.02 215.923C660.69 215.923 666.096 210.52 666.096 203.856C666.096 197.192 660.69 191.79 654.02 191.79Z" fill="#214EF7"/>
<path d="M609.53 203.856C609.53 197.506 614.614 191.79 621.606 191.79C627.962 191.79 633.682 196.871 633.682 203.856C633.682 210.207 628.597 215.923 621.606 215.923C615.25 215.923 609.53 210.842 609.53 203.856Z" fill="#214EF7"/>
<path d="M589.827 191.79C583.157 191.79 577.751 197.192 577.751 203.856C577.751 210.52 583.157 215.923 589.827 215.923C596.496 215.923 601.903 210.52 601.903 203.856C601.903 197.192 596.496 191.79 589.827 191.79Z" fill="#214EF7"/>
<path d="M545.335 203.856C545.335 197.506 550.42 191.79 557.411 191.79C563.767 191.79 569.487 196.871 569.487 203.856C569.487 210.207 564.403 215.923 557.411 215.923C551.055 215.923 545.335 210.842 545.335 203.856Z" fill="#214EF7"/>
<path d="M513.555 203.856C513.555 197.506 518.64 191.79 525.631 191.79C531.987 191.79 537.707 196.871 537.707 203.856C537.707 210.207 532.623 215.923 525.631 215.923C518.64 215.923 513.555 210.842 513.555 203.856Z" fill="#214EF7"/>
<path d="M493.216 191.79C486.547 191.79 481.14 197.193 481.14 203.857C481.14 210.521 486.547 215.923 493.216 215.923C499.886 215.923 505.293 210.521 505.293 203.857C505.293 197.193 499.886 191.79 493.216 191.79Z" fill="#214EF7"/>
<path d="M449.361 203.857C449.361 197.506 454.445 191.79 461.437 191.79C467.793 191.79 473.513 196.871 473.513 203.857C473.513 210.207 468.428 215.923 461.437 215.923C454.445 215.923 449.361 210.842 449.361 203.857Z" fill="#214EF7"/>
<path d="M429.022 191.79C422.353 191.79 416.946 197.192 416.946 203.856C416.946 210.52 422.353 215.923 429.022 215.923C435.691 215.923 441.098 210.52 441.098 203.856C441.098 197.192 435.691 191.79 429.022 191.79Z" fill="#214EF7"/>
<path d="M385.167 203.856C385.167 197.506 390.252 191.79 397.243 191.79C403.599 191.79 409.32 196.871 409.32 203.856C409.32 210.207 404.235 215.923 397.243 215.923C390.252 215.923 385.167 210.842 385.167 203.856Z" fill="#214EF7"/>
<path d="M352.752 203.856C352.752 197.506 357.836 191.79 364.828 191.79C371.184 191.79 376.904 196.871 376.904 203.856C376.904 210.207 371.819 215.923 364.828 215.923C358.472 215.923 352.752 210.842 352.752 203.856Z" fill="#214EF7"/>
<path d="M333.049 191.79C326.379 191.79 320.973 197.193 320.973 203.857C320.973 210.521 326.379 215.923 333.049 215.923C339.718 215.923 345.125 210.521 345.125 203.857C345.125 197.193 339.718 191.79 333.049 191.79Z" fill="#214EF7"/>
<path d="M289.193 203.857C289.193 197.506 294.277 191.79 301.269 191.79C307.625 191.79 313.345 196.871 313.345 203.857C313.345 210.207 308.26 215.923 301.269 215.923C294.277 215.923 289.193 210.842 289.193 203.857Z" fill="#214EF7"/>
<path d="M268.854 191.79C262.185 191.79 256.778 197.193 256.778 203.857C256.778 210.521 262.185 215.923 268.854 215.923C275.524 215.923 280.93 210.521 280.93 203.857C280.93 197.193 275.524 191.79 268.854 191.79Z" fill="#214EF7"/>
<path d="M224.999 203.857C224.999 197.506 230.084 191.79 237.076 191.79C243.432 191.79 249.152 196.871 249.152 203.857C249.152 210.207 244.067 215.923 237.076 215.923C230.084 215.923 224.999 210.842 224.999 203.857Z" fill="#214EF7"/>
<path d="M192.582 203.857C192.582 197.506 197.667 191.79 204.658 191.79C211.014 191.79 216.735 196.871 216.735 203.857C216.735 210.207 211.65 215.923 204.658 215.923C198.303 215.923 192.582 210.842 192.582 203.857Z" fill="#214EF7"/>
<path d="M172.88 191.79C166.21 191.79 160.804 197.193 160.804 203.857C160.804 210.521 166.21 215.923 172.88 215.923C179.549 215.923 184.956 210.521 184.956 203.857C184.956 197.193 179.549 191.79 172.88 191.79Z" fill="#214EF7"/>
<path d="M108.685 191.79C102.016 191.79 96.609 197.193 96.609 203.857C96.609 210.521 102.016 215.923 108.685 215.923C115.355 215.923 120.761 210.521 120.761 203.857C120.761 197.193 115.355 191.79 108.685 191.79Z" fill="#214EF7"/>
<path d="M64.1947 203.857C64.1947 197.506 69.2793 191.79 76.2708 191.79C82.6267 191.79 88.3469 196.871 88.3469 203.857C88.3469 210.207 83.2623 215.923 76.2708 215.923C69.9149 215.923 64.1947 210.842 64.1947 203.857Z" fill="#214EF7"/>
<path d="M32.4159 203.857C32.4159 197.506 37.5005 191.79 44.492 191.79C50.8479 191.79 56.5681 196.871 56.5681 203.857C56.5681 210.207 51.4835 215.923 44.492 215.923C37.5005 215.923 32.4159 210.842 32.4159 203.857Z" fill="#214EF7"/>
<path d="M6.18868e-05 203.857C6.13311e-05 197.506 5.08473 191.79 12.0762 191.79C18.4321 191.79 24.1523 196.871 24.1523 203.857C24.1523 210.207 19.0677 215.923 12.0762 215.923C5.72032 215.923 6.2498e-05 210.842 6.18868e-05 203.857Z" fill="#214EF7"/>
<path d="M641.944 172.104C641.944 165.753 647.029 160.038 654.02 160.038C660.376 160.038 666.096 165.118 666.096 172.104C666.096 178.455 661.012 184.17 654.02 184.17C647.029 184.17 641.944 178.455 641.944 172.104Z" fill="#214EF7"/>
<path d="M609.53 172.104C609.53 165.753 614.614 160.038 621.606 160.038C627.962 160.038 633.682 165.118 633.682 172.104C633.682 178.455 628.597 184.17 621.606 184.17C615.25 184.17 609.53 178.455 609.53 172.104Z" fill="#214EF7"/>
<path d="M577.751 172.104C577.751 165.753 582.835 160.038 589.827 160.038C596.183 160.038 601.903 165.118 601.903 172.104C601.903 178.455 596.818 184.17 589.827 184.17C582.835 184.17 577.751 178.455 577.751 172.104Z" fill="#214EF7"/>
<path d="M545.335 172.104C545.335 165.753 550.42 160.038 557.411 160.038C563.767 160.038 569.487 165.118 569.487 172.104C569.487 178.455 564.403 184.17 557.411 184.17C551.055 184.17 545.335 178.455 545.335 172.104Z" fill="#214EF7"/>
<path d="M513.555 172.104C513.555 165.753 518.64 160.038 525.631 160.038C531.987 160.038 537.707 165.118 537.707 172.104C537.707 178.455 532.623 184.17 525.631 184.17C518.64 184.17 513.555 178.455 513.555 172.104Z" fill="#214EF7"/>
<path d="M481.14 172.104C481.14 165.753 486.225 160.038 493.216 160.038C499.572 160.038 505.293 165.118 505.293 172.104C505.293 178.455 500.208 184.17 493.216 184.17C486.861 184.17 481.14 178.455 481.14 172.104Z" fill="#214EF7"/>
<path d="M449.361 172.104C449.361 165.753 454.445 160.038 461.437 160.038C467.793 160.038 473.513 165.118 473.513 172.104C473.513 178.455 468.428 184.17 461.437 184.17C454.445 184.17 449.361 178.455 449.361 172.104Z" fill="#214EF7"/>
<path d="M416.946 172.104C416.946 165.753 422.031 160.038 429.022 160.038C435.378 160.038 441.098 165.118 441.098 172.104C441.098 178.455 436.013 184.17 429.022 184.17C422.666 184.17 416.946 178.455 416.946 172.104Z" fill="#214EF7"/>
<path d="M385.167 172.104C385.167 165.753 390.252 160.038 397.243 160.038C403.599 160.038 409.32 165.118 409.32 172.104C409.32 178.455 404.235 184.17 397.243 184.17C390.252 184.17 385.167 178.455 385.167 172.104Z" fill="#214EF7"/>
<path d="M352.752 172.104C352.752 165.753 357.836 160.038 364.828 160.038C371.184 160.038 376.904 165.118 376.904 172.104C376.904 178.455 371.819 184.17 364.828 184.17C358.472 184.17 352.752 178.455 352.752 172.104Z" fill="#214EF7"/>
<path d="M320.973 172.104C320.973 165.753 326.057 160.038 333.049 160.038C339.405 160.038 345.125 165.118 345.125 172.104C345.125 178.455 340.04 184.17 333.049 184.17C326.057 184.17 320.973 178.455 320.973 172.104Z" fill="#214EF7"/>
<path d="M289.193 172.104C289.193 165.753 294.277 160.038 301.269 160.038C307.625 160.038 313.345 165.118 313.345 172.104C313.345 178.455 308.26 184.17 301.269 184.17C294.277 184.17 289.193 178.455 289.193 172.104Z" fill="#214EF7"/>
<path d="M256.778 172.104C256.778 165.753 261.863 160.038 268.854 160.038C275.21 160.038 280.93 165.118 280.93 172.104C280.93 178.455 275.846 184.17 268.854 184.17C262.498 184.17 256.778 178.455 256.778 172.104Z" fill="#214EF7"/>
<path d="M224.999 172.104C224.999 165.753 230.084 160.038 237.076 160.038C243.432 160.038 249.152 165.118 249.152 172.104C249.152 178.455 244.067 184.17 237.076 184.17C230.084 184.17 224.999 178.455 224.999 172.104Z" fill="#214EF7"/>
<path d="M192.582 172.104C192.582 165.753 197.667 160.038 204.658 160.038C211.014 160.038 216.735 165.118 216.735 172.104C216.735 178.455 211.65 184.17 204.658 184.17C198.303 184.17 192.582 178.455 192.582 172.104Z" fill="#214EF7"/>
<path d="M160.804 172.104C160.804 165.753 165.888 160.038 172.88 160.038C179.236 160.038 184.956 165.118 184.956 172.104C184.956 178.455 179.871 184.17 172.88 184.17C165.888 184.17 160.804 178.455 160.804 172.104Z" fill="#214EF7"/>
<path d="M96.609 172.104C96.609 165.753 101.694 160.038 108.685 160.038C115.041 160.038 120.761 165.118 120.761 172.104C120.761 178.455 115.677 184.17 108.685 184.17C101.694 184.17 96.609 178.455 96.609 172.104Z" fill="#214EF7"/>
<path d="M64.1946 172.104C64.1946 165.753 69.2793 160.038 76.2708 160.038C82.6267 160.038 88.3469 165.118 88.3469 172.104C88.3469 178.455 83.2623 184.17 76.2708 184.17C69.9149 184.17 64.1946 178.455 64.1946 172.104Z" fill="#214EF7"/>
<path d="M32.4158 172.104C32.4158 165.753 37.5005 160.038 44.492 160.038C50.8479 160.038 56.5681 165.118 56.5681 172.104C56.5681 178.455 51.4834 184.17 44.492 184.17C37.5005 184.17 32.4158 178.455 32.4158 172.104Z" fill="#214EF7"/>
<path d="M6.18868e-05 172.104C6.13311e-05 165.753 5.08473 160.038 12.0762 160.038C18.4321 160.038 24.1523 165.118 24.1523 172.104C24.1523 178.455 19.0677 184.17 12.0762 184.17C5.72032 184.17 6.24424e-05 178.455 6.18868e-05 172.104Z" fill="#214EF7"/>
<path d="M654.02 127.648C647.351 127.648 641.944 133.051 641.944 139.715C641.944 146.379 647.351 151.781 654.02 151.781C660.69 151.781 666.096 146.379 666.096 139.715C666.096 133.051 660.69 127.648 654.02 127.648Z" fill="#214EF7"/>
<path d="M609.53 139.715C609.53 133.364 614.614 127.648 621.606 127.648C627.962 127.648 633.682 132.729 633.682 139.715C633.682 146.065 628.597 151.781 621.606 151.781C615.25 151.781 609.53 146.7 609.53 139.715Z" fill="#214EF7"/>
<path d="M589.827 127.648C583.157 127.648 577.751 133.051 577.751 139.715C577.751 146.379 583.157 151.781 589.827 151.781C596.496 151.781 601.903 146.379 601.903 139.715C601.903 133.051 596.496 127.648 589.827 127.648Z" fill="#214EF7"/>
<path d="M545.335 139.715C545.335 133.364 550.42 127.648 557.411 127.648C563.767 127.648 569.487 132.729 569.487 139.715C569.487 146.065 564.403 151.781 557.411 151.781C551.055 151.781 545.335 146.7 545.335 139.715Z" fill="#214EF7"/>
<path d="M513.555 139.715C513.555 133.364 518.64 127.648 525.631 127.648C531.987 127.648 537.707 132.729 537.707 139.715C537.707 146.065 532.623 151.781 525.631 151.781C518.64 151.781 513.555 146.7 513.555 139.715Z" fill="#214EF7"/>
<path d="M493.216 127.648C486.547 127.648 481.14 133.051 481.14 139.715C481.14 146.379 486.547 151.781 493.216 151.781C499.886 151.781 505.293 146.379 505.293 139.715C505.293 133.051 499.886 127.648 493.216 127.648Z" fill="#214EF7"/>
<path d="M449.361 139.715C449.361 133.364 454.445 127.648 461.437 127.648C467.793 127.648 473.513 132.729 473.513 139.715C473.513 146.065 468.428 151.781 461.437 151.781C454.445 151.781 449.361 146.7 449.361 139.715Z" fill="#214EF7"/>
<path d="M429.022 127.648C422.353 127.648 416.946 133.051 416.946 139.715C416.946 146.379 422.353 151.781 429.022 151.781C435.691 151.781 441.098 146.379 441.098 139.715C441.098 133.051 435.691 127.648 429.022 127.648Z" fill="#214EF7"/>
<path d="M385.167 139.715C385.167 133.364 390.252 127.648 397.243 127.648C403.599 127.648 409.32 132.729 409.32 139.715C409.32 146.065 404.235 151.781 397.243 151.781C390.252 151.781 385.167 146.7 385.167 139.715Z" fill="#214EF7"/>
<path d="M352.752 139.715C352.752 133.364 357.836 127.648 364.828 127.648C371.184 127.648 376.904 132.729 376.904 139.715C376.904 146.065 371.819 151.781 364.828 151.781C358.472 151.781 352.752 146.7 352.752 139.715Z" fill="#214EF7"/>
<path d="M333.049 127.648C326.379 127.648 320.973 133.051 320.973 139.715C320.973 146.379 326.379 151.781 333.049 151.781C339.718 151.781 345.125 146.379 345.125 139.715C345.125 133.051 339.718 127.648 333.049 127.648Z" fill="#214EF7"/>
<path d="M289.193 139.715C289.193 133.364 294.277 127.648 301.269 127.648C307.625 127.648 313.345 132.729 313.345 139.715C313.345 146.065 308.26 151.781 301.269 151.781C294.277 151.781 289.193 146.7 289.193 139.715Z" fill="#214EF7"/>
<path d="M268.854 127.648C262.185 127.648 256.778 133.051 256.778 139.715C256.778 146.379 262.185 151.781 268.854 151.781C275.524 151.781 280.93 146.379 280.93 139.715C280.93 133.051 275.524 127.648 268.854 127.648Z" fill="#214EF7"/>
<path d="M224.999 139.715C224.999 133.364 230.084 127.648 237.076 127.648C243.432 127.648 249.152 132.729 249.152 139.715C249.152 146.065 244.067 151.781 237.076 151.781C230.084 151.781 224.999 146.7 224.999 139.715Z" fill="#214EF7"/>
<path d="M192.582 139.715C192.582 133.364 197.667 127.648 204.658 127.648C211.014 127.648 216.735 132.729 216.735 139.715C216.735 146.065 211.65 151.781 204.658 151.781C198.303 151.781 192.582 146.7 192.582 139.715Z" fill="#214EF7"/>
<path d="M172.88 127.648C166.21 127.648 160.804 133.051 160.804 139.715C160.804 146.379 166.21 151.781 172.88 151.781C179.549 151.781 184.956 146.379 184.956 139.715C184.956 133.051 179.549 127.648 172.88 127.648Z" fill="#214EF7"/>
<path d="M128.389 139.715C128.389 133.364 133.474 127.648 140.465 127.648C146.821 127.648 152.541 132.729 152.541 139.715C152.541 146.065 147.457 151.781 140.465 151.781C134.109 151.781 128.389 146.7 128.389 139.715Z" fill="#214EF7"/>
<path d="M64.1946 139.715C64.1946 133.364 69.2793 127.648 76.2708 127.648C82.6267 127.648 88.3469 132.729 88.3469 139.715C88.3469 146.065 83.2623 151.781 76.2708 151.781C69.9149 151.781 64.1946 146.7 64.1946 139.715Z" fill="#214EF7"/>
<path d="M32.4158 139.715C32.4158 133.364 37.5005 127.648 44.492 127.648C50.8479 127.648 56.5681 132.729 56.5681 139.715C56.5681 146.065 51.4834 151.781 44.492 151.781C37.5005 151.781 32.4158 146.7 32.4158 139.715Z" fill="#214EF7"/>
<path d="M6.18868e-05 139.715C6.13311e-05 133.364 5.08473 127.648 12.0762 127.648C18.4321 127.648 24.1523 132.729 24.1523 139.715C24.1523 146.065 19.0677 151.781 12.0762 151.781C5.72032 151.781 6.2498e-05 146.7 6.18868e-05 139.715Z" fill="#214EF7"/>
<path d="M641.944 107.962C641.944 101.611 647.029 95.8959 654.02 95.8959C660.376 95.8959 666.096 100.976 666.096 107.962C666.096 114.313 661.012 120.028 654.02 120.028C647.029 120.028 641.944 114.313 641.944 107.962Z" fill="#214EF7"/>
<path d="M609.53 107.962C609.53 101.611 614.614 95.8959 621.606 95.8959C627.962 95.8959 633.682 100.976 633.682 107.962C633.682 114.313 628.597 120.028 621.606 120.028C615.25 120.028 609.53 114.313 609.53 107.962Z" fill="#214EF7"/>
<path d="M577.751 107.962C577.751 101.611 582.835 95.8959 589.827 95.8959C596.183 95.8959 601.903 100.976 601.903 107.962C601.903 114.313 596.818 120.028 589.827 120.028C582.835 120.028 577.751 114.313 577.751 107.962Z" fill="#214EF7"/>
<path d="M545.335 107.962C545.335 101.611 550.42 95.8959 557.411 95.8959C563.767 95.8959 569.487 100.976 569.487 107.962C569.487 114.313 564.403 120.028 557.411 120.028C551.055 120.028 545.335 114.313 545.335 107.962Z" fill="#214EF7"/>
<path d="M513.555 107.962C513.555 101.611 518.64 95.8959 525.631 95.8959C531.987 95.8959 537.707 100.976 537.707 107.962C537.707 114.313 532.623 120.028 525.631 120.028C518.64 120.028 513.555 114.313 513.555 107.962Z" fill="#214EF7"/>
<path d="M481.14 107.962C481.14 101.611 486.225 95.8959 493.216 95.8959C499.572 95.8959 505.293 100.976 505.293 107.962C505.293 114.313 500.208 120.028 493.216 120.028C486.861 120.028 481.14 114.313 481.14 107.962Z" fill="#214EF7"/>
<path d="M449.361 107.962C449.361 101.611 454.445 95.8959 461.437 95.8959C467.793 95.8959 473.513 100.976 473.513 107.962C473.513 114.313 468.428 120.028 461.437 120.028C454.445 120.028 449.361 114.313 449.361 107.962Z" fill="#214EF7"/>
<path d="M416.946 107.962C416.946 101.611 422.031 95.8959 429.022 95.8959C435.378 95.8959 441.098 100.976 441.098 107.962C441.098 114.313 436.013 120.028 429.022 120.028C422.666 120.028 416.946 114.313 416.946 107.962Z" fill="#214EF7"/>
<path d="M385.167 107.962C385.167 101.611 390.252 95.8959 397.243 95.8959C403.599 95.8959 409.32 100.976 409.32 107.962C409.32 114.313 404.235 120.028 397.243 120.028C390.252 120.028 385.167 114.313 385.167 107.962Z" fill="#214EF7"/>
<path d="M352.752 107.962C352.752 101.611 357.836 95.8959 364.828 95.8959C371.184 95.8959 376.904 100.976 376.904 107.962C376.904 114.313 371.819 120.028 364.828 120.028C358.472 120.028 352.752 114.313 352.752 107.962Z" fill="#214EF7"/>
<path d="M320.973 107.962C320.973 101.611 326.057 95.8959 333.049 95.8959C339.405 95.8959 345.125 100.976 345.125 107.962C345.125 114.313 340.04 120.028 333.049 120.028C326.057 120.028 320.973 114.313 320.973 107.962Z" fill="#214EF7"/>
<path d="M289.193 107.962C289.193 101.611 294.278 95.8959 301.269 95.8959C307.625 95.8959 313.345 100.976 313.345 107.962C313.345 114.313 308.261 120.028 301.269 120.028C294.278 120.028 289.193 114.313 289.193 107.962Z" fill="#214EF7"/>
<path d="M256.778 107.962C256.778 101.611 261.863 95.8959 268.854 95.8959C275.21 95.8959 280.93 100.976 280.93 107.962C280.93 114.313 275.846 120.028 268.854 120.028C262.498 120.028 256.778 114.313 256.778 107.962Z" fill="#214EF7"/>
<path d="M224.999 107.962C224.999 101.611 230.084 95.8959 237.076 95.8959C243.432 95.8959 249.152 100.976 249.152 107.962C249.152 114.313 244.067 120.028 237.076 120.028C230.084 120.028 224.999 114.313 224.999 107.962Z" fill="#214EF7"/>
<path d="M192.582 107.962C192.582 101.611 197.667 95.8959 204.658 95.8959C211.014 95.8959 216.735 100.976 216.735 107.962C216.735 114.313 211.65 120.028 204.658 120.028C198.303 120.028 192.582 114.313 192.582 107.962Z" fill="#214EF7"/>
<path d="M160.804 107.962C160.804 101.611 165.888 95.8959 172.88 95.8959C179.236 95.8959 184.956 100.976 184.956 107.962C184.956 114.313 179.871 120.028 172.88 120.028C165.888 120.028 160.804 114.313 160.804 107.962Z" fill="#214EF7"/>
<path d="M128.389 107.962C128.389 101.611 133.474 95.8959 140.465 95.8959C146.821 95.8959 152.542 100.976 152.542 107.962C152.542 114.313 147.457 120.028 140.465 120.028C134.109 120.028 128.389 114.313 128.389 107.962Z" fill="#214EF7"/>
<path d="M96.609 107.962C96.609 101.611 101.694 95.8959 108.685 95.8959C115.041 95.8959 120.761 100.976 120.761 107.962C120.761 114.313 115.677 120.028 108.685 120.028C101.694 120.028 96.609 114.313 96.609 107.962Z" fill="#214EF7"/>
<path d="M64.1946 107.962C64.1946 101.611 69.2793 95.8959 76.2708 95.8959C82.6267 95.8959 88.3469 100.976 88.3469 107.962C88.3469 114.313 83.2623 120.028 76.2708 120.028C69.9149 120.028 64.1946 114.313 64.1946 107.962Z" fill="#214EF7"/>
<path d="M32.4158 107.962C32.4158 101.611 37.5005 95.8959 44.492 95.8959C50.8479 95.8959 56.5681 100.976 56.5681 107.962C56.5681 114.313 51.4834 120.028 44.492 120.028C37.5005 120.028 32.4158 114.313 32.4158 107.962Z" fill="#214EF7"/>
<path d="M654.02 64.1419C647.351 64.1419 641.944 69.5442 641.944 76.2082C641.944 82.8723 647.351 88.2745 654.02 88.2745C660.69 88.2745 666.096 82.8723 666.096 76.2082C666.096 69.5442 660.69 64.1419 654.02 64.1419Z" fill="#214EF7"/>
<path d="M609.53 76.2082C609.53 69.8575 614.614 64.1419 621.606 64.1419C627.962 64.1419 633.682 69.2225 633.682 76.2082C633.682 82.5589 628.597 88.2745 621.606 88.2745C615.25 87.6395 609.53 82.5589 609.53 76.2082Z" fill="#214EF7"/>
<path d="M589.827 64.1419C583.157 64.1419 577.751 69.5442 577.751 76.2082C577.751 82.8723 583.157 88.2745 589.827 88.2745C596.496 88.2745 601.903 82.8723 601.903 76.2082C601.903 69.5442 596.496 64.1419 589.827 64.1419Z" fill="#214EF7"/>
<path d="M545.335 76.2082C545.335 69.8575 550.42 64.1419 557.411 64.1419C563.767 64.1419 569.487 69.2225 569.487 76.2082C569.487 82.5589 564.403 88.2745 557.411 88.2745C551.055 87.6395 545.335 82.5589 545.335 76.2082Z" fill="#214EF7"/>
<path d="M513.555 76.2082C513.555 69.8575 518.64 64.1419 525.631 64.1419C531.987 64.1419 537.707 69.2225 537.707 76.2082C537.707 82.5589 532.623 88.2745 525.631 88.2745C518.64 87.6395 513.555 82.5589 513.555 76.2082Z" fill="#214EF7"/>
<path d="M493.216 64.1419C486.547 64.1419 481.14 69.5442 481.14 76.2082C481.14 82.8723 486.547 88.2745 493.216 88.2745C499.886 88.2745 505.293 82.8723 505.293 76.2082C505.293 69.5442 499.886 64.1419 493.216 64.1419Z" fill="#214EF7"/>
<path d="M449.361 76.2082C449.361 69.8575 454.445 64.1419 461.437 64.1419C467.793 64.1419 473.513 69.2225 473.513 76.2082C473.513 82.5589 468.428 88.2745 461.437 88.2745C454.445 87.6395 449.361 82.5589 449.361 76.2082Z" fill="#214EF7"/>
<path d="M429.022 64.1419C422.353 64.1419 416.946 69.5442 416.946 76.2082C416.946 82.8723 422.353 88.2745 429.022 88.2745C435.691 88.2745 441.098 82.8723 441.098 76.2082C441.098 69.5442 435.691 64.1419 429.022 64.1419Z" fill="#214EF7"/>
<path d="M385.167 76.2082C385.167 69.8575 390.252 64.1419 397.243 64.1419C403.599 64.1419 409.32 69.2225 409.32 76.2082C409.32 82.5589 404.235 88.2745 397.243 88.2745C390.252 87.6395 385.167 82.5589 385.167 76.2082Z" fill="#214EF7"/>
<path d="M352.752 76.2082C352.752 69.8575 357.836 64.1419 364.828 64.1419C371.184 64.1419 376.904 69.2225 376.904 76.2082C376.904 82.5589 371.819 88.2745 364.828 88.2745C358.472 87.6395 352.752 82.5589 352.752 76.2082Z" fill="#214EF7"/>
<path d="M333.049 64.1419C326.379 64.1419 320.973 69.5442 320.973 76.2082C320.973 82.8723 326.379 88.2745 333.049 88.2745C339.718 88.2745 345.125 82.8723 345.125 76.2082C345.125 69.5442 339.718 64.1419 333.049 64.1419Z" fill="#214EF7"/>
<path d="M289.193 76.2082C289.193 69.8575 294.278 64.1419 301.269 64.1419C307.625 64.1419 313.345 69.2225 313.345 76.2082C313.345 82.5589 308.261 88.2745 301.269 88.2745C294.278 87.6395 289.193 82.5589 289.193 76.2082Z" fill="#214EF7"/>
<path d="M268.854 64.1419C262.185 64.1419 256.778 69.5442 256.778 76.2082C256.778 82.8723 262.185 88.2745 268.854 88.2745C275.524 88.2745 280.93 82.8723 280.93 76.2082C280.93 69.5442 275.524 64.1419 268.854 64.1419Z" fill="#214EF7"/>
<path d="M224.999 76.2082C224.999 69.8575 230.084 64.1419 237.076 64.1419C243.432 64.1419 249.152 69.2225 249.152 76.2082C249.152 82.5589 244.067 88.2745 237.076 88.2745C230.084 87.6395 224.999 82.5589 224.999 76.2082Z" fill="#214EF7"/>
<path d="M192.582 76.2082C192.582 69.8575 197.667 64.1419 204.658 64.1419C211.014 64.1419 216.735 69.2225 216.735 76.2082C216.735 82.5589 211.65 88.2745 204.658 88.2745C198.303 87.6395 192.582 82.5589 192.582 76.2082Z" fill="#214EF7"/>
<path d="M172.88 64.1419C166.21 64.1419 160.804 69.5442 160.804 76.2082C160.804 82.8723 166.21 88.2745 172.88 88.2745C179.549 88.2745 184.956 82.8723 184.956 76.2082C184.956 69.5442 179.549 64.1419 172.88 64.1419Z" fill="#214EF7"/>
<path d="M128.389 76.2082C128.389 69.8575 133.474 64.1419 140.465 64.1419C146.821 64.1419 152.542 69.2225 152.542 76.2082C152.542 82.5589 147.457 88.2745 140.465 88.2745C134.109 87.6395 128.389 82.5589 128.389 76.2082Z" fill="#214EF7"/>
<path d="M108.685 64.1419C102.016 64.1419 96.609 69.5442 96.609 76.2082C96.609 82.8723 102.016 88.2745 108.685 88.2745C115.355 88.2745 120.761 82.8723 120.761 76.2082C120.761 69.5442 115.355 64.1419 108.685 64.1419Z" fill="#214EF7"/>
<path d="M64.1946 76.2082C64.1946 69.8575 69.2793 64.1419 76.2708 64.1419C82.6267 64.1419 88.3469 69.2225 88.3469 76.2082C88.3469 82.5589 83.2623 88.2745 76.2708 88.2745C69.9149 87.6395 64.1946 82.5589 64.1946 76.2082Z" fill="#214EF7"/>
<path d="M32.4158 76.2082C32.4158 69.8575 37.5005 64.1419 44.492 64.1419C50.8479 64.1419 56.5681 69.2225 56.5681 76.2082C56.5681 82.5589 51.4834 88.2745 44.492 88.2745C37.5005 87.6395 32.4158 82.5589 32.4158 76.2082Z" fill="#214EF7"/>
<path d="M6.18868e-05 76.2082C6.13311e-05 69.8575 5.08473 64.1419 12.0762 64.1419C18.4321 64.1419 24.1523 69.2225 24.1523 76.2082C24.1523 82.5589 19.0677 88.2745 12.0762 88.2745C5.72032 87.6395 6.24424e-05 82.5589 6.18868e-05 76.2082Z" fill="#214EF7"/>
<path d="M609.53 43.8202C609.53 37.4696 614.614 31.754 621.606 31.754C627.962 31.754 633.682 36.8345 633.682 43.8202C633.682 50.1709 628.597 55.8865 621.606 55.8865C615.25 55.8865 609.53 50.1709 609.53 43.8202Z" fill="#214EF7"/>
<path d="M577.751 43.8202C577.751 37.4696 582.835 31.754 589.827 31.754C596.183 31.754 601.903 36.8345 601.903 43.8202C601.903 50.1709 596.818 55.8865 589.827 55.8865C582.835 55.8865 577.751 50.1709 577.751 43.8202Z" fill="#214EF7"/>
<path d="M545.335 43.8202C545.335 37.4696 550.42 31.754 557.411 31.754C563.767 31.754 569.487 36.8345 569.487 43.8202C569.487 50.1709 564.403 55.8865 557.411 55.8865C551.055 55.8865 545.335 50.1709 545.335 43.8202Z" fill="#214EF7"/>
<path d="M513.555 43.8202C513.555 37.4696 518.64 31.754 525.631 31.754C531.987 31.754 537.707 36.8345 537.707 43.8202C537.707 50.1709 532.623 55.8865 525.631 55.8865C518.64 55.8865 513.555 50.1709 513.555 43.8202Z" fill="#214EF7"/>
<path d="M481.14 43.8201C481.14 37.4694 486.225 31.7538 493.216 31.7538C499.572 31.7538 505.293 36.8344 505.293 43.8201C505.293 50.1708 500.208 55.8864 493.216 55.8864C486.861 55.8864 481.14 50.1708 481.14 43.8201Z" fill="#214EF7"/>
<path d="M449.361 43.8201C449.361 37.4695 454.445 31.7539 461.437 31.7539C467.793 31.7539 473.513 36.8344 473.513 43.8201C473.513 50.1708 468.428 55.8864 461.437 55.8864C454.445 55.8864 449.361 50.1708 449.361 43.8201Z" fill="#214EF7"/>
<path d="M416.946 43.8201C416.946 37.4695 422.031 31.7539 429.022 31.7539C435.378 31.7539 441.098 36.8344 441.098 43.8201C441.098 50.1708 436.013 55.8864 429.022 55.8864C422.666 55.8864 416.946 50.1708 416.946 43.8201Z" fill="#214EF7"/>
<path d="M385.167 43.8201C385.167 37.4695 390.252 31.7539 397.243 31.7539C403.599 31.7539 409.32 36.8344 409.32 43.8201C409.32 50.1708 404.235 55.8864 397.243 55.8864C390.252 55.8864 385.167 50.1708 385.167 43.8201Z" fill="#214EF7"/>
<path d="M352.751 43.8201C352.751 37.4695 357.836 31.7539 364.827 31.7539C371.183 31.7539 376.904 36.8344 376.904 43.8201C376.904 50.1708 371.819 55.8864 364.827 55.8864C358.472 55.8864 352.751 50.1708 352.751 43.8201Z" fill="#214EF7"/>
<path d="M320.973 43.8201C320.973 37.4695 326.057 31.7539 333.049 31.7539C339.405 31.7539 345.125 36.8344 345.125 43.8201C345.125 50.1708 340.04 55.8864 333.049 55.8864C326.057 55.8864 320.973 50.1708 320.973 43.8201Z" fill="#214EF7"/>
<path d="M289.193 43.8202C289.193 37.4696 294.277 31.754 301.269 31.754C307.625 31.754 313.345 36.8345 313.345 43.8202C313.345 50.1709 308.26 55.8865 301.269 55.8865C294.277 55.8865 289.193 50.1709 289.193 43.8202Z" fill="#214EF7"/>
<path d="M256.778 43.8202C256.778 37.4696 261.863 31.754 268.854 31.754C275.21 31.754 280.93 36.8345 280.93 43.8202C280.93 50.1709 275.846 55.8865 268.854 55.8865C262.498 55.8865 256.778 50.1709 256.778 43.8202Z" fill="#214EF7"/>
<path d="M224.999 43.8202C224.999 37.4696 230.084 31.754 237.076 31.754C243.432 31.754 249.152 36.8345 249.152 43.8202C249.152 50.1709 244.067 55.8865 237.076 55.8865C230.084 55.8865 224.999 50.1709 224.999 43.8202Z" fill="#214EF7"/>
<path d="M192.582 43.8202C192.582 37.4696 197.667 31.754 204.658 31.754C211.014 31.754 216.735 36.8345 216.735 43.8202C216.735 50.1709 211.65 55.8865 204.658 55.8865C198.303 55.8865 192.582 50.1709 192.582 43.8202Z" fill="#214EF7"/>
<path d="M160.804 43.8202C160.804 37.4696 165.888 31.754 172.88 31.754C179.236 31.754 184.956 36.8345 184.956 43.8202C184.956 50.1709 179.871 55.8865 172.88 55.8865C165.888 55.8865 160.804 50.1709 160.804 43.8202Z" fill="#214EF7"/>
<path d="M128.389 43.8201C128.389 37.4694 133.474 31.7538 140.465 31.7538C146.821 31.7538 152.542 36.8344 152.542 43.8201C152.542 50.1708 147.457 55.8864 140.465 55.8864C134.109 55.8864 128.389 50.1708 128.389 43.8201Z" fill="#214EF7"/>
<path d="M96.609 43.8201C96.609 37.4694 101.694 31.7538 108.685 31.7538C115.041 31.7538 120.761 36.8344 120.761 43.8201C120.761 50.1708 115.677 55.8864 108.685 55.8864C101.694 55.8864 96.609 50.1708 96.609 43.8201Z" fill="#214EF7"/>
<path d="M64.1946 43.8201C64.1946 37.4694 69.2793 31.7538 76.2708 31.7538C82.6267 31.7538 88.3469 36.8344 88.3469 43.8201C88.3469 50.1708 83.2623 55.8864 76.2708 55.8864C69.9149 55.8864 64.1946 50.1708 64.1946 43.8201Z" fill="#214EF7"/>
<path d="M32.4158 43.8201C32.4158 37.4694 37.5005 31.7538 44.492 31.7538C50.8479 31.7538 56.5681 36.8344 56.5681 43.8201C56.5681 50.1708 51.4834 55.8864 44.492 55.8864C37.5005 55.8864 32.4158 50.1708 32.4158 43.8201Z" fill="#214EF7"/>
<path d="M0.000122922 43.8201C0.000122366 37.4694 5.08478 31.7538 12.0762 31.7538C18.4321 31.7538 24.1523 36.8344 24.1523 43.8201C24.1523 50.1708 19.0677 55.8864 12.0762 55.8864C5.72037 55.8864 0.000123478 50.1708 0.000122922 43.8201Z" fill="#214EF7"/>
<path d="M609.53 12.0663C609.53 5.71563 614.614 6.46081e-05 621.606 6.39974e-05C627.962 6.34422e-05 633.682 5.08056 633.682 12.0663C633.682 18.417 628.597 24.1326 621.606 24.1326C615.25 24.1326 609.53 18.417 609.53 12.0663Z" fill="#214EF7"/>
<path d="M589.827 6.39974e-05C583.157 6.458e-05 577.751 5.40228 577.751 12.0663C577.751 18.7303 583.157 24.1326 589.827 24.1326C596.496 24.1326 601.903 18.7303 601.903 12.0663C601.903 5.40228 596.496 6.34148e-05 589.827 6.39974e-05Z" fill="#214EF7"/>
<path d="M545.335 12.0663C545.335 5.71563 550.42 6.46081e-05 557.411 6.39974e-05C563.767 6.34422e-05 569.487 5.08056 569.487 12.0663C569.487 18.417 564.403 24.1326 557.411 24.1326C551.055 24.1326 545.335 18.417 545.335 12.0663Z" fill="#214EF7"/>
<path d="M449.361 12.0662C449.361 5.7156 454.445 6.46081e-05 461.437 6.39974e-05C467.793 6.34422e-05 473.513 5.08053 473.513 12.0662C473.513 18.4169 468.428 24.1324 461.437 24.1324C454.445 24.1324 449.361 18.4169 449.361 12.0662Z" fill="#214EF7"/>
<path d="M429.022 6.39974e-05C422.353 6.45799e-05 416.946 5.40225 416.946 12.0662C416.946 18.7302 422.353 24.1324 429.022 24.1324C435.691 24.1324 441.098 18.7302 441.098 12.0662C441.098 5.40225 435.691 6.34148e-05 429.022 6.39974e-05Z" fill="#214EF7"/>
<path d="M385.167 12.0662C385.167 5.7156 390.252 6.46081e-05 397.243 6.39974e-05C403.599 6.34422e-05 409.32 5.08053 409.32 12.0662C409.32 18.4169 404.235 24.1324 397.243 24.1324C390.252 24.1324 385.167 18.4169 385.167 12.0662Z" fill="#214EF7"/>
<path d="M352.751 12.0662C352.751 5.7156 357.836 6.46081e-05 364.827 6.39974e-05C371.183 6.34422e-05 376.904 5.08053 376.904 12.0662C376.904 18.4169 371.819 24.1324 364.827 24.1324C358.472 24.1324 352.751 18.4169 352.751 12.0662Z" fill="#214EF7"/>
<path d="M333.049 6.39974e-05C326.379 6.45799e-05 320.973 5.40225 320.973 12.0662C320.973 18.7302 326.379 24.1324 333.049 24.1324C339.718 24.1324 345.125 18.7302 345.125 12.0662C345.125 5.40225 339.718 6.34148e-05 333.049 6.39974e-05Z" fill="#214EF7"/>
<path d="M289.193 12.0664C289.193 5.71575 294.277 0.000186678 301.269 0.000186068C307.625 0.000185512 313.345 5.08068 313.345 12.0664C313.345 18.4171 308.26 24.1327 301.269 24.1327C294.277 24.1327 289.193 18.4171 289.193 12.0664Z" fill="#214EF7"/>
<path d="M268.854 0.000186068C262.185 0.00018665 256.778 5.4024 256.778 12.0664C256.778 18.7304 262.185 24.1327 268.854 24.1327C275.524 24.1327 280.93 18.7304 280.93 12.0664C280.93 5.4024 275.524 0.000185485 268.854 0.000186068Z" fill="#214EF7"/>
<path d="M224.999 12.0664C224.999 5.71575 230.084 0.000186678 237.076 0.000186068C243.432 0.000185512 249.152 5.08068 249.152 12.0664C249.152 18.4171 244.067 24.1327 237.076 24.1327C230.084 24.1327 224.999 18.4171 224.999 12.0664Z" fill="#214EF7"/>
<path d="M192.582 12.0664C192.582 5.71575 197.667 0.000186678 204.658 0.000186068C211.014 0.000185512 216.735 5.08068 216.735 12.0664C216.735 18.4171 211.65 24.1327 204.658 24.1327C198.303 24.1327 192.582 18.4171 192.582 12.0664Z" fill="#214EF7"/>
<path d="M172.88 0.000186068C166.21 0.00018665 160.804 5.4024 160.804 12.0664C160.804 18.7304 166.21 24.1327 172.88 24.1327C179.549 24.1327 184.956 18.7304 184.956 12.0664C184.956 5.4024 179.549 0.000185485 172.88 0.000186068Z" fill="#214EF7"/>
<path d="M128.389 12.0663C128.389 5.71563 133.474 6.46081e-05 140.465 6.39974e-05C146.821 6.34422e-05 152.542 5.08056 152.542 12.0663C152.542 18.417 147.457 24.1326 140.465 24.1326C134.109 24.1326 128.389 18.417 128.389 12.0663Z" fill="#214EF7"/>
<path d="M108.685 6.39974e-05C102.016 6.458e-05 96.609 5.40228 96.609 12.0663C96.609 18.7303 102.016 24.1326 108.685 24.1326C115.355 24.1326 120.761 18.7303 120.761 12.0663C120.761 5.40228 115.355 6.34148e-05 108.685 6.39974e-05Z" fill="#214EF7"/>
<path d="M64.1946 12.0663C64.1946 5.71563 69.2793 6.46081e-05 76.2708 6.39974e-05C82.6267 6.34422e-05 88.3469 5.08056 88.3469 12.0663C88.3469 18.417 83.2623 24.1326 76.2708 24.1326C69.9149 24.1326 64.1946 18.417 64.1946 12.0663Z" fill="#214EF7"/>
<path d="M32.4158 12.0663C32.4158 5.71563 37.5005 6.46081e-05 44.492 6.39974e-05C50.8479 6.34422e-05 56.5681 5.08056 56.5681 12.0663C56.5681 18.417 51.4834 24.1326 44.492 24.1326C37.5005 24.1326 32.4158 18.417 32.4158 12.0663Z" fill="#214EF7"/>
</g>
</svg>
