<svg width="782" height="518" viewBox="0 0 782 518" fill="none" xmlns="http://www.w3.org/2000/svg">
<g opacity="0.05">
<path d="M756.836 12.3756C756.836 19.2105 762.381 24.7513 769.222 24.7513C776.062 24.7513 781.607 19.2105 781.607 12.3756C781.607 5.54077 776.062 -2.42195e-07 769.222 -5.40956e-07C762.381 -8.39718e-07 756.836 5.54077 756.836 12.3756Z" fill="#214EF7"/>
<path d="M769.222 156.325C762.703 156.325 756.836 151.114 756.836 143.949C756.836 137.436 762.051 131.574 769.222 131.574C775.74 131.574 781.607 136.784 781.607 143.949C780.956 151.114 775.74 156.325 769.222 156.325Z" fill="#214EF7"/>
<path d="M735.976 57.9709C729.457 57.9709 723.59 52.7601 723.59 45.5953C723.59 39.0818 728.805 33.2197 735.976 33.2197C742.494 33.2197 748.361 38.4305 748.361 45.5953C748.361 52.1088 742.494 57.9709 735.976 57.9709Z" fill="#214EF7"/>
<path d="M735.976 90.5375C729.457 90.5375 723.59 85.3267 723.59 78.1619C723.59 71.6484 728.805 65.7863 735.976 65.7863C742.494 65.7863 748.361 70.9971 748.361 78.1619C748.361 85.3267 742.494 90.5375 735.976 90.5375Z" fill="#214EF7"/>
<path d="M735.976 123.757C729.457 123.757 723.59 118.546 723.59 111.381C723.59 104.868 728.805 99.0059 735.976 99.0059C742.494 99.0059 748.361 104.217 748.361 111.381C748.361 117.895 742.494 123.757 735.976 123.757Z" fill="#214EF7"/>
<path d="M735.976 156.325C729.457 156.325 723.59 151.114 723.59 143.949C723.59 137.436 728.805 131.574 735.976 131.574C742.494 131.574 748.361 136.784 748.361 143.949C748.361 151.114 742.494 156.325 735.976 156.325Z" fill="#214EF7"/>
<path d="M735.976 189.543C729.457 189.543 723.59 184.333 723.59 177.168C723.59 170.654 728.805 164.792 735.976 164.792C742.494 164.792 748.361 170.003 748.361 177.168C748.361 183.681 742.494 189.543 735.976 189.543Z" fill="#214EF7"/>
<path d="M735.976 222.11C729.457 222.11 723.59 216.899 723.59 209.735C723.59 203.221 728.805 197.359 735.976 197.359C742.494 197.359 748.361 202.57 748.361 209.735C748.361 216.899 742.494 222.11 735.976 222.11Z" fill="#214EF7"/>
<path d="M735.976 254.678C729.457 254.678 723.59 249.467 723.59 242.302C723.59 235.789 728.805 229.927 735.976 229.927C742.494 229.927 748.361 235.137 748.361 242.302C748.361 249.467 742.494 254.678 735.976 254.678Z" fill="#214EF7"/>
<path d="M703.382 123.757C696.863 123.757 690.996 118.546 690.996 111.382C690.996 104.868 696.211 99.006 703.382 99.006C709.9 99.006 715.767 104.217 715.767 111.382C715.767 117.895 709.9 123.757 703.382 123.757Z" fill="#214EF7"/>
<path d="M703.382 156.325C696.863 156.325 690.996 151.114 690.996 143.949C690.996 137.436 696.211 131.574 703.382 131.574C709.9 131.574 715.767 136.784 715.767 143.949C715.767 151.114 709.9 156.325 703.382 156.325Z" fill="#214EF7"/>
<path d="M690.996 177.168C690.996 184.003 696.541 189.543 703.382 189.543C710.222 189.543 715.767 184.003 715.767 177.168C715.767 170.333 710.222 164.792 703.382 164.792C696.541 164.792 690.996 170.333 690.996 177.168Z" fill="#214EF7"/>
<path d="M703.382 222.11C696.863 222.11 690.996 216.899 690.996 209.735C690.996 203.221 696.211 197.359 703.382 197.359C709.9 197.359 715.767 202.57 715.767 209.735C715.767 216.899 709.9 222.11 703.382 222.11Z" fill="#214EF7"/>
<path d="M690.996 242.954C690.996 249.789 696.541 255.33 703.382 255.33C710.222 255.33 715.767 249.789 715.767 242.954C715.767 236.119 710.222 230.578 703.382 230.578C696.541 230.578 690.996 236.119 690.996 242.954Z" fill="#214EF7"/>
<path d="M703.382 287.896C696.863 287.896 690.996 282.686 690.996 275.521C690.996 269.007 696.211 263.145 703.382 263.145C709.9 263.145 715.767 268.356 715.767 275.521C715.767 282.034 709.9 287.896 703.382 287.896Z" fill="#214EF7"/>
<path d="M703.382 320.464C696.863 320.464 690.996 315.253 690.996 308.089C690.996 301.575 696.211 295.713 703.382 295.713C709.9 295.713 715.767 300.924 715.767 308.089C715.767 315.253 709.9 320.464 703.382 320.464Z" fill="#214EF7"/>
<path d="M670.136 90.5375C663.617 90.5375 657.75 85.3267 657.75 78.1619C657.75 71.6484 662.965 65.7863 670.136 65.7863C676.654 65.7863 682.521 70.9971 682.521 78.1619C682.521 85.3267 677.306 90.5375 670.136 90.5375Z" fill="#214EF7"/>
<path d="M670.136 123.757C663.617 123.757 657.75 118.546 657.75 111.382C657.75 104.868 662.965 99.006 670.136 99.006C676.654 99.006 682.521 104.217 682.521 111.382C682.521 117.895 677.306 123.757 670.136 123.757Z" fill="#214EF7"/>
<path d="M670.136 156.325C663.617 156.325 657.75 151.114 657.75 143.949C657.75 137.436 662.965 131.574 670.136 131.574C676.654 131.574 682.521 136.784 682.521 143.949C682.521 151.114 677.306 156.325 670.136 156.325Z" fill="#214EF7"/>
<path d="M670.136 189.543C663.617 189.543 657.75 184.333 657.75 177.168C657.75 170.654 662.965 164.792 670.136 164.792C676.654 164.792 682.521 170.003 682.521 177.168C682.521 183.681 677.306 189.543 670.136 189.543Z" fill="#214EF7"/>
<path d="M670.136 222.11C663.617 222.11 657.75 216.899 657.75 209.735C657.75 203.221 662.965 197.359 670.136 197.359C676.654 197.359 682.521 202.57 682.521 209.735C682.521 216.899 677.306 222.11 670.136 222.11Z" fill="#214EF7"/>
<path d="M670.136 254.678C663.617 254.678 657.75 249.467 657.75 242.302C657.75 235.789 662.965 229.927 670.136 229.927C676.654 229.927 682.521 235.137 682.521 242.302C682.521 249.467 677.306 254.678 670.136 254.678Z" fill="#214EF7"/>
<path d="M670.136 287.896C663.617 287.896 657.75 282.686 657.75 275.521C657.75 269.007 662.965 263.145 670.136 263.145C676.654 263.145 682.521 268.356 682.521 275.521C682.521 282.034 677.306 287.896 670.136 287.896Z" fill="#214EF7"/>
<path d="M670.136 320.464C663.617 320.464 657.75 315.253 657.75 308.089C657.75 301.575 662.965 295.713 670.136 295.713C676.654 295.713 682.521 300.924 682.521 308.089C682.521 315.253 677.306 320.464 670.136 320.464Z" fill="#214EF7"/>
<path d="M670.136 353.683C663.617 353.683 657.75 348.472 657.75 341.307C657.75 334.794 662.965 328.931 670.136 328.931C676.654 328.931 682.521 334.142 682.521 341.307C682.521 347.821 677.306 353.683 670.136 353.683Z" fill="#214EF7"/>
<path d="M625.155 78.1619C625.155 84.9968 630.701 90.5375 637.541 90.5375C644.382 90.5375 649.927 84.9968 649.927 78.1619C649.927 71.327 644.382 65.7863 637.541 65.7863C630.701 65.7863 625.155 71.327 625.155 78.1619Z" fill="#214EF7"/>
<path d="M637.541 123.757C631.022 123.757 625.155 118.546 625.155 111.382C625.155 104.868 630.37 99.006 637.541 99.006C644.06 99.006 649.927 104.217 649.927 111.382C649.927 117.895 644.06 123.757 637.541 123.757Z" fill="#214EF7"/>
<path d="M637.541 156.325C631.022 156.325 625.155 151.114 625.155 143.949C625.155 137.436 630.37 131.574 637.541 131.574C644.06 131.574 649.927 136.784 649.927 143.949C649.927 151.114 644.06 156.325 637.541 156.325Z" fill="#214EF7"/>
<path d="M625.155 177.168C625.155 184.003 630.701 189.543 637.541 189.543C644.382 189.543 649.927 184.003 649.927 177.168C649.927 170.333 644.382 164.792 637.541 164.792C630.701 164.792 625.155 170.333 625.155 177.168Z" fill="#214EF7"/>
<path d="M637.541 222.11C631.023 222.11 625.156 216.899 625.156 209.735C625.156 203.221 630.371 197.359 637.541 197.359C644.06 197.359 649.927 202.57 649.927 209.735C649.927 216.899 644.06 222.11 637.541 222.11Z" fill="#214EF7"/>
<path d="M625.156 242.954C625.156 249.789 630.701 255.33 637.541 255.33C644.382 255.33 649.927 249.789 649.927 242.954C649.927 236.119 644.382 230.578 637.541 230.578C630.701 230.578 625.156 236.119 625.156 242.954Z" fill="#214EF7"/>
<path d="M637.541 287.896C631.023 287.896 625.156 282.686 625.156 275.521C625.156 269.007 630.371 263.145 637.541 263.145C644.06 263.145 649.927 268.356 649.927 275.521C649.927 282.034 644.06 287.896 637.541 287.896Z" fill="#214EF7"/>
<path d="M637.541 320.464C631.023 320.464 625.156 315.253 625.156 308.089C625.156 301.575 630.371 295.713 637.541 295.713C644.06 295.713 649.927 300.924 649.927 308.089C649.927 315.253 644.06 320.464 637.541 320.464Z" fill="#214EF7"/>
<path d="M625.156 341.307C625.156 348.142 630.701 353.683 637.541 353.683C644.382 353.683 649.927 348.142 649.927 341.307C649.927 334.472 644.382 328.931 637.541 328.931C630.701 328.931 625.156 334.472 625.156 341.307Z" fill="#214EF7"/>
<path d="M637.541 386.25C631.022 386.25 625.155 381.04 625.155 373.875C625.155 367.361 630.37 361.499 637.541 361.499C644.06 361.499 649.927 366.71 649.927 373.875C649.927 381.04 644.06 386.25 637.541 386.25Z" fill="#214EF7"/>
<path d="M604.295 90.5375C597.777 90.5375 591.91 85.3267 591.91 78.1619C591.91 71.6484 597.125 65.7863 604.295 65.7863C610.814 65.7863 616.681 70.9971 616.681 78.1619C616.681 85.3267 611.466 90.5375 604.295 90.5375Z" fill="#214EF7"/>
<path d="M604.295 123.757C597.777 123.757 591.91 118.546 591.91 111.382C591.91 104.868 597.125 99.006 604.295 99.006C610.814 99.006 616.681 104.217 616.681 111.382C616.681 117.895 611.466 123.757 604.295 123.757Z" fill="#214EF7"/>
<path d="M604.295 156.325C597.777 156.325 591.91 151.114 591.91 143.949C591.91 137.436 597.125 131.574 604.295 131.574C610.814 131.574 616.681 136.785 616.681 143.949C616.681 151.114 611.466 156.325 604.295 156.325Z" fill="#214EF7"/>
<path d="M604.295 189.543C597.777 189.543 591.91 184.333 591.91 177.168C591.91 170.654 597.125 164.792 604.295 164.792C610.814 164.792 616.681 170.003 616.681 177.168C616.681 183.681 611.466 189.543 604.295 189.543Z" fill="#214EF7"/>
<path d="M604.296 222.11C597.777 222.11 591.91 216.899 591.91 209.735C591.91 203.221 597.125 197.359 604.296 197.359C610.814 197.359 616.681 202.57 616.681 209.735C616.681 216.899 611.466 222.11 604.296 222.11Z" fill="#214EF7"/>
<path d="M604.296 254.678C597.777 254.678 591.91 249.467 591.91 242.302C591.91 235.789 597.125 229.927 604.296 229.927C610.814 229.927 616.681 235.138 616.681 242.302C616.681 249.467 611.466 254.678 604.296 254.678Z" fill="#214EF7"/>
<path d="M604.296 287.896C597.777 287.896 591.91 282.686 591.91 275.521C591.91 269.007 597.125 263.145 604.296 263.145C610.814 263.145 616.681 268.356 616.681 275.521C616.681 282.034 611.466 287.896 604.296 287.896Z" fill="#214EF7"/>
<path d="M604.296 320.464C597.777 320.464 591.91 315.253 591.91 308.089C591.91 301.575 597.125 295.713 604.296 295.713C610.814 295.713 616.681 300.924 616.681 308.089C616.681 315.253 611.466 320.464 604.296 320.464Z" fill="#214EF7"/>
<path d="M604.296 353.683C597.777 353.683 591.91 348.472 591.91 341.307C591.91 334.794 597.125 328.931 604.296 328.931C610.814 328.931 616.681 334.142 616.681 341.307C616.681 347.821 611.466 353.683 604.296 353.683Z" fill="#214EF7"/>
<path d="M604.295 386.25C597.777 386.25 591.91 381.04 591.91 373.875C591.91 367.361 597.125 361.499 604.295 361.499C610.814 361.499 616.681 366.71 616.681 373.875C616.681 381.04 611.466 386.25 604.295 386.25Z" fill="#214EF7"/>
<path d="M604.295 419.469C597.777 419.469 591.91 414.258 591.91 407.093C591.91 400.58 597.125 394.718 604.295 394.718C610.814 394.718 616.681 399.929 616.681 407.093C616.681 413.607 611.466 419.469 604.295 419.469Z" fill="#214EF7"/>
<path d="M604.295 452.036C597.777 452.036 591.91 446.825 591.91 439.66C591.91 433.147 597.125 427.284 604.295 427.284C610.814 427.284 616.681 432.495 616.681 439.66C616.681 446.825 611.466 452.036 604.295 452.036Z" fill="#214EF7"/>
<path d="M604.295 485.256C597.777 485.256 591.91 480.046 591.91 472.881C591.91 466.367 597.125 460.505 604.295 460.505C610.814 460.505 616.681 465.716 616.681 472.881C616.681 479.394 611.466 485.256 604.295 485.256Z" fill="#214EF7"/>
<path d="M559.316 78.1619C559.316 84.9968 564.861 90.5375 571.701 90.5375C578.542 90.5375 584.087 84.9968 584.087 78.1619C584.087 71.327 578.542 65.7863 571.701 65.7863C564.861 65.7863 559.316 71.327 559.316 78.1619Z" fill="#214EF7"/>
<path d="M571.701 123.757C565.183 123.757 559.316 118.546 559.316 111.381C559.316 104.868 564.531 99.0059 571.701 99.0059C578.22 99.0059 584.087 104.217 584.087 111.381C584.087 117.895 578.22 123.757 571.701 123.757Z" fill="#214EF7"/>
<path d="M571.701 156.325C565.183 156.325 559.316 151.114 559.316 143.949C559.316 137.436 564.531 131.574 571.701 131.574C578.22 131.574 584.087 136.785 584.087 143.949C584.087 151.114 578.22 156.325 571.701 156.325Z" fill="#214EF7"/>
<path d="M559.316 177.168C559.316 184.003 564.861 189.543 571.701 189.543C578.542 189.543 584.087 184.003 584.087 177.168C584.087 170.333 578.542 164.792 571.701 164.792C564.861 164.792 559.316 170.333 559.316 177.168Z" fill="#214EF7"/>
<path d="M571.702 222.11C565.183 222.11 559.316 216.899 559.316 209.735C559.316 203.221 564.531 197.359 571.702 197.359C578.221 197.359 584.087 202.57 584.087 209.735C584.087 216.899 578.221 222.11 571.702 222.11Z" fill="#214EF7"/>
<path d="M559.316 242.954C559.316 249.789 564.861 255.33 571.702 255.33C578.542 255.33 584.087 249.789 584.087 242.954C584.087 236.119 578.542 230.578 571.702 230.578C564.861 230.578 559.316 236.119 559.316 242.954Z" fill="#214EF7"/>
<path d="M571.702 287.896C565.183 287.896 559.316 282.686 559.316 275.521C559.316 269.007 564.531 263.145 571.702 263.145C578.22 263.145 584.087 268.356 584.087 275.521C584.087 282.034 578.22 287.896 571.702 287.896Z" fill="#214EF7"/>
<path d="M571.702 320.464C565.183 320.464 559.316 315.253 559.316 308.089C559.316 301.575 564.531 295.713 571.702 295.713C578.22 295.713 584.087 300.924 584.087 308.089C584.087 315.253 578.22 320.464 571.702 320.464Z" fill="#214EF7"/>
<path d="M559.316 341.307C559.316 348.142 564.861 353.683 571.702 353.683C578.542 353.683 584.087 348.142 584.087 341.307C584.087 334.472 578.542 328.931 571.702 328.931C564.861 328.931 559.316 334.472 559.316 341.307Z" fill="#214EF7"/>
<path d="M571.701 386.25C565.183 386.25 559.316 381.04 559.316 373.875C559.316 367.361 564.531 361.499 571.701 361.499C578.22 361.499 584.087 366.71 584.087 373.875C584.087 381.04 578.22 386.25 571.701 386.25Z" fill="#214EF7"/>
<path d="M559.316 407.093C559.316 413.928 564.861 419.469 571.701 419.469C578.542 419.469 584.087 413.928 584.087 407.093C584.087 400.258 578.542 394.718 571.701 394.718C564.861 394.718 559.316 400.258 559.316 407.093Z" fill="#214EF7"/>
<path d="M571.701 452.036C565.183 452.036 559.316 446.825 559.316 439.66C559.316 433.147 564.531 427.284 571.701 427.284C578.22 427.284 584.087 432.495 584.087 439.66C584.087 446.825 578.22 452.036 571.701 452.036Z" fill="#214EF7"/>
<path d="M571.701 485.256C565.183 485.256 559.316 480.046 559.316 472.881C559.316 466.367 564.531 460.505 571.701 460.505C578.22 460.505 584.087 465.716 584.087 472.881C584.087 479.394 578.22 485.256 571.701 485.256Z" fill="#214EF7"/>
<path d="M571.701 517.823C565.183 517.823 559.316 512.612 559.316 505.447C559.316 498.934 564.531 493.072 571.701 493.072C578.22 493.072 584.087 498.283 584.087 505.447C584.087 512.612 578.22 517.823 571.701 517.823Z" fill="#214EF7"/>
<path d="M538.455 90.5375C531.937 90.5375 526.07 85.3267 526.07 78.1619C526.07 71.6484 531.285 65.7863 538.455 65.7863C544.974 65.7863 550.841 70.9971 550.841 78.1619C550.841 85.3267 545.626 90.5375 538.455 90.5375Z" fill="#214EF7"/>
<path d="M538.455 123.757C531.937 123.757 526.07 118.546 526.07 111.381C526.07 104.868 531.285 99.0059 538.455 99.0059C544.974 99.0059 550.841 104.217 550.841 111.381C550.841 117.895 545.626 123.757 538.455 123.757Z" fill="#214EF7"/>
<path d="M538.455 156.325C531.937 156.325 526.07 151.114 526.07 143.949C526.07 137.436 531.285 131.574 538.455 131.574C544.974 131.574 550.841 136.785 550.841 143.949C550.841 151.114 545.626 156.325 538.455 156.325Z" fill="#214EF7"/>
<path d="M538.455 189.543C531.937 189.543 526.07 184.333 526.07 177.168C526.07 170.654 531.285 164.792 538.455 164.792C544.974 164.792 550.841 170.003 550.841 177.168C550.841 183.681 545.626 189.543 538.455 189.543Z" fill="#214EF7"/>
<path d="M538.455 222.11C531.937 222.11 526.07 216.899 526.07 209.735C526.07 203.221 531.285 197.359 538.455 197.359C544.974 197.359 550.841 202.57 550.841 209.735C550.841 216.899 545.626 222.11 538.455 222.11Z" fill="#214EF7"/>
<path d="M538.455 254.678C531.937 254.678 526.07 249.467 526.07 242.302C526.07 235.789 531.285 229.927 538.455 229.927C544.974 229.927 550.841 235.138 550.841 242.302C550.841 249.467 545.626 254.678 538.455 254.678Z" fill="#214EF7"/>
<path d="M538.455 287.896C531.937 287.896 526.07 282.686 526.07 275.521C526.07 269.007 531.285 263.145 538.455 263.145C544.974 263.145 550.841 268.356 550.841 275.521C550.841 282.034 545.626 287.896 538.455 287.896Z" fill="#214EF7"/>
<path d="M538.455 320.464C531.937 320.464 526.07 315.253 526.07 308.089C526.07 301.575 531.285 295.713 538.455 295.713C544.974 295.713 550.841 300.924 550.841 308.089C550.841 315.253 545.626 320.464 538.455 320.464Z" fill="#214EF7"/>
<path d="M538.455 353.683C531.937 353.683 526.07 348.472 526.07 341.307C526.07 334.794 531.285 328.931 538.455 328.931C544.974 328.931 550.841 334.142 550.841 341.307C550.841 347.821 545.626 353.683 538.455 353.683Z" fill="#214EF7"/>
<path d="M538.455 386.25C531.937 386.25 526.07 381.04 526.07 373.875C526.07 367.361 531.285 361.499 538.455 361.499C544.974 361.499 550.841 366.71 550.841 373.875C550.841 381.04 545.626 386.25 538.455 386.25Z" fill="#214EF7"/>
<path d="M538.455 419.469C531.937 419.469 526.07 414.258 526.07 407.093C526.07 400.58 531.285 394.718 538.455 394.718C544.974 394.718 550.841 399.929 550.841 407.093C550.841 413.607 545.626 419.469 538.455 419.469Z" fill="#214EF7"/>
<path d="M538.455 452.036C531.937 452.036 526.07 446.825 526.07 439.66C526.07 433.147 531.285 427.284 538.455 427.284C544.974 427.284 550.841 432.495 550.841 439.66C550.841 446.825 545.626 452.036 538.455 452.036Z" fill="#214EF7"/>
<path d="M538.455 485.256C531.937 485.256 526.07 480.046 526.07 472.881C526.07 466.367 531.285 460.505 538.455 460.505C544.974 460.505 550.841 465.716 550.841 472.881C550.841 479.394 545.626 485.256 538.455 485.256Z" fill="#214EF7"/>
<path d="M538.455 517.823C531.937 517.823 526.07 512.612 526.07 505.447C526.07 498.934 531.285 493.072 538.455 493.072C544.974 493.072 550.841 498.283 550.841 505.447C550.841 512.612 545.626 517.823 538.455 517.823Z" fill="#214EF7"/>
<path d="M505.861 123.757C499.342 123.757 493.475 118.546 493.475 111.382C493.475 104.868 498.69 99.006 505.861 99.006C512.38 99.006 518.247 104.217 518.247 111.382C518.247 117.895 512.38 123.757 505.861 123.757Z" fill="#214EF7"/>
<path d="M505.861 156.325C499.342 156.325 493.475 151.114 493.475 143.949C493.475 137.436 498.69 131.574 505.861 131.574C512.38 131.574 518.247 136.785 518.247 143.949C518.247 151.114 512.38 156.325 505.861 156.325Z" fill="#214EF7"/>
<path d="M493.475 177.168C493.475 184.003 499.02 189.543 505.861 189.543C512.701 189.543 518.247 184.003 518.247 177.168C518.247 170.333 512.701 164.792 505.861 164.792C499.02 164.792 493.475 170.333 493.475 177.168Z" fill="#214EF7"/>
<path d="M505.861 222.11C499.342 222.11 493.475 216.899 493.475 209.735C493.475 203.221 498.69 197.359 505.861 197.359C512.38 197.359 518.247 202.57 518.247 209.735C518.247 216.899 512.38 222.11 505.861 222.11Z" fill="#214EF7"/>
<path d="M493.475 242.954C493.475 249.789 499.02 255.33 505.861 255.33C512.701 255.33 518.247 249.789 518.247 242.954C518.247 236.119 512.701 230.578 505.861 230.578C499.02 230.578 493.475 236.119 493.475 242.954Z" fill="#214EF7"/>
<path d="M505.861 287.896C499.342 287.896 493.475 282.686 493.475 275.521C493.475 269.007 498.69 263.145 505.861 263.145C512.38 263.145 518.247 268.356 518.247 275.521C518.247 282.034 512.38 287.896 505.861 287.896Z" fill="#214EF7"/>
<path d="M505.861 320.464C499.342 320.464 493.475 315.253 493.475 308.089C493.475 301.575 498.69 295.713 505.861 295.713C512.38 295.713 518.247 300.924 518.247 308.089C518.247 315.253 512.38 320.464 505.861 320.464Z" fill="#214EF7"/>
<path d="M493.475 341.307C493.475 348.142 499.02 353.683 505.861 353.683C512.701 353.683 518.247 348.142 518.247 341.307C518.247 334.472 512.701 328.931 505.861 328.931C499.02 328.931 493.475 334.472 493.475 341.307Z" fill="#214EF7"/>
<path d="M505.861 386.25C499.342 386.25 493.475 381.04 493.475 373.875C493.475 367.361 498.69 361.499 505.861 361.499C512.38 361.499 518.247 366.71 518.247 373.875C518.247 381.04 512.38 386.25 505.861 386.25Z" fill="#214EF7"/>
<path d="M493.475 407.093C493.475 413.928 499.021 419.469 505.861 419.469C512.702 419.469 518.247 413.928 518.247 407.093C518.247 400.258 512.702 394.718 505.861 394.718C499.021 394.718 493.475 400.258 493.475 407.093Z" fill="#214EF7"/>
<path d="M505.861 452.036C499.342 452.036 493.475 446.825 493.475 439.66C493.475 433.147 498.69 427.284 505.861 427.284C512.38 427.284 518.247 432.495 518.247 439.66C518.247 446.825 512.38 452.036 505.861 452.036Z" fill="#214EF7"/>
<path d="M505.861 485.256C499.342 485.256 493.475 480.046 493.475 472.881C493.475 466.367 498.69 460.505 505.861 460.505C512.38 460.505 518.247 465.716 518.247 472.881C518.247 479.394 512.38 485.256 505.861 485.256Z" fill="#214EF7"/>
<path d="M505.861 517.823C499.342 517.823 493.475 512.612 493.475 505.447C493.475 498.934 498.69 493.072 505.861 493.072C512.38 493.072 518.247 498.283 518.247 505.447C518.247 512.612 512.38 517.823 505.861 517.823Z" fill="#214EF7"/>
<path d="M472.615 123.757C466.096 123.757 460.229 118.546 460.229 111.382C460.229 104.868 465.444 99.006 472.615 99.006C479.134 99.006 485.001 104.217 485.001 111.382C485.001 117.895 479.786 123.757 472.615 123.757Z" fill="#214EF7"/>
<path d="M472.615 156.325C466.096 156.325 460.229 151.114 460.229 143.949C460.229 137.436 465.444 131.574 472.615 131.574C479.134 131.574 485.001 136.785 485.001 143.949C485.001 151.114 479.786 156.325 472.615 156.325Z" fill="#214EF7"/>
<path d="M472.615 189.543C466.096 189.543 460.229 184.333 460.229 177.168C460.229 170.654 465.444 164.792 472.615 164.792C479.134 164.792 485.001 170.003 485.001 177.168C485.001 183.681 479.786 189.543 472.615 189.543Z" fill="#214EF7"/>
<path d="M472.615 222.11C466.096 222.11 460.229 216.899 460.229 209.735C460.229 203.221 465.444 197.359 472.615 197.359C479.134 197.359 485.001 202.57 485.001 209.735C485.001 216.899 479.786 222.11 472.615 222.11Z" fill="#214EF7"/>
<path d="M472.615 254.678C466.096 254.678 460.229 249.467 460.229 242.302C460.229 235.789 465.444 229.927 472.615 229.927C479.134 229.927 485.001 235.138 485.001 242.302C485.001 249.467 479.786 254.678 472.615 254.678Z" fill="#214EF7"/>
<path d="M472.615 287.896C466.096 287.896 460.229 282.686 460.229 275.521C460.229 269.007 465.444 263.145 472.615 263.145C479.134 263.145 485.001 268.356 485.001 275.521C485.001 282.034 479.786 287.896 472.615 287.896Z" fill="#214EF7"/>
<path d="M472.615 320.464C466.096 320.464 460.229 315.253 460.229 308.089C460.229 301.575 465.444 295.713 472.615 295.713C479.134 295.713 485.001 300.924 485.001 308.089C485.001 315.253 479.786 320.464 472.615 320.464Z" fill="#214EF7"/>
<path d="M472.615 353.683C466.096 353.683 460.229 348.472 460.229 341.307C460.229 334.794 465.444 328.931 472.615 328.931C479.134 328.931 485.001 334.142 485.001 341.307C485.001 347.821 479.786 353.683 472.615 353.683Z" fill="#214EF7"/>
<path d="M472.615 386.25C466.096 386.25 460.229 381.04 460.229 373.875C460.229 367.361 465.445 361.499 472.615 361.499C479.134 361.499 485.001 366.71 485.001 373.875C485.001 381.04 479.786 386.25 472.615 386.25Z" fill="#214EF7"/>
<path d="M472.615 419.469C466.096 419.469 460.229 414.258 460.229 407.093C460.229 400.58 465.445 394.718 472.615 394.718C479.134 394.718 485.001 399.929 485.001 407.093C485.001 413.607 479.786 419.469 472.615 419.469Z" fill="#214EF7"/>
<path d="M472.615 452.036C466.096 452.036 460.229 446.825 460.229 439.66C460.229 433.147 465.445 427.284 472.615 427.284C479.134 427.284 485.001 432.495 485.001 439.66C485.001 446.825 479.786 452.036 472.615 452.036Z" fill="#214EF7"/>
<path d="M472.615 485.256C466.096 485.256 460.229 480.046 460.229 472.881C460.229 466.367 465.445 460.505 472.615 460.505C479.134 460.505 485.001 465.716 485.001 472.881C485.001 479.394 479.786 485.256 472.615 485.256Z" fill="#214EF7"/>
<path d="M440.021 189.543C433.502 189.543 427.635 184.333 427.635 177.168C427.635 170.654 432.85 164.792 440.021 164.792C446.54 164.792 452.406 170.003 452.406 177.168C452.406 183.681 446.54 189.543 440.021 189.543Z" fill="#214EF7"/>
<path d="M440.021 222.11C433.502 222.11 427.635 216.899 427.635 209.735C427.635 203.221 432.85 197.359 440.021 197.359C446.54 197.359 452.406 202.57 452.406 209.735C452.406 216.899 446.54 222.11 440.021 222.11Z" fill="#214EF7"/>
<path d="M440.021 254.678C433.502 254.678 427.635 249.467 427.635 242.302C427.635 235.789 432.85 229.927 440.021 229.927C446.54 229.927 452.406 235.138 452.406 242.302C452.406 249.467 446.54 254.678 440.021 254.678Z" fill="#214EF7"/>
<path d="M440.021 287.896C433.502 287.896 427.635 282.686 427.635 275.521C427.635 269.007 432.85 263.145 440.021 263.145C446.54 263.145 452.406 268.356 452.406 275.521C452.406 282.034 446.54 287.896 440.021 287.896Z" fill="#214EF7"/>
<path d="M440.021 320.464C433.502 320.464 427.635 315.254 427.635 308.089C427.635 301.575 432.85 295.713 440.021 295.713C446.54 295.713 452.406 300.924 452.406 308.089C452.406 315.254 446.54 320.464 440.021 320.464Z" fill="#214EF7"/>
<path d="M440.021 353.683C433.502 353.683 427.635 348.472 427.635 341.307C427.635 334.794 432.85 328.931 440.021 328.931C446.54 328.931 452.406 334.142 452.406 341.307C452.406 347.821 446.54 353.683 440.021 353.683Z" fill="#214EF7"/>
<path d="M440.021 386.251C433.502 386.251 427.635 381.04 427.635 373.875C427.635 367.362 432.85 361.499 440.021 361.499C446.54 361.499 452.407 366.71 452.407 373.875C452.407 381.04 446.54 386.251 440.021 386.251Z" fill="#214EF7"/>
<path d="M440.021 419.469C433.502 419.469 427.635 414.258 427.635 407.093C427.635 400.58 432.85 394.718 440.021 394.718C446.54 394.718 452.407 399.929 452.407 407.093C452.407 413.607 446.54 419.469 440.021 419.469Z" fill="#214EF7"/>
<path d="M440.021 452.036C433.502 452.036 427.635 446.825 427.635 439.66C427.635 433.147 432.85 427.284 440.021 427.284C446.54 427.284 452.407 432.495 452.407 439.66C452.407 446.825 446.54 452.036 440.021 452.036Z" fill="#214EF7"/>
<path d="M440.021 485.256C433.502 485.256 427.635 480.046 427.635 472.881C427.635 466.367 432.85 460.505 440.021 460.505C446.54 460.505 452.407 465.716 452.407 472.881C452.407 479.394 446.54 485.256 440.021 485.256Z" fill="#214EF7"/>
<path d="M406.775 189.543C400.256 189.543 394.389 184.333 394.389 177.168C394.389 170.654 399.604 164.792 406.775 164.792C413.294 164.792 419.161 170.003 419.161 177.168C419.161 183.681 413.946 189.543 406.775 189.543Z" fill="#214EF7"/>
<path d="M406.775 222.11C400.256 222.11 394.389 216.899 394.389 209.734C394.389 203.221 399.604 197.359 406.775 197.359C413.294 197.359 419.161 202.57 419.161 209.734C419.161 216.899 413.946 222.11 406.775 222.11Z" fill="#214EF7"/>
<path d="M406.775 254.678C400.256 254.678 394.389 249.467 394.389 242.302C394.389 235.789 399.604 229.927 406.775 229.927C413.294 229.927 419.161 235.137 419.161 242.302C419.161 249.467 413.946 254.678 406.775 254.678Z" fill="#214EF7"/>
<path d="M406.775 287.896C400.256 287.896 394.389 282.686 394.389 275.521C394.389 269.007 399.604 263.145 406.775 263.145C413.294 263.145 419.161 268.356 419.161 275.521C419.161 282.034 413.946 287.896 406.775 287.896Z" fill="#214EF7"/>
<path d="M406.775 320.464C400.256 320.464 394.389 315.254 394.389 308.089C394.389 301.575 399.604 295.713 406.775 295.713C413.294 295.713 419.161 300.924 419.161 308.089C419.161 315.254 413.946 320.464 406.775 320.464Z" fill="#214EF7"/>
<path d="M406.775 353.683C400.256 353.683 394.389 348.472 394.389 341.307C394.389 334.794 399.604 328.931 406.775 328.931C413.294 328.931 419.161 334.142 419.161 341.307C419.161 347.821 413.946 353.683 406.775 353.683Z" fill="#214EF7"/>
<path d="M406.775 386.251C400.256 386.251 394.389 381.04 394.389 373.875C394.389 367.362 399.604 361.499 406.775 361.499C413.294 361.499 419.161 366.71 419.161 373.875C419.161 381.04 413.946 386.251 406.775 386.251Z" fill="#214EF7"/>
<path d="M406.775 419.469C400.256 419.469 394.389 414.258 394.389 407.093C394.389 400.58 399.604 394.718 406.775 394.718C413.294 394.718 419.161 399.929 419.161 407.093C419.161 413.607 413.946 419.469 406.775 419.469Z" fill="#214EF7"/>
<path d="M406.775 452.036C400.256 452.036 394.389 446.825 394.389 439.66C394.389 433.147 399.604 427.284 406.775 427.284C413.294 427.284 419.161 432.495 419.161 439.66C419.161 446.825 413.946 452.036 406.775 452.036Z" fill="#214EF7"/>
<path d="M406.775 485.256C400.256 485.256 394.389 480.046 394.389 472.881C394.389 466.367 399.604 460.505 406.775 460.505C413.294 460.505 419.161 465.716 419.161 472.881C419.161 479.394 413.946 485.256 406.775 485.256Z" fill="#214EF7"/>
<path d="M374.181 189.543C367.662 189.543 361.795 184.333 361.795 177.168C361.795 170.654 367.01 164.792 374.181 164.792C380.699 164.792 386.566 170.003 386.566 177.168C386.566 183.681 380.699 189.543 374.181 189.543Z" fill="#214EF7"/>
<path d="M374.181 222.11C367.662 222.11 361.795 216.899 361.795 209.734C361.795 203.221 367.01 197.359 374.181 197.359C380.699 197.359 386.566 202.57 386.566 209.734C386.566 216.899 380.699 222.11 374.181 222.11Z" fill="#214EF7"/>
<path d="M374.181 254.678C367.662 254.678 361.795 249.467 361.795 242.302C361.795 235.789 367.01 229.927 374.181 229.927C380.699 229.927 386.566 235.137 386.566 242.302C386.566 249.467 380.699 254.678 374.181 254.678Z" fill="#214EF7"/>
<path d="M374.181 287.896C367.662 287.896 361.795 282.686 361.795 275.521C361.795 269.007 367.01 263.145 374.181 263.145C380.699 263.145 386.566 268.356 386.566 275.521C386.566 282.034 380.699 287.896 374.181 287.896Z" fill="#214EF7"/>
<path d="M374.181 320.464C367.662 320.464 361.795 315.254 361.795 308.089C361.795 301.575 367.01 295.713 374.181 295.713C380.699 295.713 386.566 300.924 386.566 308.089C386.566 315.254 380.699 320.464 374.181 320.464Z" fill="#214EF7"/>
<path d="M374.181 353.683C367.662 353.683 361.795 348.472 361.795 341.307C361.795 334.794 367.01 328.931 374.181 328.931C380.699 328.931 386.566 334.142 386.566 341.307C386.566 347.821 380.699 353.683 374.181 353.683Z" fill="#214EF7"/>
<path d="M374.181 386.251C367.662 386.251 361.795 381.04 361.795 373.875C361.795 367.362 367.01 361.499 374.181 361.499C380.7 361.499 386.567 366.71 386.567 373.875C386.567 381.04 380.7 386.251 374.181 386.251Z" fill="#214EF7"/>
<path d="M374.181 419.469C367.662 419.469 361.795 414.258 361.795 407.093C361.795 400.58 367.01 394.718 374.181 394.718C380.7 394.718 386.567 399.929 386.567 407.093C386.567 413.607 380.7 419.469 374.181 419.469Z" fill="#214EF7"/>
<path d="M374.181 452.036C367.662 452.036 361.795 446.825 361.795 439.66C361.795 433.147 367.01 427.284 374.181 427.284C380.7 427.284 386.567 432.495 386.567 439.66C386.567 446.825 380.7 452.036 374.181 452.036Z" fill="#214EF7"/>
<path d="M341.586 189.543C335.068 189.543 329.201 184.333 329.201 177.168C329.201 170.654 334.416 164.792 341.586 164.792C348.105 164.792 353.972 170.003 353.972 177.168C353.32 183.681 348.105 189.543 341.586 189.543Z" fill="#214EF7"/>
<path d="M341.586 222.11C335.068 222.11 329.201 216.899 329.201 209.734C329.201 203.221 334.416 197.359 341.586 197.359C348.105 197.359 353.972 202.57 353.972 209.734C353.32 216.899 348.105 222.11 341.586 222.11Z" fill="#214EF7"/>
<path d="M341.586 254.678C335.068 254.678 329.201 249.467 329.201 242.302C329.201 235.789 334.416 229.927 341.586 229.927C348.105 229.927 353.972 235.137 353.972 242.302C353.32 249.467 348.105 254.678 341.586 254.678Z" fill="#214EF7"/>
<path d="M341.586 287.896C335.068 287.896 329.201 282.686 329.201 275.521C329.201 269.007 334.416 263.145 341.586 263.145C348.105 263.145 353.972 268.356 353.972 275.521C353.32 282.034 348.105 287.896 341.586 287.896Z" fill="#214EF7"/>
<path d="M341.586 320.464C335.068 320.464 329.201 315.254 329.201 308.089C329.201 301.575 334.416 295.713 341.586 295.713C348.105 295.713 353.972 300.924 353.972 308.089C353.32 315.254 348.105 320.464 341.586 320.464Z" fill="#214EF7"/>
<path d="M341.586 353.683C335.068 353.683 329.201 348.472 329.201 341.307C329.201 334.794 334.416 328.931 341.586 328.931C348.105 328.931 353.972 334.142 353.972 341.307C353.32 347.821 348.105 353.683 341.586 353.683Z" fill="#214EF7"/>
<path d="M341.587 386.251C335.068 386.251 329.201 381.04 329.201 373.875C329.201 367.362 334.416 361.499 341.587 361.499C348.106 361.499 353.972 366.71 353.972 373.875C353.321 381.04 348.106 386.251 341.587 386.251Z" fill="#214EF7"/>
<path d="M341.587 419.469C335.068 419.469 329.201 414.258 329.201 407.093C329.201 400.58 334.416 394.718 341.587 394.718C348.106 394.718 353.972 399.929 353.972 407.093C353.321 413.607 348.106 419.469 341.587 419.469Z" fill="#214EF7"/>
<path d="M308.34 189.543C301.822 189.543 295.955 184.333 295.955 177.168C295.955 170.654 301.17 164.792 308.34 164.792C314.859 164.792 320.726 170.003 320.726 177.168C320.726 183.681 315.511 189.543 308.34 189.543Z" fill="#214EF7"/>
<path d="M308.34 222.11C301.822 222.11 295.955 216.899 295.955 209.734C295.955 203.221 301.17 197.359 308.34 197.359C314.859 197.359 320.726 202.57 320.726 209.734C320.726 216.899 315.511 222.11 308.34 222.11Z" fill="#214EF7"/>
<path d="M308.34 254.678C301.822 254.678 295.955 249.467 295.955 242.302C295.955 235.789 301.17 229.927 308.34 229.927C314.859 229.927 320.726 235.137 320.726 242.302C320.726 249.467 315.511 254.678 308.34 254.678Z" fill="#214EF7"/>
<path d="M308.34 287.896C301.822 287.896 295.955 282.686 295.955 275.521C295.955 269.007 301.17 263.145 308.34 263.145C314.859 263.145 320.726 268.356 320.726 275.521C320.726 282.034 315.511 287.896 308.34 287.896Z" fill="#214EF7"/>
<path d="M308.34 320.464C301.822 320.464 295.955 315.254 295.955 308.089C295.955 301.575 301.17 295.713 308.34 295.713C314.859 295.713 320.726 300.924 320.726 308.089C320.726 315.254 315.511 320.464 308.34 320.464Z" fill="#214EF7"/>
<path d="M308.34 353.683C301.822 353.683 295.955 348.472 295.955 341.307C295.955 334.794 301.17 328.931 308.34 328.931C314.859 328.931 320.726 334.142 320.726 341.307C320.726 347.82 315.511 353.683 308.34 353.683Z" fill="#214EF7"/>
<path d="M308.341 386.251C301.822 386.251 295.955 381.04 295.955 373.875C295.955 367.362 301.17 361.499 308.341 361.499C314.86 361.499 320.727 366.71 320.727 373.875C320.727 381.04 315.511 386.251 308.341 386.251Z" fill="#214EF7"/>
<path d="M308.341 419.469C301.822 419.469 295.955 414.258 295.955 407.093C295.955 400.58 301.17 394.718 308.341 394.718C314.86 394.718 320.727 399.928 320.727 407.093C320.727 413.607 315.511 419.469 308.341 419.469Z" fill="#214EF7"/>
<path d="M263.36 177.168C263.36 184.003 268.906 189.543 275.746 189.543C282.587 189.543 288.132 184.003 288.132 177.168C288.132 170.333 282.587 164.792 275.746 164.792C268.906 164.792 263.36 170.333 263.36 177.168Z" fill="#214EF7"/>
<path d="M275.746 222.11C269.227 222.11 263.36 216.899 263.36 209.734C263.36 203.221 268.576 197.359 275.746 197.359C282.265 197.359 288.132 202.57 288.132 209.734C288.132 216.899 282.265 222.11 275.746 222.11Z" fill="#214EF7"/>
<path d="M263.36 242.954C263.36 249.789 268.906 255.33 275.746 255.33C282.587 255.33 288.132 249.789 288.132 242.954C288.132 236.119 282.587 230.578 275.746 230.578C268.906 230.578 263.36 236.119 263.36 242.954Z" fill="#214EF7"/>
<path d="M275.746 287.896C269.227 287.896 263.36 282.686 263.36 275.521C263.36 269.007 268.576 263.145 275.746 263.145C282.265 263.145 288.132 268.356 288.132 275.521C288.132 282.034 282.265 287.896 275.746 287.896Z" fill="#214EF7"/>
<path d="M242.501 189.543C235.982 189.543 230.115 184.333 230.115 177.168C230.115 170.654 235.33 164.792 242.501 164.792C249.019 164.792 254.886 170.003 254.886 177.168C254.886 183.681 249.671 189.543 242.501 189.543Z" fill="#214EF7"/>
<path d="M242.501 222.11C235.982 222.11 230.115 216.899 230.115 209.734C230.115 203.221 235.33 197.359 242.501 197.359C249.019 197.359 254.886 202.57 254.886 209.734C254.886 216.899 249.671 222.11 242.501 222.11Z" fill="#214EF7"/>
<path d="M242.501 254.678C235.982 254.678 230.115 249.467 230.115 242.302C230.115 235.789 235.33 229.927 242.501 229.927C249.019 229.927 254.886 235.138 254.886 242.302C254.886 249.467 249.671 254.678 242.501 254.678Z" fill="#214EF7"/>
<path d="M242.501 287.896C235.982 287.896 230.115 282.686 230.115 275.521C230.115 269.007 235.33 263.145 242.501 263.145C249.019 263.145 254.886 268.356 254.886 275.521C254.886 282.034 249.671 287.896 242.501 287.896Z" fill="#214EF7"/>
<path d="M197.52 177.168C197.52 184.003 203.066 189.543 209.906 189.543C216.747 189.543 222.292 184.003 222.292 177.168C222.292 170.333 216.747 164.792 209.906 164.792C203.066 164.792 197.52 170.333 197.52 177.168Z" fill="#214EF7"/>
<path d="M209.906 222.11C203.387 222.11 197.52 216.899 197.52 209.734C197.52 203.221 202.736 197.359 209.906 197.359C216.425 197.359 222.292 202.57 222.292 209.734C222.292 216.899 216.425 222.11 209.906 222.11Z" fill="#214EF7"/>
<path d="M197.52 242.954C197.52 249.789 203.066 255.33 209.906 255.33C216.747 255.33 222.292 249.789 222.292 242.954C222.292 236.119 216.747 230.578 209.906 230.578C203.066 230.578 197.52 236.119 197.52 242.954Z" fill="#214EF7"/>
<path d="M209.906 287.896C203.387 287.896 197.52 282.686 197.52 275.521C197.52 269.007 202.736 263.145 209.906 263.145C216.425 263.145 222.292 268.356 222.292 275.521C222.292 282.034 216.425 287.896 209.906 287.896Z" fill="#214EF7"/>
<path d="M176.66 222.11C170.142 222.11 164.275 216.899 164.275 209.734C164.275 203.221 169.49 197.359 176.66 197.359C183.179 197.359 189.046 202.57 189.046 209.734C189.046 216.899 183.831 222.11 176.66 222.11Z" fill="#214EF7"/>
<path d="M176.66 254.678C170.142 254.678 164.275 249.467 164.275 242.302C164.275 235.789 169.49 229.927 176.66 229.927C183.179 229.927 189.046 235.138 189.046 242.302C189.046 249.467 183.831 254.678 176.66 254.678Z" fill="#214EF7"/>
<path d="M176.66 287.896C170.142 287.896 164.275 282.686 164.275 275.521C164.275 269.007 169.49 263.145 176.66 263.145C183.179 263.145 189.046 268.356 189.046 275.521C189.046 282.034 183.831 287.896 176.66 287.896Z" fill="#214EF7"/>
<path d="M144.066 222.11C137.547 222.11 131.68 216.899 131.68 209.734C131.68 203.221 136.895 197.359 144.066 197.359C150.585 197.359 156.452 202.57 156.452 209.734C156.452 216.899 150.585 222.11 144.066 222.11Z" fill="#214EF7"/>
<path d="M131.68 242.954C131.68 249.789 137.225 255.33 144.066 255.33C150.906 255.33 156.452 249.789 156.452 242.954C156.452 236.119 150.906 230.578 144.066 230.578C137.225 230.578 131.68 236.119 131.68 242.954Z" fill="#214EF7"/>
<path d="M144.066 287.896C137.547 287.896 131.68 282.686 131.68 275.521C131.68 269.007 136.895 263.145 144.066 263.145C150.585 263.145 156.452 268.356 156.452 275.521C156.452 282.034 150.585 287.896 144.066 287.896Z" fill="#214EF7"/>
<path d="M110.82 222.11C104.301 222.11 98.4342 216.899 98.4342 209.734C98.4342 203.221 103.649 197.359 110.82 197.359C117.339 197.359 123.206 202.57 123.206 209.734C123.206 216.899 117.991 222.11 110.82 222.11Z" fill="#214EF7"/>
<path d="M110.82 254.678C104.301 254.678 98.4342 249.467 98.4342 242.302C98.4342 235.789 103.649 229.927 110.82 229.927C117.339 229.927 123.206 235.138 123.206 242.302C123.206 249.467 117.991 254.678 110.82 254.678Z" fill="#214EF7"/>
<path d="M110.82 287.896C104.301 287.896 98.4342 282.686 98.4342 275.521C98.4342 269.007 103.649 263.145 110.82 263.145C117.339 263.145 123.206 268.356 123.206 275.521C123.206 282.034 117.991 287.896 110.82 287.896Z" fill="#214EF7"/>
<path d="M78.2261 222.11C71.7073 222.11 65.8403 216.899 65.8403 209.734C65.8403 203.221 71.0554 197.359 78.2261 197.359C84.7449 197.359 90.6118 202.57 90.6118 209.734C90.6118 216.899 84.7449 222.11 78.2261 222.11Z" fill="#214EF7"/>
<path d="M65.8403 242.954C65.8403 249.789 71.3857 255.33 78.2261 255.33C85.0666 255.33 90.6118 249.789 90.6118 242.954C90.6118 236.119 85.0666 230.578 78.2261 230.578C71.3857 230.578 65.8403 236.119 65.8403 242.954Z" fill="#214EF7"/>
<path d="M78.2261 287.896C71.7073 287.896 65.8403 282.686 65.8403 275.521C65.8403 269.007 71.0554 263.145 78.2261 263.145C84.7449 263.145 90.6118 268.356 90.6118 275.521C90.6118 282.034 84.7449 287.896 78.2261 287.896Z" fill="#214EF7"/>
<path d="M44.9798 254.678C38.461 254.678 32.5941 249.467 32.5941 242.302C32.5941 235.789 37.8091 229.927 44.9798 229.927C51.4986 229.927 57.3655 235.137 57.3655 242.302C57.3655 249.467 52.1505 254.678 44.9798 254.678Z" fill="#214EF7"/>
<path d="M44.9798 287.896C38.461 287.896 32.5941 282.686 32.5941 275.521C32.5941 269.007 37.8091 263.145 44.9798 263.145C51.4986 263.145 57.3655 268.356 57.3655 275.521C57.3655 282.034 52.1505 287.896 44.9798 287.896Z" fill="#214EF7"/>
<path d="M12.3857 287.896C5.86691 287.896 1.05251e-06 282.686 1.36595e-06 275.521C1.6509e-06 269.007 5.21503 263.145 12.3857 263.145C18.9046 263.145 24.7715 268.356 24.7715 275.521C24.7715 282.034 18.9046 287.896 12.3857 287.896Z" fill="#214EF7"/>
</g>
</svg>
