<svg width="188" height="30" viewBox="0 0 188 30" fill="none" xmlns="http://www.w3.org/2000/svg">
<g clip-path="url(#clip0_665_319)">
<path d="M130.05 9.75C129.937 9.6375 129.787 9.5625 129.637 9.4875C129.487 9.4125 129.337 9.375 129.15 9.375C128.962 9.375 128.812 9.4125 128.662 9.4875C128.513 9.5625 128.362 9.6375 128.25 9.75C128.137 9.8625 128.062 9.975 127.987 10.125C127.912 10.275 127.875 10.425 127.875 10.6125C127.875 10.8 127.912 10.95 127.987 11.1C128.062 11.25 128.137 11.3625 128.25 11.475C128.362 11.5875 128.513 11.6625 128.662 11.7375C128.812 11.8125 128.962 11.85 129.15 11.85C129.3 11.85 129.487 11.8125 129.637 11.7375C129.787 11.6625 129.937 11.5875 130.05 11.475C130.162 11.3625 130.237 11.25 130.312 11.1C130.387 10.95 130.425 10.8 130.425 10.6125C130.425 10.4625 130.387 10.275 130.312 10.125C130.275 9.975 130.162 9.8625 130.05 9.75Z" fill="white"/>
<path d="M56.4746 15.45C56.2496 15.075 56.0246 14.7375 55.7246 14.475C55.4246 14.175 55.0871 13.9125 54.7496 13.6875C54.3746 13.4625 53.9996 13.3125 53.5871 13.2C53.1746 13.0875 52.7246 13.0125 52.2746 13.0125H49.7246C49.0496 13.0125 48.4121 13.125 47.8121 13.3875C47.2121 13.65 46.6871 13.9875 46.2746 14.4375C45.8246 14.8875 45.4871 15.4125 45.2246 15.975C44.9621 16.575 44.8496 17.2125 44.8496 17.8875C44.8496 18.5625 44.9621 19.2 45.2246 19.8C45.4871 20.4 45.8246 20.8875 46.2746 21.3375C46.7246 21.7875 47.2496 22.125 47.8121 22.3875C48.4121 22.65 49.0496 22.7625 49.7246 22.7625H52.2746C52.9496 22.7625 53.5871 22.6125 54.1871 22.3875C54.7871 22.125 55.3121 21.7875 55.7246 21.3375C56.1746 20.8875 56.5121 20.3625 56.7746 19.8C57.0371 19.2 57.1496 18.5625 57.1496 17.8875C57.1496 17.4375 57.0746 17.025 56.9621 16.6125C56.8496 16.2 56.6996 15.825 56.4746 15.45ZM52.2746 20.4375H49.7246C49.3871 20.4375 49.0496 20.3625 48.7496 20.25C48.4496 20.1 48.1871 19.95 47.9621 19.725C47.7371 19.5 47.5496 19.2375 47.4371 18.9375C47.3246 18.6375 47.2496 18.3 47.2496 17.9625C47.2496 17.625 47.3246 17.2875 47.4371 16.9875C47.5871 16.6875 47.7371 16.425 47.9621 16.2C48.1871 15.975 48.4496 15.7875 48.7496 15.675C49.0496 15.525 49.3871 15.4875 49.7246 15.45H52.2746C52.6121 15.45 52.9496 15.525 53.2496 15.675C53.5496 15.825 53.8121 15.975 54.0371 16.2C54.2621 16.425 54.4496 16.6875 54.5621 16.9875C54.6746 17.2875 54.7496 17.625 54.7496 17.9625C54.7496 18.3 54.6746 18.6375 54.5621 18.9375C54.4121 19.2375 54.2621 19.5 54.0371 19.725C53.8121 19.95 53.5496 20.1375 53.2496 20.25C52.9121 20.3625 52.6121 20.4375 52.2746 20.4375Z" fill="white"/>
<path d="M84.7873 13.0125H81.3748L75.8248 17.625V9.375H75.4498H73.7998H73.4248V22.8H75.8248V20.2875L77.3998 19.0125L82.1248 22.7625H85.6498L79.1998 17.55L84.7873 13.0125Z" fill="white"/>
<path d="M39.9375 17.85C40.3875 17.5875 40.8 17.25 41.1375 16.875C41.475 16.4625 41.7375 16.05 41.925 15.525C42.1125 15.0375 42.225 14.475 42.225 13.95C42.225 13.35 42.1125 12.75 41.85 12.225C41.625 11.7 41.2875 11.2125 40.875 10.8C40.4625 10.3875 39.975 10.0875 39.45 9.825C38.8875 9.6 38.325 9.45 37.6875 9.45H28.125V22.8H30.525V18.4125H36L39.4875 22.8H42.7875L39.15 18.1875C39.4125 18.1125 39.675 18 39.9375 17.85ZM30.525 11.85H37.7625C38.0625 11.85 38.325 11.8875 38.5875 12C38.85 12.1125 39.075 12.2625 39.2625 12.45C39.45 12.6375 39.6 12.8625 39.7125 13.125C39.825 13.3875 39.8625 13.65 39.8625 13.95C39.8625 14.25 39.825 14.5125 39.7125 14.775C39.6 15.0375 39.45 15.2625 39.2625 15.45C39.075 15.6375 38.85 15.7875 38.5875 15.9C38.325 16.0125 38.0625 16.05 37.7625 16.05H30.525V11.85Z" fill="white"/>
<path d="M62.6627 13.425C62.0627 13.6875 61.5377 14.025 61.1252 14.475C60.6752 14.925 60.3377 15.45 60.0752 16.0125C59.8127 16.6125 59.7002 17.25 59.7002 17.8875C59.7002 18.5625 59.8127 19.2 60.0752 19.8C60.3377 20.4 60.6752 20.8875 61.1252 21.3375C61.5752 21.7875 62.1002 22.125 62.6627 22.3875C63.2627 22.65 63.9002 22.7625 64.5752 22.7625H70.3502V20.4H64.5752C64.2377 20.4 63.9002 20.325 63.6002 20.2125C63.3002 20.0625 63.0377 19.9125 62.8127 19.6875C62.5877 19.4625 62.4002 19.2 62.2877 18.9C62.1752 18.6 62.1002 18.2625 62.1002 17.925C62.1002 17.5875 62.1752 17.25 62.2877 16.95C62.4377 16.65 62.5877 16.3875 62.8127 16.1625C63.0377 15.9375 63.3002 15.75 63.6002 15.6375C63.9002 15.4875 64.2377 15.45 64.5752 15.4125H70.3502V13.05H64.5752C63.9002 13.0125 63.2627 13.1625 62.6627 13.425Z" fill="white"/>
<path d="M165.713 13.275C165.337 13.425 164.963 13.6875 164.663 13.9875C164.363 14.2875 164.138 14.625 163.95 15C163.763 15.4125 163.688 15.825 163.688 16.275V22.8H166.088V16.275C166.088 16.1625 166.125 16.05 166.163 15.9375C166.2 15.825 166.275 15.75 166.35 15.675C166.425 15.6 166.538 15.525 166.65 15.4875C166.763 15.45 166.875 15.4125 166.987 15.4125H173.588V13.05H166.987C166.537 13.0125 166.088 13.125 165.713 13.275Z" fill="white"/>
<path d="M159.188 13.9875C158.888 13.6875 158.55 13.4625 158.138 13.275C157.725 13.0875 157.313 13.0125 156.863 13.0125H149.85V15.375H156.863C156.975 15.375 157.088 15.4125 157.2 15.45C157.313 15.4875 157.388 15.5625 157.5 15.6375C157.575 15.7125 157.65 15.825 157.688 15.9C157.725 16.0125 157.763 16.125 157.763 16.2375V16.275H151.5C151.05 16.275 150.638 16.35 150.225 16.5375C149.85 16.6875 149.475 16.95 149.175 17.25C148.875 17.55 148.65 17.8875 148.463 18.2625C148.275 18.675 148.2 19.0875 148.2 19.5375C148.2 19.9875 148.275 20.4 148.463 20.8125C148.65 21.1875 148.875 21.5625 149.175 21.825C149.475 22.125 149.813 22.35 150.225 22.5C150.638 22.6875 151.05 22.7625 151.5 22.7625H160.163V16.275C160.163 15.825 160.088 15.4125 159.9 15C159.75 14.625 159.488 14.2875 159.188 13.9875ZM157.763 20.4375H151.5C151.388 20.4375 151.275 20.4 151.163 20.3625C151.05 20.325 150.975 20.25 150.863 20.175C150.788 20.1 150.713 19.9875 150.675 19.9125C150.638 19.8 150.6 19.6875 150.6 19.575C150.6 19.4625 150.638 19.35 150.675 19.2375C150.713 19.125 150.788 19.05 150.863 18.975C150.938 18.9 151.05 18.825 151.163 18.7875C151.275 18.75 151.388 18.7125 151.5 18.7125H157.763V20.4375Z" fill="white"/>
<path d="M144.112 14.475C143.662 14.025 143.138 13.6875 142.575 13.425C141.975 13.1625 141.338 13.05 140.663 13.05H134.062V22.8H136.462V15.4125H140.625C140.963 15.4125 141.3 15.4875 141.6 15.6375C141.9 15.7875 142.163 15.9375 142.388 16.1625C142.613 16.3875 142.8 16.65 142.913 16.95C143.025 17.25 143.1 17.5875 143.1 17.925V22.8H145.5V17.925C145.5 17.25 145.387 16.6125 145.125 16.05C144.9 15.4125 144.525 14.925 144.112 14.475Z" fill="white"/>
<path d="M185.1 13.0125V20.4H180.9C180.563 20.4 180.225 20.325 179.925 20.2125C179.625 20.0625 179.363 19.9125 179.138 19.6875C178.913 19.4625 178.725 19.2 178.613 18.9C178.5 18.6 178.425 18.2625 178.425 17.925V13.05H176.025V17.925C176.025 18.6 176.138 19.2375 176.4 19.8375C176.663 20.4375 177 20.925 177.45 21.375C177.9 21.825 178.425 22.1625 178.988 22.425C179.588 22.6875 180.225 22.8 180.9 22.8H185.1V22.8375C185.1 22.95 185.063 24.375 185.025 24.45C184.988 24.5625 184.913 24.6375 184.838 24.7125C184.763 24.7875 184.65 24.8625 184.538 24.9C184.425 24.9375 184.313 24.975 184.2 24.975H177.188V27.375H184.2C184.65 27.375 185.063 27.3 185.475 27.1125C185.888 26.9625 186.225 26.7 186.525 26.4C186.825 26.1 187.05 25.7625 187.238 25.3875C187.425 24.975 187.5 24.5625 187.5 22.8375V13.0125H185.1Z" fill="white"/>
<path d="M105.037 9.375H102.637V13.0125H100.162V15.4125H102.637V22.8H105.037V15.4125H110.85V13.0125H105.037V9.375Z" fill="white"/>
<path d="M96.1871 19.2375C96.5996 19.0875 96.9371 18.825 97.2371 18.5625C97.5371 18.2625 97.7621 17.925 97.9496 17.55C98.1371 17.1375 98.2121 16.725 98.2121 16.275C98.2121 15.825 98.1371 15.4125 97.9496 15C97.7621 14.625 97.5371 14.2875 97.2371 13.9875C96.9371 13.6875 96.5996 13.4625 96.1871 13.275C95.7746 13.0875 95.3621 13.0125 94.9121 13.0125H91.1621C90.4871 13.0125 89.8496 13.1625 89.2496 13.425C88.6496 13.6875 88.1246 14.025 87.7121 14.475C87.2621 14.925 86.9246 15.4125 86.6621 16.0125C86.3996 16.6125 86.2871 17.25 86.2871 17.925C86.2871 18.6 86.3996 19.2375 86.6621 19.8375C86.9246 20.4375 87.2621 20.925 87.7121 21.375C88.1621 21.825 88.6871 22.1625 89.2496 22.425C89.8496 22.6875 90.4871 22.8 91.1621 22.8H98.1746V20.4375H91.1621C90.8996 20.4375 90.6746 20.4 90.4496 20.325C90.2246 20.25 89.9996 20.175 89.8121 20.025C89.6246 19.9125 89.4371 19.7625 89.2871 19.575C89.2871 19.5375 89.2496 19.5375 89.2496 19.5H94.9121C95.3621 19.5 95.8121 19.425 96.1871 19.2375ZM91.1621 15.4125H94.9121C95.0246 15.4125 95.1371 15.45 95.2496 15.4875C95.3621 15.525 95.4371 15.6 95.5121 15.675C95.5871 15.75 95.6621 15.8625 95.6996 15.9375C95.7371 16.05 95.7746 16.1625 95.7746 16.275C95.7746 16.3875 95.7371 16.5 95.6996 16.6125C95.6621 16.725 95.5871 16.8 95.5121 16.875C95.4371 16.95 95.3246 17.025 95.2496 17.0625C95.1371 17.1 95.0246 17.1375 94.9121 17.1375H88.7621C88.7996 16.9875 88.8746 16.8375 88.9496 16.725C89.0996 16.4625 89.2871 16.2375 89.5121 16.05C89.7371 15.8625 89.9996 15.7125 90.2621 15.6C90.5621 15.45 90.8621 15.4125 91.1621 15.4125Z" fill="white"/>
<path d="M130.387 13.0125H127.987V22.7625H130.387V13.0125Z" fill="white"/>
<path d="M123.487 14.475C123.037 14.025 122.513 13.6875 121.95 13.425C121.35 13.1625 120.713 13.05 120.038 13.05H115.837V9.375H113.438V22.8H120C120.675 22.8 121.313 22.65 121.913 22.425C122.513 22.1625 123.038 21.825 123.45 21.375C123.9 20.925 124.238 20.4 124.5 19.8375C124.762 19.2375 124.875 18.6 124.875 17.925C124.875 17.25 124.762 16.6125 124.5 16.05C124.275 15.4125 123.937 14.925 123.487 14.475ZM115.837 15.4125H120C120.338 15.4125 120.675 15.4875 120.975 15.6375C121.275 15.7875 121.538 15.9375 121.763 16.1625C121.988 16.3875 122.175 16.65 122.288 16.95C122.4 17.25 122.475 17.5875 122.475 17.925C122.475 18.2625 122.4 18.6 122.288 18.9C122.138 19.2 121.988 19.4625 121.763 19.6875C121.538 19.9125 121.275 20.1 120.975 20.2125C120.675 20.325 120.375 20.4 120 20.4H115.8V15.4125H115.837Z" fill="white"/>
<path d="M17.175 14.85C17.025 14.7 16.8375 14.55 16.6875 14.4C16.6875 8.92499 15 5.32499 13.575 3.26249C12.0375 1.01249 10.5 0.0749939 10.425 0.0374939C10.35 -6.10296e-06 10.2375 -6.10296e-06 10.1625 0.0374939C10.0875 0.0749939 8.55 1.01249 7.0125 3.26249C5.5875 5.32499 3.9 8.92499 3.9 14.4C3.75 14.55 3.5625 14.7 3.4125 14.85C2.025 16.2 0 16.8 0 22.4625C0 22.575 0.0375 22.725 0.1125 22.8C0.1875 22.875 0.3 22.95 0.4125 22.95C6.15 22.9125 6 30 10.3125 30C13.725 30 15.1125 22.9125 20.175 22.9125C20.2875 22.9125 20.4 22.875 20.475 22.7625C20.55 22.6875 20.5875 22.5375 20.5875 22.425C20.625 16.8 18.6 16.2 17.175 14.85ZM10.3125 12.8625C8.55 12.8625 7.125 11.4375 7.125 9.67499C7.125 7.91249 8.55 6.48749 10.3125 6.48749C12.075 6.48749 13.5 7.91249 13.5 9.67499C13.5 11.4375 12.075 12.8625 10.3125 12.8625Z" fill="url(#paint0_linear_665_319)"/>
</g>
<defs>
<linearGradient id="paint0_linear_665_319" x1="2.80924" y1="0.562681" x2="12.4477" y2="27.0859" gradientUnits="userSpaceOnUse">
<stop stop-color="#FC5857"/>
<stop offset="1" stop-color="#FF4442"/>
</linearGradient>
<clipPath id="clip0_665_319">
<rect width="187.5" height="30" fill="white"/>
</clipPath>
</defs>
</svg>
