<svg width="667" height="409" viewBox="0 0 667 409" fill="none" xmlns="http://www.w3.org/2000/svg">
<g opacity="0.05">
<path d="M514.488 396.282C514.488 389.932 519.572 384.216 526.562 384.216C532.917 384.216 538.637 389.296 538.637 396.282C538.637 402.633 533.553 408.348 526.562 408.348C519.572 408.348 514.488 403.268 514.488 396.282Z" fill="#064750"/>
<path d="M290.144 396.282C290.144 389.932 295.228 384.216 302.219 384.216C308.574 384.216 314.293 389.296 314.293 396.282C314.293 402.633 309.209 408.348 302.219 408.348C295.228 408.348 290.144 403.268 290.144 396.282Z" fill="#064750"/>
<path d="M225.972 396.282C225.972 389.932 231.056 384.216 238.047 384.216C244.402 384.216 250.121 389.296 250.121 396.282C250.121 402.633 245.037 408.348 238.047 408.348C231.056 408.348 225.972 403.268 225.972 396.282Z" fill="#064750"/>
<path d="M193.55 396.282C193.55 389.932 198.634 384.216 205.625 384.216C211.98 384.216 217.699 389.296 217.699 396.282C217.699 402.633 212.615 408.348 205.625 408.348C199.27 408.348 193.55 403.268 193.55 396.282Z" fill="#064750"/>
<path d="M161.781 396.282C161.781 389.932 166.865 384.216 173.855 384.216C180.21 384.216 185.93 389.296 185.93 396.282C185.93 402.633 180.846 408.348 173.855 408.348C166.865 408.348 161.781 403.268 161.781 396.282Z" fill="#064750"/>
<path d="M129.378 396.282C129.378 389.932 134.462 384.216 141.453 384.216C147.808 384.216 153.527 389.296 153.527 396.282C153.527 402.633 148.443 408.348 141.453 408.348C135.098 408.348 129.378 403.268 129.378 396.282Z" fill="#064750"/>
<path d="M97.5893 396.282C97.5893 389.932 102.673 384.216 109.664 384.216C116.019 384.216 121.738 389.296 121.738 396.282C121.738 402.633 116.654 408.348 109.664 408.348C102.673 408.348 97.5893 403.268 97.5893 396.282Z" fill="#064750"/>
<path d="M65.1891 396.282C65.1891 389.932 70.273 384.216 77.2635 384.216C83.6185 384.216 89.3379 389.296 89.3379 396.282C89.3379 402.633 84.254 408.348 77.2635 408.348C70.9085 408.348 65.1891 403.268 65.1891 396.282Z" fill="#064750"/>
<path d="M546.255 364.528C546.255 358.178 551.339 352.462 558.33 352.462C564.685 352.462 570.404 357.543 570.404 364.528C570.404 370.879 565.32 376.595 558.33 376.595C551.975 376.595 546.255 370.879 546.255 364.528Z" fill="#064750"/>
<path d="M514.488 364.528C514.488 358.178 519.572 352.462 526.562 352.462C532.917 352.462 538.637 357.543 538.637 364.528C538.637 370.879 533.553 376.595 526.562 376.595C519.572 376.595 514.488 370.879 514.488 364.528Z" fill="#064750"/>
<path d="M482.066 364.528C482.066 358.178 487.15 352.462 494.14 352.462C500.495 352.462 506.215 357.543 506.215 364.528C506.215 370.879 501.131 376.595 494.14 376.595C487.785 376.595 482.066 370.879 482.066 364.528Z" fill="#064750"/>
<path d="M450.296 364.528C450.296 358.178 455.38 352.462 462.371 352.462C468.726 352.462 474.445 357.543 474.445 364.528C474.445 370.879 469.361 376.595 462.371 376.595C455.38 376.595 450.296 370.879 450.296 364.528Z" fill="#064750"/>
<path d="M417.894 364.528C417.894 358.178 422.978 352.462 429.969 352.462C436.324 352.462 442.043 357.543 442.043 364.528C442.043 370.879 436.959 376.595 429.969 376.595C423.614 376.595 417.894 370.879 417.894 364.528Z" fill="#064750"/>
<path d="M225.972 364.528C225.972 358.178 231.056 352.462 238.047 352.462C244.402 352.462 250.121 357.543 250.121 364.528C250.121 370.879 245.037 376.595 238.047 376.595C231.056 376.595 225.972 370.879 225.972 364.528Z" fill="#064750"/>
<path d="M193.55 364.528C193.55 358.178 198.634 352.462 205.625 352.462C211.98 352.462 217.699 357.543 217.699 364.528C217.699 370.879 212.615 376.595 205.625 376.595C199.27 376.595 193.55 370.879 193.55 364.528Z" fill="#064750"/>
<path d="M161.781 364.528C161.781 358.178 166.865 352.462 173.855 352.462C180.21 352.462 185.93 357.543 185.93 364.528C185.93 370.879 180.846 376.595 173.855 376.595C166.865 376.595 161.781 370.879 161.781 364.528Z" fill="#064750"/>
<path d="M129.378 364.528C129.378 358.178 134.462 352.462 141.453 352.462C147.808 352.462 153.527 357.543 153.527 364.528C153.527 370.879 148.443 376.595 141.453 376.595C135.098 376.595 129.378 370.879 129.378 364.528Z" fill="#064750"/>
<path d="M97.5893 364.528C97.5893 358.178 102.673 352.462 109.664 352.462C116.019 352.462 121.738 357.543 121.738 364.528C121.738 370.879 116.654 376.595 109.664 376.595C102.673 376.595 97.5893 370.879 97.5893 364.528Z" fill="#064750"/>
<path d="M65.1891 364.528C65.1891 358.178 70.273 352.462 77.2635 352.462C83.6185 352.462 89.3379 357.543 89.3379 364.528C89.3379 370.879 84.254 376.595 77.2635 376.595C70.9085 376.595 65.1891 370.879 65.1891 364.528Z" fill="#064750"/>
<path d="M33.4195 364.528C33.4195 358.178 38.5035 352.462 45.494 352.462C51.8489 352.462 57.5684 357.543 57.5684 364.528C57.5684 370.879 52.4844 376.595 45.494 376.595C38.5035 376.595 33.4195 370.879 33.4195 364.528Z" fill="#064750"/>
<path d="M0.997674 364.528C0.997673 358.178 6.08161 352.462 13.0721 352.462C19.427 352.462 25.1465 357.543 25.1465 364.528C25.1465 370.879 20.0625 376.595 13.0721 376.595C6.71711 376.595 0.997674 370.879 0.997674 364.528Z" fill="#064750"/>
<path d="M546.255 332.14C546.255 325.79 551.339 320.074 558.33 320.074C564.685 320.074 570.404 325.154 570.404 332.14C570.404 338.491 565.32 344.207 558.33 344.207C551.975 344.207 546.255 339.126 546.255 332.14Z" fill="#064750"/>
<path d="M514.488 332.14C514.488 325.79 519.572 320.074 526.562 320.074C532.917 320.074 538.637 325.154 538.637 332.14C538.637 338.491 533.553 344.207 526.562 344.207C519.572 344.207 514.488 339.126 514.488 332.14Z" fill="#064750"/>
<path d="M482.066 332.14C482.066 325.789 487.15 320.074 494.14 320.074C500.495 320.074 506.215 325.154 506.215 332.14C506.215 338.491 501.131 344.207 494.14 344.207C487.785 344.207 482.066 339.126 482.066 332.14Z" fill="#064750"/>
<path d="M450.296 332.14C450.296 325.79 455.38 320.074 462.371 320.074C468.726 320.074 474.445 325.154 474.445 332.14C474.445 338.491 469.361 344.207 462.371 344.207C455.38 344.207 450.296 339.126 450.296 332.14Z" fill="#064750"/>
<path d="M417.894 332.14C417.894 325.79 422.978 320.074 429.969 320.074C436.324 320.074 442.043 325.154 442.043 332.14C442.043 338.491 436.959 344.207 429.969 344.207C423.614 344.207 417.894 339.126 417.894 332.14Z" fill="#064750"/>
<path d="M386.105 332.14C386.105 325.79 391.189 320.074 398.18 320.074C404.534 320.074 410.254 325.154 410.254 332.14C410.254 338.491 405.17 344.207 398.18 344.207C391.189 344.207 386.105 339.126 386.105 332.14Z" fill="#064750"/>
<path d="M161.781 332.14C161.781 325.79 166.865 320.074 173.855 320.074C180.21 320.074 185.93 325.154 185.93 332.14C185.93 338.491 180.846 344.207 173.855 344.207C166.865 344.207 161.781 339.126 161.781 332.14Z" fill="#064750"/>
<path d="M129.378 332.14C129.378 325.79 134.462 320.074 141.453 320.074C147.808 320.074 153.527 325.154 153.527 332.14C153.527 338.491 148.443 344.207 141.453 344.207C135.098 344.207 129.378 339.126 129.378 332.14Z" fill="#064750"/>
<path d="M97.5893 332.14C97.5893 325.79 102.673 320.074 109.664 320.074C116.019 320.074 121.738 325.154 121.738 332.14C121.738 338.491 116.654 344.207 109.664 344.207C102.673 344.207 97.5893 339.126 97.5893 332.14Z" fill="#064750"/>
<path d="M65.1891 332.14C65.1891 325.79 70.273 320.074 77.2635 320.074C83.6185 320.074 89.3379 325.154 89.3379 332.14C89.3379 338.491 84.254 344.207 77.2635 344.207C70.9085 344.207 65.1891 339.126 65.1891 332.14Z" fill="#064750"/>
<path d="M33.4195 332.14C33.4195 325.79 38.5035 320.074 45.494 320.074C51.8489 320.074 57.5684 325.154 57.5684 332.14C57.5684 338.491 52.4844 344.207 45.494 344.207C38.5035 344.207 33.4195 339.126 33.4195 332.14Z" fill="#064750"/>
<path d="M0.997674 332.14C0.997673 325.79 6.08161 320.074 13.0721 320.074C19.427 320.074 25.1465 325.154 25.1465 332.14C25.1465 338.491 20.0625 344.207 13.0721 344.207C6.71711 344.207 0.997674 339.126 0.997674 332.14Z" fill="#064750"/>
<path d="M578.658 300.388C578.658 294.037 583.742 288.321 590.732 288.321C597.087 288.321 602.807 293.402 602.807 300.388C602.807 306.738 597.723 312.454 590.732 312.454C583.742 312.454 578.658 306.738 578.658 300.388Z" fill="#064750"/>
<path d="M546.255 300.388C546.255 294.037 551.339 288.321 558.33 288.321C564.685 288.321 570.404 293.402 570.404 300.388C570.404 306.738 565.32 312.454 558.33 312.454C551.975 312.454 546.255 306.738 546.255 300.388Z" fill="#064750"/>
<path d="M514.488 300.388C514.488 294.037 519.572 288.321 526.562 288.321C532.917 288.321 538.637 293.402 538.637 300.388C538.637 306.738 533.553 312.454 526.562 312.454C519.572 312.454 514.488 306.738 514.488 300.388Z" fill="#064750"/>
<path d="M482.066 300.388C482.066 294.037 487.15 288.321 494.14 288.321C500.495 288.321 506.215 293.402 506.215 300.388C506.215 306.738 501.131 312.454 494.14 312.454C487.785 312.454 482.066 306.738 482.066 300.388Z" fill="#064750"/>
<path d="M450.296 300.388C450.296 294.037 455.38 288.321 462.371 288.321C468.726 288.321 474.445 293.402 474.445 300.388C474.445 306.738 469.361 312.454 462.371 312.454C455.38 312.454 450.296 306.738 450.296 300.388Z" fill="#064750"/>
<path d="M417.894 300.388C417.894 294.037 422.978 288.321 429.969 288.321C436.324 288.321 442.043 293.402 442.043 300.388C442.043 306.738 436.959 312.454 429.969 312.454C423.614 312.454 417.894 306.738 417.894 300.388Z" fill="#064750"/>
<path d="M386.105 300.388C386.105 294.037 391.189 288.321 398.179 288.321C404.534 288.321 410.254 293.402 410.254 300.388C410.254 306.738 405.17 312.454 398.179 312.454C391.189 312.454 386.105 306.738 386.105 300.388Z" fill="#064750"/>
<path d="M353.703 300.388C353.703 294.037 358.787 288.321 365.777 288.321C372.132 288.321 377.852 293.402 377.852 300.388C377.852 306.738 372.768 312.454 365.777 312.454C359.422 312.454 353.703 306.738 353.703 300.388Z" fill="#064750"/>
<path d="M321.933 300.388C321.933 294.037 327.017 288.321 334.008 288.321C340.363 288.321 346.082 293.402 346.082 300.388C346.082 306.738 340.998 312.454 334.008 312.454C327.017 312.454 321.933 306.738 321.933 300.388Z" fill="#064750"/>
<path d="M290.144 300.388C290.144 294.037 295.228 288.321 302.219 288.321C308.574 288.321 314.293 293.402 314.293 300.388C314.293 306.738 309.209 312.454 302.219 312.454C295.228 312.454 290.144 306.738 290.144 300.388Z" fill="#064750"/>
<path d="M257.744 300.388C257.744 294.037 262.828 288.321 269.818 288.321C276.173 288.321 281.893 293.402 281.893 300.388C281.893 306.738 276.809 312.454 269.818 312.454C263.463 312.454 257.744 306.738 257.744 300.388Z" fill="#064750"/>
<path d="M225.972 300.388C225.972 294.037 231.056 288.321 238.047 288.321C244.402 288.321 250.121 293.402 250.121 300.388C250.121 306.738 245.037 312.454 238.047 312.454C231.056 312.454 225.972 306.738 225.972 300.388Z" fill="#064750"/>
<path d="M193.55 300.388C193.55 294.037 198.634 288.321 205.625 288.321C211.98 288.321 217.699 293.402 217.699 300.388C217.699 306.738 212.615 312.454 205.625 312.454C199.27 312.454 193.55 306.738 193.55 300.388Z" fill="#064750"/>
<path d="M161.781 300.388C161.781 294.037 166.865 288.321 173.855 288.321C180.21 288.321 185.93 293.402 185.93 300.388C185.93 306.738 180.846 312.454 173.855 312.454C166.865 312.454 161.781 306.738 161.781 300.388Z" fill="#064750"/>
<path d="M129.378 300.388C129.378 294.037 134.462 288.321 141.453 288.321C147.808 288.321 153.527 293.402 153.527 300.388C153.527 306.738 148.443 312.454 141.453 312.454C135.098 312.454 129.378 306.738 129.378 300.388Z" fill="#064750"/>
<path d="M97.5893 300.388C97.5893 294.037 102.673 288.321 109.664 288.321C116.019 288.321 121.738 293.402 121.738 300.388C121.738 306.738 116.654 312.454 109.664 312.454C102.673 312.454 97.5893 306.738 97.5893 300.388Z" fill="#064750"/>
<path d="M65.1891 300.388C65.1891 294.037 70.273 288.321 77.2635 288.321C83.6185 288.321 89.3379 293.402 89.3379 300.388C89.3379 306.738 84.254 312.454 77.2635 312.454C70.9085 312.454 65.1891 306.738 65.1891 300.388Z" fill="#064750"/>
<path d="M33.4195 300.388C33.4195 294.037 38.5035 288.321 45.494 288.321C51.8489 288.321 57.5684 293.402 57.5684 300.388C57.5684 306.738 52.4844 312.454 45.494 312.454C38.5035 312.454 33.4195 306.738 33.4195 300.388Z" fill="#064750"/>
<path d="M0.997674 300.388C0.997673 294.037 6.08161 288.321 13.0721 288.321C19.427 288.321 25.1465 293.402 25.1465 300.388C25.1465 306.738 20.0625 312.454 13.0721 312.454C6.71711 312.454 0.997674 306.738 0.997674 300.388Z" fill="#064750"/>
<path d="M610.447 267.998C610.447 261.648 615.531 255.932 622.521 255.932C628.876 255.932 634.596 261.013 634.596 267.998C634.596 274.349 629.512 280.065 622.521 280.065C616.166 280.065 610.447 274.984 610.447 267.998Z" fill="#064750"/>
<path d="M578.658 267.998C578.658 261.648 583.742 255.932 590.732 255.932C597.087 255.932 602.807 261.013 602.807 267.998C602.807 274.349 597.723 280.065 590.732 280.065C583.742 280.065 578.658 274.984 578.658 267.998Z" fill="#064750"/>
<path d="M546.255 267.998C546.255 261.648 551.339 255.932 558.33 255.932C564.685 255.932 570.404 261.013 570.404 267.998C570.404 274.349 565.32 280.065 558.33 280.065C551.975 280.065 546.255 274.984 546.255 267.998Z" fill="#064750"/>
<path d="M514.488 267.998C514.488 261.648 519.572 255.932 526.562 255.932C532.917 255.932 538.637 261.013 538.637 267.998C538.637 274.349 533.553 280.065 526.562 280.065C519.572 280.065 514.488 274.984 514.488 267.998Z" fill="#064750"/>
<path d="M482.066 267.998C482.066 261.648 487.15 255.932 494.14 255.932C500.495 255.932 506.215 261.013 506.215 267.998C506.215 274.349 501.131 280.065 494.14 280.065C487.785 280.065 482.066 274.984 482.066 267.998Z" fill="#064750"/>
<path d="M450.296 267.999C450.296 261.648 455.38 255.932 462.371 255.932C468.726 255.932 474.445 261.013 474.445 267.998C474.445 274.349 469.361 280.065 462.371 280.065C455.38 280.065 450.296 274.984 450.296 267.999Z" fill="#064750"/>
<path d="M417.894 267.998C417.894 261.648 422.978 255.932 429.969 255.932C436.324 255.932 442.043 261.013 442.043 267.998C442.043 274.349 436.959 280.065 429.969 280.065C423.614 280.065 417.894 274.984 417.894 267.998Z" fill="#064750"/>
<path d="M386.105 267.998C386.105 261.648 391.189 255.932 398.179 255.932C404.534 255.932 410.254 261.013 410.254 267.998C410.254 274.349 405.17 280.065 398.179 280.065C391.189 280.065 386.105 274.984 386.105 267.998Z" fill="#064750"/>
<path d="M353.703 267.998C353.703 261.648 358.787 255.932 365.777 255.932C372.132 255.932 377.852 261.013 377.852 267.998C377.852 274.349 372.768 280.065 365.777 280.065C359.422 280.065 353.703 274.984 353.703 267.998Z" fill="#064750"/>
<path d="M321.933 267.998C321.933 261.648 327.017 255.932 334.008 255.932C340.363 255.932 346.082 261.013 346.082 267.998C346.082 274.349 340.998 280.065 334.008 280.065C327.017 280.065 321.933 274.984 321.933 267.998Z" fill="#064750"/>
<path d="M290.144 267.999C290.144 261.648 295.228 255.932 302.219 255.932C308.574 255.932 314.293 261.013 314.293 267.998C314.293 274.349 309.209 280.065 302.219 280.065C295.228 280.065 290.144 274.984 290.144 267.999Z" fill="#064750"/>
<path d="M257.744 267.999C257.744 261.648 262.828 255.932 269.818 255.932C276.173 255.932 281.893 261.013 281.893 267.998C281.893 274.349 276.809 280.065 269.818 280.065C263.463 280.065 257.744 274.984 257.744 267.999Z" fill="#064750"/>
<path d="M225.972 267.999C225.972 261.648 231.056 255.932 238.047 255.932C244.402 255.932 250.121 261.013 250.121 267.998C250.121 274.349 245.037 280.065 238.047 280.065C231.056 280.065 225.972 274.984 225.972 267.999Z" fill="#064750"/>
<path d="M193.55 267.998C193.55 261.648 198.634 255.932 205.625 255.932C211.98 255.932 217.699 261.013 217.699 267.998C217.699 274.349 212.615 280.065 205.625 280.065C199.27 280.065 193.55 274.984 193.55 267.998Z" fill="#064750"/>
<path d="M129.378 267.998C129.378 261.648 134.462 255.932 141.453 255.932C147.808 255.932 153.527 261.013 153.527 267.998C153.527 274.349 148.443 280.065 141.453 280.065C135.098 280.065 129.378 274.984 129.378 267.998Z" fill="#064750"/>
<path d="M97.5893 267.998C97.5893 261.648 102.673 255.932 109.664 255.932C116.019 255.932 121.738 261.013 121.738 267.998C121.738 274.349 116.654 280.065 109.664 280.065C102.673 280.065 97.5893 274.984 97.5893 267.998Z" fill="#064750"/>
<path d="M65.1891 267.998C65.1891 261.648 70.273 255.932 77.2635 255.932C83.6185 255.932 89.3379 261.013 89.3379 267.998C89.3379 274.349 84.254 280.065 77.2635 280.065C70.9085 280.065 65.1891 274.984 65.1891 267.998Z" fill="#064750"/>
<path d="M33.4195 267.998C33.4195 261.648 38.5035 255.932 45.494 255.932C51.8489 255.932 57.5684 261.013 57.5684 267.998C57.5684 274.349 52.4844 280.065 45.494 280.065C38.5035 280.065 33.4195 274.984 33.4195 267.998Z" fill="#064750"/>
<path d="M642.849 236.246C642.849 229.895 647.933 224.18 654.924 224.18C661.279 224.18 666.998 229.26 666.998 236.246C666.998 242.597 661.914 248.312 654.924 248.312C647.933 248.312 642.849 242.597 642.849 236.246Z" fill="#064750"/>
<path d="M610.447 236.246C610.447 229.895 615.531 224.18 622.521 224.18C628.876 224.18 634.596 229.26 634.596 236.246C634.596 242.597 629.512 248.312 622.521 248.312C616.166 248.312 610.447 242.597 610.447 236.246Z" fill="#064750"/>
<path d="M578.658 236.246C578.658 229.895 583.742 224.18 590.732 224.18C597.087 224.18 602.807 229.26 602.807 236.246C602.807 242.597 597.723 248.312 590.732 248.312C583.742 248.312 578.658 242.597 578.658 236.246Z" fill="#064750"/>
<path d="M546.255 236.246C546.255 229.895 551.339 224.18 558.33 224.18C564.685 224.18 570.404 229.26 570.404 236.246C570.404 242.597 565.32 248.312 558.33 248.312C551.975 248.312 546.255 242.597 546.255 236.246Z" fill="#064750"/>
<path d="M514.488 236.246C514.488 229.895 519.572 224.18 526.562 224.18C532.917 224.18 538.637 229.26 538.637 236.246C538.637 242.597 533.553 248.312 526.562 248.312C519.572 248.312 514.488 242.597 514.488 236.246Z" fill="#064750"/>
<path d="M482.066 236.246C482.066 229.895 487.15 224.18 494.14 224.18C500.495 224.18 506.215 229.26 506.215 236.246C506.215 242.597 501.131 248.312 494.14 248.312C487.785 248.312 482.066 242.597 482.066 236.246Z" fill="#064750"/>
<path d="M450.296 236.246C450.296 229.895 455.38 224.18 462.371 224.18C468.726 224.18 474.445 229.26 474.445 236.246C474.445 242.597 469.361 248.312 462.371 248.312C455.38 248.312 450.296 242.597 450.296 236.246Z" fill="#064750"/>
<path d="M417.894 236.246C417.894 229.895 422.978 224.18 429.969 224.18C436.324 224.18 442.043 229.26 442.043 236.246C442.043 242.597 436.959 248.312 429.969 248.312C423.614 248.312 417.894 242.597 417.894 236.246Z" fill="#064750"/>
<path d="M386.105 236.246C386.105 229.895 391.189 224.18 398.18 224.18C404.534 224.18 410.254 229.26 410.254 236.246C410.254 242.597 405.17 248.312 398.18 248.312C391.189 248.312 386.105 242.597 386.105 236.246Z" fill="#064750"/>
<path d="M353.703 236.246C353.703 229.895 358.787 224.18 365.777 224.18C372.132 224.18 377.852 229.26 377.852 236.246C377.852 242.597 372.768 248.312 365.777 248.312C359.422 248.312 353.703 242.597 353.703 236.246Z" fill="#064750"/>
<path d="M321.933 236.246C321.933 229.895 327.017 224.18 334.008 224.18C340.363 224.18 346.082 229.26 346.082 236.246C346.082 242.597 340.998 248.312 334.008 248.312C327.017 248.312 321.933 242.597 321.933 236.246Z" fill="#064750"/>
<path d="M290.144 236.246C290.144 229.895 295.228 224.18 302.219 224.18C308.574 224.18 314.293 229.26 314.293 236.246C314.293 242.597 309.209 248.312 302.219 248.312C295.228 248.312 290.144 242.597 290.144 236.246Z" fill="#064750"/>
<path d="M257.744 236.246C257.744 229.895 262.828 224.18 269.818 224.18C276.173 224.18 281.893 229.26 281.893 236.246C281.893 242.597 276.809 248.312 269.818 248.312C263.463 248.312 257.744 242.597 257.744 236.246Z" fill="#064750"/>
<path d="M225.972 236.246C225.972 229.895 231.056 224.18 238.047 224.18C244.402 224.18 250.121 229.26 250.121 236.246C250.121 242.597 245.037 248.312 238.047 248.312C231.056 248.312 225.972 242.597 225.972 236.246Z" fill="#064750"/>
<path d="M193.55 236.246C193.55 229.895 198.634 224.18 205.625 224.18C211.98 224.18 217.699 229.26 217.699 236.246C217.699 242.597 212.615 248.312 205.625 248.312C199.27 248.312 193.55 242.597 193.55 236.246Z" fill="#064750"/>
<path d="M129.378 236.246C129.378 229.895 134.462 224.18 141.453 224.18C147.808 224.18 153.527 229.26 153.527 236.246C153.527 242.597 148.443 248.312 141.453 248.312C135.098 248.312 129.378 242.597 129.378 236.246Z" fill="#064750"/>
<path d="M97.5893 236.246C97.5893 229.895 102.673 224.18 109.664 224.18C116.019 224.18 121.738 229.26 121.738 236.246C121.738 242.597 116.654 248.312 109.664 248.312C102.673 248.312 97.5893 242.597 97.5893 236.246Z" fill="#064750"/>
<path d="M65.1891 236.246C65.1891 229.895 70.273 224.18 77.2635 224.18C83.6185 224.18 89.3379 229.26 89.3379 236.246C89.3379 242.597 84.254 248.312 77.2635 248.312C70.9085 248.312 65.1891 242.597 65.1891 236.246Z" fill="#064750"/>
<path d="M33.4195 236.246C33.4195 229.895 38.5035 224.18 45.494 224.18C51.8489 224.18 57.5684 229.26 57.5684 236.246C57.5684 242.597 52.4844 248.312 45.494 248.312C38.5035 248.312 33.4195 242.597 33.4195 236.246Z" fill="#064750"/>
<path d="M654.924 191.79C648.255 191.79 642.849 197.192 642.849 203.856C642.849 210.52 648.255 215.923 654.924 215.923C661.592 215.923 666.998 210.52 666.998 203.856C666.998 197.192 661.592 191.79 654.924 191.79Z" fill="#064750"/>
<path d="M610.447 203.856C610.447 197.506 615.531 191.79 622.521 191.79C628.876 191.79 634.596 196.871 634.596 203.856C634.596 210.207 629.512 215.923 622.521 215.923C616.166 215.923 610.447 210.842 610.447 203.856Z" fill="#064750"/>
<path d="M590.732 191.79C584.064 191.79 578.658 197.192 578.658 203.856C578.658 210.52 584.064 215.923 590.732 215.923C597.401 215.923 602.807 210.52 602.807 203.856C602.807 197.192 597.401 191.79 590.732 191.79Z" fill="#064750"/>
<path d="M546.255 203.856C546.255 197.506 551.339 191.79 558.33 191.79C564.685 191.79 570.404 196.871 570.404 203.856C570.404 210.207 565.32 215.923 558.33 215.923C551.975 215.923 546.255 210.842 546.255 203.856Z" fill="#064750"/>
<path d="M514.488 203.856C514.488 197.506 519.572 191.79 526.562 191.79C532.917 191.79 538.637 196.871 538.637 203.856C538.637 210.207 533.553 215.923 526.562 215.923C519.572 215.923 514.488 210.842 514.488 203.856Z" fill="#064750"/>
<path d="M494.14 191.79C487.472 191.79 482.066 197.193 482.066 203.857C482.066 210.521 487.472 215.923 494.14 215.923C500.809 215.923 506.215 210.521 506.215 203.857C506.215 197.193 500.809 191.79 494.14 191.79Z" fill="#064750"/>
<path d="M450.296 203.857C450.296 197.506 455.38 191.79 462.371 191.79C468.726 191.79 474.445 196.871 474.445 203.857C474.445 210.207 469.361 215.923 462.371 215.923C455.38 215.923 450.296 210.842 450.296 203.857Z" fill="#064750"/>
<path d="M429.969 191.79C423.3 191.79 417.894 197.192 417.894 203.856C417.894 210.52 423.3 215.923 429.969 215.923C436.637 215.923 442.043 210.52 442.043 203.856C442.043 197.192 436.637 191.79 429.969 191.79Z" fill="#064750"/>
<path d="M386.105 203.856C386.105 197.506 391.189 191.79 398.18 191.79C404.534 191.79 410.254 196.871 410.254 203.856C410.254 210.207 405.17 215.923 398.18 215.923C391.189 215.923 386.105 210.842 386.105 203.856Z" fill="#064750"/>
<path d="M353.703 203.856C353.703 197.506 358.787 191.79 365.777 191.79C372.132 191.79 377.852 196.871 377.852 203.856C377.852 210.207 372.768 215.923 365.777 215.923C359.422 215.923 353.703 210.842 353.703 203.856Z" fill="#064750"/>
<path d="M334.008 191.79C327.339 191.79 321.933 197.193 321.933 203.857C321.933 210.521 327.339 215.923 334.008 215.923C340.676 215.923 346.082 210.521 346.082 203.857C346.082 197.193 340.676 191.79 334.008 191.79Z" fill="#064750"/>
<path d="M290.144 203.857C290.144 197.506 295.228 191.79 302.219 191.79C308.574 191.79 314.293 196.871 314.293 203.857C314.293 210.207 309.209 215.923 302.219 215.923C295.228 215.923 290.144 210.842 290.144 203.857Z" fill="#064750"/>
<path d="M269.818 191.79C263.15 191.79 257.744 197.193 257.744 203.857C257.744 210.521 263.15 215.923 269.818 215.923C276.487 215.923 281.893 210.521 281.893 203.857C281.893 197.193 276.487 191.79 269.818 191.79Z" fill="#064750"/>
<path d="M225.972 203.857C225.972 197.506 231.056 191.79 238.047 191.79C244.402 191.79 250.121 196.871 250.121 203.857C250.121 210.207 245.037 215.923 238.047 215.923C231.056 215.923 225.972 210.842 225.972 203.857Z" fill="#064750"/>
<path d="M193.55 203.857C193.55 197.506 198.634 191.79 205.625 191.79C211.98 191.79 217.699 196.871 217.699 203.857C217.699 210.207 212.615 215.923 205.625 215.923C199.27 215.923 193.55 210.842 193.55 203.857Z" fill="#064750"/>
<path d="M173.855 191.79C167.187 191.79 161.781 197.193 161.781 203.857C161.781 210.521 167.187 215.923 173.855 215.923C180.524 215.923 185.93 210.521 185.93 203.857C185.93 197.193 180.524 191.79 173.855 191.79Z" fill="#064750"/>
<path d="M109.664 191.79C102.995 191.79 97.5893 197.193 97.5893 203.857C97.5893 210.521 102.995 215.923 109.664 215.923C116.332 215.923 121.738 210.521 121.738 203.857C121.738 197.193 116.332 191.79 109.664 191.79Z" fill="#064750"/>
<path d="M65.1891 203.857C65.1891 197.506 70.273 191.79 77.2635 191.79C83.6185 191.79 89.3379 196.871 89.3379 203.857C89.3379 210.207 84.254 215.923 77.2635 215.923C70.9085 215.923 65.1891 210.842 65.1891 203.857Z" fill="#064750"/>
<path d="M33.4196 203.857C33.4196 197.506 38.5035 191.79 45.494 191.79C51.8489 191.79 57.5684 196.871 57.5684 203.857C57.5684 210.207 52.4844 215.923 45.494 215.923C38.5035 215.923 33.4196 210.842 33.4196 203.857Z" fill="#064750"/>
<path d="M0.997674 203.857C0.997673 197.506 6.08161 191.79 13.0721 191.79C19.427 191.79 25.1465 196.871 25.1465 203.857C25.1465 210.207 20.0625 215.923 13.0721 215.923C6.71711 215.923 0.997674 210.842 0.997674 203.857Z" fill="#064750"/>
<path d="M642.849 172.104C642.849 165.753 647.933 160.038 654.924 160.038C661.279 160.038 666.998 165.118 666.998 172.104C666.998 178.455 661.914 184.17 654.924 184.17C647.933 184.17 642.849 178.455 642.849 172.104Z" fill="#064750"/>
<path d="M610.447 172.104C610.447 165.753 615.531 160.038 622.521 160.038C628.876 160.038 634.596 165.118 634.596 172.104C634.596 178.455 629.512 184.17 622.521 184.17C616.166 184.17 610.447 178.455 610.447 172.104Z" fill="#064750"/>
<path d="M578.658 172.104C578.658 165.753 583.742 160.038 590.732 160.038C597.087 160.038 602.807 165.118 602.807 172.104C602.807 178.455 597.723 184.17 590.732 184.17C583.742 184.17 578.658 178.455 578.658 172.104Z" fill="#064750"/>
<path d="M546.255 172.104C546.255 165.753 551.339 160.038 558.33 160.038C564.685 160.038 570.404 165.118 570.404 172.104C570.404 178.455 565.32 184.17 558.33 184.17C551.975 184.17 546.255 178.455 546.255 172.104Z" fill="#064750"/>
<path d="M514.488 172.104C514.488 165.753 519.572 160.038 526.562 160.038C532.917 160.038 538.637 165.118 538.637 172.104C538.637 178.455 533.553 184.17 526.562 184.17C519.572 184.17 514.488 178.455 514.488 172.104Z" fill="#064750"/>
<path d="M482.066 172.104C482.066 165.753 487.15 160.038 494.14 160.038C500.495 160.038 506.215 165.118 506.215 172.104C506.215 178.455 501.131 184.17 494.14 184.17C487.785 184.17 482.066 178.455 482.066 172.104Z" fill="#064750"/>
<path d="M450.296 172.104C450.296 165.753 455.38 160.038 462.371 160.038C468.726 160.038 474.445 165.118 474.445 172.104C474.445 178.455 469.361 184.17 462.371 184.17C455.38 184.17 450.296 178.455 450.296 172.104Z" fill="#064750"/>
<path d="M417.894 172.104C417.894 165.753 422.978 160.038 429.969 160.038C436.324 160.038 442.043 165.118 442.043 172.104C442.043 178.455 436.959 184.17 429.969 184.17C423.614 184.17 417.894 178.455 417.894 172.104Z" fill="#064750"/>
<path d="M386.105 172.104C386.105 165.753 391.189 160.038 398.18 160.038C404.534 160.038 410.254 165.118 410.254 172.104C410.254 178.455 405.17 184.17 398.18 184.17C391.189 184.17 386.105 178.455 386.105 172.104Z" fill="#064750"/>
<path d="M353.703 172.104C353.703 165.753 358.787 160.038 365.777 160.038C372.132 160.038 377.852 165.118 377.852 172.104C377.852 178.455 372.768 184.17 365.777 184.17C359.422 184.17 353.703 178.455 353.703 172.104Z" fill="#064750"/>
<path d="M321.933 172.104C321.933 165.753 327.017 160.038 334.008 160.038C340.363 160.038 346.082 165.118 346.082 172.104C346.082 178.455 340.998 184.17 334.008 184.17C327.017 184.17 321.933 178.455 321.933 172.104Z" fill="#064750"/>
<path d="M290.144 172.104C290.144 165.753 295.228 160.038 302.219 160.038C308.574 160.038 314.293 165.118 314.293 172.104C314.293 178.455 309.209 184.17 302.219 184.17C295.228 184.17 290.144 178.455 290.144 172.104Z" fill="#064750"/>
<path d="M257.744 172.104C257.744 165.753 262.828 160.038 269.818 160.038C276.173 160.038 281.893 165.118 281.893 172.104C281.893 178.455 276.809 184.17 269.818 184.17C263.463 184.17 257.744 178.455 257.744 172.104Z" fill="#064750"/>
<path d="M225.972 172.104C225.972 165.753 231.056 160.038 238.047 160.038C244.402 160.038 250.121 165.118 250.121 172.104C250.121 178.455 245.037 184.17 238.047 184.17C231.056 184.17 225.972 178.455 225.972 172.104Z" fill="#064750"/>
<path d="M193.55 172.104C193.55 165.753 198.634 160.038 205.625 160.038C211.98 160.038 217.699 165.118 217.699 172.104C217.699 178.455 212.615 184.17 205.625 184.17C199.27 184.17 193.55 178.455 193.55 172.104Z" fill="#064750"/>
<path d="M161.781 172.104C161.781 165.753 166.865 160.038 173.855 160.038C180.21 160.038 185.93 165.118 185.93 172.104C185.93 178.455 180.846 184.17 173.855 184.17C166.865 184.17 161.781 178.455 161.781 172.104Z" fill="#064750"/>
<path d="M97.5893 172.104C97.5893 165.753 102.673 160.038 109.664 160.038C116.019 160.038 121.738 165.118 121.738 172.104C121.738 178.455 116.654 184.17 109.664 184.17C102.673 184.17 97.5893 178.455 97.5893 172.104Z" fill="#064750"/>
<path d="M65.1891 172.104C65.1891 165.753 70.273 160.038 77.2635 160.038C83.6185 160.038 89.3379 165.118 89.3379 172.104C89.3379 178.455 84.254 184.17 77.2635 184.17C70.9085 184.17 65.1891 178.455 65.1891 172.104Z" fill="#064750"/>
<path d="M33.4195 172.104C33.4195 165.753 38.5035 160.038 45.494 160.038C51.8489 160.038 57.5684 165.118 57.5684 172.104C57.5684 178.455 52.4844 184.17 45.494 184.17C38.5035 184.17 33.4195 178.455 33.4195 172.104Z" fill="#064750"/>
<path d="M0.997674 172.104C0.997673 165.753 6.08161 160.038 13.0721 160.038C19.427 160.038 25.1465 165.118 25.1465 172.104C25.1465 178.455 20.0625 184.17 13.0721 184.17C6.71711 184.17 0.997674 178.455 0.997674 172.104Z" fill="#064750"/>
<path d="M654.924 127.648C648.255 127.648 642.849 133.051 642.849 139.715C642.849 146.379 648.255 151.781 654.924 151.781C661.592 151.781 666.998 146.379 666.998 139.715C666.998 133.051 661.592 127.648 654.924 127.648Z" fill="#064750"/>
<path d="M610.449 139.715C610.449 133.364 615.533 127.648 622.523 127.648C628.878 127.648 634.598 132.729 634.598 139.715C634.598 146.065 629.514 151.781 622.523 151.781C616.168 151.781 610.449 146.7 610.449 139.715Z" fill="#064750"/>
<path d="M590.732 127.648C584.064 127.648 578.658 133.051 578.658 139.715C578.658 146.379 584.064 151.781 590.732 151.781C597.401 151.781 602.807 146.379 602.807 139.715C602.807 133.051 597.401 127.648 590.732 127.648Z" fill="#064750"/>
<path d="M546.255 139.715C546.255 133.364 551.339 127.648 558.33 127.648C564.685 127.648 570.404 132.729 570.404 139.715C570.404 146.065 565.32 151.781 558.33 151.781C551.975 151.781 546.255 146.7 546.255 139.715Z" fill="#064750"/>
<path d="M514.488 139.715C514.488 133.364 519.572 127.648 526.562 127.648C532.917 127.648 538.637 132.729 538.637 139.715C538.637 146.065 533.553 151.781 526.562 151.781C519.572 151.781 514.488 146.7 514.488 139.715Z" fill="#064750"/>
<path d="M494.14 127.648C487.472 127.648 482.066 133.051 482.066 139.715C482.066 146.379 487.472 151.781 494.14 151.781C500.809 151.781 506.215 146.379 506.215 139.715C506.215 133.051 500.809 127.648 494.14 127.648Z" fill="#064750"/>
<path d="M450.296 139.715C450.296 133.364 455.38 127.648 462.371 127.648C468.726 127.648 474.445 132.729 474.445 139.715C474.445 146.065 469.361 151.781 462.371 151.781C455.38 151.781 450.296 146.7 450.296 139.715Z" fill="#064750"/>
<path d="M429.969 127.648C423.3 127.648 417.894 133.051 417.894 139.715C417.894 146.379 423.3 151.781 429.969 151.781C436.637 151.781 442.043 146.379 442.043 139.715C442.043 133.051 436.637 127.648 429.969 127.648Z" fill="#064750"/>
<path d="M386.105 139.715C386.105 133.364 391.189 127.648 398.18 127.648C404.534 127.648 410.254 132.729 410.254 139.715C410.254 146.065 405.17 151.781 398.18 151.781C391.189 151.781 386.105 146.7 386.105 139.715Z" fill="#064750"/>
<path d="M353.703 139.715C353.703 133.364 358.787 127.648 365.777 127.648C372.132 127.648 377.852 132.729 377.852 139.715C377.852 146.065 372.768 151.781 365.777 151.781C359.422 151.781 353.703 146.7 353.703 139.715Z" fill="#064750"/>
<path d="M334.008 127.648C327.339 127.648 321.933 133.051 321.933 139.715C321.933 146.379 327.339 151.781 334.008 151.781C340.676 151.781 346.082 146.379 346.082 139.715C346.082 133.051 340.676 127.648 334.008 127.648Z" fill="#064750"/>
<path d="M290.144 139.715C290.144 133.364 295.228 127.649 302.219 127.649C308.574 127.649 314.293 132.729 314.293 139.715C314.293 146.065 309.209 151.781 302.219 151.781C295.228 151.781 290.144 146.7 290.144 139.715Z" fill="#064750"/>
<path d="M269.818 127.649C263.15 127.649 257.744 133.051 257.744 139.715C257.744 146.379 263.15 151.781 269.818 151.781C276.487 151.781 281.893 146.379 281.893 139.715C281.893 133.051 276.487 127.649 269.818 127.649Z" fill="#064750"/>
<path d="M225.972 139.715C225.972 133.364 231.056 127.649 238.047 127.649C244.402 127.649 250.121 132.729 250.121 139.715C250.121 146.065 245.037 151.781 238.047 151.781C231.056 151.781 225.972 146.7 225.972 139.715Z" fill="#064750"/>
<path d="M193.552 139.715C193.552 133.364 198.636 127.649 205.627 127.649C211.982 127.649 217.701 132.729 217.701 139.715C217.701 146.065 212.617 151.781 205.627 151.781C199.272 151.781 193.552 146.7 193.552 139.715Z" fill="#064750"/>
<path d="M173.855 127.649C167.187 127.649 161.781 133.051 161.781 139.715C161.781 146.379 167.187 151.781 173.855 151.781C180.524 151.781 185.93 146.379 185.93 139.715C185.93 133.051 180.524 127.649 173.855 127.649Z" fill="#064750"/>
<path d="M129.378 139.715C129.378 133.364 134.462 127.649 141.453 127.649C147.808 127.649 153.527 132.729 153.527 139.715C153.527 146.065 148.443 151.781 141.453 151.781C135.098 151.781 129.378 146.7 129.378 139.715Z" fill="#064750"/>
<path d="M65.1891 139.715C65.1891 133.364 70.273 127.648 77.2635 127.648C83.6185 127.648 89.3379 132.729 89.3379 139.715C89.3379 146.065 84.254 151.781 77.2635 151.781C70.9085 151.781 65.1891 146.7 65.1891 139.715Z" fill="#064750"/>
<path d="M33.4195 139.715C33.4195 133.364 38.5035 127.648 45.494 127.648C51.8489 127.648 57.5684 132.729 57.5684 139.715C57.5684 146.065 52.4844 151.781 45.494 151.781C38.5035 151.781 33.4195 146.7 33.4195 139.715Z" fill="#064750"/>
<path d="M0.997674 139.715C0.997673 133.364 6.08161 127.648 13.0721 127.648C19.427 127.648 25.1465 132.729 25.1465 139.715C25.1465 146.065 20.0625 151.781 13.0721 151.781C6.71711 151.781 0.997674 146.7 0.997674 139.715Z" fill="#064750"/>
<path d="M642.849 107.962C642.849 101.611 647.933 95.8959 654.924 95.8959C661.279 95.8959 666.998 100.976 666.998 107.962C666.998 114.313 661.914 120.028 654.924 120.028C647.933 120.028 642.849 114.313 642.849 107.962Z" fill="#064750"/>
<path d="M610.449 107.962C610.449 101.611 615.533 95.8959 622.523 95.8959C628.878 95.8959 634.598 100.976 634.598 107.962C634.598 114.313 629.514 120.028 622.523 120.028C616.168 120.028 610.449 114.313 610.449 107.962Z" fill="#064750"/>
<path d="M578.658 107.962C578.658 101.611 583.742 95.8959 590.732 95.8959C597.087 95.8959 602.807 100.976 602.807 107.962C602.807 114.313 597.723 120.028 590.732 120.028C583.742 120.028 578.658 114.313 578.658 107.962Z" fill="#064750"/>
<path d="M546.255 107.962C546.255 101.611 551.339 95.8959 558.33 95.8959C564.685 95.8959 570.404 100.976 570.404 107.962C570.404 114.313 565.32 120.028 558.33 120.028C551.975 120.028 546.255 114.313 546.255 107.962Z" fill="#064750"/>
<path d="M514.488 107.962C514.488 101.611 519.572 95.8959 526.562 95.8959C532.917 95.8959 538.637 100.976 538.637 107.962C538.637 114.313 533.553 120.028 526.562 120.028C519.572 120.028 514.488 114.313 514.488 107.962Z" fill="#064750"/>
<path d="M482.066 107.962C482.066 101.611 487.15 95.8959 494.14 95.8959C500.495 95.8959 506.215 100.976 506.215 107.962C506.215 114.313 501.131 120.028 494.14 120.028C487.785 120.028 482.066 114.313 482.066 107.962Z" fill="#064750"/>
<path d="M450.296 107.962C450.296 101.611 455.38 95.8959 462.371 95.8959C468.726 95.8959 474.445 100.976 474.445 107.962C474.445 114.313 469.361 120.028 462.371 120.028C455.38 120.028 450.296 114.313 450.296 107.962Z" fill="#064750"/>
<path d="M417.894 107.962C417.894 101.611 422.978 95.8959 429.969 95.8959C436.324 95.8959 442.043 100.976 442.043 107.962C442.043 114.313 436.959 120.028 429.969 120.028C423.614 120.028 417.894 114.313 417.894 107.962Z" fill="#064750"/>
<path d="M386.105 107.962C386.105 101.611 391.189 95.8959 398.179 95.8959C404.534 95.8959 410.254 100.976 410.254 107.962C410.254 114.313 405.17 120.028 398.179 120.028C391.189 120.028 386.105 114.313 386.105 107.962Z" fill="#064750"/>
<path d="M353.703 107.962C353.703 101.611 358.787 95.8959 365.777 95.8959C372.132 95.8959 377.852 100.976 377.852 107.962C377.852 114.313 372.768 120.028 365.777 120.028C359.422 120.028 353.703 114.313 353.703 107.962Z" fill="#064750"/>
<path d="M321.933 107.962C321.933 101.611 327.017 95.8959 334.008 95.8959C340.363 95.8959 346.082 100.976 346.082 107.962C346.082 114.313 340.998 120.028 334.008 120.028C327.017 120.028 321.933 114.313 321.933 107.962Z" fill="#064750"/>
<path d="M290.144 107.962C290.144 101.612 295.228 95.8959 302.219 95.8959C308.574 95.8959 314.293 100.976 314.293 107.962C314.293 114.313 309.209 120.028 302.219 120.028C295.228 120.028 290.144 114.313 290.144 107.962Z" fill="#064750"/>
<path d="M257.744 107.962C257.744 101.612 262.828 95.8959 269.818 95.8959C276.173 95.8959 281.893 100.976 281.893 107.962C281.893 114.313 276.809 120.028 269.818 120.028C263.463 120.028 257.744 114.313 257.744 107.962Z" fill="#064750"/>
<path d="M225.972 107.962C225.972 101.612 231.056 95.8959 238.047 95.8959C244.402 95.8959 250.121 100.976 250.121 107.962C250.121 114.313 245.037 120.028 238.047 120.028C231.056 120.028 225.972 114.313 225.972 107.962Z" fill="#064750"/>
<path d="M193.552 107.962C193.552 101.612 198.636 95.8959 205.627 95.8959C211.982 95.8959 217.701 100.976 217.701 107.962C217.701 114.313 212.617 120.028 205.627 120.028C199.272 120.028 193.552 114.313 193.552 107.962Z" fill="#064750"/>
<path d="M161.781 107.962C161.781 101.612 166.865 95.8959 173.855 95.8959C180.21 95.8959 185.93 100.976 185.93 107.962C185.93 114.313 180.846 120.028 173.855 120.028C166.865 120.028 161.781 114.313 161.781 107.962Z" fill="#064750"/>
<path d="M129.38 107.962C129.38 101.612 134.464 95.8959 141.455 95.8959C147.81 95.8959 153.529 100.976 153.529 107.962C153.529 114.313 148.445 120.028 141.455 120.028C135.1 120.028 129.38 114.313 129.38 107.962Z" fill="#064750"/>
<path d="M97.5893 107.962C97.5893 101.611 102.673 95.8959 109.664 95.8959C116.019 95.8959 121.738 100.976 121.738 107.962C121.738 114.313 116.654 120.028 109.664 120.028C102.673 120.028 97.5893 114.313 97.5893 107.962Z" fill="#064750"/>
<path d="M65.1891 107.962C65.1891 101.611 70.273 95.8959 77.2635 95.8959C83.6185 95.8959 89.3379 100.976 89.3379 107.962C89.3379 114.313 84.254 120.028 77.2635 120.028C70.9085 120.028 65.1891 114.313 65.1891 107.962Z" fill="#064750"/>
<path d="M33.4195 107.962C33.4195 101.611 38.5035 95.8959 45.494 95.8959C51.8489 95.8959 57.5684 100.976 57.5684 107.962C57.5684 114.313 52.4844 120.028 45.494 120.028C38.5035 120.028 33.4195 114.313 33.4195 107.962Z" fill="#064750"/>
<path d="M654.924 64.1419C648.255 64.1419 642.849 69.5442 642.849 76.2082C642.849 82.8723 648.255 88.2745 654.924 88.2745C661.592 88.2745 666.998 82.8723 666.998 76.2082C666.998 69.5442 661.592 64.1419 654.924 64.1419Z" fill="#064750"/>
<path d="M610.449 76.2082C610.449 69.8575 615.533 64.1419 622.523 64.1419C628.878 64.1419 634.598 69.2225 634.598 76.2082C634.598 82.5589 629.514 88.2745 622.523 88.2745C616.168 87.6395 610.449 82.5589 610.449 76.2082Z" fill="#064750"/>
<path d="M590.732 64.1419C584.064 64.1419 578.658 69.5442 578.658 76.2082C578.658 82.8723 584.064 88.2745 590.732 88.2745C597.401 88.2745 602.807 82.8723 602.807 76.2082C602.807 69.5442 597.401 64.1419 590.732 64.1419Z" fill="#064750"/>
<path d="M546.255 76.2082C546.255 69.8575 551.339 64.1419 558.33 64.1419C564.685 64.1419 570.404 69.2225 570.404 76.2082C570.404 82.5589 565.32 88.2745 558.33 88.2745C551.975 87.6395 546.255 82.5589 546.255 76.2082Z" fill="#064750"/>
<path d="M514.488 76.2082C514.488 69.8575 519.572 64.1419 526.562 64.1419C532.917 64.1419 538.637 69.2225 538.637 76.2082C538.637 82.5589 533.553 88.2745 526.562 88.2745C519.572 87.6395 514.488 82.5589 514.488 76.2082Z" fill="#064750"/>
<path d="M494.14 64.1419C487.472 64.1419 482.066 69.5442 482.066 76.2082C482.066 82.8723 487.472 88.2745 494.14 88.2745C500.809 88.2745 506.215 82.8723 506.215 76.2082C506.215 69.5442 500.809 64.1419 494.14 64.1419Z" fill="#064750"/>
<path d="M450.296 76.2082C450.296 69.8575 455.38 64.1419 462.371 64.1419C468.726 64.1419 474.445 69.2225 474.445 76.2082C474.445 82.5589 469.361 88.2745 462.371 88.2745C455.38 87.6395 450.296 82.5589 450.296 76.2082Z" fill="#064750"/>
<path d="M429.969 64.1419C423.3 64.1419 417.894 69.5442 417.894 76.2082C417.894 82.8723 423.3 88.2745 429.969 88.2745C436.637 88.2745 442.043 82.8723 442.043 76.2082C442.043 69.5442 436.637 64.1419 429.969 64.1419Z" fill="#064750"/>
<path d="M386.105 76.2082C386.105 69.8575 391.189 64.1419 398.18 64.1419C404.534 64.1419 410.254 69.2225 410.254 76.2082C410.254 82.5589 405.17 88.2745 398.18 88.2745C391.189 87.6395 386.105 82.5589 386.105 76.2082Z" fill="#064750"/>
<path d="M353.703 76.2082C353.703 69.8575 358.787 64.1419 365.777 64.1419C372.132 64.1419 377.852 69.2225 377.852 76.2082C377.852 82.5589 372.768 88.2745 365.777 88.2745C359.422 87.6395 353.703 82.5589 353.703 76.2082Z" fill="#064750"/>
<path d="M334.008 64.1419C327.339 64.1419 321.933 69.5442 321.933 76.2082C321.933 82.8723 327.339 88.2745 334.008 88.2745C340.676 88.2745 346.082 82.8723 346.082 76.2082C346.082 69.5442 340.676 64.1419 334.008 64.1419Z" fill="#064750"/>
<path d="M290.144 76.2083C290.144 69.8576 295.228 64.142 302.219 64.142C308.574 64.142 314.293 69.2225 314.293 76.2083C314.293 82.559 309.209 88.2746 302.219 88.2746C295.228 87.6395 290.144 82.559 290.144 76.2083Z" fill="#064750"/>
<path d="M269.818 64.142C263.15 64.142 257.744 69.5442 257.744 76.2083C257.744 82.8723 263.15 88.2746 269.818 88.2746C276.487 88.2746 281.893 82.8723 281.893 76.2083C281.893 69.5442 276.487 64.142 269.818 64.142Z" fill="#064750"/>
<path d="M225.972 76.2083C225.972 69.8576 231.056 64.142 238.047 64.142C244.402 64.142 250.121 69.2225 250.121 76.2083C250.121 82.559 245.037 88.2746 238.047 88.2746C231.056 87.6395 225.972 82.559 225.972 76.2083Z" fill="#064750"/>
<path d="M193.552 76.2083C193.552 69.8576 198.636 64.142 205.627 64.142C211.982 64.142 217.701 69.2225 217.701 76.2083C217.701 82.559 212.617 88.2746 205.627 88.2746C199.272 87.6395 193.552 82.559 193.552 76.2083Z" fill="#064750"/>
<path d="M173.855 64.142C167.187 64.142 161.781 69.5442 161.781 76.2083C161.781 82.8723 167.187 88.2746 173.855 88.2746C180.524 88.2746 185.93 82.8723 185.93 76.2083C185.93 69.5442 180.524 64.142 173.855 64.142Z" fill="#064750"/>
<path d="M129.38 76.2083C129.38 69.8576 134.464 64.142 141.455 64.142C147.81 64.142 153.529 69.2225 153.529 76.2083C153.529 82.559 148.445 88.2746 141.455 88.2746C135.1 87.6395 129.38 82.559 129.38 76.2083Z" fill="#064750"/>
<path d="M109.664 64.1419C102.995 64.1419 97.5893 69.5442 97.5893 76.2082C97.5893 82.8723 102.995 88.2745 109.664 88.2745C116.332 88.2745 121.738 82.8723 121.738 76.2082C121.738 69.5442 116.332 64.1419 109.664 64.1419Z" fill="#064750"/>
<path d="M65.1891 76.2082C65.1891 69.8575 70.273 64.1419 77.2635 64.1419C83.6185 64.1419 89.3379 69.2225 89.3379 76.2082C89.3379 82.5589 84.254 88.2745 77.2635 88.2745C70.9085 87.6395 65.1891 82.5589 65.1891 76.2082Z" fill="#064750"/>
<path d="M33.4195 76.2082C33.4195 69.8575 38.5035 64.1419 45.494 64.1419C51.8489 64.1419 57.5684 69.2225 57.5684 76.2082C57.5684 82.5589 52.4844 88.2745 45.494 88.2745C38.5035 87.6395 33.4195 82.5589 33.4195 76.2082Z" fill="#064750"/>
<path d="M0.997674 76.2082C0.997673 69.8575 6.08161 64.1419 13.0721 64.1419C19.427 64.1419 25.1465 69.2225 25.1465 76.2082C25.1465 82.5589 20.0625 88.2745 13.0721 88.2745C6.71711 87.6395 0.997674 82.5589 0.997674 76.2082Z" fill="#064750"/>
<path d="M610.449 43.8202C610.449 37.4695 615.533 31.7539 622.523 31.7539C628.878 31.7539 634.598 36.8344 634.598 43.8202C634.598 50.1708 629.514 55.8864 622.523 55.8864C616.168 55.8864 610.449 50.1708 610.449 43.8202Z" fill="#064750"/>
<path d="M578.658 43.8202C578.658 37.4695 583.742 31.7539 590.732 31.7539C597.087 31.7539 602.807 36.8344 602.807 43.8202C602.807 50.1708 597.723 55.8864 590.732 55.8864C583.742 55.8864 578.658 50.1708 578.658 43.8202Z" fill="#064750"/>
<path d="M546.255 43.8202C546.255 37.4695 551.339 31.7539 558.33 31.7539C564.685 31.7539 570.404 36.8344 570.404 43.8202C570.404 50.1708 565.32 55.8864 558.33 55.8864C551.975 55.8864 546.255 50.1708 546.255 43.8202Z" fill="#064750"/>
<path d="M514.488 43.8202C514.488 37.4695 519.572 31.7539 526.562 31.7539C532.917 31.7539 538.637 36.8344 538.637 43.8202C538.637 50.1708 533.553 55.8864 526.562 55.8864C519.572 55.8864 514.488 50.1708 514.488 43.8202Z" fill="#064750"/>
<path d="M482.066 43.8202C482.066 37.4695 487.15 31.7539 494.14 31.7539C500.495 31.7539 506.215 36.8344 506.215 43.8202C506.215 50.1708 501.131 55.8864 494.14 55.8864C487.785 55.8864 482.066 50.1708 482.066 43.8202Z" fill="#064750"/>
<path d="M450.296 43.8201C450.296 37.4695 455.38 31.7539 462.371 31.7539C468.726 31.7539 474.445 36.8344 474.445 43.8201C474.445 50.1708 469.361 55.8864 462.371 55.8864C455.38 55.8864 450.296 50.1708 450.296 43.8201Z" fill="#064750"/>
<path d="M417.894 43.8201C417.894 37.4695 422.978 31.7539 429.969 31.7539C436.324 31.7539 442.043 36.8344 442.043 43.8201C442.043 50.1708 436.959 55.8864 429.969 55.8864C423.614 55.8864 417.894 50.1708 417.894 43.8201Z" fill="#064750"/>
<path d="M386.105 43.8201C386.105 37.4695 391.189 31.7539 398.18 31.7539C404.534 31.7539 410.254 36.8344 410.254 43.8201C410.254 50.1708 405.17 55.8864 398.18 55.8864C391.189 55.8864 386.105 50.1708 386.105 43.8201Z" fill="#064750"/>
<path d="M353.703 43.8201C353.703 37.4695 358.787 31.7539 365.777 31.7539C372.132 31.7539 377.852 36.8344 377.852 43.8201C377.852 50.1708 372.768 55.8864 365.777 55.8864C359.422 55.8864 353.703 50.1708 353.703 43.8201Z" fill="#064750"/>
<path d="M321.933 43.8201C321.933 37.4695 327.017 31.7539 334.008 31.7539C340.363 31.7539 346.082 36.8344 346.082 43.8201C346.082 50.1708 340.998 55.8864 334.008 55.8864C327.017 55.8864 321.933 50.1708 321.933 43.8201Z" fill="#064750"/>
<path d="M290.144 43.8202C290.144 37.4696 295.228 31.754 302.219 31.754C308.574 31.754 314.293 36.8345 314.293 43.8202C314.293 50.1709 309.209 55.8865 302.219 55.8865C295.228 55.8865 290.144 50.1709 290.144 43.8202Z" fill="#064750"/>
<path d="M257.744 43.8202C257.744 37.4696 262.828 31.754 269.818 31.754C276.173 31.754 281.893 36.8345 281.893 43.8202C281.893 50.1709 276.809 55.8865 269.818 55.8865C263.463 55.8865 257.744 50.1709 257.744 43.8202Z" fill="#064750"/>
<path d="M225.972 43.8202C225.972 37.4696 231.056 31.754 238.047 31.754C244.402 31.754 250.121 36.8345 250.121 43.8202C250.121 50.1709 245.037 55.8865 238.047 55.8865C231.056 55.8865 225.972 50.1709 225.972 43.8202Z" fill="#064750"/>
<path d="M193.552 43.8202C193.552 37.4696 198.636 31.754 205.627 31.754C211.982 31.754 217.701 36.8345 217.701 43.8202C217.701 50.1709 212.617 55.8865 205.627 55.8865C199.272 55.8865 193.552 50.1709 193.552 43.8202Z" fill="#064750"/>
<path d="M161.781 43.8202C161.781 37.4696 166.865 31.754 173.855 31.754C180.21 31.754 185.93 36.8345 185.93 43.8202C185.93 50.1709 180.846 55.8865 173.855 55.8865C166.865 55.8865 161.781 50.1709 161.781 43.8202Z" fill="#064750"/>
<path d="M129.38 43.8202C129.38 37.4696 134.464 31.754 141.455 31.754C147.81 31.754 153.529 36.8345 153.529 43.8202C153.529 50.1709 148.445 55.8865 141.455 55.8865C135.1 55.8865 129.38 50.1709 129.38 43.8202Z" fill="#064750"/>
<path d="M97.5893 43.8202C97.5893 37.4695 102.673 31.7539 109.664 31.7539C116.019 31.7539 121.738 36.8344 121.738 43.8202C121.738 50.1708 116.654 55.8864 109.664 55.8864C102.673 55.8864 97.5893 50.1708 97.5893 43.8202Z" fill="#064750"/>
<path d="M65.1891 43.8202C65.1891 37.4695 70.273 31.7539 77.2635 31.7539C83.6185 31.7539 89.3379 36.8344 89.3379 43.8202C89.3379 50.1708 84.254 55.8864 77.2635 55.8864C70.9085 55.8864 65.1891 50.1708 65.1891 43.8202Z" fill="#064750"/>
<path d="M33.4195 43.8202C33.4195 37.4695 38.5035 31.7539 45.494 31.7539C51.8489 31.7539 57.5684 36.8344 57.5684 43.8202C57.5684 50.1708 52.4844 55.8864 45.494 55.8864C38.5035 55.8864 33.4195 50.1708 33.4195 43.8202Z" fill="#064750"/>
<path d="M0.997733 43.8202C0.997732 37.4695 6.08166 31.7539 13.0721 31.7539C19.4271 31.7539 25.1465 36.8344 25.1465 43.8202C25.1465 50.1708 20.0626 55.8864 13.0721 55.8864C6.71715 55.8864 0.997734 50.1708 0.997733 43.8202Z" fill="#064750"/>
<path d="M610.449 12.0662C610.449 5.71556 615.533 3.57269e-06 622.523 2.96207e-06C628.878 2.40696e-06 634.598 5.0805 634.598 12.0662C634.598 18.4169 629.514 24.1325 622.523 24.1325C616.168 24.1325 610.449 18.4169 610.449 12.0662Z" fill="#064750"/>
<path d="M590.732 2.96207e-06C584.064 3.54457e-06 578.658 5.40222 578.658 12.0662C578.658 18.7302 584.064 24.1325 590.732 24.1325C597.401 24.1325 602.807 18.7302 602.807 12.0662C602.807 5.40221 597.401 2.37957e-06 590.732 2.96207e-06Z" fill="#064750"/>
<path d="M546.255 12.0662C546.255 5.71556 551.339 3.57268e-06 558.33 2.96206e-06C564.685 2.40695e-06 570.404 5.0805 570.404 12.0662C570.404 18.4169 565.32 24.1325 558.33 24.1325C551.975 24.1325 546.255 18.4169 546.255 12.0662Z" fill="#064750"/>
<path d="M450.296 12.0663C450.296 5.71566 455.38 0.000125643 462.371 0.000125032C468.726 0.000124477 474.445 5.08059 474.445 12.0663C474.445 18.4169 469.361 24.1325 462.371 24.1325C455.38 24.1325 450.296 18.4169 450.296 12.0663Z" fill="#064750"/>
<path d="M429.969 0.000125032C423.3 0.000125615 417.894 5.40231 417.894 12.0663C417.894 18.7303 423.3 24.1325 429.969 24.1325C436.637 24.1325 442.043 18.7303 442.043 12.0663C442.043 5.40231 436.637 0.00012445 429.969 0.000125032Z" fill="#064750"/>
<path d="M386.105 12.0663C386.105 5.71566 391.189 0.000125643 398.18 0.000125032C404.534 0.000124477 410.254 5.08059 410.254 12.0663C410.254 18.4169 405.17 24.1325 398.18 24.1325C391.189 24.1325 386.105 18.4169 386.105 12.0663Z" fill="#064750"/>
<path d="M353.703 12.0663C353.703 5.71566 358.787 0.000125643 365.777 0.000125032C372.132 0.000124477 377.852 5.08059 377.852 12.0663C377.852 18.4169 372.768 24.1325 365.777 24.1325C359.422 24.1325 353.703 18.4169 353.703 12.0663Z" fill="#064750"/>
<path d="M334.008 0.000125032C327.339 0.000125615 321.933 5.40231 321.933 12.0663C321.933 18.7303 327.339 24.1325 334.008 24.1325C340.676 24.1325 346.082 18.7303 346.082 12.0663C346.082 5.40231 340.676 0.00012445 334.008 0.000125032Z" fill="#064750"/>
<path d="M290.144 12.0664C290.144 5.71575 295.228 0.000186678 302.219 0.000186068C308.574 0.000185512 314.293 5.08068 314.293 12.0664C314.293 18.4171 309.209 24.1327 302.219 24.1327C295.228 24.1327 290.144 18.4171 290.144 12.0664Z" fill="#064750"/>
<path d="M269.818 0.000186068C263.15 0.00018665 257.744 5.4024 257.744 12.0664C257.744 18.7304 263.15 24.1327 269.818 24.1327C276.487 24.1327 281.893 18.7304 281.893 12.0664C281.893 5.4024 276.487 0.000185485 269.818 0.000186068Z" fill="#064750"/>
<path d="M225.972 12.0664C225.972 5.71575 231.056 0.000186678 238.047 0.000186068C244.402 0.000185512 250.121 5.08068 250.121 12.0664C250.121 18.4171 245.037 24.1327 238.047 24.1327C231.056 24.1327 225.972 18.4171 225.972 12.0664Z" fill="#064750"/>
<path d="M193.552 12.0664C193.552 5.71575 198.636 0.000186678 205.627 0.000186068C211.982 0.000185512 217.701 5.08068 217.701 12.0664C217.701 18.4171 212.617 24.1327 205.627 24.1327C199.272 24.1327 193.552 18.4171 193.552 12.0664Z" fill="#064750"/>
<path d="M173.855 0.000186068C167.187 0.00018665 161.781 5.4024 161.781 12.0664C161.781 18.7304 167.187 24.1327 173.855 24.1327C180.524 24.1327 185.93 18.7304 185.93 12.0664C185.93 5.4024 180.524 0.000185485 173.855 0.000186068Z" fill="#064750"/>
<path d="M129.38 12.0664C129.38 5.71569 134.464 0.000125643 141.455 0.000125032C147.81 0.000124477 153.529 5.08062 153.529 12.0664C153.529 18.417 148.445 24.1326 141.455 24.1326C135.1 24.1326 129.38 18.417 129.38 12.0664Z" fill="#064750"/>
<path d="M109.664 6.39972e-05C102.995 6.45797e-05 97.5893 5.40228 97.5893 12.0663C97.5893 18.7303 102.995 24.1326 109.664 24.1326C116.332 24.1326 121.738 18.7303 121.738 12.0663C121.738 5.40228 116.332 6.34147e-05 109.664 6.39972e-05Z" fill="#064750"/>
<path d="M65.1891 12.0663C65.1891 5.71563 70.273 6.46078e-05 77.2635 6.39972e-05C83.6185 6.34421e-05 89.3379 5.08056 89.3379 12.0663C89.3379 18.417 84.254 24.1326 77.2635 24.1326C70.9085 24.1326 65.1891 18.417 65.1891 12.0663Z" fill="#064750"/>
<path d="M33.4195 12.0663C33.4195 5.71563 38.5035 6.46078e-05 45.494 6.39972e-05C51.8489 6.34421e-05 57.5684 5.08056 57.5684 12.0663C57.5684 18.417 52.4844 24.1326 45.494 24.1326C38.5035 24.1326 33.4195 18.417 33.4195 12.0663Z" fill="#064750"/>
</g>
</svg>
