<svg width="394" height="518" viewBox="0 0 394 518" fill="none" xmlns="http://www.w3.org/2000/svg">
<g opacity="0.05">
<path d="M374.185 189.543C367.666 189.543 361.799 184.333 361.799 177.168C361.799 170.654 367.014 164.792 374.185 164.792C380.703 164.792 386.57 170.003 386.57 177.168C386.57 183.681 380.703 189.543 374.185 189.543Z" fill="#064750"/>
<path d="M374.185 222.11C367.666 222.11 361.799 216.899 361.799 209.735C361.799 203.221 367.014 197.359 374.185 197.359C380.703 197.359 386.57 202.57 386.57 209.735C386.57 216.899 380.703 222.11 374.185 222.11Z" fill="#064750"/>
<path d="M374.185 254.678C367.666 254.678 361.799 249.467 361.799 242.302C361.799 235.789 367.014 229.927 374.185 229.927C380.703 229.927 386.57 235.138 386.57 242.302C386.57 249.467 380.703 254.678 374.185 254.678Z" fill="#064750"/>
<path d="M374.185 287.896C367.666 287.896 361.799 282.686 361.799 275.521C361.799 269.007 367.014 263.145 374.185 263.145C380.703 263.145 386.57 268.356 386.57 275.521C386.57 282.034 380.703 287.896 374.185 287.896Z" fill="#064750"/>
<path d="M374.185 320.464C367.666 320.464 361.799 315.253 361.799 308.089C361.799 301.575 367.014 295.713 374.185 295.713C380.703 295.713 386.57 300.924 386.57 308.089C386.57 315.253 380.703 320.464 374.185 320.464Z" fill="#064750"/>
<path d="M374.185 353.683C367.666 353.683 361.799 348.472 361.799 341.307C361.799 334.794 367.014 328.931 374.185 328.931C380.703 328.931 386.57 334.142 386.57 341.307C386.57 347.821 380.703 353.683 374.185 353.683Z" fill="#064750"/>
<path d="M374.185 386.251C367.666 386.251 361.799 381.04 361.799 373.875C361.799 367.362 367.014 361.499 374.185 361.499C380.703 361.499 386.57 366.71 386.57 373.875C386.57 381.04 380.703 386.251 374.185 386.251Z" fill="#064750"/>
<path d="M374.185 419.469C367.666 419.469 361.799 414.258 361.799 407.093C361.799 400.58 367.014 394.718 374.185 394.718C380.703 394.718 386.57 399.929 386.57 407.093C386.57 413.607 380.703 419.469 374.185 419.469Z" fill="#064750"/>
<path d="M374.185 452.036C367.666 452.036 361.799 446.825 361.799 439.66C361.799 433.147 367.014 427.284 374.185 427.284C380.703 427.284 386.57 432.495 386.57 439.66C386.57 446.825 380.703 452.036 374.185 452.036Z" fill="#064750"/>
<path d="M341.591 189.543C335.072 189.543 329.205 184.333 329.205 177.168C329.205 170.654 334.42 164.792 341.591 164.792C348.11 164.792 353.977 170.003 353.977 177.168C353.325 183.681 348.11 189.543 341.591 189.543Z" fill="#064750"/>
<path d="M341.591 222.11C335.072 222.11 329.205 216.899 329.205 209.735C329.205 203.221 334.42 197.359 341.591 197.359C348.11 197.359 353.977 202.57 353.977 209.735C353.325 216.899 348.11 222.11 341.591 222.11Z" fill="#064750"/>
<path d="M341.591 254.678C335.072 254.678 329.205 249.467 329.205 242.302C329.205 235.789 334.42 229.927 341.591 229.927C348.11 229.927 353.977 235.138 353.977 242.302C353.325 249.467 348.11 254.678 341.591 254.678Z" fill="#064750"/>
<path d="M341.591 287.896C335.072 287.896 329.205 282.686 329.205 275.521C329.205 269.007 334.42 263.145 341.591 263.145C348.11 263.145 353.977 268.356 353.977 275.521C353.325 282.034 348.11 287.896 341.591 287.896Z" fill="#064750"/>
<path d="M341.591 320.464C335.072 320.464 329.205 315.253 329.205 308.089C329.205 301.575 334.42 295.713 341.591 295.713C348.11 295.713 353.977 300.924 353.977 308.089C353.325 315.253 348.11 320.464 341.591 320.464Z" fill="#064750"/>
<path d="M341.591 353.683C335.072 353.683 329.205 348.472 329.205 341.307C329.205 334.794 334.42 328.931 341.591 328.931C348.11 328.931 353.977 334.142 353.977 341.307C353.325 347.821 348.11 353.683 341.591 353.683Z" fill="#064750"/>
<path d="M341.591 386.251C335.072 386.251 329.205 381.04 329.205 373.875C329.205 367.362 334.42 361.499 341.591 361.499C348.11 361.499 353.977 366.71 353.977 373.875C353.325 381.04 348.11 386.251 341.591 386.251Z" fill="#064750"/>
<path d="M341.591 419.469C335.072 419.469 329.205 414.258 329.205 407.093C329.205 400.58 334.42 394.718 341.591 394.718C348.11 394.718 353.977 399.929 353.977 407.093C353.325 413.607 348.11 419.469 341.591 419.469Z" fill="#064750"/>
<path d="M308.345 189.543C301.826 189.543 295.959 184.333 295.959 177.168C295.959 170.654 301.174 164.792 308.345 164.792C314.863 164.792 320.73 170.003 320.73 177.168C320.73 183.681 315.515 189.543 308.345 189.543Z" fill="#064750"/>
<path d="M308.345 222.11C301.826 222.11 295.959 216.899 295.959 209.735C295.959 203.221 301.174 197.359 308.345 197.359C314.863 197.359 320.73 202.57 320.73 209.735C320.73 216.899 315.515 222.11 308.345 222.11Z" fill="#064750"/>
<path d="M308.345 254.678C301.826 254.678 295.959 249.467 295.959 242.302C295.959 235.789 301.174 229.927 308.345 229.927C314.863 229.927 320.73 235.138 320.73 242.302C320.73 249.467 315.515 254.678 308.345 254.678Z" fill="#064750"/>
<path d="M308.345 287.896C301.826 287.896 295.959 282.686 295.959 275.521C295.959 269.007 301.174 263.145 308.345 263.145C314.863 263.145 320.73 268.356 320.73 275.521C320.73 282.034 315.515 287.896 308.345 287.896Z" fill="#064750"/>
<path d="M308.345 320.464C301.826 320.464 295.959 315.253 295.959 308.089C295.959 301.575 301.174 295.713 308.345 295.713C314.863 295.713 320.73 300.924 320.73 308.089C320.73 315.253 315.515 320.464 308.345 320.464Z" fill="#064750"/>
<path d="M308.345 353.683C301.826 353.683 295.959 348.472 295.959 341.307C295.959 334.794 301.174 328.931 308.345 328.931C314.863 328.931 320.73 334.142 320.73 341.307C320.73 347.821 315.515 353.683 308.345 353.683Z" fill="#064750"/>
<path d="M308.345 386.251C301.826 386.251 295.959 381.04 295.959 373.875C295.959 367.362 301.174 361.499 308.345 361.499C314.863 361.499 320.73 366.71 320.73 373.875C320.73 381.04 315.515 386.251 308.345 386.251Z" fill="#064750"/>
<path d="M308.345 419.469C301.826 419.469 295.959 414.258 295.959 407.093C295.959 400.58 301.174 394.718 308.345 394.718C314.863 394.718 320.73 399.929 320.73 407.093C320.73 413.607 315.515 419.469 308.345 419.469Z" fill="#064750"/>
<path d="M263.365 177.168C263.365 184.003 268.91 189.543 275.751 189.543C282.591 189.543 288.137 184.003 288.137 177.168C288.137 170.333 282.591 164.792 275.751 164.792C268.91 164.792 263.365 170.333 263.365 177.168Z" fill="#064750"/>
<path d="M275.751 222.11C269.232 222.11 263.365 216.899 263.365 209.735C263.365 203.221 268.58 197.359 275.751 197.359C282.27 197.359 288.137 202.57 288.137 209.735C288.137 216.899 282.27 222.11 275.751 222.11Z" fill="#064750"/>
<path d="M263.365 242.954C263.365 249.789 268.91 255.33 275.751 255.33C282.591 255.33 288.137 249.789 288.137 242.954C288.137 236.119 282.591 230.579 275.751 230.579C268.91 230.579 263.365 236.119 263.365 242.954Z" fill="#064750"/>
<path d="M275.751 287.896C269.232 287.896 263.365 282.686 263.365 275.521C263.365 269.007 268.58 263.145 275.751 263.145C282.27 263.145 288.137 268.356 288.137 275.521C288.137 282.034 282.27 287.896 275.751 287.896Z" fill="#064750"/>
<path d="M242.505 189.543C235.986 189.543 230.119 184.333 230.119 177.168C230.119 170.654 235.334 164.792 242.505 164.792C249.024 164.792 254.891 170.003 254.891 177.168C254.891 183.681 249.676 189.543 242.505 189.543Z" fill="#064750"/>
<path d="M242.505 222.11C235.986 222.11 230.119 216.899 230.119 209.735C230.119 203.221 235.334 197.359 242.505 197.359C249.024 197.359 254.891 202.57 254.891 209.735C254.891 216.899 249.676 222.11 242.505 222.11Z" fill="#064750"/>
<path d="M242.505 254.678C235.986 254.678 230.119 249.467 230.119 242.302C230.119 235.789 235.334 229.927 242.505 229.927C249.024 229.927 254.891 235.138 254.891 242.302C254.891 249.467 249.676 254.678 242.505 254.678Z" fill="#064750"/>
<path d="M242.505 287.896C235.986 287.896 230.119 282.686 230.119 275.521C230.119 269.007 235.334 263.145 242.505 263.145C249.024 263.145 254.891 268.356 254.891 275.521C254.891 282.034 249.676 287.896 242.505 287.896Z" fill="#064750"/>
<path d="M197.525 177.168C197.525 184.003 203.071 189.543 209.911 189.543C216.752 189.543 222.297 184.003 222.297 177.168C222.297 170.333 216.752 164.792 209.911 164.792C203.071 164.792 197.525 170.333 197.525 177.168Z" fill="#064750"/>
<path d="M209.911 222.11C203.392 222.11 197.525 216.899 197.525 209.735C197.525 203.221 202.74 197.359 209.911 197.359C216.43 197.359 222.297 202.57 222.297 209.735C222.297 216.899 216.43 222.11 209.911 222.11Z" fill="#064750"/>
<path d="M197.525 242.954C197.525 249.789 203.071 255.33 209.911 255.33C216.752 255.33 222.297 249.789 222.297 242.954C222.297 236.119 216.752 230.579 209.911 230.579C203.071 230.579 197.525 236.119 197.525 242.954Z" fill="#064750"/>
<path d="M209.911 287.896C203.392 287.896 197.525 282.686 197.525 275.521C197.525 269.007 202.74 263.145 209.911 263.145C216.43 263.145 222.297 268.356 222.297 275.521C222.297 282.034 216.43 287.896 209.911 287.896Z" fill="#064750"/>
<path d="M176.665 222.11C170.146 222.11 164.279 216.899 164.279 209.735C164.279 203.221 169.494 197.359 176.665 197.359C183.184 197.359 189.051 202.57 189.051 209.735C189.051 216.899 183.836 222.11 176.665 222.11Z" fill="#064750"/>
<path d="M176.665 254.678C170.146 254.678 164.279 249.467 164.279 242.302C164.279 235.789 169.494 229.927 176.665 229.927C183.184 229.927 189.051 235.138 189.051 242.302C189.051 249.467 183.836 254.678 176.665 254.678Z" fill="#064750"/>
<path d="M176.665 287.896C170.146 287.896 164.279 282.686 164.279 275.521C164.279 269.007 169.494 263.145 176.665 263.145C183.184 263.145 189.051 268.356 189.051 275.521C189.051 282.034 183.836 287.896 176.665 287.896Z" fill="#064750"/>
<path d="M144.069 222.11C137.55 222.11 131.684 216.899 131.684 209.735C131.684 203.221 136.899 197.359 144.069 197.359C150.588 197.359 156.455 202.57 156.455 209.735C156.455 216.899 150.588 222.11 144.069 222.11Z" fill="#064750"/>
<path d="M131.684 242.954C131.684 249.789 137.229 255.33 144.069 255.33C150.91 255.33 156.455 249.789 156.455 242.954C156.455 236.119 150.91 230.579 144.069 230.579C137.229 230.579 131.684 236.119 131.684 242.954Z" fill="#064750"/>
<path d="M144.069 287.896C137.55 287.896 131.684 282.686 131.684 275.521C131.684 269.007 136.899 263.145 144.069 263.145C150.588 263.145 156.455 268.356 156.455 275.521C156.455 282.034 150.588 287.896 144.069 287.896Z" fill="#064750"/>
<path d="M110.823 222.11C104.304 222.11 98.4374 216.899 98.4374 209.735C98.4374 203.221 103.653 197.359 110.823 197.359C117.342 197.359 123.209 202.57 123.209 209.735C123.209 216.899 117.994 222.11 110.823 222.11Z" fill="#064750"/>
<path d="M110.823 254.678C104.304 254.678 98.4374 249.467 98.4374 242.302C98.4374 235.789 103.653 229.927 110.823 229.927C117.342 229.927 123.209 235.138 123.209 242.302C123.209 249.467 117.994 254.678 110.823 254.678Z" fill="#064750"/>
<path d="M110.823 287.896C104.304 287.896 98.4374 282.686 98.4374 275.521C98.4374 269.007 103.653 263.145 110.823 263.145C117.342 263.145 123.209 268.356 123.209 275.521C123.209 282.034 117.994 287.896 110.823 287.896Z" fill="#064750"/>
<path d="M78.2295 222.11C71.7107 222.11 65.8438 216.899 65.8438 209.735C65.8438 203.221 71.0589 197.359 78.2295 197.359C84.7483 197.359 90.6152 202.57 90.6152 209.735C90.6152 216.899 84.7483 222.11 78.2295 222.11Z" fill="#064750"/>
<path d="M65.8438 242.954C65.8438 249.789 71.3891 255.33 78.2295 255.33C85.07 255.33 90.6152 249.789 90.6152 242.954C90.6152 236.119 85.07 230.578 78.2295 230.578C71.3891 230.578 65.8438 236.119 65.8438 242.954Z" fill="#064750"/>
<path d="M78.2295 287.896C71.7107 287.896 65.8438 282.686 65.8438 275.521C65.8438 269.007 71.0589 263.145 78.2295 263.145C84.7483 263.145 90.6152 268.356 90.6152 275.521C90.6152 282.034 84.7483 287.896 78.2295 287.896Z" fill="#064750"/>
<path d="M44.9835 254.678C38.4647 254.678 32.5978 249.467 32.5978 242.302C32.5978 235.789 37.8128 229.927 44.9835 229.927C51.5023 229.927 57.3691 235.138 57.3691 242.302C57.3691 249.467 52.1541 254.678 44.9835 254.678Z" fill="#064750"/>
<path d="M44.9835 287.896C38.4647 287.896 32.5978 282.686 32.5978 275.521C32.5978 269.007 37.8128 263.145 44.9835 263.145C51.5023 263.145 57.3691 268.356 57.3691 275.521C57.3691 282.034 52.1541 287.896 44.9835 287.896Z" fill="#064750"/>
<path d="M12.3896 287.896C5.87082 287.896 0.0039073 282.686 0.00390762 275.521C0.0039079 269.007 5.21893 263.145 12.3896 263.145C18.9085 263.145 24.7754 268.356 24.7754 275.521C24.7754 282.034 18.9085 287.896 12.3896 287.896Z" fill="#064750"/>
</g>
</svg>
