<svg width="1440" height="824" viewBox="0 0 1440 824" fill="none" xmlns="http://www.w3.org/2000/svg">
<g opacity="0.05">
<path d="M1423.84 12.3757C1423.84 19.2105 1429.39 24.7513 1436.23 24.7513C1443.07 24.7513 1448.61 19.2105 1448.61 12.3757C1448.61 5.5408 1443.07 3.02619e-05 1436.23 2.99464e-05C1429.39 2.96309e-05 1423.84 5.5408 1423.84 12.3757Z" fill="#064750"/>
<path d="M1436.23 156.325C1429.71 156.325 1423.84 151.114 1423.84 143.949C1423.84 137.436 1429.05 131.574 1436.23 131.574C1442.74 131.574 1448.61 136.785 1448.61 143.949C1447.96 151.114 1442.74 156.325 1436.23 156.325Z" fill="#064750"/>
<path d="M1402.98 57.9709C1396.46 57.9709 1390.59 52.7601 1390.59 45.5953C1390.59 39.0818 1395.81 33.2197 1402.98 33.2197C1409.5 33.2197 1415.37 38.4305 1415.37 45.5953C1415.37 52.1087 1409.5 57.9709 1402.98 57.9709Z" fill="#064750"/>
<path d="M1402.98 90.5376C1396.46 90.5376 1390.59 85.3268 1390.59 78.1619C1390.59 71.6484 1395.81 65.7863 1402.98 65.7863C1409.5 65.7863 1415.37 70.9971 1415.37 78.1619C1415.37 85.3268 1409.5 90.5376 1402.98 90.5376Z" fill="#064750"/>
<path d="M1402.98 123.757C1396.46 123.757 1390.59 118.546 1390.59 111.382C1390.59 104.868 1395.81 99.006 1402.98 99.006C1409.5 99.006 1415.37 104.217 1415.37 111.382C1415.37 117.895 1409.5 123.757 1402.98 123.757Z" fill="#064750"/>
<path d="M1402.98 156.325C1396.46 156.325 1390.59 151.114 1390.59 143.949C1390.59 137.436 1395.81 131.574 1402.98 131.574C1409.5 131.574 1415.37 136.785 1415.37 143.949C1415.37 151.114 1409.5 156.325 1402.98 156.325Z" fill="#064750"/>
<path d="M1402.98 189.543C1396.46 189.543 1390.59 184.333 1390.59 177.168C1390.59 170.654 1395.81 164.792 1402.98 164.792C1409.5 164.792 1415.37 170.003 1415.37 177.168C1415.37 183.681 1409.5 189.543 1402.98 189.543Z" fill="#064750"/>
<path d="M1402.98 222.11C1396.46 222.11 1390.59 216.899 1390.59 209.735C1390.59 203.221 1395.81 197.359 1402.98 197.359C1409.5 197.359 1415.37 202.57 1415.37 209.735C1415.37 216.899 1409.5 222.11 1402.98 222.11Z" fill="#064750"/>
<path d="M1402.98 254.678C1396.46 254.678 1390.59 249.467 1390.59 242.302C1390.59 235.789 1395.81 229.927 1402.98 229.927C1409.5 229.927 1415.37 235.138 1415.37 242.302C1415.37 249.467 1409.5 254.678 1402.98 254.678Z" fill="#064750"/>
<path d="M1370.39 123.757C1363.87 123.757 1358 118.546 1358 111.382C1358 104.868 1363.22 99.006 1370.39 99.006C1376.9 99.006 1382.77 104.217 1382.77 111.382C1382.77 117.895 1376.9 123.757 1370.39 123.757Z" fill="#064750"/>
<path d="M1370.39 156.325C1363.87 156.325 1358 151.114 1358 143.949C1358 137.436 1363.22 131.574 1370.39 131.574C1376.9 131.574 1382.77 136.785 1382.77 143.949C1382.77 151.114 1376.9 156.325 1370.39 156.325Z" fill="#064750"/>
<path d="M1358 177.168C1358 184.003 1363.55 189.543 1370.39 189.543C1377.23 189.543 1382.77 184.003 1382.77 177.168C1382.77 170.333 1377.23 164.792 1370.39 164.792C1363.55 164.792 1358 170.333 1358 177.168Z" fill="#064750"/>
<path d="M1370.39 222.11C1363.87 222.11 1358 216.899 1358 209.735C1358 203.221 1363.22 197.359 1370.39 197.359C1376.9 197.359 1382.77 202.57 1382.77 209.735C1382.77 216.899 1376.9 222.11 1370.39 222.11Z" fill="#064750"/>
<path d="M1358 242.954C1358 249.789 1363.55 255.33 1370.39 255.33C1377.23 255.33 1382.77 249.789 1382.77 242.954C1382.77 236.119 1377.23 230.579 1370.39 230.579C1363.55 230.579 1358 236.119 1358 242.954Z" fill="#064750"/>
<path d="M1370.39 287.896C1363.87 287.896 1358 282.686 1358 275.521C1358 269.007 1363.22 263.145 1370.39 263.145C1376.9 263.145 1382.77 268.356 1382.77 275.521C1382.77 282.034 1376.9 287.896 1370.39 287.896Z" fill="#064750"/>
<path d="M1370.39 320.464C1363.87 320.464 1358 315.253 1358 308.089C1358 301.575 1363.22 295.713 1370.39 295.713C1376.9 295.713 1382.77 300.924 1382.77 308.089C1382.77 315.253 1376.9 320.464 1370.39 320.464Z" fill="#064750"/>
<path d="M1337.14 90.5376C1330.62 90.5376 1324.75 85.3268 1324.75 78.1619C1324.75 71.6484 1329.97 65.7863 1337.14 65.7863C1343.66 65.7863 1349.53 70.9971 1349.53 78.1619C1349.53 85.3268 1344.31 90.5376 1337.14 90.5376Z" fill="#064750"/>
<path d="M1337.14 123.757C1330.62 123.757 1324.75 118.546 1324.75 111.382C1324.75 104.868 1329.97 99.006 1337.14 99.006C1343.66 99.006 1349.53 104.217 1349.53 111.382C1349.53 117.895 1344.31 123.757 1337.14 123.757Z" fill="#064750"/>
<path d="M1337.14 156.325C1330.62 156.325 1324.75 151.114 1324.75 143.949C1324.75 137.436 1329.97 131.574 1337.14 131.574C1343.66 131.574 1349.53 136.785 1349.53 143.949C1349.53 151.114 1344.31 156.325 1337.14 156.325Z" fill="#064750"/>
<path d="M1337.14 189.543C1330.62 189.543 1324.75 184.333 1324.75 177.168C1324.75 170.654 1329.97 164.792 1337.14 164.792C1343.66 164.792 1349.53 170.003 1349.53 177.168C1349.53 183.681 1344.31 189.543 1337.14 189.543Z" fill="#064750"/>
<path d="M1337.14 222.11C1330.62 222.11 1324.75 216.899 1324.75 209.735C1324.75 203.221 1329.97 197.359 1337.14 197.359C1343.66 197.359 1349.53 202.57 1349.53 209.735C1349.53 216.899 1344.31 222.11 1337.14 222.11Z" fill="#064750"/>
<path d="M1337.14 254.678C1330.62 254.678 1324.75 249.467 1324.75 242.302C1324.75 235.789 1329.97 229.927 1337.14 229.927C1343.66 229.927 1349.53 235.138 1349.53 242.302C1349.53 249.467 1344.31 254.678 1337.14 254.678Z" fill="#064750"/>
<path d="M1337.14 287.896C1330.62 287.896 1324.75 282.686 1324.75 275.521C1324.75 269.007 1329.97 263.145 1337.14 263.145C1343.66 263.145 1349.53 268.356 1349.53 275.521C1349.53 282.034 1344.31 287.896 1337.14 287.896Z" fill="#064750"/>
<path d="M1337.14 320.464C1330.62 320.464 1324.75 315.253 1324.75 308.089C1324.75 301.575 1329.97 295.713 1337.14 295.713C1343.66 295.713 1349.53 300.924 1349.53 308.089C1349.53 315.253 1344.31 320.464 1337.14 320.464Z" fill="#064750"/>
<path d="M1337.14 353.683C1330.62 353.683 1324.75 348.472 1324.75 341.307C1324.75 334.794 1329.97 328.931 1337.14 328.931C1343.66 328.931 1349.53 334.142 1349.53 341.307C1349.53 347.821 1344.31 353.683 1337.14 353.683Z" fill="#064750"/>
<path d="M1292.16 78.1619C1292.16 84.9968 1297.71 90.5376 1304.55 90.5376C1311.39 90.5376 1316.93 84.9968 1316.93 78.1619C1316.93 71.3271 1311.39 65.7863 1304.55 65.7863C1297.71 65.7863 1292.16 71.3271 1292.16 78.1619Z" fill="#064750"/>
<path d="M1304.55 123.757C1298.03 123.757 1292.16 118.546 1292.16 111.382C1292.16 104.868 1297.38 99.006 1304.55 99.006C1311.06 99.006 1316.93 104.217 1316.93 111.382C1316.93 117.895 1311.06 123.757 1304.55 123.757Z" fill="#064750"/>
<path d="M1304.55 156.325C1298.03 156.325 1292.16 151.114 1292.16 143.949C1292.16 137.436 1297.38 131.574 1304.55 131.574C1311.06 131.574 1316.93 136.785 1316.93 143.949C1316.93 151.114 1311.06 156.325 1304.55 156.325Z" fill="#064750"/>
<path d="M1292.16 177.168C1292.16 184.003 1297.71 189.543 1304.55 189.543C1311.39 189.543 1316.93 184.003 1316.93 177.168C1316.93 170.333 1311.39 164.792 1304.55 164.792C1297.71 164.792 1292.16 170.333 1292.16 177.168Z" fill="#064750"/>
<path d="M1304.55 222.11C1298.03 222.11 1292.16 216.899 1292.16 209.735C1292.16 203.221 1297.38 197.359 1304.55 197.359C1311.06 197.359 1316.93 202.57 1316.93 209.735C1316.93 216.899 1311.06 222.11 1304.55 222.11Z" fill="#064750"/>
<path d="M1292.16 242.954C1292.16 249.789 1297.71 255.33 1304.55 255.33C1311.39 255.33 1316.93 249.789 1316.93 242.954C1316.93 236.119 1311.39 230.579 1304.55 230.579C1297.71 230.579 1292.16 236.119 1292.16 242.954Z" fill="#064750"/>
<path d="M1304.55 287.896C1298.03 287.896 1292.16 282.686 1292.16 275.521C1292.16 269.007 1297.38 263.145 1304.55 263.145C1311.06 263.145 1316.93 268.356 1316.93 275.521C1316.93 282.034 1311.06 287.896 1304.55 287.896Z" fill="#064750"/>
<path d="M1304.55 320.464C1298.03 320.464 1292.16 315.253 1292.16 308.089C1292.16 301.575 1297.38 295.713 1304.55 295.713C1311.06 295.713 1316.93 300.924 1316.93 308.089C1316.93 315.253 1311.06 320.464 1304.55 320.464Z" fill="#064750"/>
<path d="M1292.16 341.307C1292.16 348.142 1297.71 353.683 1304.55 353.683C1311.39 353.683 1316.93 348.142 1316.93 341.307C1316.93 334.472 1311.39 328.931 1304.55 328.931C1297.71 328.931 1292.16 334.472 1292.16 341.307Z" fill="#064750"/>
<path d="M1304.55 386.25C1298.03 386.25 1292.16 381.04 1292.16 373.875C1292.16 367.361 1297.38 361.499 1304.55 361.499C1311.06 361.499 1316.93 366.71 1316.93 373.875C1316.93 381.04 1311.06 386.25 1304.55 386.25Z" fill="#064750"/>
<path d="M1271.3 90.5376C1264.78 90.5376 1258.91 85.3268 1258.91 78.1619C1258.91 71.6484 1264.13 65.7863 1271.3 65.7863C1277.82 65.7863 1283.69 70.9971 1283.69 78.1619C1283.69 85.3268 1278.47 90.5376 1271.3 90.5376Z" fill="#064750"/>
<path d="M1271.3 123.757C1264.78 123.757 1258.91 118.546 1258.91 111.382C1258.91 104.868 1264.13 99.006 1271.3 99.006C1277.82 99.006 1283.69 104.217 1283.69 111.382C1283.69 117.895 1278.47 123.757 1271.3 123.757Z" fill="#064750"/>
<path d="M1271.3 156.325C1264.78 156.325 1258.91 151.114 1258.91 143.949C1258.91 137.436 1264.13 131.574 1271.3 131.574C1277.82 131.574 1283.69 136.785 1283.69 143.949C1283.69 151.114 1278.47 156.325 1271.3 156.325Z" fill="#064750"/>
<path d="M1271.3 189.543C1264.78 189.543 1258.91 184.333 1258.91 177.168C1258.91 170.654 1264.13 164.792 1271.3 164.792C1277.82 164.792 1283.69 170.003 1283.69 177.168C1283.69 183.681 1278.47 189.543 1271.3 189.543Z" fill="#064750"/>
<path d="M1271.3 222.11C1264.78 222.11 1258.91 216.899 1258.91 209.735C1258.91 203.221 1264.13 197.359 1271.3 197.359C1277.82 197.359 1283.69 202.57 1283.69 209.735C1283.69 216.899 1278.47 222.11 1271.3 222.11Z" fill="#064750"/>
<path d="M1271.3 254.678C1264.78 254.678 1258.91 249.467 1258.91 242.302C1258.91 235.789 1264.13 229.927 1271.3 229.927C1277.82 229.927 1283.69 235.138 1283.69 242.302C1283.69 249.467 1278.47 254.678 1271.3 254.678Z" fill="#064750"/>
<path d="M1271.3 287.896C1264.78 287.896 1258.91 282.686 1258.91 275.521C1258.91 269.007 1264.13 263.145 1271.3 263.145C1277.82 263.145 1283.69 268.356 1283.69 275.521C1283.69 282.034 1278.47 287.896 1271.3 287.896Z" fill="#064750"/>
<path d="M1271.3 320.464C1264.78 320.464 1258.91 315.253 1258.91 308.089C1258.91 301.575 1264.13 295.713 1271.3 295.713C1277.82 295.713 1283.69 300.924 1283.69 308.089C1283.69 315.253 1278.47 320.464 1271.3 320.464Z" fill="#064750"/>
<path d="M1271.3 353.683C1264.78 353.683 1258.91 348.472 1258.91 341.307C1258.91 334.794 1264.13 328.931 1271.3 328.931C1277.82 328.931 1283.69 334.142 1283.69 341.307C1283.69 347.821 1278.47 353.683 1271.3 353.683Z" fill="#064750"/>
<path d="M1271.3 386.25C1264.78 386.25 1258.91 381.04 1258.91 373.875C1258.91 367.361 1264.13 361.499 1271.3 361.499C1277.82 361.499 1283.69 366.71 1283.69 373.875C1283.69 381.04 1278.47 386.25 1271.3 386.25Z" fill="#064750"/>
<path d="M1271.3 419.469C1264.78 419.469 1258.91 414.258 1258.91 407.093C1258.91 400.58 1264.13 394.718 1271.3 394.718C1277.82 394.718 1283.69 399.929 1283.69 407.093C1283.69 413.607 1278.47 419.469 1271.3 419.469Z" fill="#064750"/>
<path d="M1271.3 452.036C1264.78 452.036 1258.91 446.825 1258.91 439.66C1258.91 433.147 1264.13 427.284 1271.3 427.284C1277.82 427.284 1283.69 432.495 1283.69 439.66C1283.69 446.825 1278.47 452.036 1271.3 452.036Z" fill="#064750"/>
<path d="M1271.3 485.256C1264.78 485.256 1258.91 480.046 1258.91 472.881C1258.91 466.367 1264.13 460.505 1271.3 460.505C1277.82 460.505 1283.69 465.716 1283.69 472.881C1283.69 479.394 1278.47 485.256 1271.3 485.256Z" fill="#064750"/>
<path d="M1226.32 78.1619C1226.32 84.9968 1231.87 90.5376 1238.71 90.5376C1245.55 90.5376 1251.09 84.9968 1251.09 78.1619C1251.09 71.3271 1245.55 65.7863 1238.71 65.7863C1231.87 65.7863 1226.32 71.3271 1226.32 78.1619Z" fill="#064750"/>
<path d="M1238.71 123.757C1232.19 123.757 1226.32 118.546 1226.32 111.382C1226.32 104.868 1231.54 99.006 1238.71 99.006C1245.22 99.006 1251.09 104.217 1251.09 111.382C1251.09 117.895 1245.22 123.757 1238.71 123.757Z" fill="#064750"/>
<path d="M1238.71 156.325C1232.19 156.325 1226.32 151.114 1226.32 143.949C1226.32 137.436 1231.54 131.574 1238.71 131.574C1245.22 131.574 1251.09 136.785 1251.09 143.949C1251.09 151.114 1245.22 156.325 1238.71 156.325Z" fill="#064750"/>
<path d="M1226.32 177.168C1226.32 184.003 1231.87 189.543 1238.71 189.543C1245.55 189.543 1251.09 184.003 1251.09 177.168C1251.09 170.333 1245.55 164.792 1238.71 164.792C1231.87 164.792 1226.32 170.333 1226.32 177.168Z" fill="#064750"/>
<path d="M1238.71 222.11C1232.19 222.11 1226.32 216.899 1226.32 209.735C1226.32 203.221 1231.54 197.359 1238.71 197.359C1245.22 197.359 1251.09 202.57 1251.09 209.735C1251.09 216.899 1245.22 222.11 1238.71 222.11Z" fill="#064750"/>
<path d="M1226.32 242.954C1226.32 249.789 1231.87 255.33 1238.71 255.33C1245.55 255.33 1251.09 249.789 1251.09 242.954C1251.09 236.119 1245.55 230.579 1238.71 230.579C1231.87 230.579 1226.32 236.119 1226.32 242.954Z" fill="#064750"/>
<path d="M1238.71 287.896C1232.19 287.896 1226.32 282.686 1226.32 275.521C1226.32 269.007 1231.54 263.145 1238.71 263.145C1245.22 263.145 1251.09 268.356 1251.09 275.521C1251.09 282.034 1245.22 287.896 1238.71 287.896Z" fill="#064750"/>
<path d="M1238.71 320.464C1232.19 320.464 1226.32 315.253 1226.32 308.089C1226.32 301.575 1231.54 295.713 1238.71 295.713C1245.22 295.713 1251.09 300.924 1251.09 308.089C1251.09 315.253 1245.22 320.464 1238.71 320.464Z" fill="#064750"/>
<path d="M1226.32 341.307C1226.32 348.142 1231.87 353.683 1238.71 353.683C1245.55 353.683 1251.09 348.142 1251.09 341.307C1251.09 334.472 1245.55 328.931 1238.71 328.931C1231.87 328.931 1226.32 334.472 1226.32 341.307Z" fill="#064750"/>
<path d="M1238.71 386.25C1232.19 386.25 1226.32 381.04 1226.32 373.875C1226.32 367.361 1231.54 361.499 1238.71 361.499C1245.22 361.499 1251.09 366.71 1251.09 373.875C1251.09 381.04 1245.22 386.25 1238.71 386.25Z" fill="#064750"/>
<path d="M1226.32 407.093C1226.32 413.928 1231.87 419.469 1238.71 419.469C1245.55 419.469 1251.09 413.928 1251.09 407.093C1251.09 400.258 1245.55 394.718 1238.71 394.718C1231.87 394.718 1226.32 400.258 1226.32 407.093Z" fill="#064750"/>
<path d="M1238.71 452.036C1232.19 452.036 1226.32 446.825 1226.32 439.66C1226.32 433.147 1231.54 427.284 1238.71 427.284C1245.22 427.284 1251.09 432.495 1251.09 439.66C1251.09 446.825 1245.22 452.036 1238.71 452.036Z" fill="#064750"/>
<path d="M1238.71 485.256C1232.19 485.256 1226.32 480.046 1226.32 472.881C1226.32 466.367 1231.54 460.505 1238.71 460.505C1245.22 460.505 1251.09 465.716 1251.09 472.881C1251.09 479.394 1245.22 485.256 1238.71 485.256Z" fill="#064750"/>
<path d="M1238.71 517.823C1232.19 517.823 1226.32 512.612 1226.32 505.447C1226.32 498.934 1231.54 493.072 1238.71 493.072C1245.22 493.072 1251.09 498.283 1251.09 505.447C1251.09 512.612 1245.22 517.823 1238.71 517.823Z" fill="#064750"/>
<path d="M1205.46 90.5376C1198.94 90.5376 1193.07 85.3268 1193.07 78.1619C1193.07 71.6484 1198.29 65.7863 1205.46 65.7863C1211.98 65.7863 1217.85 70.9971 1217.85 78.1619C1217.85 85.3268 1212.63 90.5376 1205.46 90.5376Z" fill="#064750"/>
<path d="M1205.46 123.757C1198.94 123.757 1193.07 118.546 1193.07 111.382C1193.07 104.868 1198.29 99.006 1205.46 99.006C1211.98 99.006 1217.85 104.217 1217.85 111.382C1217.85 117.895 1212.63 123.757 1205.46 123.757Z" fill="#064750"/>
<path d="M1205.46 156.325C1198.94 156.325 1193.07 151.114 1193.07 143.949C1193.07 137.436 1198.29 131.574 1205.46 131.574C1211.98 131.574 1217.85 136.785 1217.85 143.949C1217.85 151.114 1212.63 156.325 1205.46 156.325Z" fill="#064750"/>
<path d="M1205.46 189.543C1198.94 189.543 1193.07 184.333 1193.07 177.168C1193.07 170.654 1198.29 164.792 1205.46 164.792C1211.98 164.792 1217.85 170.003 1217.85 177.168C1217.85 183.681 1212.63 189.543 1205.46 189.543Z" fill="#064750"/>
<path d="M1205.46 222.11C1198.94 222.11 1193.07 216.899 1193.07 209.735C1193.07 203.221 1198.29 197.359 1205.46 197.359C1211.98 197.359 1217.85 202.57 1217.85 209.735C1217.85 216.899 1212.63 222.11 1205.46 222.11Z" fill="#064750"/>
<path d="M1205.46 254.678C1198.94 254.678 1193.07 249.467 1193.07 242.302C1193.07 235.789 1198.29 229.927 1205.46 229.927C1211.98 229.927 1217.85 235.138 1217.85 242.302C1217.85 249.467 1212.63 254.678 1205.46 254.678Z" fill="#064750"/>
<path d="M1205.46 287.896C1198.94 287.896 1193.07 282.686 1193.07 275.521C1193.07 269.007 1198.29 263.145 1205.46 263.145C1211.98 263.145 1217.85 268.356 1217.85 275.521C1217.85 282.034 1212.63 287.896 1205.46 287.896Z" fill="#064750"/>
<path d="M1205.46 320.464C1198.94 320.464 1193.07 315.253 1193.07 308.089C1193.07 301.575 1198.29 295.713 1205.46 295.713C1211.98 295.713 1217.85 300.924 1217.85 308.089C1217.85 315.253 1212.63 320.464 1205.46 320.464Z" fill="#064750"/>
<path d="M1205.46 353.683C1198.94 353.683 1193.07 348.472 1193.07 341.307C1193.07 334.794 1198.29 328.931 1205.46 328.931C1211.98 328.931 1217.85 334.142 1217.85 341.307C1217.85 347.821 1212.63 353.683 1205.46 353.683Z" fill="#064750"/>
<path d="M1205.46 386.25C1198.94 386.25 1193.07 381.04 1193.07 373.875C1193.07 367.361 1198.29 361.499 1205.46 361.499C1211.98 361.499 1217.85 366.71 1217.85 373.875C1217.85 381.04 1212.63 386.25 1205.46 386.25Z" fill="#064750"/>
<path d="M1205.46 419.469C1198.94 419.469 1193.07 414.258 1193.07 407.093C1193.07 400.58 1198.29 394.718 1205.46 394.718C1211.98 394.718 1217.85 399.929 1217.85 407.093C1217.85 413.607 1212.63 419.469 1205.46 419.469Z" fill="#064750"/>
<path d="M1205.46 452.036C1198.94 452.036 1193.07 446.825 1193.07 439.66C1193.07 433.147 1198.29 427.284 1205.46 427.284C1211.98 427.284 1217.85 432.495 1217.85 439.66C1217.85 446.825 1212.63 452.036 1205.46 452.036Z" fill="#064750"/>
<path d="M1205.46 485.256C1198.94 485.256 1193.07 480.046 1193.07 472.881C1193.07 466.367 1198.29 460.505 1205.46 460.505C1211.98 460.505 1217.85 465.716 1217.85 472.881C1217.85 479.394 1212.63 485.256 1205.46 485.256Z" fill="#064750"/>
<path d="M1205.46 517.823C1198.94 517.823 1193.07 512.612 1193.07 505.447C1193.07 498.934 1198.29 493.072 1205.46 493.072C1211.98 493.072 1217.85 498.283 1217.85 505.447C1217.85 512.612 1212.63 517.823 1205.46 517.823Z" fill="#064750"/>
<path d="M1172.86 123.757C1166.35 123.757 1160.48 118.546 1160.48 111.382C1160.48 104.868 1165.69 99.006 1172.86 99.006C1179.38 99.006 1185.25 104.217 1185.25 111.382C1185.25 117.895 1179.38 123.757 1172.86 123.757Z" fill="#064750"/>
<path d="M1172.86 156.325C1166.35 156.325 1160.48 151.114 1160.48 143.949C1160.48 137.436 1165.69 131.574 1172.86 131.574C1179.38 131.574 1185.25 136.785 1185.25 143.949C1185.25 151.114 1179.38 156.325 1172.86 156.325Z" fill="#064750"/>
<path d="M1160.48 177.168C1160.48 184.003 1166.02 189.543 1172.86 189.543C1179.7 189.543 1185.25 184.003 1185.25 177.168C1185.25 170.333 1179.7 164.792 1172.86 164.792C1166.02 164.792 1160.48 170.333 1160.48 177.168Z" fill="#064750"/>
<path d="M1172.86 222.11C1166.35 222.11 1160.48 216.899 1160.48 209.735C1160.48 203.221 1165.69 197.359 1172.86 197.359C1179.38 197.359 1185.25 202.57 1185.25 209.735C1185.25 216.899 1179.38 222.11 1172.86 222.11Z" fill="#064750"/>
<path d="M1160.48 242.954C1160.48 249.789 1166.02 255.33 1172.86 255.33C1179.7 255.33 1185.25 249.789 1185.25 242.954C1185.25 236.119 1179.7 230.579 1172.86 230.579C1166.02 230.579 1160.48 236.119 1160.48 242.954Z" fill="#064750"/>
<path d="M1172.86 287.896C1166.35 287.896 1160.48 282.686 1160.48 275.521C1160.48 269.007 1165.69 263.145 1172.86 263.145C1179.38 263.145 1185.25 268.356 1185.25 275.521C1185.25 282.034 1179.38 287.896 1172.86 287.896Z" fill="#064750"/>
<path d="M1172.86 320.464C1166.35 320.464 1160.48 315.253 1160.48 308.089C1160.48 301.575 1165.69 295.713 1172.86 295.713C1179.38 295.713 1185.25 300.924 1185.25 308.089C1185.25 315.253 1179.38 320.464 1172.86 320.464Z" fill="#064750"/>
<path d="M1160.48 341.307C1160.48 348.142 1166.02 353.683 1172.86 353.683C1179.7 353.683 1185.25 348.142 1185.25 341.307C1185.25 334.472 1179.7 328.931 1172.86 328.931C1166.02 328.931 1160.48 334.472 1160.48 341.307Z" fill="#064750"/>
<path d="M1172.86 386.25C1166.35 386.25 1160.48 381.04 1160.48 373.875C1160.48 367.361 1165.69 361.499 1172.86 361.499C1179.38 361.499 1185.25 366.71 1185.25 373.875C1185.25 381.04 1179.38 386.25 1172.86 386.25Z" fill="#064750"/>
<path d="M1160.48 407.093C1160.48 413.928 1166.02 419.469 1172.86 419.469C1179.7 419.469 1185.25 413.928 1185.25 407.093C1185.25 400.258 1179.7 394.718 1172.86 394.718C1166.02 394.718 1160.48 400.258 1160.48 407.093Z" fill="#064750"/>
<path d="M1172.86 452.036C1166.35 452.036 1160.48 446.825 1160.48 439.66C1160.48 433.147 1165.69 427.284 1172.86 427.284C1179.38 427.284 1185.25 432.495 1185.25 439.66C1185.25 446.825 1179.38 452.036 1172.86 452.036Z" fill="#064750"/>
<path d="M1172.86 485.256C1166.35 485.256 1160.48 480.046 1160.48 472.881C1160.48 466.367 1165.69 460.505 1172.86 460.505C1179.38 460.505 1185.25 465.716 1185.25 472.881C1185.25 479.394 1179.38 485.256 1172.86 485.256Z" fill="#064750"/>
<path d="M1172.86 517.823C1166.35 517.823 1160.48 512.612 1160.48 505.447C1160.48 498.934 1165.69 493.072 1172.86 493.072C1179.38 493.072 1185.25 498.283 1185.25 505.447C1185.25 512.612 1179.38 517.823 1172.86 517.823Z" fill="#064750"/>
<path d="M1139.62 123.757C1133.1 123.757 1127.23 118.546 1127.23 111.382C1127.23 104.868 1132.45 99.006 1139.62 99.006C1146.14 99.006 1152 104.217 1152 111.382C1152 117.895 1146.79 123.757 1139.62 123.757Z" fill="#064750"/>
<path d="M1139.62 156.325C1133.1 156.325 1127.23 151.114 1127.23 143.949C1127.23 137.436 1132.45 131.574 1139.62 131.574C1146.14 131.574 1152 136.785 1152 143.949C1152 151.114 1146.79 156.325 1139.62 156.325Z" fill="#064750"/>
<path d="M1139.62 189.543C1133.1 189.543 1127.23 184.333 1127.23 177.168C1127.23 170.654 1132.45 164.792 1139.62 164.792C1146.14 164.792 1152 170.003 1152 177.168C1152 183.681 1146.79 189.543 1139.62 189.543Z" fill="#064750"/>
<path d="M1139.62 222.11C1133.1 222.11 1127.23 216.899 1127.23 209.735C1127.23 203.221 1132.45 197.359 1139.62 197.359C1146.14 197.359 1152 202.57 1152 209.735C1152 216.899 1146.79 222.11 1139.62 222.11Z" fill="#064750"/>
<path d="M1139.62 254.678C1133.1 254.678 1127.23 249.467 1127.23 242.302C1127.23 235.789 1132.45 229.927 1139.62 229.927C1146.14 229.927 1152 235.138 1152 242.302C1152 249.467 1146.79 254.678 1139.62 254.678Z" fill="#064750"/>
<path d="M1139.62 287.896C1133.1 287.896 1127.23 282.686 1127.23 275.521C1127.23 269.007 1132.45 263.145 1139.62 263.145C1146.14 263.145 1152 268.356 1152 275.521C1152 282.034 1146.79 287.896 1139.62 287.896Z" fill="#064750"/>
<path d="M1139.62 320.464C1133.1 320.464 1127.23 315.253 1127.23 308.089C1127.23 301.575 1132.45 295.713 1139.62 295.713C1146.14 295.713 1152 300.924 1152 308.089C1152 315.253 1146.79 320.464 1139.62 320.464Z" fill="#064750"/>
<path d="M1139.62 353.683C1133.1 353.683 1127.23 348.472 1127.23 341.307C1127.23 334.794 1132.45 328.931 1139.62 328.931C1146.14 328.931 1152 334.142 1152 341.307C1152 347.821 1146.79 353.683 1139.62 353.683Z" fill="#064750"/>
<path d="M1139.62 386.25C1133.1 386.25 1127.23 381.04 1127.23 373.875C1127.23 367.361 1132.45 361.499 1139.62 361.499C1146.14 361.499 1152 366.71 1152 373.875C1152 381.04 1146.79 386.25 1139.62 386.25Z" fill="#064750"/>
<path d="M1139.62 419.469C1133.1 419.469 1127.23 414.258 1127.23 407.093C1127.23 400.58 1132.45 394.718 1139.62 394.718C1146.14 394.718 1152 399.929 1152 407.093C1152 413.607 1146.79 419.469 1139.62 419.469Z" fill="#064750"/>
<path d="M1139.62 452.036C1133.1 452.036 1127.23 446.825 1127.23 439.66C1127.23 433.147 1132.45 427.284 1139.62 427.284C1146.14 427.284 1152 432.495 1152 439.66C1152 446.825 1146.79 452.036 1139.62 452.036Z" fill="#064750"/>
<path d="M1139.62 485.256C1133.1 485.256 1127.23 480.046 1127.23 472.881C1127.23 466.367 1132.45 460.505 1139.62 460.505C1146.14 460.505 1152 465.716 1152 472.881C1152 479.394 1146.79 485.256 1139.62 485.256Z" fill="#064750"/>
<path d="M1107.02 189.543C1100.51 189.543 1094.64 184.333 1094.64 177.168C1094.64 170.654 1099.85 164.792 1107.02 164.792C1113.54 164.792 1119.41 170.003 1119.41 177.168C1119.41 183.681 1113.54 189.543 1107.02 189.543Z" fill="#064750"/>
<path d="M1107.02 222.11C1100.51 222.11 1094.64 216.899 1094.64 209.735C1094.64 203.221 1099.85 197.359 1107.02 197.359C1113.54 197.359 1119.41 202.57 1119.41 209.735C1119.41 216.899 1113.54 222.11 1107.02 222.11Z" fill="#064750"/>
<path d="M1107.02 254.678C1100.51 254.678 1094.64 249.467 1094.64 242.302C1094.64 235.789 1099.85 229.927 1107.02 229.927C1113.54 229.927 1119.41 235.138 1119.41 242.302C1119.41 249.467 1113.54 254.678 1107.02 254.678Z" fill="#064750"/>
<path d="M1107.02 287.896C1100.51 287.896 1094.64 282.686 1094.64 275.521C1094.64 269.007 1099.85 263.145 1107.02 263.145C1113.54 263.145 1119.41 268.356 1119.41 275.521C1119.41 282.034 1113.54 287.896 1107.02 287.896Z" fill="#064750"/>
<path d="M1107.02 320.464C1100.51 320.464 1094.64 315.254 1094.64 308.089C1094.64 301.575 1099.85 295.713 1107.02 295.713C1113.54 295.713 1119.41 300.924 1119.41 308.089C1119.41 315.254 1113.54 320.464 1107.02 320.464Z" fill="#064750"/>
<path d="M1107.02 353.683C1100.51 353.683 1094.64 348.472 1094.64 341.307C1094.64 334.794 1099.85 328.931 1107.02 328.931C1113.54 328.931 1119.41 334.142 1119.41 341.307C1119.41 347.821 1113.54 353.683 1107.02 353.683Z" fill="#064750"/>
<path d="M1107.02 386.251C1100.51 386.251 1094.64 381.04 1094.64 373.875C1094.64 367.362 1099.85 361.499 1107.02 361.499C1113.54 361.499 1119.41 366.71 1119.41 373.875C1119.41 381.04 1113.54 386.251 1107.02 386.251Z" fill="#064750"/>
<path d="M1107.02 419.469C1100.51 419.469 1094.64 414.258 1094.64 407.093C1094.64 400.58 1099.85 394.718 1107.02 394.718C1113.54 394.718 1119.41 399.929 1119.41 407.093C1119.41 413.607 1113.54 419.469 1107.02 419.469Z" fill="#064750"/>
<path d="M1107.02 452.036C1100.51 452.036 1094.64 446.825 1094.64 439.66C1094.64 433.147 1099.85 427.284 1107.02 427.284C1113.54 427.284 1119.41 432.495 1119.41 439.66C1119.41 446.825 1113.54 452.036 1107.02 452.036Z" fill="#064750"/>
<path d="M1107.02 485.256C1100.51 485.256 1094.64 480.046 1094.64 472.881C1094.64 466.367 1099.85 460.505 1107.02 460.505C1113.54 460.505 1119.41 465.716 1119.41 472.881C1119.41 479.394 1113.54 485.256 1107.02 485.256Z" fill="#064750"/>
<path d="M1073.78 189.543C1067.26 189.543 1061.39 184.333 1061.39 177.168C1061.39 170.654 1066.61 164.792 1073.78 164.792C1080.3 164.792 1086.16 170.003 1086.16 177.168C1086.16 183.681 1080.95 189.543 1073.78 189.543Z" fill="#064750"/>
<path d="M1073.78 222.11C1067.26 222.11 1061.39 216.899 1061.39 209.735C1061.39 203.221 1066.61 197.359 1073.78 197.359C1080.3 197.359 1086.16 202.57 1086.16 209.735C1086.16 216.899 1080.95 222.11 1073.78 222.11Z" fill="#064750"/>
<path d="M1073.78 254.678C1067.26 254.678 1061.39 249.467 1061.39 242.302C1061.39 235.789 1066.61 229.927 1073.78 229.927C1080.3 229.927 1086.16 235.138 1086.16 242.302C1086.16 249.467 1080.95 254.678 1073.78 254.678Z" fill="#064750"/>
<path d="M1073.78 287.896C1067.26 287.896 1061.39 282.686 1061.39 275.521C1061.39 269.007 1066.61 263.145 1073.78 263.145C1080.3 263.145 1086.16 268.356 1086.16 275.521C1086.16 282.034 1080.95 287.896 1073.78 287.896Z" fill="#064750"/>
<path d="M1073.78 320.464C1067.26 320.464 1061.39 315.253 1061.39 308.089C1061.39 301.575 1066.61 295.713 1073.78 295.713C1080.3 295.713 1086.16 300.924 1086.16 308.089C1086.16 315.253 1080.95 320.464 1073.78 320.464Z" fill="#064750"/>
<path d="M1073.78 353.683C1067.26 353.683 1061.39 348.472 1061.39 341.307C1061.39 334.794 1066.61 328.931 1073.78 328.931C1080.3 328.931 1086.16 334.142 1086.16 341.307C1086.16 347.821 1080.95 353.683 1073.78 353.683Z" fill="#064750"/>
<path d="M1073.78 386.251C1067.26 386.251 1061.39 381.04 1061.39 373.875C1061.39 367.362 1066.61 361.499 1073.78 361.499C1080.3 361.499 1086.16 366.71 1086.16 373.875C1086.16 381.04 1080.95 386.251 1073.78 386.251Z" fill="#064750"/>
<path d="M1073.78 419.469C1067.26 419.469 1061.39 414.258 1061.39 407.093C1061.39 400.58 1066.61 394.718 1073.78 394.718C1080.3 394.718 1086.16 399.929 1086.16 407.093C1086.16 413.607 1080.95 419.469 1073.78 419.469Z" fill="#064750"/>
<path d="M1073.78 452.036C1067.26 452.036 1061.39 446.825 1061.39 439.66C1061.39 433.147 1066.61 427.284 1073.78 427.284C1080.3 427.284 1086.16 432.495 1086.16 439.66C1086.16 446.825 1080.95 452.036 1073.78 452.036Z" fill="#064750"/>
<path d="M1073.78 485.256C1067.26 485.256 1061.39 480.046 1061.39 472.881C1061.39 466.367 1066.61 460.505 1073.78 460.505C1080.3 460.505 1086.16 465.716 1086.16 472.881C1086.16 479.394 1080.95 485.256 1073.78 485.256Z" fill="#064750"/>
<path d="M1041.18 189.543C1034.67 189.543 1028.8 184.333 1028.8 177.168C1028.8 170.654 1034.01 164.792 1041.18 164.792C1047.7 164.792 1053.57 170.003 1053.57 177.168C1053.57 183.681 1047.7 189.543 1041.18 189.543Z" fill="#064750"/>
<path d="M1041.18 222.11C1034.67 222.11 1028.8 216.899 1028.8 209.735C1028.8 203.221 1034.01 197.359 1041.18 197.359C1047.7 197.359 1053.57 202.57 1053.57 209.735C1053.57 216.899 1047.7 222.11 1041.18 222.11Z" fill="#064750"/>
<path d="M1041.18 254.678C1034.67 254.678 1028.8 249.467 1028.8 242.302C1028.8 235.789 1034.01 229.927 1041.18 229.927C1047.7 229.927 1053.57 235.138 1053.57 242.302C1053.57 249.467 1047.7 254.678 1041.18 254.678Z" fill="#064750"/>
<path d="M1041.18 287.896C1034.67 287.896 1028.8 282.686 1028.8 275.521C1028.8 269.007 1034.01 263.145 1041.18 263.145C1047.7 263.145 1053.57 268.356 1053.57 275.521C1053.57 282.034 1047.7 287.896 1041.18 287.896Z" fill="#064750"/>
<path d="M1041.18 320.464C1034.67 320.464 1028.8 315.253 1028.8 308.089C1028.8 301.575 1034.01 295.713 1041.18 295.713C1047.7 295.713 1053.57 300.924 1053.57 308.089C1053.57 315.253 1047.7 320.464 1041.18 320.464Z" fill="#064750"/>
<path d="M1041.18 353.683C1034.67 353.683 1028.8 348.472 1028.8 341.307C1028.8 334.794 1034.01 328.931 1041.18 328.931C1047.7 328.931 1053.57 334.142 1053.57 341.307C1053.57 347.821 1047.7 353.683 1041.18 353.683Z" fill="#064750"/>
<path d="M1041.18 386.251C1034.67 386.251 1028.8 381.04 1028.8 373.875C1028.8 367.362 1034.01 361.499 1041.18 361.499C1047.7 361.499 1053.57 366.71 1053.57 373.875C1053.57 381.04 1047.7 386.251 1041.18 386.251Z" fill="#064750"/>
<path d="M1041.18 419.469C1034.67 419.469 1028.8 414.258 1028.8 407.093C1028.8 400.58 1034.01 394.718 1041.18 394.718C1047.7 394.718 1053.57 399.929 1053.57 407.093C1053.57 413.607 1047.7 419.469 1041.18 419.469Z" fill="#064750"/>
<path d="M1041.18 452.036C1034.67 452.036 1028.8 446.825 1028.8 439.66C1028.8 433.147 1034.01 427.284 1041.18 427.284C1047.7 427.284 1053.57 432.495 1053.57 439.66C1053.57 446.825 1047.7 452.036 1041.18 452.036Z" fill="#064750"/>
<path d="M1008.59 189.543C1002.07 189.543 996.205 184.333 996.205 177.168C996.205 170.654 1001.42 164.792 1008.59 164.792C1015.11 164.792 1020.98 170.003 1020.98 177.168C1020.32 183.681 1015.11 189.543 1008.59 189.543Z" fill="#064750"/>
<path d="M1008.59 222.11C1002.07 222.11 996.205 216.899 996.205 209.735C996.205 203.221 1001.42 197.359 1008.59 197.359C1015.11 197.359 1020.98 202.57 1020.98 209.735C1020.32 216.899 1015.11 222.11 1008.59 222.11Z" fill="#064750"/>
<path d="M1008.59 254.678C1002.07 254.678 996.205 249.467 996.205 242.302C996.205 235.789 1001.42 229.927 1008.59 229.927C1015.11 229.927 1020.98 235.138 1020.98 242.302C1020.32 249.467 1015.11 254.678 1008.59 254.678Z" fill="#064750"/>
<path d="M1008.59 287.896C1002.07 287.896 996.205 282.686 996.205 275.521C996.205 269.007 1001.42 263.145 1008.59 263.145C1015.11 263.145 1020.98 268.356 1020.98 275.521C1020.32 282.034 1015.11 287.896 1008.59 287.896Z" fill="#064750"/>
<path d="M1008.59 320.464C1002.07 320.464 996.205 315.253 996.205 308.089C996.205 301.575 1001.42 295.713 1008.59 295.713C1015.11 295.713 1020.98 300.924 1020.98 308.089C1020.32 315.253 1015.11 320.464 1008.59 320.464Z" fill="#064750"/>
<path d="M1008.59 353.683C1002.07 353.683 996.205 348.472 996.205 341.307C996.205 334.794 1001.42 328.931 1008.59 328.931C1015.11 328.931 1020.98 334.142 1020.98 341.307C1020.32 347.821 1015.11 353.683 1008.59 353.683Z" fill="#064750"/>
<path d="M1008.59 386.251C1002.07 386.251 996.205 381.04 996.205 373.875C996.205 367.362 1001.42 361.499 1008.59 361.499C1015.11 361.499 1020.98 366.71 1020.98 373.875C1020.32 381.04 1015.11 386.251 1008.59 386.251Z" fill="#064750"/>
<path d="M1008.59 419.469C1002.07 419.469 996.205 414.258 996.205 407.093C996.205 400.58 1001.42 394.718 1008.59 394.718C1015.11 394.718 1020.98 399.929 1020.98 407.093C1020.32 413.607 1015.11 419.469 1008.59 419.469Z" fill="#064750"/>
<path d="M975.345 189.543C968.826 189.543 962.959 184.333 962.959 177.168C962.959 170.654 968.174 164.792 975.345 164.792C981.863 164.792 987.73 170.003 987.73 177.168C987.73 183.681 982.515 189.543 975.345 189.543Z" fill="#064750"/>
<path d="M975.345 222.11C968.826 222.11 962.959 216.899 962.959 209.735C962.959 203.221 968.174 197.359 975.345 197.359C981.863 197.359 987.73 202.57 987.73 209.735C987.73 216.899 982.515 222.11 975.345 222.11Z" fill="#064750"/>
<path d="M975.345 254.678C968.826 254.678 962.959 249.467 962.959 242.302C962.959 235.789 968.174 229.927 975.345 229.927C981.863 229.927 987.73 235.138 987.73 242.302C987.73 249.467 982.515 254.678 975.345 254.678Z" fill="#064750"/>
<path d="M975.345 287.896C968.826 287.896 962.959 282.686 962.959 275.521C962.959 269.007 968.174 263.145 975.345 263.145C981.863 263.145 987.73 268.356 987.73 275.521C987.73 282.034 982.515 287.896 975.345 287.896Z" fill="#064750"/>
<path d="M975.345 320.464C968.826 320.464 962.959 315.253 962.959 308.089C962.959 301.575 968.174 295.713 975.345 295.713C981.863 295.713 987.73 300.924 987.73 308.089C987.73 315.253 982.515 320.464 975.345 320.464Z" fill="#064750"/>
<path d="M975.345 353.683C968.826 353.683 962.959 348.472 962.959 341.307C962.959 334.794 968.174 328.931 975.345 328.931C981.863 328.931 987.73 334.142 987.73 341.307C987.73 347.821 982.515 353.683 975.345 353.683Z" fill="#064750"/>
<path d="M975.345 386.251C968.826 386.251 962.959 381.04 962.959 373.875C962.959 367.362 968.174 361.499 975.345 361.499C981.863 361.499 987.73 366.71 987.73 373.875C987.73 381.04 982.515 386.251 975.345 386.251Z" fill="#064750"/>
<path d="M975.345 419.469C968.826 419.469 962.959 414.258 962.959 407.093C962.959 400.58 968.174 394.718 975.345 394.718C981.863 394.718 987.73 399.929 987.73 407.093C987.73 413.607 982.515 419.469 975.345 419.469Z" fill="#064750"/>
<path d="M930.365 177.168C930.365 184.003 935.91 189.543 942.751 189.543C949.591 189.543 955.137 184.003 955.137 177.168C955.137 170.333 949.591 164.792 942.751 164.792C935.91 164.792 930.365 170.333 930.365 177.168Z" fill="#064750"/>
<path d="M942.751 222.11C936.232 222.11 930.365 216.899 930.365 209.735C930.365 203.221 935.58 197.359 942.751 197.359C949.27 197.359 955.137 202.57 955.137 209.735C955.137 216.899 949.27 222.11 942.751 222.11Z" fill="#064750"/>
<path d="M930.365 242.954C930.365 249.789 935.91 255.33 942.751 255.33C949.591 255.33 955.137 249.789 955.137 242.954C955.137 236.119 949.591 230.579 942.751 230.579C935.91 230.579 930.365 236.119 930.365 242.954Z" fill="#064750"/>
<path d="M942.751 287.896C936.232 287.896 930.365 282.686 930.365 275.521C930.365 269.007 935.58 263.145 942.751 263.145C949.27 263.145 955.137 268.356 955.137 275.521C955.137 282.034 949.27 287.896 942.751 287.896Z" fill="#064750"/>
<path d="M909.505 189.543C902.986 189.543 897.119 184.333 897.119 177.168C897.119 170.654 902.334 164.792 909.505 164.792C916.024 164.792 921.891 170.003 921.891 177.168C921.891 183.681 916.676 189.543 909.505 189.543Z" fill="#064750"/>
<path d="M909.505 222.11C902.986 222.11 897.119 216.899 897.119 209.735C897.119 203.221 902.334 197.359 909.505 197.359C916.024 197.359 921.891 202.57 921.891 209.735C921.891 216.899 916.676 222.11 909.505 222.11Z" fill="#064750"/>
<path d="M909.505 254.678C902.986 254.678 897.119 249.467 897.119 242.302C897.119 235.789 902.334 229.927 909.505 229.927C916.024 229.927 921.891 235.138 921.891 242.302C921.891 249.467 916.676 254.678 909.505 254.678Z" fill="#064750"/>
<path d="M909.505 287.896C902.986 287.896 897.119 282.686 897.119 275.521C897.119 269.007 902.334 263.145 909.505 263.145C916.024 263.145 921.891 268.356 921.891 275.521C921.891 282.034 916.676 287.896 909.505 287.896Z" fill="#064750"/>
<path d="M864.525 177.168C864.525 184.003 870.071 189.543 876.911 189.543C883.752 189.543 889.297 184.003 889.297 177.168C889.297 170.333 883.752 164.792 876.911 164.792C870.071 164.792 864.525 170.333 864.525 177.168Z" fill="#064750"/>
<path d="M876.911 222.11C870.392 222.11 864.525 216.899 864.525 209.735C864.525 203.221 869.74 197.359 876.911 197.359C883.43 197.359 889.297 202.57 889.297 209.735C889.297 216.899 883.43 222.11 876.911 222.11Z" fill="#064750"/>
<path d="M864.525 242.954C864.525 249.789 870.071 255.33 876.911 255.33C883.752 255.33 889.297 249.789 889.297 242.954C889.297 236.119 883.752 230.579 876.911 230.579C870.071 230.579 864.525 236.119 864.525 242.954Z" fill="#064750"/>
<path d="M876.911 287.896C870.392 287.896 864.525 282.686 864.525 275.521C864.525 269.007 869.74 263.145 876.911 263.145C883.43 263.145 889.297 268.356 889.297 275.521C889.297 282.034 883.43 287.896 876.911 287.896Z" fill="#064750"/>
<path d="M843.665 222.11C837.146 222.11 831.279 216.899 831.279 209.735C831.279 203.221 836.494 197.359 843.665 197.359C850.184 197.359 856.051 202.57 856.051 209.735C856.051 216.899 850.836 222.11 843.665 222.11Z" fill="#064750"/>
<path d="M843.665 254.678C837.146 254.678 831.279 249.467 831.279 242.302C831.279 235.789 836.494 229.927 843.665 229.927C850.184 229.927 856.051 235.138 856.051 242.302C856.051 249.467 850.836 254.678 843.665 254.678Z" fill="#064750"/>
<path d="M843.665 287.896C837.146 287.896 831.279 282.686 831.279 275.521C831.279 269.007 836.494 263.145 843.665 263.145C850.184 263.145 856.051 268.356 856.051 275.521C856.051 282.034 850.836 287.896 843.665 287.896Z" fill="#064750"/>
<path d="M811.069 222.11C804.55 222.11 798.684 216.899 798.684 209.735C798.684 203.221 803.899 197.359 811.069 197.359C817.588 197.359 823.455 202.57 823.455 209.735C823.455 216.899 817.588 222.11 811.069 222.11Z" fill="#064750"/>
<path d="M798.684 242.954C798.684 249.789 804.229 255.33 811.069 255.33C817.91 255.33 823.455 249.789 823.455 242.954C823.455 236.119 817.91 230.579 811.069 230.579C804.229 230.579 798.684 236.119 798.684 242.954Z" fill="#064750"/>
<path d="M811.069 287.896C804.55 287.896 798.684 282.686 798.684 275.521C798.684 269.007 803.899 263.145 811.069 263.145C817.588 263.145 823.455 268.356 823.455 275.521C823.455 282.034 817.588 287.896 811.069 287.896Z" fill="#064750"/>
<path d="M777.823 222.11C771.304 222.11 765.437 216.899 765.437 209.735C765.437 203.221 770.653 197.359 777.823 197.359C784.342 197.359 790.209 202.57 790.209 209.735C790.209 216.899 784.994 222.11 777.823 222.11Z" fill="#064750"/>
<path d="M777.823 254.678C771.304 254.678 765.437 249.467 765.437 242.302C765.437 235.789 770.653 229.927 777.823 229.927C784.342 229.927 790.209 235.138 790.209 242.302C790.209 249.467 784.994 254.678 777.823 254.678Z" fill="#064750"/>
<path d="M777.823 287.896C771.304 287.896 765.437 282.686 765.437 275.521C765.437 269.007 770.653 263.145 777.823 263.145C784.342 263.145 790.209 268.356 790.209 275.521C790.209 282.034 784.994 287.896 777.823 287.896Z" fill="#064750"/>
<path d="M745.23 222.11C738.711 222.11 732.844 216.899 732.844 209.735C732.844 203.221 738.059 197.359 745.23 197.359C751.748 197.359 757.615 202.57 757.615 209.735C757.615 216.899 751.748 222.11 745.23 222.11Z" fill="#064750"/>
<path d="M732.844 242.954C732.844 249.789 738.389 255.33 745.23 255.33C752.07 255.33 757.615 249.789 757.615 242.954C757.615 236.119 752.07 230.578 745.23 230.578C738.389 230.578 732.844 236.119 732.844 242.954Z" fill="#064750"/>
<path d="M745.23 287.896C738.711 287.896 732.844 282.686 732.844 275.521C732.844 269.007 738.059 263.145 745.23 263.145C751.748 263.145 757.615 268.356 757.615 275.521C757.615 282.034 751.748 287.896 745.23 287.896Z" fill="#064750"/>
<path d="M711.983 254.678C705.465 254.678 699.598 249.467 699.598 242.302C699.598 235.789 704.813 229.927 711.983 229.927C718.502 229.927 724.369 235.138 724.369 242.302C724.369 249.467 719.154 254.678 711.983 254.678Z" fill="#064750"/>
<path d="M711.983 287.896C705.465 287.896 699.598 282.686 699.598 275.521C699.598 269.007 704.813 263.145 711.983 263.145C718.502 263.145 724.369 268.356 724.369 275.521C724.369 282.034 719.154 287.896 711.983 287.896Z" fill="#064750"/>
<path d="M679.39 287.896C672.871 287.896 667.004 282.686 667.004 275.521C667.004 269.007 672.219 263.145 679.39 263.145C685.908 263.145 691.775 268.356 691.775 275.521C691.775 282.034 685.908 287.896 679.39 287.896Z" fill="#064750"/>
</g>
</svg>
