<svg width="402" height="518" viewBox="0 0 402 518" fill="none" xmlns="http://www.w3.org/2000/svg">
<g opacity="0.45">
<path d="M376.838 12.3756C376.838 19.2105 382.383 24.7513 389.224 24.7513C396.064 24.7513 401.609 19.2105 401.609 12.3756C401.609 5.54077 396.064 -2.8618e-07 389.224 -6.392e-07C382.383 -9.92221e-07 376.838 5.54077 376.838 12.3756Z" fill="#064750"/>
<path d="M389.224 156.325C382.705 156.325 376.838 151.114 376.838 143.949C376.838 137.436 382.053 131.574 389.224 131.574C395.742 131.574 401.609 136.784 401.609 143.949C400.957 151.114 395.742 156.325 389.224 156.325Z" fill="#064750"/>
<path d="M355.977 57.9708C349.459 57.9708 343.592 52.76 343.592 45.5952C343.592 39.0817 348.807 33.2196 355.977 33.2196C362.496 33.2196 368.363 38.4304 368.363 45.5952C368.363 52.1086 362.496 57.9708 355.977 57.9708Z" fill="#064750"/>
<path d="M355.977 90.5374C349.459 90.5374 343.592 85.3266 343.592 78.1618C343.592 71.6483 348.807 65.7861 355.977 65.7861C362.496 65.7861 368.363 70.9969 368.363 78.1618C368.363 85.3266 362.496 90.5374 355.977 90.5374Z" fill="#064750"/>
<path d="M355.977 123.757C349.459 123.757 343.592 118.546 343.592 111.381C343.592 104.868 348.807 99.0059 355.977 99.0059C362.496 99.0059 368.363 104.217 368.363 111.381C368.363 117.895 362.496 123.757 355.977 123.757Z" fill="#064750"/>
<path d="M355.977 156.325C349.459 156.325 343.592 151.114 343.592 143.949C343.592 137.436 348.807 131.574 355.977 131.574C362.496 131.574 368.363 136.784 368.363 143.949C368.363 151.114 362.496 156.325 355.977 156.325Z" fill="#064750"/>
<path d="M355.977 189.543C349.459 189.543 343.592 184.333 343.592 177.168C343.592 170.654 348.807 164.792 355.977 164.792C362.496 164.792 368.363 170.003 368.363 177.168C368.363 183.681 362.496 189.543 355.977 189.543Z" fill="#064750"/>
<path d="M355.977 222.11C349.459 222.11 343.592 216.899 343.592 209.735C343.592 203.221 348.807 197.359 355.977 197.359C362.496 197.359 368.363 202.57 368.363 209.735C368.363 216.899 362.496 222.11 355.977 222.11Z" fill="#064750"/>
<path d="M355.977 254.678C349.459 254.678 343.592 249.467 343.592 242.302C343.592 235.789 348.807 229.927 355.977 229.927C362.496 229.927 368.363 235.137 368.363 242.302C368.363 249.467 362.496 254.678 355.977 254.678Z" fill="#064750"/>
<path d="M323.384 123.757C316.865 123.757 310.998 118.546 310.998 111.381C310.998 104.868 316.213 99.0059 323.384 99.0059C329.903 99.0059 335.77 104.217 335.77 111.381C335.77 117.895 329.903 123.757 323.384 123.757Z" fill="#064750"/>
<path d="M323.384 156.325C316.865 156.325 310.998 151.114 310.998 143.949C310.998 137.436 316.213 131.574 323.384 131.574C329.903 131.574 335.77 136.784 335.77 143.949C335.77 151.114 329.903 156.325 323.384 156.325Z" fill="#064750"/>
<path d="M310.998 177.168C310.998 184.003 316.543 189.543 323.384 189.543C330.224 189.543 335.77 184.003 335.77 177.168C335.77 170.333 330.224 164.792 323.384 164.792C316.543 164.792 310.998 170.333 310.998 177.168Z" fill="#064750"/>
<path d="M323.384 222.11C316.865 222.11 310.998 216.899 310.998 209.735C310.998 203.221 316.213 197.359 323.384 197.359C329.903 197.359 335.77 202.57 335.77 209.735C335.77 216.899 329.903 222.11 323.384 222.11Z" fill="#064750"/>
<path d="M310.998 242.954C310.998 249.789 316.543 255.33 323.384 255.33C330.224 255.33 335.77 249.789 335.77 242.954C335.77 236.119 330.224 230.578 323.384 230.578C316.543 230.578 310.998 236.119 310.998 242.954Z" fill="#064750"/>
<path d="M323.384 287.896C316.865 287.896 310.998 282.685 310.998 275.521C310.998 269.007 316.213 263.145 323.384 263.145C329.903 263.145 335.77 268.356 335.77 275.521C335.77 282.034 329.903 287.896 323.384 287.896Z" fill="#064750"/>
<path d="M323.384 320.464C316.865 320.464 310.998 315.253 310.998 308.088C310.998 301.575 316.213 295.713 323.384 295.713C329.903 295.713 335.77 300.924 335.77 308.088C335.77 315.253 329.903 320.464 323.384 320.464Z" fill="#064750"/>
<path d="M290.138 90.5377C283.619 90.5377 277.752 85.3269 277.752 78.162C277.752 71.6485 282.967 65.7864 290.138 65.7864C296.656 65.7864 302.523 70.9972 302.523 78.162C302.523 85.3269 297.308 90.5377 290.138 90.5377Z" fill="#064750"/>
<path d="M290.138 123.757C283.619 123.757 277.752 118.546 277.752 111.382C277.752 104.868 282.967 99.0061 290.138 99.0061C296.656 99.0061 302.523 104.217 302.523 111.382C302.523 117.895 297.308 123.757 290.138 123.757Z" fill="#064750"/>
<path d="M290.138 156.325C283.619 156.325 277.752 151.114 277.752 143.949C277.752 137.436 282.967 131.574 290.138 131.574C296.656 131.574 302.523 136.784 302.523 143.949C302.523 151.114 297.308 156.325 290.138 156.325Z" fill="#064750"/>
<path d="M290.138 189.543C283.619 189.543 277.752 184.333 277.752 177.168C277.752 170.654 282.967 164.792 290.138 164.792C296.656 164.792 302.523 170.003 302.523 177.168C302.523 183.681 297.308 189.543 290.138 189.543Z" fill="#064750"/>
<path d="M290.138 222.11C283.619 222.11 277.752 216.899 277.752 209.735C277.752 203.221 282.967 197.359 290.138 197.359C296.656 197.359 302.523 202.57 302.523 209.735C302.523 216.899 297.308 222.11 290.138 222.11Z" fill="#064750"/>
<path d="M290.138 254.678C283.619 254.678 277.752 249.467 277.752 242.302C277.752 235.789 282.967 229.927 290.138 229.927C296.656 229.927 302.523 235.137 302.523 242.302C302.523 249.467 297.308 254.678 290.138 254.678Z" fill="#064750"/>
<path d="M290.138 287.896C283.619 287.896 277.752 282.685 277.752 275.521C277.752 269.007 282.967 263.145 290.138 263.145C296.656 263.145 302.523 268.356 302.523 275.521C302.523 282.034 297.308 287.896 290.138 287.896Z" fill="#064750"/>
<path d="M290.138 320.464C283.619 320.464 277.752 315.253 277.752 308.088C277.752 301.575 282.967 295.713 290.138 295.713C296.656 295.713 302.523 300.924 302.523 308.088C302.523 315.253 297.308 320.464 290.138 320.464Z" fill="#064750"/>
<path d="M290.138 353.683C283.619 353.683 277.752 348.472 277.752 341.307C277.752 334.794 282.967 328.931 290.138 328.931C296.656 328.931 302.523 334.142 302.523 341.307C302.523 347.821 297.308 353.683 290.138 353.683Z" fill="#064750"/>
<path d="M245.158 78.162C245.158 84.9969 250.703 90.5377 257.544 90.5377C264.384 90.5377 269.93 84.9969 269.93 78.162C269.93 71.3271 264.384 65.7864 257.544 65.7864C250.703 65.7864 245.158 71.3271 245.158 78.162Z" fill="#064750"/>
<path d="M257.544 123.757C251.025 123.757 245.158 118.546 245.158 111.382C245.158 104.868 250.373 99.0061 257.544 99.0061C264.063 99.0061 269.93 104.217 269.93 111.382C269.93 117.895 264.063 123.757 257.544 123.757Z" fill="#064750"/>
<path d="M257.544 156.325C251.025 156.325 245.158 151.114 245.158 143.949C245.158 137.436 250.373 131.574 257.544 131.574C264.063 131.574 269.93 136.784 269.93 143.949C269.93 151.114 264.063 156.325 257.544 156.325Z" fill="#064750"/>
<path d="M245.158 177.168C245.158 184.003 250.703 189.543 257.544 189.543C264.384 189.543 269.93 184.003 269.93 177.168C269.93 170.333 264.384 164.792 257.544 164.792C250.703 164.792 245.158 170.333 245.158 177.168Z" fill="#064750"/>
<path d="M257.544 222.11C251.025 222.11 245.158 216.899 245.158 209.735C245.158 203.221 250.373 197.359 257.544 197.359C264.063 197.359 269.93 202.57 269.93 209.735C269.93 216.899 264.063 222.11 257.544 222.11Z" fill="#064750"/>
<path d="M245.158 242.954C245.158 249.789 250.703 255.33 257.544 255.33C264.384 255.33 269.93 249.789 269.93 242.954C269.93 236.119 264.384 230.578 257.544 230.578C250.703 230.578 245.158 236.119 245.158 242.954Z" fill="#064750"/>
<path d="M257.544 287.896C251.025 287.896 245.158 282.685 245.158 275.521C245.158 269.007 250.373 263.145 257.544 263.145C264.063 263.145 269.93 268.356 269.93 275.521C269.93 282.034 264.063 287.896 257.544 287.896Z" fill="#064750"/>
<path d="M257.544 320.464C251.025 320.464 245.158 315.253 245.158 308.088C245.158 301.575 250.373 295.713 257.544 295.713C264.063 295.713 269.93 300.924 269.93 308.088C269.93 315.253 264.063 320.464 257.544 320.464Z" fill="#064750"/>
<path d="M245.158 341.307C245.158 348.142 250.703 353.683 257.544 353.683C264.384 353.683 269.93 348.142 269.93 341.307C269.93 334.472 264.384 328.931 257.544 328.931C250.703 328.931 245.158 334.472 245.158 341.307Z" fill="#064750"/>
<path d="M257.544 386.25C251.025 386.25 245.158 381.04 245.158 373.875C245.158 367.361 250.373 361.499 257.544 361.499C264.063 361.499 269.93 366.71 269.93 373.875C269.93 381.04 264.063 386.25 257.544 386.25Z" fill="#064750"/>
<path d="M224.298 90.5377C217.779 90.5377 211.912 85.3269 211.912 78.162C211.912 71.6485 217.127 65.7864 224.298 65.7864C230.817 65.7864 236.684 70.9972 236.684 78.162C236.684 85.3269 231.469 90.5377 224.298 90.5377Z" fill="#064750"/>
<path d="M224.298 123.757C217.779 123.757 211.912 118.546 211.912 111.382C211.912 104.868 217.127 99.0061 224.298 99.0061C230.817 99.0061 236.684 104.217 236.684 111.382C236.684 117.895 231.469 123.757 224.298 123.757Z" fill="#064750"/>
<path d="M224.298 156.325C217.779 156.325 211.912 151.114 211.912 143.949C211.912 137.436 217.127 131.574 224.298 131.574C230.817 131.574 236.684 136.784 236.684 143.949C236.684 151.114 231.469 156.325 224.298 156.325Z" fill="#064750"/>
<path d="M224.298 189.543C217.779 189.543 211.912 184.333 211.912 177.168C211.912 170.654 217.127 164.792 224.298 164.792C230.817 164.792 236.684 170.003 236.684 177.168C236.684 183.681 231.469 189.543 224.298 189.543Z" fill="#064750"/>
<path d="M224.298 222.11C217.779 222.11 211.912 216.899 211.912 209.735C211.912 203.221 217.127 197.359 224.298 197.359C230.817 197.359 236.684 202.57 236.684 209.735C236.684 216.899 231.469 222.11 224.298 222.11Z" fill="#064750"/>
<path d="M224.298 254.678C217.779 254.678 211.912 249.467 211.912 242.302C211.912 235.789 217.127 229.927 224.298 229.927C230.817 229.927 236.684 235.138 236.684 242.302C236.684 249.467 231.469 254.678 224.298 254.678Z" fill="#064750"/>
<path d="M224.298 287.896C217.779 287.896 211.912 282.685 211.912 275.521C211.912 269.007 217.127 263.145 224.298 263.145C230.817 263.145 236.684 268.356 236.684 275.521C236.684 282.034 231.469 287.896 224.298 287.896Z" fill="#064750"/>
<path d="M224.298 320.464C217.779 320.464 211.912 315.253 211.912 308.088C211.912 301.575 217.127 295.713 224.298 295.713C230.817 295.713 236.684 300.924 236.684 308.088C236.684 315.253 231.469 320.464 224.298 320.464Z" fill="#064750"/>
<path d="M224.298 353.683C217.779 353.683 211.912 348.472 211.912 341.307C211.912 334.794 217.127 328.931 224.298 328.931C230.817 328.931 236.684 334.142 236.684 341.307C236.684 347.821 231.469 353.683 224.298 353.683Z" fill="#064750"/>
<path d="M224.298 386.25C217.779 386.25 211.912 381.04 211.912 373.875C211.912 367.361 217.127 361.499 224.298 361.499C230.817 361.499 236.684 366.71 236.684 373.875C236.684 381.04 231.469 386.25 224.298 386.25Z" fill="#064750"/>
<path d="M224.298 419.469C217.779 419.469 211.912 414.258 211.912 407.093C211.912 400.58 217.127 394.718 224.298 394.718C230.817 394.718 236.684 399.928 236.684 407.093C236.684 413.607 231.469 419.469 224.298 419.469Z" fill="#064750"/>
<path d="M224.298 452.035C217.779 452.035 211.912 446.825 211.912 439.66C211.912 433.146 217.127 427.284 224.298 427.284C230.817 427.284 236.684 432.495 236.684 439.66C236.684 446.825 231.469 452.035 224.298 452.035Z" fill="#064750"/>
<path d="M224.298 485.256C217.779 485.256 211.912 480.046 211.912 472.881C211.912 466.367 217.127 460.505 224.298 460.505C230.817 460.505 236.684 465.716 236.684 472.881C236.684 479.394 231.469 485.256 224.298 485.256Z" fill="#064750"/>
<path d="M179.318 78.1618C179.318 84.9966 184.864 90.5374 191.704 90.5374C198.545 90.5374 204.09 84.9966 204.09 78.1618C204.09 71.3269 198.545 65.7861 191.704 65.7861C184.864 65.7861 179.318 71.3269 179.318 78.1618Z" fill="#064750"/>
<path d="M191.704 123.757C185.185 123.757 179.318 118.546 179.318 111.381C179.318 104.868 184.533 99.0059 191.704 99.0059C198.223 99.0059 204.09 104.217 204.09 111.381C204.09 117.895 198.223 123.757 191.704 123.757Z" fill="#064750"/>
<path d="M191.704 156.325C185.185 156.325 179.318 151.114 179.318 143.95C179.318 137.436 184.533 131.574 191.704 131.574C198.223 131.574 204.09 136.785 204.09 143.95C204.09 151.114 198.223 156.325 191.704 156.325Z" fill="#064750"/>
<path d="M179.318 177.168C179.318 184.003 184.864 189.543 191.704 189.543C198.545 189.543 204.09 184.003 204.09 177.168C204.09 170.333 198.545 164.792 191.704 164.792C184.864 164.792 179.318 170.333 179.318 177.168Z" fill="#064750"/>
<path d="M191.704 222.11C185.185 222.11 179.318 216.899 179.318 209.735C179.318 203.221 184.533 197.359 191.704 197.359C198.223 197.359 204.09 202.57 204.09 209.735C204.09 216.899 198.223 222.11 191.704 222.11Z" fill="#064750"/>
<path d="M179.318 242.954C179.318 249.789 184.864 255.33 191.704 255.33C198.545 255.33 204.09 249.789 204.09 242.954C204.09 236.119 198.545 230.579 191.704 230.579C184.864 230.579 179.318 236.119 179.318 242.954Z" fill="#064750"/>
<path d="M191.704 287.896C185.185 287.896 179.318 282.685 179.318 275.521C179.318 269.007 184.533 263.145 191.704 263.145C198.223 263.145 204.09 268.356 204.09 275.521C204.09 282.034 198.223 287.896 191.704 287.896Z" fill="#064750"/>
<path d="M191.704 320.464C185.185 320.464 179.318 315.253 179.318 308.088C179.318 301.575 184.533 295.713 191.704 295.713C198.223 295.713 204.09 300.924 204.09 308.088C204.09 315.253 198.223 320.464 191.704 320.464Z" fill="#064750"/>
<path d="M179.318 341.307C179.318 348.142 184.864 353.683 191.704 353.683C198.545 353.683 204.09 348.142 204.09 341.307C204.09 334.472 198.545 328.931 191.704 328.931C184.864 328.931 179.318 334.472 179.318 341.307Z" fill="#064750"/>
<path d="M191.704 386.25C185.185 386.25 179.318 381.04 179.318 373.875C179.318 367.361 184.533 361.499 191.704 361.499C198.223 361.499 204.09 366.71 204.09 373.875C204.09 381.04 198.223 386.25 191.704 386.25Z" fill="#064750"/>
<path d="M179.318 407.093C179.318 413.928 184.864 419.469 191.704 419.469C198.545 419.469 204.09 413.928 204.09 407.093C204.09 400.258 198.545 394.718 191.704 394.718C184.864 394.718 179.318 400.258 179.318 407.093Z" fill="#064750"/>
<path d="M191.704 452.035C185.185 452.035 179.318 446.825 179.318 439.66C179.318 433.146 184.533 427.284 191.704 427.284C198.223 427.284 204.09 432.495 204.09 439.66C204.09 446.825 198.223 452.035 191.704 452.035Z" fill="#064750"/>
<path d="M191.704 485.256C185.185 485.256 179.318 480.046 179.318 472.881C179.318 466.367 184.533 460.505 191.704 460.505C198.223 460.505 204.09 465.716 204.09 472.881C204.09 479.394 198.223 485.256 191.704 485.256Z" fill="#064750"/>
<path d="M191.704 517.823C185.185 517.823 179.318 512.612 179.318 505.447C179.318 498.934 184.533 493.072 191.704 493.072C198.223 493.072 204.09 498.283 204.09 505.447C204.09 512.612 198.223 517.823 191.704 517.823Z" fill="#064750"/>
<path d="M158.458 90.5374C151.939 90.5374 146.072 85.3266 146.072 78.1618C146.072 71.6483 151.287 65.7861 158.458 65.7861C164.977 65.7861 170.844 70.9969 170.844 78.1618C170.844 85.3266 165.629 90.5374 158.458 90.5374Z" fill="#064750"/>
<path d="M158.458 123.757C151.939 123.757 146.072 118.546 146.072 111.381C146.072 104.868 151.287 99.0059 158.458 99.0059C164.977 99.0059 170.844 104.217 170.844 111.381C170.844 117.895 165.629 123.757 158.458 123.757Z" fill="#064750"/>
<path d="M158.458 156.325C151.939 156.325 146.072 151.114 146.072 143.95C146.072 137.436 151.287 131.574 158.458 131.574C164.977 131.574 170.844 136.785 170.844 143.95C170.844 151.114 165.629 156.325 158.458 156.325Z" fill="#064750"/>
<path d="M158.458 189.543C151.939 189.543 146.072 184.333 146.072 177.168C146.072 170.654 151.287 164.792 158.458 164.792C164.977 164.792 170.844 170.003 170.844 177.168C170.844 183.681 165.629 189.543 158.458 189.543Z" fill="#064750"/>
<path d="M158.458 222.11C151.939 222.11 146.072 216.899 146.072 209.735C146.072 203.221 151.287 197.359 158.458 197.359C164.977 197.359 170.844 202.57 170.844 209.735C170.844 216.899 165.629 222.11 158.458 222.11Z" fill="#064750"/>
<path d="M158.458 254.678C151.939 254.678 146.072 249.467 146.072 242.302C146.072 235.789 151.287 229.927 158.458 229.927C164.977 229.927 170.844 235.138 170.844 242.302C170.844 249.467 165.629 254.678 158.458 254.678Z" fill="#064750"/>
<path d="M158.458 287.896C151.939 287.896 146.072 282.685 146.072 275.521C146.072 269.007 151.287 263.145 158.458 263.145C164.977 263.145 170.844 268.356 170.844 275.521C170.844 282.034 165.629 287.896 158.458 287.896Z" fill="#064750"/>
<path d="M158.458 320.464C151.939 320.464 146.072 315.253 146.072 308.088C146.072 301.575 151.287 295.713 158.458 295.713C164.977 295.713 170.844 300.924 170.844 308.088C170.844 315.253 165.629 320.464 158.458 320.464Z" fill="#064750"/>
<path d="M158.458 353.683C151.939 353.683 146.072 348.472 146.072 341.307C146.072 334.794 151.287 328.931 158.458 328.931C164.977 328.931 170.844 334.142 170.844 341.307C170.844 347.821 165.629 353.683 158.458 353.683Z" fill="#064750"/>
<path d="M158.458 386.25C151.939 386.25 146.072 381.04 146.072 373.875C146.072 367.361 151.287 361.499 158.458 361.499C164.977 361.499 170.844 366.71 170.844 373.875C170.844 381.04 165.629 386.25 158.458 386.25Z" fill="#064750"/>
<path d="M158.458 419.469C151.939 419.469 146.072 414.258 146.072 407.093C146.072 400.58 151.287 394.718 158.458 394.718C164.977 394.718 170.844 399.928 170.844 407.093C170.844 413.607 165.629 419.469 158.458 419.469Z" fill="#064750"/>
<path d="M158.458 452.035C151.939 452.035 146.072 446.825 146.072 439.66C146.072 433.146 151.287 427.284 158.458 427.284C164.977 427.284 170.844 432.495 170.844 439.66C170.844 446.825 165.629 452.035 158.458 452.035Z" fill="#064750"/>
<path d="M158.458 485.256C151.939 485.256 146.072 480.046 146.072 472.881C146.072 466.367 151.287 460.505 158.458 460.505C164.977 460.505 170.844 465.716 170.844 472.881C170.844 479.394 165.629 485.256 158.458 485.256Z" fill="#064750"/>
<path d="M158.458 517.823C151.939 517.823 146.072 512.612 146.072 505.447C146.072 498.934 151.287 493.072 158.458 493.072C164.977 493.072 170.844 498.283 170.844 505.447C170.844 512.612 165.629 517.823 158.458 517.823Z" fill="#064750"/>
<path d="M125.86 123.757C119.341 123.757 113.474 118.546 113.474 111.382C113.474 104.868 118.69 99.0061 125.86 99.0061C132.379 99.0061 138.246 104.217 138.246 111.382C138.246 117.895 132.379 123.757 125.86 123.757Z" fill="#064750"/>
<path d="M125.86 156.325C119.341 156.325 113.474 151.114 113.474 143.95C113.474 137.436 118.69 131.574 125.86 131.574C132.379 131.574 138.246 136.785 138.246 143.95C138.246 151.114 132.379 156.325 125.86 156.325Z" fill="#064750"/>
<path d="M113.474 177.168C113.474 184.003 119.02 189.543 125.86 189.543C132.701 189.543 138.246 184.003 138.246 177.168C138.246 170.333 132.701 164.792 125.86 164.792C119.02 164.792 113.474 170.333 113.474 177.168Z" fill="#064750"/>
<path d="M125.86 222.11C119.341 222.11 113.474 216.899 113.474 209.735C113.474 203.221 118.69 197.359 125.86 197.359C132.379 197.359 138.246 202.57 138.246 209.735C138.246 216.899 132.379 222.11 125.86 222.11Z" fill="#064750"/>
<path d="M113.474 242.954C113.474 249.789 119.02 255.33 125.86 255.33C132.701 255.33 138.246 249.789 138.246 242.954C138.246 236.119 132.701 230.579 125.86 230.579C119.02 230.579 113.474 236.119 113.474 242.954Z" fill="#064750"/>
<path d="M125.86 287.896C119.341 287.896 113.474 282.685 113.474 275.521C113.474 269.007 118.69 263.145 125.86 263.145C132.379 263.145 138.246 268.356 138.246 275.521C138.246 282.034 132.379 287.896 125.86 287.896Z" fill="#064750"/>
<path d="M125.86 320.464C119.341 320.464 113.474 315.253 113.474 308.088C113.474 301.575 118.69 295.713 125.86 295.713C132.379 295.713 138.246 300.924 138.246 308.088C138.246 315.253 132.379 320.464 125.86 320.464Z" fill="#064750"/>
<path d="M113.474 341.307C113.474 348.142 119.02 353.683 125.86 353.683C132.701 353.683 138.246 348.142 138.246 341.307C138.246 334.472 132.701 328.931 125.86 328.931C119.02 328.931 113.474 334.472 113.474 341.307Z" fill="#064750"/>
<path d="M125.864 386.25C119.345 386.25 113.478 381.04 113.478 373.875C113.478 367.361 118.693 361.499 125.864 361.499C132.383 361.499 138.25 366.71 138.25 373.875C138.25 381.04 132.383 386.25 125.864 386.25Z" fill="#064750"/>
<path d="M113.478 407.093C113.478 413.928 119.024 419.469 125.864 419.469C132.705 419.469 138.25 413.928 138.25 407.093C138.25 400.258 132.705 394.718 125.864 394.718C119.024 394.718 113.478 400.258 113.478 407.093Z" fill="#064750"/>
<path d="M125.864 452.035C119.345 452.035 113.478 446.825 113.478 439.66C113.478 433.146 118.693 427.284 125.864 427.284C132.383 427.284 138.25 432.495 138.25 439.66C138.25 446.825 132.383 452.035 125.864 452.035Z" fill="#064750"/>
<path d="M125.864 485.256C119.345 485.256 113.478 480.046 113.478 472.881C113.478 466.367 118.693 460.505 125.864 460.505C132.383 460.505 138.25 465.716 138.25 472.881C138.25 479.394 132.383 485.256 125.864 485.256Z" fill="#064750"/>
<path d="M125.864 517.823C119.345 517.823 113.478 512.612 113.478 505.447C113.478 498.934 118.693 493.072 125.864 493.072C132.383 493.072 138.25 498.283 138.25 505.447C138.25 512.612 132.383 517.823 125.864 517.823Z" fill="#064750"/>
<path d="M92.6142 123.757C86.0954 123.757 80.2284 118.546 80.2284 111.382C80.2284 104.868 85.4435 99.0061 92.6142 99.0061C99.1331 99.0061 105 104.217 105 111.382C105 117.895 99.785 123.757 92.6142 123.757Z" fill="#064750"/>
<path d="M92.6142 156.325C86.0954 156.325 80.2284 151.114 80.2284 143.95C80.2284 137.436 85.4435 131.574 92.6142 131.574C99.1331 131.574 105 136.785 105 143.95C105 151.114 99.785 156.325 92.6142 156.325Z" fill="#064750"/>
<path d="M92.6142 189.543C86.0954 189.543 80.2284 184.333 80.2284 177.168C80.2284 170.654 85.4435 164.792 92.6142 164.792C99.1331 164.792 105 170.003 105 177.168C105 183.681 99.785 189.543 92.6142 189.543Z" fill="#064750"/>
<path d="M92.6142 222.11C86.0954 222.11 80.2284 216.899 80.2284 209.735C80.2284 203.221 85.4435 197.359 92.6142 197.359C99.1331 197.359 105 202.57 105 209.735C105 216.899 99.785 222.11 92.6142 222.11Z" fill="#064750"/>
<path d="M92.6142 254.678C86.0954 254.678 80.2284 249.467 80.2284 242.302C80.2284 235.789 85.4435 229.927 92.6142 229.927C99.1331 229.927 105 235.138 105 242.302C105 249.467 99.785 254.678 92.6142 254.678Z" fill="#064750"/>
<path d="M92.6142 287.896C86.0954 287.896 80.2284 282.685 80.2284 275.521C80.2284 269.007 85.4435 263.145 92.6142 263.145C99.1331 263.145 105 268.356 105 275.521C105 282.034 99.785 287.896 92.6142 287.896Z" fill="#064750"/>
<path d="M92.6142 320.464C86.0954 320.464 80.2284 315.253 80.2284 308.088C80.2284 301.575 85.4435 295.713 92.6142 295.713C99.1331 295.713 105 300.924 105 308.088C105 315.253 99.785 320.464 92.6142 320.464Z" fill="#064750"/>
<path d="M92.6142 353.683C86.0954 353.683 80.2284 348.472 80.2284 341.307C80.2284 334.794 85.4435 328.931 92.6142 328.931C99.1331 328.931 105 334.142 105 341.307C105 347.821 99.785 353.683 92.6142 353.683Z" fill="#064750"/>
<path d="M92.6182 386.25C86.0993 386.25 80.2323 381.04 80.2323 373.875C80.2323 367.361 85.4474 361.499 92.6182 361.499C99.137 361.499 105.004 366.71 105.004 373.875C105.004 381.04 99.7889 386.25 92.6182 386.25Z" fill="#064750"/>
<path d="M92.6182 419.469C86.0993 419.469 80.2323 414.258 80.2323 407.093C80.2323 400.58 85.4474 394.718 92.6182 394.718C99.137 394.718 105.004 399.928 105.004 407.093C105.004 413.607 99.7889 419.469 92.6182 419.469Z" fill="#064750"/>
<path d="M92.6182 452.035C86.0993 452.035 80.2323 446.825 80.2323 439.66C80.2323 433.146 85.4474 427.284 92.6182 427.284C99.137 427.284 105.004 432.495 105.004 439.66C105.004 446.825 99.7889 452.035 92.6182 452.035Z" fill="#064750"/>
<path d="M92.6182 485.256C86.0993 485.256 80.2323 480.046 80.2323 472.881C80.2323 466.367 85.4474 460.505 92.6182 460.505C99.137 460.505 105.004 465.716 105.004 472.881C105.004 479.394 99.7889 485.256 92.6182 485.256Z" fill="#064750"/>
<path d="M60.0206 189.543C53.5018 189.543 47.6348 184.333 47.6348 177.168C47.6348 170.654 52.8499 164.792 60.0206 164.792C66.5394 164.792 72.4062 170.003 72.4062 177.168C72.4062 183.681 66.5394 189.543 60.0206 189.543Z" fill="#064750"/>
<path d="M60.0206 222.11C53.5018 222.11 47.6348 216.899 47.6348 209.735C47.6348 203.221 52.8499 197.359 60.0206 197.359C66.5394 197.359 72.4062 202.57 72.4062 209.735C72.4062 216.899 66.5394 222.11 60.0206 222.11Z" fill="#064750"/>
<path d="M60.0206 254.678C53.5018 254.678 47.6348 249.467 47.6348 242.302C47.6348 235.789 52.8499 229.927 60.0206 229.927C66.5394 229.927 72.4062 235.138 72.4062 242.302C72.4062 249.467 66.5394 254.678 60.0206 254.678Z" fill="#064750"/>
<path d="M60.0205 287.896C53.5017 287.896 47.6346 282.686 47.6346 275.521C47.6346 269.007 52.8498 263.145 60.0205 263.145C66.5393 263.145 72.4062 268.356 72.4062 275.521C72.4062 282.034 66.5393 287.896 60.0205 287.896Z" fill="#064750"/>
<path d="M60.0205 320.464C53.5017 320.464 47.6346 315.254 47.6346 308.089C47.6346 301.575 52.8498 295.713 60.0205 295.713C66.5393 295.713 72.4062 300.924 72.4062 308.089C72.4062 315.254 66.5393 320.464 60.0205 320.464Z" fill="#064750"/>
<path d="M60.0205 353.683C53.5017 353.683 47.6346 348.472 47.6346 341.307C47.6346 334.794 52.8498 328.931 60.0205 328.931C66.5393 328.931 72.4062 334.142 72.4062 341.307C72.4062 347.821 66.5393 353.683 60.0205 353.683Z" fill="#064750"/>
<path d="M60.0244 386.25C53.5056 386.25 47.6386 381.04 47.6386 373.875C47.6386 367.361 52.8537 361.499 60.0244 361.499C66.5432 361.499 72.4102 366.71 72.4102 373.875C72.4102 381.04 66.5432 386.25 60.0244 386.25Z" fill="#064750"/>
<path d="M60.0244 419.469C53.5056 419.469 47.6386 414.258 47.6386 407.093C47.6386 400.58 52.8537 394.718 60.0244 394.718C66.5432 394.718 72.4102 399.928 72.4102 407.093C72.4102 413.607 66.5432 419.469 60.0244 419.469Z" fill="#064750"/>
<path d="M60.0244 452.036C53.5056 452.036 47.6386 446.825 47.6386 439.66C47.6386 433.147 52.8537 427.284 60.0244 427.284C66.5432 427.284 72.4102 432.495 72.4102 439.66C72.4102 446.825 66.5432 452.036 60.0244 452.036Z" fill="#064750"/>
<path d="M60.0244 485.256C53.5056 485.256 47.6386 480.046 47.6386 472.881C47.6386 466.367 52.8537 460.505 60.0244 460.505C66.5432 460.505 72.4102 465.716 72.4102 472.881C72.4102 479.394 66.5432 485.256 60.0244 485.256Z" fill="#064750"/>
<path d="M26.7744 189.543C20.2556 189.543 14.3887 184.333 14.3887 177.168C14.3887 170.654 19.6037 164.792 26.7744 164.792C33.2932 164.792 39.1602 170.003 39.1602 177.168C39.1602 183.681 33.9451 189.543 26.7744 189.543Z" fill="#064750"/>
<path d="M26.7744 222.11C20.2556 222.11 14.3887 216.899 14.3887 209.734C14.3887 203.221 19.6037 197.359 26.7744 197.359C33.2932 197.359 39.1602 202.57 39.1602 209.734C39.1602 216.899 33.9451 222.11 26.7744 222.11Z" fill="#064750"/>
<path d="M26.7744 254.678C20.2556 254.678 14.3887 249.467 14.3887 242.302C14.3887 235.789 19.6037 229.927 26.7744 229.927C33.2932 229.927 39.1602 235.137 39.1602 242.302C39.1602 249.467 33.9451 254.678 26.7744 254.678Z" fill="#064750"/>
<path d="M26.7744 287.897C20.2556 287.897 14.3887 282.686 14.3887 275.521C14.3887 269.007 19.6037 263.145 26.7744 263.145C33.2932 263.145 39.1602 268.356 39.1602 275.521C39.1602 282.034 33.9451 287.897 26.7744 287.897Z" fill="#064750"/>
<path d="M26.7744 320.464C20.2556 320.464 14.3887 315.254 14.3887 308.089C14.3887 301.575 19.6037 295.713 26.7744 295.713C33.2932 295.713 39.1602 300.924 39.1602 308.089C39.1602 315.254 33.9451 320.464 26.7744 320.464Z" fill="#064750"/>
<path d="M26.7744 353.683C20.2556 353.683 14.3887 348.472 14.3887 341.307C14.3887 334.794 19.6037 328.931 26.7744 328.931C33.2932 328.931 39.1602 334.142 39.1602 341.307C39.1602 347.821 33.9451 353.683 26.7744 353.683Z" fill="#064750"/>
<path d="M26.7783 386.251C20.2595 386.251 14.3926 381.04 14.3926 373.875C14.3926 367.362 19.6076 361.5 26.7783 361.5C33.2972 361.5 39.1641 366.71 39.1641 373.875C39.1641 381.04 33.949 386.251 26.7783 386.251Z" fill="#064750"/>
<path d="M26.7783 419.469C20.2595 419.469 14.3926 414.258 14.3926 407.093C14.3926 400.58 19.6076 394.718 26.7783 394.718C33.2972 394.718 39.1641 399.929 39.1641 407.093C39.1641 413.607 33.949 419.469 26.7783 419.469Z" fill="#064750"/>
<path d="M26.7783 452.036C20.2595 452.036 14.3926 446.825 14.3926 439.66C14.3926 433.147 19.6076 427.284 26.7783 427.284C33.2972 427.284 39.1641 432.495 39.1641 439.66C39.1641 446.825 33.949 452.036 26.7783 452.036Z" fill="#064750"/>
<path d="M26.7783 485.257C20.2595 485.257 14.3926 480.046 14.3926 472.881C14.3926 466.367 19.6076 460.505 26.7783 460.505C33.2972 460.505 39.1641 465.716 39.1641 472.881C39.1641 479.394 33.949 485.257 26.7783 485.257Z" fill="#064750"/>
<path d="M-5.81934 189.543C-12.3382 189.543 -18.2051 184.333 -18.2051 177.168C-18.2051 170.654 -12.9901 164.792 -5.81933 164.792C0.699497 164.792 6.56641 170.003 6.56641 177.168C6.56641 183.681 0.699496 189.543 -5.81934 189.543Z" fill="#064750"/>
<path d="M-5.81934 222.11C-12.3382 222.11 -18.2051 216.899 -18.2051 209.734C-18.2051 203.221 -12.9901 197.359 -5.81933 197.359C0.699497 197.359 6.56641 202.57 6.56641 209.734C6.56641 216.899 0.699496 222.11 -5.81934 222.11Z" fill="#064750"/>
<path d="M-5.81934 254.678C-12.3382 254.678 -18.2051 249.467 -18.2051 242.302C-18.2051 235.789 -12.9901 229.927 -5.81933 229.927C0.699497 229.927 6.56641 235.137 6.56641 242.302C6.56641 249.467 0.699496 254.678 -5.81934 254.678Z" fill="#064750"/>
<path d="M-5.81934 287.897C-12.3382 287.897 -18.2051 282.686 -18.2051 275.521C-18.2051 269.007 -12.9901 263.145 -5.81933 263.145C0.699497 263.145 6.56641 268.356 6.56641 275.521C6.56641 282.034 0.699496 287.897 -5.81934 287.897Z" fill="#064750"/>
<path d="M-5.81934 320.464C-12.3382 320.464 -18.2051 315.254 -18.2051 308.089C-18.2051 301.575 -12.9901 295.713 -5.81933 295.713C0.699497 295.713 6.56641 300.924 6.56641 308.089C6.56641 315.254 0.699496 320.464 -5.81934 320.464Z" fill="#064750"/>
<path d="M-5.81934 353.683C-12.3382 353.683 -18.2051 348.472 -18.2051 341.307C-18.2051 334.794 -12.9901 328.931 -5.81933 328.931C0.699497 328.931 6.56641 334.142 6.56641 341.307C6.56641 347.821 0.699496 353.683 -5.81934 353.683Z" fill="#064750"/>
<path d="M-5.81543 386.251C-12.3343 386.251 -18.2012 381.04 -18.2012 373.875C-18.2012 367.362 -12.9861 361.5 -5.81543 361.5C0.703403 361.5 6.57031 366.71 6.57031 373.875C6.57031 381.04 0.703402 386.251 -5.81543 386.251Z" fill="#064750"/>
<path d="M-5.81543 419.469C-12.3343 419.469 -18.2012 414.258 -18.2012 407.093C-18.2012 400.58 -12.9861 394.718 -5.81543 394.718C0.703403 394.718 6.57031 399.929 6.57031 407.093C6.57031 413.607 0.703402 419.469 -5.81543 419.469Z" fill="#064750"/>
<path d="M-5.81543 452.036C-12.3343 452.036 -18.2012 446.825 -18.2012 439.66C-18.2012 433.147 -12.9861 427.284 -5.81543 427.284C0.703403 427.284 6.57031 432.495 6.57031 439.66C6.57031 446.825 0.703402 452.036 -5.81543 452.036Z" fill="#064750"/>
</g>
</svg>
