<svg width="325" height="518" viewBox="0 0 325 518" fill="none" xmlns="http://www.w3.org/2000/svg">
<g opacity="0.35">
<path d="M24.7716 12.3756C24.7716 19.2105 19.2263 24.7513 12.3858 24.7513C5.54532 24.7513 7.11239e-07 19.2105 4.58188e-07 12.3756C2.05138e-07 5.54077 5.54532 -2.8618e-07 12.3858 -6.392e-07C19.2263 -9.92221e-07 24.7716 5.54077 24.7716 12.3756Z" fill="#064750"/>
<path d="M12.3858 156.325C18.9046 156.325 24.7716 151.114 24.7716 143.949C24.7716 137.436 19.5565 131.574 12.3858 131.574C5.86696 131.574 2.27956e-07 136.784 5.41398e-07 143.949C0.651885 151.114 5.86696 156.325 12.3858 156.325Z" fill="#064750"/>
<path d="M45.6319 57.9708C52.1507 57.9708 58.0177 52.76 58.0177 45.5952C58.0177 39.0817 52.8026 33.2196 45.6319 33.2196C39.1131 33.2196 33.2461 38.4304 33.2461 45.5952C33.2461 52.1086 39.1131 57.9708 45.6319 57.9708Z" fill="#064750"/>
<path d="M45.6319 90.5374C52.1507 90.5374 58.0177 85.3266 58.0177 78.1618C58.0177 71.6483 52.8026 65.7861 45.6319 65.7861C39.1131 65.7861 33.2461 70.9969 33.2461 78.1618C33.2461 85.3266 39.1131 90.5374 45.6319 90.5374Z" fill="#064750"/>
<path d="M45.6319 123.757C52.1507 123.757 58.0177 118.546 58.0177 111.381C58.0177 104.868 52.8026 99.0059 45.6319 99.0059C39.1131 99.0059 33.2461 104.217 33.2461 111.381C33.2461 117.895 39.1131 123.757 45.6319 123.757Z" fill="#064750"/>
<path d="M45.6319 156.325C52.1507 156.325 58.0177 151.114 58.0177 143.949C58.0177 137.436 52.8026 131.574 45.6319 131.574C39.1131 131.574 33.2461 136.784 33.2461 143.949C33.2461 151.114 39.1131 156.325 45.6319 156.325Z" fill="#064750"/>
<path d="M45.6319 189.543C52.1507 189.543 58.0177 184.333 58.0177 177.168C58.0177 170.654 52.8026 164.792 45.6319 164.792C39.1131 164.792 33.2461 170.003 33.2461 177.168C33.2461 183.681 39.1131 189.543 45.6319 189.543Z" fill="#064750"/>
<path d="M45.6319 222.11C52.1507 222.11 58.0177 216.899 58.0177 209.735C58.0177 203.221 52.8026 197.359 45.6319 197.359C39.1131 197.359 33.2461 202.57 33.2461 209.735C33.2461 216.899 39.1131 222.11 45.6319 222.11Z" fill="#064750"/>
<path d="M45.6319 254.678C52.1507 254.678 58.0177 249.467 58.0177 242.302C58.0177 235.789 52.8026 229.927 45.6319 229.927C39.1131 229.927 33.2461 235.137 33.2461 242.302C33.2461 249.467 39.1131 254.678 45.6319 254.678Z" fill="#064750"/>
<path d="M78.2256 123.757C84.7444 123.757 90.6113 118.546 90.6113 111.381C90.6113 104.868 85.3963 99.0059 78.2256 99.0059C71.7068 99.0059 65.8398 104.217 65.8398 111.381C65.8398 117.895 71.7068 123.757 78.2256 123.757Z" fill="#064750"/>
<path d="M78.2256 156.325C84.7444 156.325 90.6113 151.114 90.6113 143.949C90.6113 137.436 85.3963 131.574 78.2256 131.574C71.7068 131.574 65.8398 136.784 65.8398 143.949C65.8398 151.114 71.7068 156.325 78.2256 156.325Z" fill="#064750"/>
<path d="M90.6113 177.168C90.6113 184.003 85.0661 189.543 78.2256 189.543C71.3851 189.543 65.8398 184.003 65.8398 177.168C65.8398 170.333 71.3851 164.792 78.2256 164.792C85.0661 164.792 90.6113 170.333 90.6113 177.168Z" fill="#064750"/>
<path d="M78.2256 222.11C84.7444 222.11 90.6113 216.899 90.6113 209.735C90.6113 203.221 85.3963 197.359 78.2256 197.359C71.7068 197.359 65.8398 202.57 65.8398 209.735C65.8398 216.899 71.7068 222.11 78.2256 222.11Z" fill="#064750"/>
<path d="M90.6113 242.954C90.6113 249.789 85.0661 255.33 78.2256 255.33C71.3851 255.33 65.8398 249.789 65.8398 242.954C65.8398 236.119 71.3851 230.578 78.2256 230.578C85.0661 230.578 90.6113 236.119 90.6113 242.954Z" fill="#064750"/>
<path d="M78.2256 287.896C84.7444 287.896 90.6113 282.685 90.6113 275.521C90.6113 269.007 85.3963 263.145 78.2256 263.145C71.7068 263.145 65.8398 268.356 65.8398 275.521C65.8398 282.034 71.7068 287.896 78.2256 287.896Z" fill="#064750"/>
<path d="M78.2256 320.464C84.7444 320.464 90.6113 315.253 90.6113 308.088C90.6113 301.575 85.3963 295.713 78.2256 295.713C71.7068 295.713 65.8398 300.924 65.8398 308.088C65.8398 315.253 71.7068 320.464 78.2256 320.464Z" fill="#064750"/>
<path d="M111.472 90.5377C117.991 90.5377 123.858 85.3269 123.858 78.162C123.858 71.6485 118.643 65.7864 111.472 65.7864C104.953 65.7864 99.0859 70.9972 99.0859 78.162C99.0859 85.3269 104.301 90.5377 111.472 90.5377Z" fill="#064750"/>
<path d="M111.472 123.757C117.991 123.757 123.858 118.546 123.858 111.382C123.858 104.868 118.643 99.006 111.472 99.006C104.953 99.006 99.0859 104.217 99.0859 111.382C99.0859 117.895 104.301 123.757 111.472 123.757Z" fill="#064750"/>
<path d="M111.472 156.325C117.991 156.325 123.858 151.114 123.858 143.949C123.858 137.436 118.643 131.574 111.472 131.574C104.953 131.574 99.0859 136.784 99.0859 143.949C99.0859 151.114 104.301 156.325 111.472 156.325Z" fill="#064750"/>
<path d="M111.472 189.543C117.991 189.543 123.858 184.333 123.858 177.168C123.858 170.654 118.643 164.792 111.472 164.792C104.953 164.792 99.0859 170.003 99.0859 177.168C99.0859 183.681 104.301 189.543 111.472 189.543Z" fill="#064750"/>
<path d="M111.472 222.11C117.991 222.11 123.858 216.899 123.858 209.735C123.858 203.221 118.643 197.359 111.472 197.359C104.953 197.359 99.0859 202.57 99.0859 209.735C99.0859 216.899 104.301 222.11 111.472 222.11Z" fill="#064750"/>
<path d="M111.472 254.678C117.991 254.678 123.858 249.467 123.858 242.302C123.858 235.789 118.643 229.927 111.472 229.927C104.953 229.927 99.0859 235.137 99.0859 242.302C99.0859 249.467 104.301 254.678 111.472 254.678Z" fill="#064750"/>
<path d="M111.472 287.896C117.991 287.896 123.858 282.685 123.858 275.521C123.858 269.007 118.643 263.145 111.472 263.145C104.953 263.145 99.0859 268.356 99.0859 275.521C99.0859 282.034 104.301 287.896 111.472 287.896Z" fill="#064750"/>
<path d="M111.472 320.464C117.991 320.464 123.858 315.253 123.858 308.088C123.858 301.575 118.643 295.713 111.472 295.713C104.953 295.713 99.0859 300.924 99.0859 308.088C99.0859 315.253 104.301 320.464 111.472 320.464Z" fill="#064750"/>
<path d="M111.472 353.683C117.991 353.683 123.858 348.472 123.858 341.307C123.858 334.794 118.643 328.931 111.472 328.931C104.953 328.931 99.0859 334.142 99.0859 341.307C99.0859 347.821 104.301 353.683 111.472 353.683Z" fill="#064750"/>
<path d="M156.451 78.162C156.451 84.9969 150.906 90.5377 144.066 90.5377C137.225 90.5377 131.68 84.9969 131.68 78.162C131.68 71.3271 137.225 65.7864 144.066 65.7864C150.906 65.7864 156.451 71.3271 156.451 78.162Z" fill="#064750"/>
<path d="M144.066 123.757C150.584 123.757 156.451 118.546 156.451 111.382C156.451 104.868 151.236 99.006 144.066 99.006C137.547 99.006 131.68 104.217 131.68 111.382C131.68 117.895 137.547 123.757 144.066 123.757Z" fill="#064750"/>
<path d="M144.066 156.325C150.584 156.325 156.451 151.114 156.451 143.949C156.451 137.436 151.236 131.574 144.066 131.574C137.547 131.574 131.68 136.784 131.68 143.949C131.68 151.114 137.547 156.325 144.066 156.325Z" fill="#064750"/>
<path d="M156.451 177.168C156.451 184.003 150.906 189.543 144.066 189.543C137.225 189.543 131.68 184.003 131.68 177.168C131.68 170.333 137.225 164.792 144.066 164.792C150.906 164.792 156.451 170.333 156.451 177.168Z" fill="#064750"/>
<path d="M144.066 222.11C150.584 222.11 156.451 216.899 156.451 209.735C156.451 203.221 151.236 197.359 144.066 197.359C137.547 197.359 131.68 202.57 131.68 209.735C131.68 216.899 137.547 222.11 144.066 222.11Z" fill="#064750"/>
<path d="M156.451 242.954C156.451 249.789 150.906 255.33 144.066 255.33C137.225 255.33 131.68 249.789 131.68 242.954C131.68 236.119 137.225 230.578 144.066 230.578C150.906 230.578 156.451 236.119 156.451 242.954Z" fill="#064750"/>
<path d="M144.066 287.896C150.584 287.896 156.451 282.685 156.451 275.521C156.451 269.007 151.236 263.145 144.066 263.145C137.547 263.145 131.68 268.356 131.68 275.521C131.68 282.034 137.547 287.896 144.066 287.896Z" fill="#064750"/>
<path d="M144.066 320.464C150.584 320.464 156.451 315.253 156.451 308.088C156.451 301.575 151.236 295.713 144.066 295.713C137.547 295.713 131.68 300.924 131.68 308.088C131.68 315.253 137.547 320.464 144.066 320.464Z" fill="#064750"/>
<path d="M156.451 341.307C156.451 348.142 150.906 353.683 144.066 353.683C137.225 353.683 131.68 348.142 131.68 341.307C131.68 334.472 137.225 328.931 144.066 328.931C150.906 328.931 156.451 334.472 156.451 341.307Z" fill="#064750"/>
<path d="M144.066 386.25C150.584 386.25 156.451 381.04 156.451 373.875C156.451 367.361 151.236 361.499 144.066 361.499C137.547 361.499 131.68 366.71 131.68 373.875C131.68 381.04 137.547 386.25 144.066 386.25Z" fill="#064750"/>
<path d="M177.312 90.5377C183.83 90.5377 189.697 85.3269 189.697 78.162C189.697 71.6485 184.482 65.7864 177.312 65.7864C170.793 65.7864 164.926 70.9972 164.926 78.162C164.926 85.3269 170.141 90.5377 177.312 90.5377Z" fill="#064750"/>
<path d="M177.312 123.757C183.83 123.757 189.697 118.546 189.697 111.382C189.697 104.868 184.482 99.006 177.312 99.006C170.793 99.006 164.926 104.217 164.926 111.382C164.926 117.895 170.141 123.757 177.312 123.757Z" fill="#064750"/>
<path d="M177.312 156.325C183.83 156.325 189.697 151.114 189.697 143.949C189.697 137.436 184.482 131.574 177.312 131.574C170.793 131.574 164.926 136.784 164.926 143.949C164.926 151.114 170.141 156.325 177.312 156.325Z" fill="#064750"/>
<path d="M177.312 189.543C183.83 189.543 189.697 184.333 189.697 177.168C189.697 170.654 184.482 164.792 177.312 164.792C170.793 164.792 164.926 170.003 164.926 177.168C164.926 183.681 170.141 189.543 177.312 189.543Z" fill="#064750"/>
<path d="M177.312 222.11C183.83 222.11 189.697 216.899 189.697 209.735C189.697 203.221 184.482 197.359 177.312 197.359C170.793 197.359 164.926 202.57 164.926 209.735C164.926 216.899 170.141 222.11 177.312 222.11Z" fill="#064750"/>
<path d="M177.312 254.678C183.83 254.678 189.697 249.467 189.697 242.302C189.697 235.789 184.482 229.927 177.312 229.927C170.793 229.927 164.926 235.138 164.926 242.302C164.926 249.467 170.141 254.678 177.312 254.678Z" fill="#064750"/>
<path d="M177.312 287.896C183.83 287.896 189.697 282.685 189.697 275.521C189.697 269.007 184.482 263.145 177.312 263.145C170.793 263.145 164.926 268.356 164.926 275.521C164.926 282.034 170.141 287.896 177.312 287.896Z" fill="#064750"/>
<path d="M177.312 320.464C183.83 320.464 189.697 315.253 189.697 308.088C189.697 301.575 184.482 295.713 177.312 295.713C170.793 295.713 164.926 300.924 164.926 308.088C164.926 315.253 170.141 320.464 177.312 320.464Z" fill="#064750"/>
<path d="M177.312 353.683C183.83 353.683 189.697 348.472 189.697 341.307C189.697 334.794 184.482 328.931 177.312 328.931C170.793 328.931 164.926 334.142 164.926 341.307C164.926 347.821 170.141 353.683 177.312 353.683Z" fill="#064750"/>
<path d="M177.312 386.25C183.83 386.25 189.697 381.04 189.697 373.875C189.697 367.361 184.482 361.499 177.312 361.499C170.793 361.499 164.926 366.71 164.926 373.875C164.926 381.04 170.141 386.25 177.312 386.25Z" fill="#064750"/>
<path d="M177.312 419.469C183.83 419.469 189.697 414.258 189.697 407.093C189.697 400.58 184.482 394.718 177.312 394.718C170.793 394.718 164.926 399.928 164.926 407.093C164.926 413.607 170.141 419.469 177.312 419.469Z" fill="#064750"/>
<path d="M177.312 452.035C183.83 452.035 189.697 446.825 189.697 439.66C189.697 433.146 184.482 427.284 177.312 427.284C170.793 427.284 164.926 432.495 164.926 439.66C164.926 446.825 170.141 452.035 177.312 452.035Z" fill="#064750"/>
<path d="M177.312 485.256C183.83 485.256 189.697 480.046 189.697 472.881C189.697 466.367 184.482 460.505 177.312 460.505C170.793 460.505 164.926 465.716 164.926 472.881C164.926 479.394 170.141 485.256 177.312 485.256Z" fill="#064750"/>
<path d="M222.291 78.1618C222.291 84.9966 216.746 90.5374 209.905 90.5374C203.065 90.5374 197.52 84.9966 197.52 78.1618C197.52 71.3269 203.065 65.7861 209.905 65.7861C216.746 65.7861 222.291 71.3269 222.291 78.1618Z" fill="#064750"/>
<path d="M209.905 123.757C216.424 123.757 222.291 118.546 222.291 111.381C222.291 104.868 217.076 99.0059 209.905 99.0059C203.386 99.0059 197.52 104.217 197.52 111.381C197.52 117.895 203.386 123.757 209.905 123.757Z" fill="#064750"/>
<path d="M209.905 156.325C216.424 156.325 222.291 151.114 222.291 143.949C222.291 137.436 217.076 131.574 209.905 131.574C203.386 131.574 197.52 136.785 197.52 143.949C197.52 151.114 203.386 156.325 209.905 156.325Z" fill="#064750"/>
<path d="M222.291 177.168C222.291 184.003 216.746 189.543 209.905 189.543C203.065 189.543 197.52 184.003 197.52 177.168C197.52 170.333 203.065 164.792 209.905 164.792C216.746 164.792 222.291 170.333 222.291 177.168Z" fill="#064750"/>
<path d="M209.905 222.11C216.424 222.11 222.291 216.899 222.291 209.735C222.291 203.221 217.076 197.359 209.905 197.359C203.386 197.359 197.52 202.57 197.52 209.735C197.52 216.899 203.386 222.11 209.905 222.11Z" fill="#064750"/>
<path d="M222.291 242.954C222.291 249.789 216.746 255.33 209.905 255.33C203.065 255.33 197.52 249.789 197.52 242.954C197.52 236.119 203.065 230.579 209.905 230.579C216.746 230.579 222.291 236.119 222.291 242.954Z" fill="#064750"/>
<path d="M209.905 287.896C216.424 287.896 222.291 282.685 222.291 275.521C222.291 269.007 217.076 263.145 209.905 263.145C203.386 263.145 197.52 268.356 197.52 275.521C197.52 282.034 203.386 287.896 209.905 287.896Z" fill="#064750"/>
<path d="M209.905 320.464C216.424 320.464 222.291 315.253 222.291 308.088C222.291 301.575 217.076 295.713 209.905 295.713C203.386 295.713 197.52 300.924 197.52 308.088C197.52 315.253 203.386 320.464 209.905 320.464Z" fill="#064750"/>
<path d="M222.291 341.307C222.291 348.142 216.746 353.683 209.905 353.683C203.065 353.683 197.52 348.142 197.52 341.307C197.52 334.472 203.065 328.931 209.905 328.931C216.746 328.931 222.291 334.472 222.291 341.307Z" fill="#064750"/>
<path d="M209.905 386.25C216.424 386.25 222.291 381.04 222.291 373.875C222.291 367.361 217.076 361.499 209.905 361.499C203.386 361.499 197.52 366.71 197.52 373.875C197.52 381.04 203.386 386.25 209.905 386.25Z" fill="#064750"/>
<path d="M222.291 407.093C222.291 413.928 216.746 419.469 209.905 419.469C203.065 419.469 197.52 413.928 197.52 407.093C197.52 400.258 203.065 394.718 209.905 394.718C216.746 394.718 222.291 400.258 222.291 407.093Z" fill="#064750"/>
<path d="M209.905 452.035C216.424 452.035 222.291 446.825 222.291 439.66C222.291 433.146 217.076 427.284 209.905 427.284C203.386 427.284 197.52 432.495 197.52 439.66C197.52 446.825 203.386 452.035 209.905 452.035Z" fill="#064750"/>
<path d="M209.905 485.256C216.424 485.256 222.291 480.046 222.291 472.881C222.291 466.367 217.076 460.505 209.905 460.505C203.386 460.505 197.52 465.716 197.52 472.881C197.52 479.394 203.386 485.256 209.905 485.256Z" fill="#064750"/>
<path d="M209.905 517.823C216.424 517.823 222.291 512.612 222.291 505.447C222.291 498.934 217.076 493.072 209.905 493.072C203.386 493.072 197.52 498.283 197.52 505.447C197.52 512.612 203.386 517.823 209.905 517.823Z" fill="#064750"/>
<path d="M243.151 90.5374C249.67 90.5374 255.537 85.3266 255.537 78.1618C255.537 71.6483 250.322 65.7861 243.151 65.7861C236.633 65.7861 230.766 70.9969 230.766 78.1618C230.766 85.3266 235.981 90.5374 243.151 90.5374Z" fill="#064750"/>
<path d="M243.151 123.757C249.67 123.757 255.537 118.546 255.537 111.381C255.537 104.868 250.322 99.0059 243.151 99.0059C236.633 99.0059 230.766 104.217 230.766 111.381C230.766 117.895 235.981 123.757 243.151 123.757Z" fill="#064750"/>
<path d="M243.151 156.325C249.67 156.325 255.537 151.114 255.537 143.949C255.537 137.436 250.322 131.574 243.151 131.574C236.633 131.574 230.766 136.785 230.766 143.949C230.766 151.114 235.981 156.325 243.151 156.325Z" fill="#064750"/>
<path d="M243.151 189.543C249.67 189.543 255.537 184.333 255.537 177.168C255.537 170.654 250.322 164.792 243.151 164.792C236.633 164.792 230.766 170.003 230.766 177.168C230.766 183.681 235.981 189.543 243.151 189.543Z" fill="#064750"/>
<path d="M243.151 222.11C249.67 222.11 255.537 216.899 255.537 209.735C255.537 203.221 250.322 197.359 243.151 197.359C236.633 197.359 230.766 202.57 230.766 209.735C230.766 216.899 235.981 222.11 243.151 222.11Z" fill="#064750"/>
<path d="M243.151 254.678C249.67 254.678 255.537 249.467 255.537 242.302C255.537 235.789 250.322 229.927 243.151 229.927C236.633 229.927 230.766 235.138 230.766 242.302C230.766 249.467 235.981 254.678 243.151 254.678Z" fill="#064750"/>
<path d="M243.151 287.896C249.67 287.896 255.537 282.685 255.537 275.521C255.537 269.007 250.322 263.145 243.151 263.145C236.633 263.145 230.766 268.356 230.766 275.521C230.766 282.034 235.981 287.896 243.151 287.896Z" fill="#064750"/>
<path d="M243.151 320.464C249.67 320.464 255.537 315.253 255.537 308.088C255.537 301.575 250.322 295.713 243.151 295.713C236.633 295.713 230.766 300.924 230.766 308.088C230.766 315.253 235.981 320.464 243.151 320.464Z" fill="#064750"/>
<path d="M243.151 353.683C249.67 353.683 255.537 348.472 255.537 341.307C255.537 334.794 250.322 328.931 243.151 328.931C236.633 328.931 230.766 334.142 230.766 341.307C230.766 347.821 235.981 353.683 243.151 353.683Z" fill="#064750"/>
<path d="M243.151 386.25C249.67 386.25 255.537 381.04 255.537 373.875C255.537 367.361 250.322 361.499 243.151 361.499C236.633 361.499 230.766 366.71 230.766 373.875C230.766 381.04 235.981 386.25 243.151 386.25Z" fill="#064750"/>
<path d="M243.151 419.469C249.67 419.469 255.537 414.258 255.537 407.093C255.537 400.58 250.322 394.718 243.151 394.718C236.633 394.718 230.766 399.928 230.766 407.093C230.766 413.607 235.981 419.469 243.151 419.469Z" fill="#064750"/>
<path d="M243.151 452.035C249.67 452.035 255.537 446.825 255.537 439.66C255.537 433.146 250.322 427.284 243.151 427.284C236.633 427.284 230.766 432.495 230.766 439.66C230.766 446.825 235.981 452.035 243.151 452.035Z" fill="#064750"/>
<path d="M243.151 485.256C249.67 485.256 255.537 480.046 255.537 472.881C255.537 466.367 250.322 460.505 243.151 460.505C236.633 460.505 230.766 465.716 230.766 472.881C230.766 479.394 235.981 485.256 243.151 485.256Z" fill="#064750"/>
<path d="M243.151 517.823C249.67 517.823 255.537 512.612 255.537 505.447C255.537 498.934 250.322 493.072 243.151 493.072C236.633 493.072 230.766 498.283 230.766 505.447C230.766 512.612 235.981 517.823 243.151 517.823Z" fill="#064750"/>
<path d="M275.749 123.757C282.268 123.757 288.135 118.546 288.135 111.382C288.135 104.868 282.92 99.006 275.749 99.006C269.23 99.006 263.363 104.217 263.363 111.382C263.363 117.895 269.23 123.757 275.749 123.757Z" fill="#064750"/>
<path d="M275.749 156.325C282.268 156.325 288.135 151.114 288.135 143.949C288.135 137.436 282.92 131.574 275.749 131.574C269.23 131.574 263.363 136.785 263.363 143.949C263.363 151.114 269.23 156.325 275.749 156.325Z" fill="#064750"/>
<path d="M288.135 177.168C288.135 184.003 282.59 189.543 275.749 189.543C268.909 189.543 263.363 184.003 263.363 177.168C263.363 170.333 268.909 164.792 275.749 164.792C282.59 164.792 288.135 170.333 288.135 177.168Z" fill="#064750"/>
<path d="M275.749 222.11C282.268 222.11 288.135 216.899 288.135 209.735C288.135 203.221 282.92 197.359 275.749 197.359C269.23 197.359 263.363 202.57 263.363 209.735C263.363 216.899 269.23 222.11 275.749 222.11Z" fill="#064750"/>
<path d="M288.135 242.954C288.135 249.789 282.59 255.33 275.749 255.33C268.909 255.33 263.363 249.789 263.363 242.954C263.363 236.119 268.909 230.579 275.749 230.579C282.59 230.579 288.135 236.119 288.135 242.954Z" fill="#064750"/>
<path d="M275.749 287.896C282.268 287.896 288.135 282.685 288.135 275.521C288.135 269.007 282.92 263.145 275.749 263.145C269.23 263.145 263.363 268.356 263.363 275.521C263.363 282.034 269.23 287.896 275.749 287.896Z" fill="#064750"/>
<path d="M275.749 320.464C282.268 320.464 288.135 315.253 288.135 308.088C288.135 301.575 282.92 295.713 275.749 295.713C269.23 295.713 263.363 300.924 263.363 308.088C263.363 315.253 269.23 320.464 275.749 320.464Z" fill="#064750"/>
<path d="M288.135 341.307C288.135 348.142 282.59 353.683 275.749 353.683C268.909 353.683 263.363 348.142 263.363 341.307C263.363 334.472 268.909 328.931 275.749 328.931C282.59 328.931 288.135 334.472 288.135 341.307Z" fill="#064750"/>
<path d="M275.745 386.25C282.264 386.25 288.131 381.04 288.131 373.875C288.131 367.361 282.916 361.499 275.745 361.499C269.226 361.499 263.359 366.71 263.359 373.875C263.359 381.04 269.226 386.25 275.745 386.25Z" fill="#064750"/>
<path d="M288.131 407.093C288.131 413.928 282.586 419.469 275.745 419.469C268.905 419.469 263.359 413.928 263.359 407.093C263.359 400.258 268.905 394.718 275.745 394.718C282.586 394.718 288.131 400.258 288.131 407.093Z" fill="#064750"/>
<path d="M275.745 452.035C282.264 452.035 288.131 446.825 288.131 439.66C288.131 433.146 282.916 427.284 275.745 427.284C269.226 427.284 263.359 432.495 263.359 439.66C263.359 446.825 269.226 452.035 275.745 452.035Z" fill="#064750"/>
<path d="M275.745 485.256C282.264 485.256 288.131 480.046 288.131 472.881C288.131 466.367 282.916 460.505 275.745 460.505C269.226 460.505 263.359 465.716 263.359 472.881C263.359 479.394 269.226 485.256 275.745 485.256Z" fill="#064750"/>
<path d="M275.745 517.823C282.264 517.823 288.131 512.612 288.131 505.447C288.131 498.934 282.916 493.072 275.745 493.072C269.226 493.072 263.359 498.283 263.359 505.447C263.359 512.612 269.226 517.823 275.745 517.823Z" fill="#064750"/>
<path d="M308.995 123.757C315.514 123.757 321.381 118.546 321.381 111.382C321.381 104.868 316.166 99.006 308.995 99.006C302.476 99.006 296.609 104.217 296.609 111.382C296.609 117.895 301.824 123.757 308.995 123.757Z" fill="#064750"/>
<path d="M308.995 156.325C315.514 156.325 321.381 151.114 321.381 143.949C321.381 137.436 316.166 131.574 308.995 131.574C302.476 131.574 296.609 136.785 296.609 143.949C296.609 151.114 301.824 156.325 308.995 156.325Z" fill="#064750"/>
<path d="M308.995 189.543C315.514 189.543 321.381 184.333 321.381 177.168C321.381 170.654 316.166 164.792 308.995 164.792C302.476 164.792 296.609 170.003 296.609 177.168C296.609 183.681 301.824 189.543 308.995 189.543Z" fill="#064750"/>
<path d="M308.995 222.11C315.514 222.11 321.381 216.899 321.381 209.735C321.381 203.221 316.166 197.359 308.995 197.359C302.476 197.359 296.609 202.57 296.609 209.735C296.609 216.899 301.824 222.11 308.995 222.11Z" fill="#064750"/>
<path d="M308.995 254.678C315.514 254.678 321.381 249.467 321.381 242.302C321.381 235.789 316.166 229.927 308.995 229.927C302.476 229.927 296.609 235.138 296.609 242.302C296.609 249.467 301.824 254.678 308.995 254.678Z" fill="#064750"/>
<path d="M308.995 287.896C315.514 287.896 321.381 282.685 321.381 275.521C321.381 269.007 316.166 263.145 308.995 263.145C302.476 263.145 296.609 268.356 296.609 275.521C296.609 282.034 301.824 287.896 308.995 287.896Z" fill="#064750"/>
<path d="M308.995 320.464C315.514 320.464 321.381 315.253 321.381 308.088C321.381 301.575 316.166 295.713 308.995 295.713C302.476 295.713 296.609 300.924 296.609 308.088C296.609 315.253 301.824 320.464 308.995 320.464Z" fill="#064750"/>
<path d="M308.995 353.683C315.514 353.683 321.381 348.472 321.381 341.307C321.381 334.794 316.166 328.931 308.995 328.931C302.476 328.931 296.609 334.142 296.609 341.307C296.609 347.821 301.824 353.683 308.995 353.683Z" fill="#064750"/>
<path d="M308.991 386.25C315.51 386.25 321.377 381.04 321.377 373.875C321.377 367.361 316.162 361.499 308.991 361.499C302.472 361.499 296.605 366.71 296.605 373.875C296.605 381.04 301.821 386.25 308.991 386.25Z" fill="#064750"/>
<path d="M308.991 419.469C315.51 419.469 321.377 414.258 321.377 407.093C321.377 400.58 316.162 394.718 308.991 394.718C302.472 394.718 296.605 399.928 296.605 407.093C296.605 413.607 301.821 419.469 308.991 419.469Z" fill="#064750"/>
<path d="M308.991 452.035C315.51 452.035 321.377 446.825 321.377 439.66C321.377 433.146 316.162 427.284 308.991 427.284C302.472 427.284 296.605 432.495 296.605 439.66C296.605 446.825 301.821 452.035 308.991 452.035Z" fill="#064750"/>
<path d="M308.991 485.256C315.51 485.256 321.377 480.046 321.377 472.881C321.377 466.367 316.162 460.505 308.991 460.505C302.472 460.505 296.605 465.716 296.605 472.881C296.605 479.394 301.821 485.256 308.991 485.256Z" fill="#064750"/>
</g>
</svg>
