<svg width="270" height="365" viewBox="0 0 270 365" fill="none" xmlns="http://www.w3.org/2000/svg">
<mask id="mask0_778_6991" style="mask-type:alpha" maskUnits="userSpaceOnUse" x="0" y="0" width="270" height="365">
<path d="M261 315C261 310 265 306 270 306V15C270 6.7 263.3 0 255 0H15C6.7 0 0 6.7 0 15V306C5 306 9 310 9 315C9 320 5 324 0 324V350C0 358.3 6.7 365 15 365H255C263.3 365 270 358.3 270 350V324C265 324 261 320 261 315ZM12.8 316.4C12 316.4 11.4 315.8 11.4 315C11.4 314.2 12 313.6 12.8 313.6C13.6 313.6 14.2 314.2 14.2 315C14.2 315.8 13.6 316.4 12.8 316.4ZM18.2 316.4C17.4 316.4 16.8 315.8 16.8 315C16.8 314.2 17.4 313.6 18.2 313.6C19 313.6 19.6 314.2 19.6 315C19.6 315.8 19 316.4 18.2 316.4ZM23.7 316.4C22.9 316.4 22.3 315.8 22.3 315C22.3 314.2 22.9 313.6 23.7 313.6C24.5 313.6 25.1 314.2 25.1 315C25 315.8 24.4 316.4 23.7 316.4ZM29.1 316.4C28.3 316.4 27.7 315.8 27.7 315C27.7 314.2 28.3 313.6 29.1 313.6C29.9 313.6 30.5 314.2 30.5 315C30.5 315.8 29.9 316.4 29.1 316.4ZM34.5 316.4C33.7 316.4 33.1 315.8 33.1 315C33.1 314.2 33.7 313.6 34.5 313.6C35.3 313.6 35.9 314.2 35.9 315C35.9 315.8 35.3 316.4 34.5 316.4ZM40 316.4C39.2 316.4 38.6 315.8 38.6 315C38.6 314.2 39.2 313.6 40 313.6C40.8 313.6 41.4 314.2 41.4 315C41.3 315.8 40.7 316.4 40 316.4ZM45.4 316.4C44.6 316.4 44 315.8 44 315C44 314.2 44.6 313.6 45.4 313.6C46.2 313.6 46.8 314.2 46.8 315C46.8 315.8 46.2 316.4 45.4 316.4ZM50.8 316.4C50 316.4 49.4 315.8 49.4 315C49.4 314.2 50 313.6 50.8 313.6C51.6 313.6 52.2 314.2 52.2 315C52.2 315.8 51.6 316.4 50.8 316.4ZM56.3 316.4C55.5 316.4 54.9 315.8 54.9 315C54.9 314.2 55.5 313.6 56.3 313.6C57.1 313.6 57.7 314.2 57.7 315C57.6 315.8 57 316.4 56.3 316.4ZM61.7 316.4C60.9 316.4 60.3 315.8 60.3 315C60.3 314.2 60.9 313.6 61.7 313.6C62.5 313.6 63.1 314.2 63.1 315C63.1 315.8 62.4 316.4 61.7 316.4ZM67.1 316.4C66.3 316.4 65.7 315.8 65.7 315C65.7 314.2 66.3 313.6 67.1 313.6C67.9 313.6 68.5 314.2 68.5 315C68.5 315.8 67.9 316.4 67.1 316.4ZM72.5 316.4C71.7 316.4 71.1 315.8 71.1 315C71.1 314.2 71.7 313.6 72.5 313.6C73.3 313.6 73.9 314.2 73.9 315C73.9 315.8 73.3 316.4 72.5 316.4ZM78 316.4C77.2 316.4 76.6 315.8 76.6 315C76.6 314.2 77.2 313.6 78 313.6C78.8 313.6 79.4 314.2 79.4 315C79.3 315.8 78.7 316.4 78 316.4ZM83.4 316.4C82.6 316.4 82 315.8 82 315C82 314.2 82.6 313.6 83.4 313.6C84.2 313.6 84.8 314.2 84.8 315C84.8 315.8 84.2 316.4 83.4 316.4ZM88.8 316.4C88 316.4 87.4 315.8 87.4 315C87.4 314.2 88 313.6 88.8 313.6C89.6 313.6 90.2 314.2 90.2 315C90.2 315.8 89.6 316.4 88.8 316.4ZM94.3 316.4C93.5 316.4 92.9 315.8 92.9 315C92.9 314.2 93.5 313.6 94.3 313.6C95.1 313.6 95.7 314.2 95.7 315C95.6 315.8 95 316.4 94.3 316.4ZM99.7 316.4C98.9 316.4 98.3 315.8 98.3 315C98.3 314.2 98.9 313.6 99.7 313.6C100.5 313.6 101.1 314.2 101.1 315C101.1 315.8 100.5 316.4 99.7 316.4ZM105.1 316.4C104.3 316.4 103.7 315.8 103.7 315C103.7 314.2 104.3 313.6 105.1 313.6C105.9 313.6 106.5 314.2 106.5 315C106.5 315.8 105.9 316.4 105.1 316.4ZM110.6 316.4C109.8 316.4 109.2 315.8 109.2 315C109.2 314.2 109.8 313.6 110.6 313.6C111.4 313.6 112 314.2 112 315C111.9 315.8 111.3 316.4 110.6 316.4ZM116 316.4C115.2 316.4 114.6 315.8 114.6 315C114.6 314.2 115.2 313.6 116 313.6C116.8 313.6 117.4 314.2 117.4 315C117.4 315.8 116.7 316.4 116 316.4ZM121.4 316.4C120.6 316.4 120 315.8 120 315C120 314.2 120.6 313.6 121.4 313.6C122.2 313.6 122.8 314.2 122.8 315C122.8 315.8 122.2 316.4 121.4 316.4ZM126.9 316.4C126.1 316.4 125.5 315.8 125.5 315C125.5 314.2 126.1 313.6 126.9 313.6C127.7 313.6 128.3 314.2 128.3 315C128.2 315.8 127.6 316.4 126.9 316.4ZM132.3 316.4C131.5 316.4 130.9 315.8 130.9 315C130.9 314.2 131.5 313.6 132.3 313.6C133.1 313.6 133.7 314.2 133.7 315C133.7 315.8 133 316.4 132.3 316.4ZM137.7 316.4C136.9 316.4 136.3 315.8 136.3 315C136.3 314.2 136.9 313.6 137.7 313.6C138.5 313.6 139.1 314.2 139.1 315C139.1 315.8 138.5 316.4 137.7 316.4ZM143.1 316.4C142.3 316.4 141.7 315.8 141.7 315C141.7 314.2 142.3 313.6 143.1 313.6C143.9 313.6 144.5 314.2 144.5 315C144.5 315.8 143.9 316.4 143.1 316.4ZM148.6 316.4C147.8 316.4 147.2 315.8 147.2 315C147.2 314.2 147.8 313.6 148.6 313.6C149.4 313.6 150 314.2 150 315C149.9 315.8 149.3 316.4 148.6 316.4ZM154 316.4C153.2 316.4 152.6 315.8 152.6 315C152.6 314.2 153.2 313.6 154 313.6C154.8 313.6 155.4 314.2 155.4 315C155.4 315.8 154.8 316.4 154 316.4ZM159.4 316.4C158.6 316.4 158 315.8 158 315C158 314.2 158.6 313.6 159.4 313.6C160.2 313.6 160.8 314.2 160.8 315C160.8 315.8 160.2 316.4 159.4 316.4ZM164.9 316.4C164.1 316.4 163.5 315.8 163.5 315C163.5 314.2 164.1 313.6 164.9 313.6C165.7 313.6 166.3 314.2 166.3 315C166.2 315.8 165.6 316.4 164.9 316.4ZM170.3 316.4C169.5 316.4 168.9 315.8 168.9 315C168.9 314.2 169.5 313.6 170.3 313.6C171.1 313.6 171.7 314.2 171.7 315C171.7 315.8 171.1 316.4 170.3 316.4ZM175.7 316.4C174.9 316.4 174.3 315.8 174.3 315C174.3 314.2 174.9 313.6 175.7 313.6C176.5 313.6 177.1 314.2 177.1 315C177.1 315.8 176.5 316.4 175.7 316.4ZM181.2 316.4C180.4 316.4 179.8 315.8 179.8 315C179.8 314.2 180.4 313.6 181.2 313.6C182 313.6 182.6 314.2 182.6 315C182.5 315.8 181.9 316.4 181.2 316.4ZM186.6 316.4C185.8 316.4 185.2 315.8 185.2 315C185.2 314.2 185.8 313.6 186.6 313.6C187.4 313.6 188 314.2 188 315C188 315.8 187.3 316.4 186.6 316.4ZM192 316.4C191.2 316.4 190.6 315.8 190.6 315C190.6 314.2 191.2 313.6 192 313.6C192.8 313.6 193.4 314.2 193.4 315C193.4 315.8 192.8 316.4 192 316.4ZM197.5 316.4C196.7 316.4 196.1 315.8 196.1 315C196.1 314.2 196.7 313.6 197.5 313.6C198.3 313.6 198.9 314.2 198.9 315C198.8 315.8 198.2 316.4 197.5 316.4ZM202.9 316.4C202.1 316.4 201.5 315.8 201.5 315C201.5 314.2 202.1 313.6 202.9 313.6C203.7 313.6 204.3 314.2 204.3 315C204.3 315.8 203.6 316.4 202.9 316.4ZM208.3 316.4C207.5 316.4 206.9 315.8 206.9 315C206.9 314.2 207.5 313.6 208.3 313.6C209.1 313.6 209.7 314.2 209.7 315C209.7 315.8 209.1 316.4 208.3 316.4ZM213.7 316.4C212.9 316.4 212.3 315.8 212.3 315C212.3 314.2 212.9 313.6 213.7 313.6C214.5 313.6 215.1 314.2 215.1 315C215.1 315.8 214.5 316.4 213.7 316.4ZM219.2 316.4C218.4 316.4 217.8 315.8 217.8 315C217.8 314.2 218.4 313.6 219.2 313.6C220 313.6 220.6 314.2 220.6 315C220.5 315.8 219.9 316.4 219.2 316.4ZM224.6 316.4C223.8 316.4 223.2 315.8 223.2 315C223.2 314.2 223.8 313.6 224.6 313.6C225.4 313.6 226 314.2 226 315C226 315.8 225.4 316.4 224.6 316.4ZM230 316.4C229.2 316.4 228.6 315.8 228.6 315C228.6 314.2 229.2 313.6 230 313.6C230.8 313.6 231.4 314.2 231.4 315C231.4 315.8 230.8 316.4 230 316.4ZM235.5 316.4C234.7 316.4 234.1 315.8 234.1 315C234.1 314.2 234.7 313.6 235.5 313.6C236.3 313.6 236.9 314.2 236.9 315C236.8 315.8 236.2 316.4 235.5 316.4ZM240.9 316.4C240.1 316.4 239.5 315.8 239.5 315C239.5 314.2 240.1 313.6 240.9 313.6C241.7 313.6 242.3 314.2 242.3 315C242.3 315.8 241.7 316.4 240.9 316.4ZM246.3 316.4C245.5 316.4 244.9 315.8 244.9 315C244.9 314.2 245.5 313.6 246.3 313.6C247.1 313.6 247.7 314.2 247.7 315C247.7 315.8 247.1 316.4 246.3 316.4ZM251.8 316.4C251 316.4 250.4 315.8 250.4 315C250.4 314.2 251 313.6 251.8 313.6C252.6 313.6 253.2 314.2 253.2 315C253.1 315.8 252.5 316.4 251.8 316.4ZM257.2 316.4C256.4 316.4 255.8 315.8 255.8 315C255.8 314.2 256.4 313.6 257.2 313.6C258 313.6 258.6 314.2 258.6 315C258.6 315.8 257.9 316.4 257.2 316.4Z" fill="white"/>
</mask>
<g mask="url(#mask0_778_6991)">
<rect y="315" width="270" height="50" fill="#00C396"/>
</g>
</svg>
