<svg width="85" height="75" viewBox="0 0 85 75" fill="none" xmlns="http://www.w3.org/2000/svg">
<g opacity="0.3">
<path opacity="0.3" d="M9.771 2.38354C9.771 3.63491 8.75716 4.76709 7.3855 4.76709C6.13311 4.76709 5 3.75408 5 2.38354C5 1.13218 6.01384 0 7.3855 0C8.78698 0 9.771 1.01301 9.771 2.38354Z" fill="#064750"/>
<path opacity="0.3" d="M16.1519 2.38354C16.1519 3.63491 15.138 4.76709 13.7664 4.76709C12.514 4.76709 11.3809 3.75408 11.3809 2.38354C11.3809 1.13218 12.3947 0 13.7664 0C15.138 0 16.1519 1.01301 16.1519 2.38354Z" fill="#064750"/>
<path opacity="0.3" d="M22.5327 2.38354C22.5327 3.63491 21.5189 4.76709 20.1472 4.76709C18.8948 4.76709 17.7617 3.75408 17.7617 2.38354C17.7617 1.13218 18.7756 0 20.1472 0C21.5189 0 22.5327 1.01301 22.5327 2.38354Z" fill="#064750"/>
<path opacity="0.3" d="M28.9155 2.38354C28.9155 3.63491 27.9017 4.76709 26.53 4.76709C25.2776 4.76709 24.1445 3.75408 24.1445 2.38354C24.1445 1.13218 25.1584 0 26.53 0C27.9017 0 28.9155 1.01301 28.9155 2.38354Z" fill="#064750"/>
<path opacity="0.3" d="M35.2964 2.38354C35.2964 3.63491 34.2826 4.76709 32.9109 4.76709C31.6585 4.76709 30.5254 3.75408 30.5254 2.38354C30.5254 1.13218 31.5392 0 32.9109 0C34.2826 0 35.2964 1.01301 35.2964 2.38354Z" fill="#064750"/>
<path opacity="0.3" d="M41.6772 2.38354C41.6772 3.63491 40.6634 4.76709 39.2917 4.76709C38.0394 4.76709 36.9062 3.75408 36.9062 2.38354C36.9062 1.13218 37.9201 0 39.2917 0C40.6634 0 41.6772 1.01301 41.6772 2.38354Z" fill="#064750"/>
<path opacity="0.3" d="M9.771 8.1637C9.771 9.41506 8.75716 10.5472 7.3855 10.5472C6.13311 10.5472 5 9.53423 5 8.1637C5 6.91234 6.01384 5.78015 7.3855 5.78015C8.78698 5.78015 9.771 6.79316 9.771 8.1637Z" fill="#064750"/>
<path opacity="0.3" d="M16.1519 8.1637C16.1519 9.41506 15.138 10.5472 13.7664 10.5472C12.514 10.5472 11.3809 9.53423 11.3809 8.1637C11.3809 6.91234 12.3947 5.78015 13.7664 5.78015C15.138 5.78015 16.1519 6.79316 16.1519 8.1637Z" fill="#064750"/>
<path opacity="0.3" d="M22.5327 8.1637C22.5327 9.41506 21.5189 10.5472 20.1472 10.5472C18.8948 10.5472 17.7617 9.53423 17.7617 8.1637C17.7617 6.91234 18.7756 5.78015 20.1472 5.78015C21.5189 5.78015 22.5327 6.79316 22.5327 8.1637Z" fill="#064750"/>
<path opacity="0.3" d="M28.9155 8.1637C28.9155 9.41506 27.9017 10.5472 26.53 10.5472C25.2776 10.5472 24.1445 9.53423 24.1445 8.1637C24.1445 6.91234 25.1584 5.78015 26.53 5.78015C27.9017 5.78015 28.9155 6.79316 28.9155 8.1637Z" fill="#064750"/>
<path opacity="0.3" d="M35.2964 8.1637C35.2964 9.41506 34.2826 10.5472 32.9109 10.5472C31.6585 10.5472 30.5254 9.53423 30.5254 8.1637C30.5254 6.91234 31.5392 5.78015 32.9109 5.78015C34.2826 5.78015 35.2964 6.79316 35.2964 8.1637Z" fill="#064750"/>
<path opacity="0.3" d="M41.6772 8.1637C41.6772 9.41506 40.6634 10.5472 39.2917 10.5472C38.0394 10.5472 36.9062 9.53423 36.9062 8.1637C36.9062 6.91234 37.9201 5.78015 39.2917 5.78015C40.6634 5.78015 41.6772 6.79316 41.6772 8.1637Z" fill="#064750"/>
<path opacity="0.3" d="M35.2964 13.9438C35.2964 15.1951 34.2826 16.3273 32.9109 16.3273C31.6585 16.3273 30.5254 15.3143 30.5254 13.9438C30.5254 12.6924 31.5392 11.5602 32.9109 11.5602C34.2826 11.5602 35.2964 12.5732 35.2964 13.9438Z" fill="#064750"/>
<path opacity="0.3" d="M41.6772 13.9438C41.6772 15.1951 40.6634 16.3273 39.2917 16.3273C38.0394 16.3273 36.9062 15.3143 36.9062 13.9438C36.9062 12.6924 37.9201 11.5602 39.2917 11.5602C40.6634 11.5602 41.6772 12.5732 41.6772 13.9438Z" fill="#064750"/>
<path opacity="0.3" d="M35.2964 19.7238C35.2964 20.9752 34.2826 22.1074 32.9109 22.1074C31.6585 22.1074 30.5254 21.0944 30.5254 19.7238C30.5254 18.4725 31.5392 17.3403 32.9109 17.3403C34.2826 17.3403 35.2964 18.3533 35.2964 19.7238Z" fill="#064750"/>
<path opacity="0.3" d="M41.6772 19.7238C41.6772 20.9752 40.6634 22.1074 39.2917 22.1074C38.0394 22.1074 36.9062 21.0944 36.9062 19.7238C36.9062 18.4725 37.9201 17.3403 39.2917 17.3403C40.6634 17.3403 41.6772 18.3533 41.6772 19.7238Z" fill="#064750"/>
<path opacity="0.3" d="M35.2964 25.504C35.2964 26.7553 34.2826 27.8875 32.9109 27.8875C31.6585 27.8875 30.5254 26.8745 30.5254 25.504C30.5254 24.2526 31.5392 23.1204 32.9109 23.1204C34.2826 23.1502 35.2964 24.1334 35.2964 25.504Z" fill="#064750"/>
<path opacity="0.3" d="M41.6772 25.504C41.6772 26.7553 40.6634 27.8875 39.2917 27.8875C38.0394 27.8875 36.9062 26.8745 36.9062 25.504C36.9062 24.2526 37.9201 23.1204 39.2917 23.1204C40.6634 23.1502 41.6772 24.1334 41.6772 25.504Z" fill="#064750"/>
<path opacity="0.3" d="M9.771 31.2841C9.771 32.5355 8.75716 33.6677 7.3855 33.6677C6.13311 33.6677 5 32.6547 5 31.2841C5 30.0328 6.01384 28.9006 7.3855 28.9006C8.78698 28.9304 9.771 29.9136 9.771 31.2841Z" fill="#064750"/>
<path opacity="0.3" d="M16.1519 31.2841C16.1519 32.5355 15.138 33.6677 13.7664 33.6677C12.514 33.6677 11.3809 32.6547 11.3809 31.2841C11.3809 30.0328 12.3947 28.9006 13.7664 28.9006C15.138 28.9304 16.1519 29.9136 16.1519 31.2841Z" fill="#064750"/>
<path opacity="0.3" d="M22.5327 31.2841C22.5327 32.5355 21.5189 33.6677 20.1472 33.6677C18.8948 33.6677 17.7617 32.6547 17.7617 31.2841C17.7617 30.0328 18.7756 28.9006 20.1472 28.9006C21.5189 28.9304 22.5327 29.9136 22.5327 31.2841Z" fill="#064750"/>
<path opacity="0.3" d="M28.9155 31.2841C28.9155 32.5355 27.9017 33.6677 26.53 33.6677C25.2776 33.6677 24.1445 32.6547 24.1445 31.2841C24.1445 30.0328 25.1584 28.9006 26.53 28.9006C27.9017 28.9304 28.9155 29.9136 28.9155 31.2841Z" fill="#064750"/>
<path opacity="0.3" d="M35.2964 31.2841C35.2964 32.5355 34.2826 33.6677 32.9109 33.6677C31.6585 33.6677 30.5254 32.6547 30.5254 31.2841C30.5254 30.0328 31.5392 28.9006 32.9109 28.9006C34.2826 28.9304 35.2964 29.9136 35.2964 31.2841Z" fill="#064750"/>
<path opacity="0.3" d="M9.771 37.094C9.771 38.3454 8.75716 39.4775 7.3855 39.4775C6.13311 39.4775 5 38.4645 5 37.094C5 35.8426 6.01384 34.7104 7.3855 34.7104C8.78698 34.7104 9.771 35.6937 9.771 37.094Z" fill="#064750"/>
<path opacity="0.3" d="M16.1519 37.094C16.1519 38.3454 15.138 39.4775 13.7664 39.4775C12.514 39.4775 11.3809 38.4645 11.3809 37.094C11.3809 35.8426 12.3947 34.7104 13.7664 34.7104C15.138 34.7104 16.1519 35.6937 16.1519 37.094Z" fill="#064750"/>
<path opacity="0.3" d="M22.5327 37.094C22.5327 38.3454 21.5189 39.4775 20.1472 39.4775C18.8948 39.4775 17.7617 38.4645 17.7617 37.094C17.7617 35.8426 18.7756 34.7104 20.1472 34.7104C21.5189 34.7104 22.5327 35.6937 22.5327 37.094Z" fill="#064750"/>
<path opacity="0.3" d="M28.9155 37.094C28.9155 38.3454 27.9017 39.4775 26.53 39.4775C25.2776 39.4775 24.1445 38.4645 24.1445 37.094C24.1445 35.8426 25.1584 34.7104 26.53 34.7104C27.9017 34.7104 28.9155 35.6937 28.9155 37.094Z" fill="#064750"/>
<path opacity="0.3" d="M35.2964 37.094C35.2964 38.3454 34.2826 39.4775 32.9109 39.4775C31.6585 39.4775 30.5254 38.4645 30.5254 37.094C30.5254 35.8426 31.5392 34.7104 32.9109 34.7104C34.2826 34.7104 35.2964 35.6937 35.2964 37.094Z" fill="#064750"/>
<path opacity="0.3" d="M9.771 42.8741C9.771 44.1255 8.75716 45.2577 7.3855 45.2577C6.13311 45.2577 5 44.2447 5 42.8741C5 41.6227 6.01384 40.4905 7.3855 40.4905C8.78698 40.4905 9.771 41.5036 9.771 42.8741Z" fill="#064750"/>
<path opacity="0.3" d="M16.1519 42.8741C16.1519 44.1255 15.138 45.2577 13.7664 45.2577C12.514 45.2577 11.3809 44.2447 11.3809 42.8741C11.3809 41.6227 12.3947 40.4905 13.7664 40.4905C15.138 40.4905 16.1519 41.5036 16.1519 42.8741Z" fill="#064750"/>
<path opacity="0.3" d="M22.5327 42.8741C22.5327 44.1255 21.5189 45.2577 20.1472 45.2577C18.8948 45.2577 17.7617 44.2447 17.7617 42.8741C17.7617 41.6227 18.7756 40.4905 20.1472 40.4905C21.5189 40.4905 22.5327 41.5036 22.5327 42.8741Z" fill="#064750"/>
<path opacity="0.3" d="M28.9155 42.8741C28.9155 44.1255 27.9017 45.2577 26.53 45.2577C25.2776 45.2577 24.1445 44.2447 24.1445 42.8741C24.1445 41.6227 25.1584 40.4905 26.53 40.4905C27.9017 40.4905 28.9155 41.5036 28.9155 42.8741Z" fill="#064750"/>
<path opacity="0.3" d="M9.771 48.6543C9.771 49.9056 8.75716 51.0378 7.3855 51.0378C6.13311 51.0378 5 50.0248 5 48.6543C5 47.4029 6.01384 46.2708 7.3855 46.2708C8.78698 46.2708 9.771 47.2837 9.771 48.6543Z" fill="#064750"/>
<path opacity="0.3" d="M16.1519 48.6543C16.1519 49.9056 15.138 51.0378 13.7664 51.0378C12.514 51.0378 11.3809 50.0248 11.3809 48.6543C11.3809 47.4029 12.3947 46.2708 13.7664 46.2708C15.138 46.2708 16.1519 47.2837 16.1519 48.6543Z" fill="#064750"/>
<path opacity="0.3" d="M9.771 54.4343C9.771 55.6857 8.75716 56.8179 7.3855 56.8179C6.13311 56.8179 5 55.8049 5 54.4343C5 53.183 6.01384 52.0508 7.3855 52.0508C8.78698 52.0508 9.771 53.0638 9.771 54.4343Z" fill="#064750"/>
</g>
<path d="M74.7663 18.815H22.8436C22.2198 18.815 21.7148 19.3204 21.7148 19.9438C21.7148 20.5671 22.2198 21.0725 22.8436 21.0725H73.6376V51.5489C73.6376 52.1722 74.1425 52.6777 74.7663 52.6777C75.3902 52.6777 75.8951 52.1722 75.8951 51.5489V19.9438C75.8951 19.3204 75.3902 18.815 74.7663 18.815Z" fill="#064750"/>
<path d="M79.282 14.3H27.3592C26.7354 14.3 26.2305 14.8054 26.2305 15.4287C26.2305 16.0521 26.7354 16.5575 27.3592 16.5575H78.1532V47.0339C78.1532 47.6572 78.6581 48.1626 79.282 48.1626C79.9058 48.1626 80.4107 47.6572 80.4107 47.0339V15.4287C80.4107 14.8054 79.9058 14.3 79.282 14.3Z" fill="#064750"/>
<path d="M70.3913 23.1894H18.328C17.7041 23.1894 17.1992 23.6948 17.1992 24.3181V55.1712C17.1992 55.7945 17.7041 56.3 18.328 56.3H70.3913C71.0152 56.3 71.5201 55.7945 71.5201 55.1712V24.3181C71.5201 23.6948 71.0152 23.1894 70.3913 23.1894ZM29.0324 54.0425C28.5038 49.0043 24.4947 44.9887 19.4567 44.4616V35.0284C24.4957 34.5008 28.511 30.4862 29.038 25.4472H59.6808C60.2084 30.4862 64.223 34.5009 69.262 35.0284V44.4611C64.223 44.9887 60.2078 49.0033 59.6808 54.0423L29.0324 54.0425ZM69.2626 25.4469V32.7561C65.4697 32.2512 62.4567 29.2398 61.9534 25.4469H69.2626ZM19.4567 25.4469H26.7659C26.2625 29.2398 23.2496 32.2512 19.4567 32.7561V25.4469ZM19.4567 54.0425V46.7328C23.2496 47.2377 26.2625 50.2491 26.7659 54.0425H19.4567ZM69.2626 54.0425H61.9534C62.4573 50.2491 65.4697 47.2372 69.2626 46.7328V54.0425Z" fill="#064750"/>
<path d="M44.3611 38.6153C42.5974 38.6153 42.5974 37.7818 42.5974 37.3339C42.5974 36.6395 43.4052 36.0524 44.3611 36.0524H46.5304C47.1542 36.0524 47.6591 35.547 47.6591 34.9237C47.6591 34.3003 47.1542 33.7949 46.5304 33.7949H45.4898V32.0312C45.4898 31.4079 44.9849 30.9025 44.3611 30.9025C43.7372 30.9025 43.2323 31.4079 43.2323 32.0312V33.9541C41.5664 34.3865 40.3398 35.7294 40.3398 37.3338C40.3398 39.0446 41.396 40.8728 44.3611 40.8728C46.1247 40.8728 46.1247 41.6135 46.1247 42.1547C46.1247 42.8491 45.317 43.4362 44.3611 43.4362H42.1918C41.5679 43.4362 41.063 43.9416 41.063 44.5649C41.063 45.1883 41.5679 45.6937 42.1918 45.6937H43.2323V47.4574C43.2323 48.0807 43.7373 48.5861 44.3611 48.5861C44.9849 48.5861 45.4899 48.0807 45.4899 47.4574V45.5345C47.1558 45.1021 48.3823 43.7592 48.3823 42.1548C48.3823 41.0906 47.9908 38.6153 44.3611 38.6153V38.6153Z" fill="#064750"/>
<path d="M44.359 28.0101C37.8883 28.0101 32.625 33.274 32.625 39.7442C32.625 46.2148 37.8883 51.4787 44.359 51.4787C50.8297 51.4787 56.093 46.2148 56.093 39.7442C56.093 33.2745 50.8297 28.0101 44.359 28.0101V28.0101ZM44.359 49.2217C39.134 49.2217 34.8825 44.9702 34.8825 39.7447C34.8825 34.5191 39.134 30.2682 44.359 30.2682C49.5841 30.2682 53.8355 34.5191 53.8355 39.7447C53.8355 44.9702 49.5841 49.2217 44.359 49.2217Z" fill="#064750"/>
</svg>
