<svg width="85" height="75" viewBox="0 0 85 75" fill="none" xmlns="http://www.w3.org/2000/svg">
<path d="M38.9396 13.26C36.3109 13.26 34.1797 15.3917 34.1797 18.0199C34.1797 20.6482 36.3109 22.7798 38.9396 22.7798C41.5679 22.7798 43.6994 20.6481 43.6994 18.0199C43.6994 15.3921 41.5678 13.26 38.9396 13.26ZM38.9396 20.7403C37.4393 20.7403 36.2198 19.5198 36.2198 18.0205C36.2198 16.5212 37.4398 15.3007 38.9396 15.3007C40.4398 15.3007 41.6593 16.5212 41.6593 18.0205C41.6593 19.5194 40.4393 20.7403 38.9396 20.7403Z" fill="#064750"/>
<path d="M11.741 27.2H66.141C66.5926 27.2 66.991 26.9031 67.1191 26.4705C67.2476 26.0365 67.0764 25.5716 66.6969 25.3245L39.4969 7.64452C39.1592 7.42538 38.7233 7.42538 38.3851 7.64452L11.1851 25.3245C10.8061 25.5707 10.6344 26.0365 10.7629 26.4705C10.891 26.9031 11.2894 27.2 11.741 27.2ZM38.941 9.71673L62.6997 25.16H15.1811L38.941 9.71673Z" fill="#064750"/>
<path d="M11.7412 56.44H66.1412C66.7047 56.44 67.161 55.9833 67.161 55.4202C67.161 54.8567 66.7047 54.4 66.1412 54.4H59.0011V31.28H60.7011C61.2646 31.28 61.7209 30.8232 61.7209 30.2601C61.7209 29.6966 61.2646 29.2399 60.7011 29.2399H49.8209C49.2574 29.2399 48.8011 29.6966 48.8011 30.2597C48.8011 30.8227 49.2574 31.2795 49.8209 31.2795L51.5209 31.28V54.4H26.3609V31.28H28.0609C28.6244 31.28 29.0807 30.8232 29.0807 30.2601C29.0811 29.6966 28.6248 29.2399 28.0609 29.2399H17.1806C16.6171 29.2399 16.1608 29.6966 16.1608 30.2597C16.1608 30.8227 16.6171 31.2795 17.1806 31.2795L18.8811 31.28V54.4H11.741C11.177 54.4 10.7207 54.8567 10.7207 55.4198C10.7207 55.9828 11.177 56.44 11.741 56.44L11.7412 56.44ZM53.5612 31.28H56.9612V54.4H53.5612V31.28ZM20.9212 31.28H24.3212V54.4H20.9212V31.28Z" fill="#064750"/>
<path d="M68.1803 58.48H9.02028C8.4563 58.48 8 58.9368 8 59.4998C8 60.0629 8.4563 60.5196 9.01981 60.5196H68.1798C68.7433 60.5196 69.1996 60.0629 69.1996 59.4998C69.2001 58.9368 68.7438 58.48 68.1803 58.48Z" fill="#064750"/>
<path d="M30.6215 43.7422C30.6215 44.3053 31.0778 44.762 31.6413 44.762H32.7873C34.0187 48.0426 37.1787 50.3871 40.8842 50.3871C42.3988 50.3871 43.8948 49.983 45.2125 49.2198C45.7001 48.9371 45.8661 48.3128 45.583 47.8258C45.3003 47.3377 44.676 47.1731 44.189 47.4544C43.1824 48.0378 42.0393 48.3471 40.8843 48.3471C38.3291 48.3471 36.1115 46.8875 35.0107 44.7621H42.0867C42.6502 44.7621 43.1065 44.3054 43.1065 43.7423C43.1065 43.1793 42.6502 42.7225 42.0867 42.7225L34.3518 42.722C34.3034 42.3985 34.2697 42.0698 34.2697 41.7335C34.2697 41.3963 34.3029 41.0681 34.3518 40.7441H42.0867C42.6502 40.7441 43.1065 40.2873 43.1065 39.7243C43.1065 39.1613 42.6502 38.7045 42.0867 38.7045L35.0107 38.704C36.1121 36.5776 38.3291 35.1191 40.8843 35.1191C42.0383 35.1191 43.1815 35.4279 44.189 36.0118C44.677 36.2954 45.3008 36.128 45.583 35.6404C45.8657 35.1528 45.6992 34.5285 45.2116 34.2464C43.893 33.4827 42.3964 33.079 40.8842 33.079C37.1787 33.079 34.0188 35.4241 32.7874 38.7041H31.6409C31.0774 38.7041 30.6211 39.1609 30.6211 39.7239C30.6211 40.2869 31.0774 40.7437 31.6409 40.7437H32.2898C32.2523 41.0696 32.2291 41.3978 32.2291 41.7332C32.2291 42.0676 32.2528 42.3967 32.2898 42.7217H31.6409C31.0779 42.7221 30.6216 43.1794 30.6216 43.7424L30.6215 43.7422Z" fill="#064750"/>
<g opacity="0.3">
<path opacity="0.3" d="M63.0152 19.7537C63.0152 21.005 62.0013 22.1372 60.6297 22.1372C59.3773 22.1372 58.2441 21.1242 58.2441 19.7537C58.2441 18.5023 59.258 17.3701 60.6297 17.3701C62.0312 17.3701 63.0152 18.3831 63.0152 19.7537Z" fill="#064750"/>
<path opacity="0.3" d="M69.8706 19.7537C69.8706 21.005 68.8568 22.1372 67.4851 22.1372C66.2327 22.1372 65.0996 21.1242 65.0996 19.7537C65.0996 18.5023 66.1135 17.3701 67.4851 17.3701C68.8866 17.3701 69.8706 18.3831 69.8706 19.7537Z" fill="#064750"/>
<path opacity="0.3" d="M75.7769 19.7537C75.7769 21.005 74.7631 22.1372 73.3914 22.1372C72.139 22.1372 71.0059 21.1242 71.0059 19.7537C71.0059 18.5023 72.0197 17.3701 73.3914 17.3701C74.7631 17.3701 75.7769 18.3831 75.7769 19.7537Z" fill="#064750"/>
<path opacity="0.3" d="M48.1001 13.3395C48.1001 12.0882 49.1139 10.956 50.4856 10.956C51.738 10.956 52.8711 11.969 52.8711 13.3395C52.8711 14.5909 51.8573 15.7231 50.4856 15.7231C49.1139 15.7231 48.1001 14.7101 48.1001 13.3395Z" fill="#064750"/>
<path opacity="0.3" d="M48.1001 6.95868C48.1001 5.70732 49.1139 4.57513 50.4856 4.57513C51.738 4.57513 52.8711 5.58814 52.8711 6.95868C52.8711 8.21004 51.8573 9.34222 50.4856 9.34222C49.1139 9.34222 48.1001 8.32922 48.1001 6.95868Z" fill="#064750"/>
<path opacity="0.3" d="M53.8794 13.3396C53.8794 12.0882 54.8932 10.9561 56.2649 10.9561C57.5173 10.9561 58.6504 11.969 58.6504 13.3396C58.6504 14.5909 57.6366 15.7231 56.2649 15.7231C54.8932 15.7231 53.8794 14.7101 53.8794 13.3396Z" fill="#064750"/>
<path opacity="0.3" d="M53.8794 6.95871C53.8794 5.70736 54.8932 4.5752 56.2649 4.5752C57.5173 4.5752 58.6504 5.58819 58.6504 6.95871C58.6504 8.21005 57.6366 9.34222 56.2649 9.34222C54.8932 9.34222 53.8794 8.32923 53.8794 6.95871Z" fill="#064750"/>
<path opacity="0.3" d="M59.6899 13.3396C59.6899 12.0882 60.7038 10.9561 62.0754 10.9561C63.3278 10.9561 64.4609 11.969 64.4609 13.3396C64.4609 14.5909 63.4471 15.7231 62.0754 15.7231C60.7038 15.7231 59.6899 14.7399 59.6899 13.3396Z" fill="#064750"/>
<path opacity="0.3" d="M59.6899 6.95871C59.6899 5.70736 60.7038 4.5752 62.0754 4.5752C63.3278 4.5752 64.4609 5.58819 64.4609 6.95871C64.4609 8.21005 63.4471 9.34222 62.0754 9.34222C60.7038 9.34222 59.6899 8.35902 59.6899 6.95871Z" fill="#064750"/>
<path opacity="0.3" d="M65.3286 13.3395C65.3286 12.0882 66.3424 10.956 67.7141 10.956C68.9665 10.956 70.0996 11.969 70.0996 13.3395C70.0996 14.5909 69.0858 15.7231 67.7141 15.7231C66.3424 15.7231 65.3286 14.7101 65.3286 13.3395Z" fill="#064750"/>
<path opacity="0.3" d="M65.3286 6.95868C65.3286 5.70732 66.3424 4.57513 67.7141 4.57513C68.9665 4.57513 70.0996 5.58814 70.0996 6.95868C70.0996 8.21004 69.0858 9.34222 67.7141 9.34222C66.3424 9.34222 65.3286 8.32922 65.3286 6.95868Z" fill="#064750"/>
<path opacity="0.3" d="M71.2505 13.3395C71.2505 12.0882 72.2643 10.956 73.636 10.956C74.8884 10.956 76.0215 11.969 76.0215 13.3395C76.0215 14.5909 75.0076 15.7231 73.636 15.7231C72.2643 15.7231 71.2505 14.7101 71.2505 13.3395Z" fill="#064750"/>
<path opacity="0.3" d="M71.2505 6.95868C71.2505 5.70732 72.2643 4.57513 73.636 4.57513C74.8884 4.57513 76.0215 5.58814 76.0215 6.95868C76.0215 8.21004 75.0076 9.34222 73.636 9.34222C72.2643 9.34222 71.2505 8.32922 71.2505 6.95868Z" fill="#064750"/>
<path opacity="0.3" d="M63.0152 25.5338C63.0152 26.7852 62.0013 27.9174 60.6297 27.9174C59.3773 27.9174 58.2441 26.9044 58.2441 25.5338C58.2441 24.2825 59.258 23.1503 60.6297 23.1503C62.0312 23.1503 63.0152 24.1633 63.0152 25.5338Z" fill="#064750"/>
<path opacity="0.3" d="M69.396 25.5338C69.396 26.7852 68.3822 27.9174 67.0105 27.9174C65.7581 27.9174 64.625 26.9044 64.625 25.5338C64.625 24.2825 65.6388 23.1503 67.0105 23.1503C68.412 23.1503 69.396 24.1633 69.396 25.5338Z" fill="#064750"/>
<path opacity="0.3" d="M75.7769 25.5338C75.7769 26.7852 74.7631 27.9174 73.3914 27.9174C72.139 27.9174 71.0059 26.9044 71.0059 25.5338C71.0059 24.2825 72.0197 23.1503 73.3914 23.1503C74.7631 23.1503 75.7769 24.1633 75.7769 25.5338Z" fill="#064750"/>
<path opacity="0.3" d="M69.8706 31.314C69.8706 32.5653 68.8568 33.6975 67.4851 33.6975C66.2327 33.6975 65.0996 32.6845 65.0996 31.314C65.0996 30.0626 66.1135 28.9304 67.4851 28.9304C68.8866 28.9304 69.8706 29.9434 69.8706 31.314Z" fill="#064750"/>
<path opacity="0.3" d="M75.7769 31.314C75.7769 32.5653 74.7631 33.6975 73.3914 33.6975C72.139 33.6975 71.0059 32.6845 71.0059 31.314C71.0059 30.0626 72.0197 28.9304 73.3914 28.9304C74.7631 28.9304 75.7769 29.9434 75.7769 31.314Z" fill="#064750"/>
<path opacity="0.3" d="M69.396 37.094C69.396 38.3454 68.3822 39.4775 67.0105 39.4775C65.7581 39.4775 64.625 38.4645 64.625 37.094C64.625 35.8426 65.6388 34.7104 67.0105 34.7104C68.412 34.7402 69.396 35.7235 69.396 37.094Z" fill="#064750"/>
<path opacity="0.3" d="M75.8707 37.094C75.8707 38.3454 74.8568 39.4775 73.4851 39.4775C72.2327 39.4775 71.0996 38.4645 71.0996 37.094C71.0996 35.8426 72.1135 34.7104 73.4851 34.7104C74.8568 34.7402 75.8707 35.7235 75.8707 37.094Z" fill="#064750"/>
<path opacity="0.3" d="M69.396 42.8741C69.396 44.1255 68.3822 45.2577 67.0105 45.2577C65.7581 45.2577 64.625 44.2447 64.625 42.8741C64.625 41.6227 65.6388 40.4905 67.0105 40.4905C68.412 40.5203 69.396 41.5036 69.396 42.8741Z" fill="#064750"/>
<path opacity="0.3" d="M75.7769 42.8741C75.7769 44.1255 74.7631 45.2577 73.3914 45.2577C72.139 45.2577 71.0059 44.2447 71.0059 42.8741C71.0059 41.6227 72.0197 40.4905 73.3914 40.4905C74.7631 40.5203 75.7769 41.5036 75.7769 42.8741Z" fill="#064750"/>
<path opacity="0.3" d="M69.396 48.684C69.396 49.9354 68.3822 51.0676 67.0105 51.0676C65.7581 51.0676 64.625 50.0546 64.625 48.684C64.625 47.4327 65.6388 46.3005 67.0105 46.3005C68.412 46.3005 69.396 47.2837 69.396 48.684Z" fill="#064750"/>
<path opacity="0.3" d="M75.7769 48.684C75.7769 49.9354 74.7631 51.0676 73.3914 51.0676C72.139 51.0676 71.0059 50.0546 71.0059 48.684C71.0059 47.4327 72.0197 46.3005 73.3914 46.3005C74.7631 46.3005 75.7769 47.2837 75.7769 48.684Z" fill="#064750"/>
<path opacity="0.3" d="M69.396 54.4641C69.396 55.7155 68.3822 56.8477 67.0105 56.8477C65.7581 56.8477 64.625 55.8347 64.625 54.4641C64.625 53.2127 65.6388 52.0805 67.0105 52.0805C68.412 52.0805 69.396 53.0935 69.396 54.4641Z" fill="#064750"/>
<path opacity="0.3" d="M75.7769 54.4641C75.7769 55.7155 74.7631 56.8477 73.3914 56.8477C72.139 56.8477 71.0059 55.8347 71.0059 54.4641C71.0059 53.2127 72.0197 52.0805 73.3914 52.0805C74.7631 52.0805 75.7769 53.0935 75.7769 54.4641Z" fill="#064750"/>
<path opacity="0.3" d="M69.396 60.2443C69.396 61.4956 68.3822 62.6278 67.0105 62.6278C65.7581 62.6278 64.625 61.6148 64.625 60.2443C64.625 58.9929 65.6388 57.8607 67.0105 57.8607C68.412 57.8607 69.396 58.8737 69.396 60.2443Z" fill="#064750"/>
<path opacity="0.3" d="M75.7769 60.2443C75.7769 61.4956 74.7631 62.6278 73.3914 62.6278C72.139 62.6278 71.0059 61.6148 71.0059 60.2443C71.0059 58.9929 72.0197 57.8607 73.3914 57.8607C74.7631 57.8607 75.7769 58.8737 75.7769 60.2443Z" fill="#064750"/>
</g>
</svg>
