<svg width="85" height="75" viewBox="0 0 85 75" fill="none" xmlns="http://www.w3.org/2000/svg">
<g opacity="0.3">
<path opacity="0.3" d="M15.771 5.38351C15.771 6.63486 14.7572 7.76703 13.3855 7.76703C12.1331 7.76703 11 6.75404 11 5.38351C11 4.13217 12.0138 3 13.3855 3C14.787 3 15.771 4.01299 15.771 5.38351Z" fill="#064750"/>
<path opacity="0.3" d="M22.1519 5.38351C22.1519 6.63486 21.138 7.76703 19.7664 7.76703C18.514 7.76703 17.3809 6.75404 17.3809 5.38351C17.3809 4.13217 18.3947 3 19.7664 3C21.1678 3 22.1519 4.01299 22.1519 5.38351Z" fill="#064750"/>
<path opacity="0.3" d="M28.5327 5.38351C28.5327 6.63486 27.5189 7.76703 26.1472 7.76703C24.8948 7.76703 23.7617 6.75404 23.7617 5.38351C23.7617 4.13217 24.7756 3 26.1472 3C27.5487 3 28.5327 4.01299 28.5327 5.38351Z" fill="#064750"/>
<path opacity="0.3" d="M15.771 11.1636C15.771 12.415 14.7572 13.5472 13.3855 13.5472C12.1331 13.5472 11 12.5342 11 11.1636C11 9.91227 12.0138 8.78009 13.3855 8.78009C14.787 8.78009 15.771 9.7931 15.771 11.1636Z" fill="#064750"/>
<path opacity="0.3" d="M22.1519 11.1636C22.1519 12.415 21.138 13.5472 19.7664 13.5472C18.514 13.5472 17.3809 12.5342 17.3809 11.1636C17.3809 9.91227 18.3947 8.78009 19.7664 8.78009C21.1678 8.78009 22.1519 9.7931 22.1519 11.1636Z" fill="#064750"/>
<path opacity="0.3" d="M28.5327 11.1636C28.5327 12.415 27.5189 13.5472 26.1472 13.5472C24.8948 13.5472 23.7617 12.5342 23.7617 11.1636C23.7617 9.91227 24.7756 8.78009 26.1472 8.78009C27.5487 8.78009 28.5327 9.7931 28.5327 11.1636Z" fill="#064750"/>
<path opacity="0.3" d="M15.771 16.9437C15.771 18.1951 14.7572 19.3273 13.3855 19.3273C12.1331 19.3273 11 18.3143 11 16.9437C11 15.6924 12.0138 14.5602 13.3855 14.5602C14.787 14.5602 15.771 15.5732 15.771 16.9437Z" fill="#064750"/>
<path opacity="0.3" d="M22.1519 16.9437C22.1519 18.1951 21.138 19.3273 19.7664 19.3273C18.514 19.3273 17.3809 18.3143 17.3809 16.9437C17.3809 15.6924 18.3947 14.5602 19.7664 14.5602C21.1678 14.5602 22.1519 15.5732 22.1519 16.9437Z" fill="#064750"/>
<path opacity="0.3" d="M28.5327 16.9437C28.5327 18.1951 27.5189 19.3273 26.1472 19.3273C24.8948 19.3273 23.7617 18.3143 23.7617 16.9437C23.7617 15.6924 24.7756 14.5602 26.1472 14.5602C27.5487 14.5602 28.5327 15.5732 28.5327 16.9437Z" fill="#064750"/>
<path opacity="0.3" d="M15.771 22.7238C15.771 23.9752 14.7572 25.1074 13.3855 25.1074C12.1331 25.1074 11 24.0944 11 22.7238C11 21.4725 12.0138 20.3403 13.3855 20.3403C14.787 20.3701 15.771 21.3533 15.771 22.7238Z" fill="#064750"/>
<path opacity="0.3" d="M22.1519 22.7238C22.1519 23.9752 21.138 25.1074 19.7664 25.1074C18.514 25.1074 17.3809 24.0944 17.3809 22.7238C17.3809 21.4725 18.3947 20.3403 19.7664 20.3403C21.1678 20.3701 22.1519 21.3533 22.1519 22.7238Z" fill="#064750"/>
<path opacity="0.3" d="M15.771 28.504C15.771 29.7554 14.7572 30.8876 13.3855 30.8876C12.1331 30.8876 11 29.8745 11 28.504C11 27.2526 12.0138 26.1204 13.3855 26.1204C14.787 26.1502 15.771 27.1334 15.771 28.504Z" fill="#064750"/>
<path opacity="0.3" d="M22.1519 28.504C22.1519 29.7554 21.138 30.8876 19.7664 30.8876C18.514 30.8876 17.3809 29.8745 17.3809 28.504C17.3809 27.2526 18.3947 26.1204 19.7664 26.1204C21.1678 26.1502 22.1519 27.1334 22.1519 28.504Z" fill="#064750"/>
<path opacity="0.3" d="M15.771 34.2841C15.771 35.5355 14.7572 36.6677 13.3855 36.6677C12.1331 36.6677 11 35.6547 11 34.2841C11 33.0328 12.0138 31.9006 13.3855 31.9006C14.787 31.9304 15.771 32.9136 15.771 34.2841Z" fill="#064750"/>
<path opacity="0.3" d="M22.1519 34.2841C22.1519 35.5355 21.138 36.6677 19.7664 36.6677C18.514 36.6677 17.3809 35.6547 17.3809 34.2841C17.3809 33.0328 18.3947 31.9006 19.7664 31.9006C21.1678 31.9304 22.1519 32.9136 22.1519 34.2841Z" fill="#064750"/>
<path opacity="0.3" d="M15.771 40.094C15.771 41.3454 14.7572 42.4775 13.3855 42.4775C12.1331 42.4775 11 41.4645 11 40.094C11 38.8426 12.0138 37.7104 13.3855 37.7104C14.787 37.7104 15.771 38.7235 15.771 40.094Z" fill="#064750"/>
<path opacity="0.3" d="M22.1519 40.094C22.1519 41.3454 21.138 42.4775 19.7664 42.4775C18.514 42.4775 17.3809 41.4645 17.3809 40.094C17.3809 38.8426 18.3947 37.7104 19.7664 37.7104C21.1678 37.7104 22.1519 38.7235 22.1519 40.094Z" fill="#064750"/>
<path opacity="0.3" d="M28.5327 40.094C28.5327 41.3454 27.5189 42.4775 26.1472 42.4775C24.8948 42.4775 23.7617 41.4645 23.7617 40.094C23.7617 38.8426 24.7756 37.7104 26.1472 37.7104C27.5487 37.7104 28.5327 38.7235 28.5327 40.094Z" fill="#064750"/>
<path opacity="0.3" d="M15.771 45.8741C15.771 47.1255 14.7572 48.2576 13.3855 48.2576C12.1331 48.2576 11 47.2446 11 45.8741C11 44.6228 12.0138 43.4906 13.3855 43.4906C14.787 43.4906 15.771 44.5036 15.771 45.8741Z" fill="#064750"/>
<path opacity="0.3" d="M22.1519 45.8741C22.1519 47.1255 21.138 48.2576 19.7664 48.2576C18.514 48.2576 17.3809 47.2446 17.3809 45.8741C17.3809 44.6228 18.3947 43.4906 19.7664 43.4906C21.1678 43.4906 22.1519 44.5036 22.1519 45.8741Z" fill="#064750"/>
<path opacity="0.3" d="M28.5327 45.8741C28.5327 47.1255 27.5189 48.2576 26.1472 48.2576C24.8948 48.2576 23.7617 47.2446 23.7617 45.8741C23.7617 44.6228 24.7756 43.4906 26.1472 43.4906C27.5487 43.4906 28.5327 44.5036 28.5327 45.8741Z" fill="#064750"/>
<path opacity="0.3" d="M34.9136 45.8741C34.9136 47.1255 33.8998 48.2576 32.5281 48.2576C31.2757 48.2576 30.1426 47.2446 30.1426 45.8741C30.1426 44.6228 31.1564 43.4906 32.5281 43.4906C33.9296 43.4906 34.9136 44.5036 34.9136 45.8741Z" fill="#064750"/>
<path opacity="0.3" d="M15.771 51.6542C15.771 52.9055 14.7572 54.0377 13.3855 54.0377C12.1331 54.0377 11 53.0247 11 51.6542C11 50.4028 12.0138 49.2706 13.3855 49.2706C14.787 49.2706 15.771 50.2836 15.771 51.6542Z" fill="#064750"/>
<path opacity="0.3" d="M22.1519 51.6542C22.1519 52.9055 21.138 54.0377 19.7664 54.0377C18.514 54.0377 17.3809 53.0247 17.3809 51.6542C17.3809 50.4028 18.3947 49.2706 19.7664 49.2706C21.1678 49.2706 22.1519 50.2836 22.1519 51.6542Z" fill="#064750"/>
<path opacity="0.3" d="M28.5327 51.6542C28.5327 52.9055 27.5189 54.0377 26.1472 54.0377C24.8948 54.0377 23.7617 53.0247 23.7617 51.6542C23.7617 50.4028 24.7756 49.2706 26.1472 49.2706C27.5487 49.2706 28.5327 50.2836 28.5327 51.6542Z" fill="#064750"/>
<path opacity="0.3" d="M34.9136 51.6542C34.9136 52.9055 33.8998 54.0377 32.5281 54.0377C31.2757 54.0377 30.1426 53.0247 30.1426 51.6542C30.1426 50.4028 31.1564 49.2706 32.5281 49.2706C33.9296 49.2706 34.9136 50.2836 34.9136 51.6542Z" fill="#064750"/>
<path opacity="0.3" d="M41.2964 51.6542C41.2964 52.9055 40.2826 54.0377 38.9109 54.0377C37.6585 54.0377 36.5254 53.0247 36.5254 51.6542C36.5254 50.4028 37.5392 49.2706 38.9109 49.2706C40.2826 49.2706 41.2964 50.2836 41.2964 51.6542Z" fill="#064750"/>
<path opacity="0.3" d="M34.9136 57.4343C34.9136 58.6857 33.8998 59.8179 32.5281 59.8179C31.2757 59.8179 30.1426 58.8049 30.1426 57.4343C30.1426 56.183 31.1564 55.0508 32.5281 55.0508C33.9296 55.0806 34.9136 56.0638 34.9136 57.4343Z" fill="#064750"/>
<path opacity="0.3" d="M41.2964 57.4343C41.2964 58.6857 40.2826 59.8179 38.9109 59.8179C37.6585 59.8179 36.5254 58.8049 36.5254 57.4343C36.5254 56.183 37.5392 55.0508 38.9109 55.0508C40.2826 55.0806 41.2964 56.0638 41.2964 57.4343Z" fill="#064750"/>
<path opacity="0.3" d="M41.2964 63.2144C41.2964 64.4657 40.2826 65.5979 38.9109 65.5979C37.6585 65.5979 36.5254 64.5849 36.5254 63.2144C36.5254 61.963 37.5392 60.8309 38.9109 60.8309C40.2826 60.8607 41.2964 61.8439 41.2964 63.2144Z" fill="#064750"/>
<path opacity="0.3" d="M47.6773 63.2144C47.6773 64.4657 46.6634 65.5979 45.2918 65.5979C44.0394 65.5979 42.9062 64.5849 42.9062 63.2144C42.9062 61.963 43.9201 60.8309 45.2918 60.8309C46.6634 60.8607 47.6773 61.8439 47.6773 63.2144Z" fill="#064750"/>
</g>
<path d="M27.0804 27.9716H26.9527C25.4752 27.9716 24.2734 29.1738 24.2734 30.6509C24.2734 31.5765 24.7635 32.4515 25.5528 32.9354L27.52 34.1409C27.7675 34.2923 27.9214 34.5669 27.9214 34.8575V35.0184C27.9214 35.4822 27.5447 35.8589 27.0809 35.8589L26.9532 35.8594C26.4894 35.8594 26.1127 35.4826 26.1127 35.0188V34.9691C26.1127 34.4614 25.701 34.0498 25.1933 34.0498C24.6856 34.0498 24.2739 34.4614 24.2739 34.9691V35.0188C24.2739 36.4963 25.476 37.6981 26.9532 37.6981H27.0809C28.5584 37.6981 29.7602 36.496 29.7602 35.0188V34.8579C29.7602 33.9324 29.2701 33.0569 28.4808 32.573L26.5136 31.3676C26.2661 31.2161 26.1122 30.9415 26.1122 30.6513C26.1122 30.1876 26.489 29.8108 26.9527 29.8108H27.0804C27.5442 29.8108 27.921 30.1876 27.921 30.6513V31.0794C27.921 31.5871 28.3326 31.9988 28.8403 31.9988C29.348 31.9988 29.7597 31.5871 29.7597 31.0794V30.6513C29.7601 29.1738 28.5579 27.9716 27.0804 27.9716V27.9716Z" fill="#064750"/>
<path d="M34.0808 27.9716H33.9527C32.4752 27.9716 31.2734 29.1738 31.2734 30.6509C31.2734 31.5765 31.7635 32.4515 32.5528 32.9354L34.52 34.1409C34.7675 34.2923 34.9214 34.5669 34.9214 34.8575V35.0184C34.9214 35.4822 34.5447 35.8589 34.0809 35.8589L33.9528 35.8594C33.489 35.8594 33.1122 35.4826 33.1122 35.0188V34.9691C33.1122 34.4614 32.7006 34.0498 32.1929 34.0498C31.6852 34.0498 31.2735 34.4614 31.2735 34.9691V35.0188C31.2735 36.4963 32.4756 37.6981 33.9528 37.6981H34.0804C35.5579 37.6981 36.7597 36.496 36.7597 35.0188V34.8579C36.7597 33.9324 36.2697 33.0569 35.4804 32.573L33.5132 31.3676C33.2657 31.2161 33.1118 30.9415 33.1118 30.6513C33.1118 30.1876 33.4885 29.8108 33.9523 29.8108H34.08C34.5438 29.8108 34.9205 30.1876 34.9205 30.6513V31.0794C34.9205 31.5871 35.3322 31.9988 35.8399 31.9988C36.3476 31.9988 36.7593 31.5871 36.7593 31.0794V30.6513C36.7601 29.1738 35.5579 27.9716 34.0808 27.9716V27.9716Z" fill="#064750"/>
<path d="M42.8384 35.8604H40.1102V28.8917C40.1102 28.384 39.6986 27.9723 39.1909 27.9723C38.6832 27.9723 38.2715 28.384 38.2715 28.8917V36.7793C38.2715 37.287 38.6832 37.6987 39.1909 37.6987H42.8384C43.3461 37.6987 43.7578 37.287 43.7578 36.7793C43.7578 36.2716 43.3461 35.8604 42.8384 35.8604V35.8604Z" fill="#064750"/>
<path d="M71.7183 8.95941H19.207C18.4962 8.95941 17.9199 9.53566 17.9199 10.2465V49.6723C17.9199 50.3832 18.4962 50.9594 19.207 50.9594H71.7183C72.4292 50.9594 73.0054 50.3832 73.0054 49.6723V10.2465C73.005 9.53566 72.4288 8.95941 71.7179 8.95941H71.7183ZM70.4312 11.5336V16.1051H20.4942V11.5336H70.4312ZM20.4942 48.3852V17.943H70.4312V48.3852H20.4942Z" fill="#064750"/>
<path d="M24.4993 13.8176C24.4993 14.4353 23.9982 14.9364 23.3805 14.9364C22.7628 14.9364 22.2617 14.4352 22.2617 13.8176C22.2617 13.1999 22.7629 12.6988 23.3805 12.6988C23.9982 12.6988 24.4993 13.1999 24.4993 13.8176Z" fill="#064750"/>
<path d="M28.8408 13.8176C28.8408 14.4353 28.3396 14.9364 27.722 14.9364C27.1043 14.9364 26.6035 14.4352 26.6035 13.8176C26.6035 13.1999 27.1042 12.6988 27.722 12.6988C28.3397 12.6988 28.8408 13.1999 28.8408 13.8176Z" fill="#064750"/>
<path d="M32.0638 14.9366C32.6807 14.9366 33.1826 14.435 33.1826 13.8178C33.1826 13.2009 32.681 12.699 32.0638 12.699C31.4469 12.699 30.9453 13.2005 30.9453 13.8178C30.9457 14.4351 31.4473 14.9366 32.0638 14.9366Z" fill="#064750"/>
<path d="M58.548 30.1067L54.5212 34.5623L52.282 32.7643C51.8855 32.4458 51.3076 32.5098 50.9895 32.9054C50.6718 33.3015 50.735 33.8798 51.1307 34.1979L54.046 36.5386C54.2155 36.6749 54.4191 36.7413 54.621 36.7413C54.8726 36.7413 55.1225 36.6387 55.3031 36.4384L59.911 31.3393C60.2517 30.9625 60.2221 30.3817 59.8454 30.0411C59.4698 29.7004 58.8878 29.73 58.5479 30.1068L58.548 30.1067Z" fill="#064750"/>
<path d="M58.5526 41.6403C57.5363 42.3401 56.4446 42.8901 55.4644 43.1914C52.7576 42.3508 47.9379 39.0747 47.9379 34.6154V26.2204C51.869 25.9606 54.3271 24.0759 55.4681 22.9394C56.6091 24.0763 59.0668 25.961 62.9983 26.2204V30.2267C63.2942 30.1577 63.6013 30.1183 63.9177 30.1183C64.2341 30.1183 64.5411 30.1581 64.8371 30.2267L64.8375 25.331C64.8375 24.8233 64.4258 24.4116 63.9181 24.4116C58.7188 24.4116 56.3173 21.1557 56.2192 21.0207C56.0477 20.7777 55.7686 20.6345 55.4714 20.6332C55.1689 20.6271 54.8931 20.7765 54.7199 21.017C54.6202 21.1557 52.2183 24.4113 47.0194 24.4113C46.5117 24.4113 46.1 24.823 46.1 25.3307L46.0996 34.6155C46.0996 39.9429 51.4726 43.9639 55.1041 45.0039C55.1886 45.0282 55.274 45.0401 55.3573 45.0401C55.3947 45.0401 55.4312 45.0355 55.4681 45.031C55.5051 45.0355 55.5416 45.0401 55.5794 45.0401C55.6631 45.0401 55.7485 45.0282 55.8326 45.0039C56.7114 44.7523 57.6442 44.337 58.5583 43.8079C58.5574 43.7882 58.5525 43.7697 58.5525 43.7496L58.5526 41.6403Z" fill="#064750"/>
<path d="M67.4443 35.7763H67.0712V34.1908C67.0712 32.4513 65.656 31.0363 63.917 31.0363C62.178 31.0363 60.7627 32.4515 60.7627 34.1908V35.7763H60.3901C59.8824 35.7763 59.4707 36.188 59.4707 36.6957V43.7494C59.4707 44.2571 59.8824 44.6688 60.3901 44.6688H67.4438C67.9515 44.6688 68.3632 44.2571 68.3632 43.7494L68.3636 36.6957C68.3636 36.188 67.9519 35.7763 67.4442 35.7763H67.4443ZM62.6016 34.1912C62.6016 33.4656 63.1914 32.8754 63.9171 32.8754C64.6428 32.8754 65.2326 33.4656 65.2326 34.1912V35.7767H62.6017V34.1912H62.6016ZM66.5249 42.8301H61.3099V37.6151H66.5253L66.5249 42.8301Z" fill="#064750"/>
</svg>
