<svg width="15" height="15" viewBox="0 0 15 15" fill="none" xmlns="http://www.w3.org/2000/svg">
<path d="M7.18793 1.51637L2.46209 2.46154L1.51692 7.18738C1.50178 7.26306 1.50556 7.34129 1.52793 7.41515C1.55029 7.48901 1.59054 7.5562 1.64511 7.61077L7.76539 13.7311C7.80891 13.7746 7.86059 13.8091 7.91746 13.8327C7.97433 13.8562 8.03528 13.8683 8.09684 13.8683C8.1584 13.8683 8.21935 13.8562 8.27623 13.8327C8.3331 13.8091 8.38477 13.7746 8.4283 13.7311L13.7316 8.42775C13.7751 8.38422 13.8097 8.33255 13.8332 8.27568C13.8568 8.2188 13.8689 8.15785 13.8689 8.09629C13.8689 8.03474 13.8568 7.97378 13.8332 7.91691C13.8097 7.86004 13.7751 7.80836 13.7316 7.76484L7.61132 1.64456C7.55675 1.58999 7.48956 1.54974 7.4157 1.52738C7.34184 1.50501 7.2636 1.50123 7.18793 1.51637V1.51637Z" stroke="#002641" stroke-width="1.5" stroke-linecap="round" stroke-linejoin="round"/>
<path d="M4.92188 5.625C5.3102 5.625 5.625 5.3102 5.625 4.92188C5.625 4.53355 5.3102 4.21875 4.92188 4.21875C4.53355 4.21875 4.21875 4.53355 4.21875 4.92188C4.21875 5.3102 4.53355 5.625 4.92188 5.625Z" fill="#002641"/>
</svg>
