<svg width="341" height="184" viewBox="0 0 341 184" fill="none" xmlns="http://www.w3.org/2000/svg">
<g clip-path="url(#clip0_803_91)">
<path d="M44.0139 40.0794L34.8361 63.2552L10.9512 56.1235" stroke="#00C396" stroke-width="2" stroke-linecap="round" stroke-linejoin="round"/>
<path d="M10.9512 56.1235L44.0139 40.0794L55.3786 63.4988C55.5559 63.8642 55.5808 64.285 55.4478 64.6687C55.3148 65.0525 55.0348 65.3676 54.6695 65.5449L24.3619 80.2521C23.9966 80.4294 23.5757 80.4543 23.192 80.3213C22.8083 80.1883 22.4931 79.9084 22.3158 79.543L10.9512 56.1235Z" stroke="#00C396" stroke-width="2" stroke-linecap="round" stroke-linejoin="round"/>
<path d="M30.4935 61.9587L23.2202 80.3253" stroke="#00C396" stroke-width="2" stroke-linecap="round" stroke-linejoin="round"/>
<path d="M55.4347 64.6932L36.5059 59.0414" stroke="#00C396" stroke-width="2" stroke-linecap="round" stroke-linejoin="round"/>
</g>
<g clip-path="url(#clip1_803_91)">
<path d="M122.984 39.1406L152.873 45.1116C153.125 45.1618 153.385 45.1341 153.621 45.0322C153.856 44.9302 154.054 44.7589 154.19 44.5411C154.325 44.3233 154.391 44.0693 154.378 43.8132C154.365 43.5571 154.274 43.3111 154.118 43.1079L145.017 31.2924C144.839 31.062 144.747 30.7772 144.756 30.4864L145.199 15.5789C145.206 15.3226 145.136 15.07 144.996 14.855C144.856 14.6401 144.654 14.4728 144.417 14.3757C144.179 14.2786 143.918 14.2563 143.668 14.3117C143.417 14.3671 143.19 14.4975 143.016 14.6857L122.307 37.0497C122.154 37.214 122.049 37.4158 122.001 37.6345C121.952 37.8531 121.963 38.0807 122.032 38.2937C122.101 38.5067 122.226 38.6974 122.393 38.8463C122.56 38.9951 122.764 39.0967 122.984 39.1406Z" stroke="#00C396" stroke-width="2" stroke-linecap="round" stroke-linejoin="round"/>
<path d="M144.742 30.9362L135.156 34.0417" stroke="#00C396" stroke-width="2" stroke-linecap="round" stroke-linejoin="round"/>
</g>
<path d="M340 183C251.5 154 251.5 74.9997 251.5 74.9997C220 -61 183 31.9998 143 31.9998" stroke="#00C396" stroke-width="2" stroke-dasharray="4 4"/>
<g clip-path="url(#clip2_803_91)">
<path d="M251.341 84.7268L243.559 114.196C243.493 114.444 243.505 114.706 243.592 114.947C243.68 115.188 243.839 115.397 244.048 115.545C244.257 115.694 244.507 115.775 244.763 115.777C245.019 115.78 245.271 115.705 245.483 115.561L257.831 107.197C258.072 107.034 258.362 106.959 258.652 106.986L273.504 108.337C273.76 108.36 274.016 108.305 274.239 108.178C274.462 108.052 274.642 107.861 274.753 107.63C274.864 107.399 274.903 107.139 274.863 106.886C274.823 106.633 274.706 106.398 274.529 106.212L253.469 84.1781C253.315 84.0163 253.12 83.8986 252.904 83.8372C252.689 83.7758 252.461 83.7729 252.244 83.8288C252.028 83.8846 251.83 83.9973 251.671 84.1552C251.512 84.313 251.398 84.5103 251.341 84.7268Z" fill="#F2F6F6" stroke="#00C396" stroke-width="2" stroke-linecap="round" stroke-linejoin="round"/>
<path d="M258.205 106.945L255.689 97.1879" stroke="#00C396" stroke-width="2" stroke-linecap="round" stroke-linejoin="round"/>
</g>
<defs>
<clipPath id="clip0_803_91">
<rect width="49" height="49" fill="white" transform="translate(0.761719 49.1543) rotate(-25.8856)"/>
</clipPath>
<clipPath id="clip1_803_91">
<rect width="40.3044" height="40.3044" fill="white" transform="translate(149.896 59.2242) rotate(-152.951)"/>
</clipPath>
<clipPath id="clip2_803_91">
<rect width="40.3044" height="40.3044" fill="white" transform="translate(229.654 110.365) rotate(-59.4559)"/>
</clipPath>
</defs>
</svg>
