<svg width="782" height="518" viewBox="0 0 782 518" fill="none" xmlns="http://www.w3.org/2000/svg">
<g opacity="0.05">
<path d="M756.836 12.3757C756.836 19.2106 762.381 24.7513 769.222 24.7513C776.062 24.7513 781.607 19.2106 781.607 12.3757C781.607 5.54083 776.062 6.07794e-05 769.222 6.0464e-05C762.381 6.01485e-05 756.836 5.54083 756.836 12.3757Z" fill="#064750"/>
<path d="M769.222 156.325C762.703 156.325 756.836 151.114 756.836 143.949C756.836 137.436 762.051 131.574 769.222 131.574C775.74 131.574 781.607 136.785 781.607 143.949C780.956 151.114 775.74 156.325 769.222 156.325Z" fill="#064750"/>
<path d="M735.976 57.9709C729.457 57.9709 723.59 52.7601 723.59 45.5953C723.59 39.0818 728.805 33.2197 735.976 33.2197C742.494 33.2197 748.361 38.4305 748.361 45.5953C748.361 52.1088 742.494 57.9709 735.976 57.9709Z" fill="#064750"/>
<path d="M735.976 90.5376C729.457 90.5376 723.59 85.3268 723.59 78.162C723.59 71.6485 728.805 65.7863 735.976 65.7863C742.494 65.7863 748.361 70.9971 748.361 78.162C748.361 85.3268 742.494 90.5376 735.976 90.5376Z" fill="#064750"/>
<path d="M735.976 123.757C729.457 123.757 723.59 118.546 723.59 111.382C723.59 104.868 728.805 99.006 735.976 99.006C742.494 99.006 748.361 104.217 748.361 111.382C748.361 117.895 742.494 123.757 735.976 123.757Z" fill="#064750"/>
<path d="M735.976 156.325C729.457 156.325 723.59 151.114 723.59 143.949C723.59 137.436 728.805 131.574 735.976 131.574C742.494 131.574 748.361 136.785 748.361 143.949C748.361 151.114 742.494 156.325 735.976 156.325Z" fill="#064750"/>
<path d="M735.976 189.543C729.457 189.543 723.59 184.333 723.59 177.168C723.59 170.654 728.805 164.792 735.976 164.792C742.494 164.792 748.361 170.003 748.361 177.168C748.361 183.681 742.494 189.543 735.976 189.543Z" fill="#064750"/>
<path d="M735.976 222.11C729.457 222.11 723.59 216.899 723.59 209.735C723.59 203.221 728.805 197.359 735.976 197.359C742.494 197.359 748.361 202.57 748.361 209.735C748.361 216.899 742.494 222.11 735.976 222.11Z" fill="#064750"/>
<path d="M735.976 254.678C729.457 254.678 723.59 249.467 723.59 242.302C723.59 235.789 728.805 229.927 735.976 229.927C742.494 229.927 748.361 235.138 748.361 242.302C748.361 249.467 742.494 254.678 735.976 254.678Z" fill="#064750"/>
<path d="M703.382 123.757C696.863 123.757 690.996 118.546 690.996 111.382C690.996 104.868 696.211 99.006 703.382 99.006C709.901 99.006 715.768 104.217 715.768 111.382C715.768 117.895 709.901 123.757 703.382 123.757Z" fill="#064750"/>
<path d="M703.382 156.325C696.863 156.325 690.996 151.114 690.996 143.949C690.996 137.436 696.211 131.574 703.382 131.574C709.901 131.574 715.768 136.785 715.768 143.949C715.768 151.114 709.901 156.325 703.382 156.325Z" fill="#064750"/>
<path d="M690.996 177.168C690.996 184.003 696.541 189.543 703.382 189.543C710.222 189.543 715.768 184.003 715.768 177.168C715.768 170.333 710.222 164.792 703.382 164.792C696.541 164.792 690.996 170.333 690.996 177.168Z" fill="#064750"/>
<path d="M703.382 222.11C696.863 222.11 690.996 216.899 690.996 209.735C690.996 203.221 696.211 197.359 703.382 197.359C709.901 197.359 715.768 202.57 715.768 209.735C715.768 216.899 709.901 222.11 703.382 222.11Z" fill="#064750"/>
<path d="M690.996 242.954C690.996 249.789 696.541 255.33 703.382 255.33C710.222 255.33 715.768 249.789 715.768 242.954C715.768 236.119 710.222 230.578 703.382 230.578C696.541 230.578 690.996 236.119 690.996 242.954Z" fill="#064750"/>
<path d="M703.382 287.896C696.863 287.896 690.996 282.686 690.996 275.521C690.996 269.007 696.211 263.145 703.382 263.145C709.901 263.145 715.768 268.356 715.768 275.521C715.768 282.034 709.901 287.896 703.382 287.896Z" fill="#064750"/>
<path d="M703.382 320.464C696.863 320.464 690.996 315.254 690.996 308.089C690.996 301.575 696.211 295.713 703.382 295.713C709.901 295.713 715.768 300.924 715.768 308.089C715.768 315.254 709.901 320.464 703.382 320.464Z" fill="#064750"/>
<path d="M670.136 90.5376C663.617 90.5376 657.75 85.3268 657.75 78.162C657.75 71.6485 662.965 65.7863 670.136 65.7863C676.654 65.7863 682.521 70.9971 682.521 78.162C682.521 85.3268 677.306 90.5376 670.136 90.5376Z" fill="#064750"/>
<path d="M670.136 123.757C663.617 123.757 657.75 118.546 657.75 111.382C657.75 104.868 662.965 99.006 670.136 99.006C676.654 99.006 682.521 104.217 682.521 111.382C682.521 117.895 677.306 123.757 670.136 123.757Z" fill="#064750"/>
<path d="M670.136 156.325C663.617 156.325 657.75 151.114 657.75 143.949C657.75 137.436 662.965 131.574 670.136 131.574C676.654 131.574 682.521 136.785 682.521 143.949C682.521 151.114 677.306 156.325 670.136 156.325Z" fill="#064750"/>
<path d="M670.136 189.543C663.617 189.543 657.75 184.333 657.75 177.168C657.75 170.654 662.965 164.792 670.136 164.792C676.654 164.792 682.521 170.003 682.521 177.168C682.521 183.681 677.306 189.543 670.136 189.543Z" fill="#064750"/>
<path d="M670.136 222.11C663.617 222.11 657.75 216.899 657.75 209.735C657.75 203.221 662.965 197.359 670.136 197.359C676.654 197.359 682.521 202.57 682.521 209.735C682.521 216.899 677.306 222.11 670.136 222.11Z" fill="#064750"/>
<path d="M670.136 254.678C663.617 254.678 657.75 249.467 657.75 242.302C657.75 235.789 662.965 229.927 670.136 229.927C676.654 229.927 682.521 235.138 682.521 242.302C682.521 249.467 677.306 254.678 670.136 254.678Z" fill="#064750"/>
<path d="M670.136 287.896C663.617 287.896 657.75 282.686 657.75 275.521C657.75 269.007 662.965 263.145 670.136 263.145C676.654 263.145 682.521 268.356 682.521 275.521C682.521 282.034 677.306 287.896 670.136 287.896Z" fill="#064750"/>
<path d="M670.136 320.464C663.617 320.464 657.75 315.254 657.75 308.089C657.75 301.575 662.965 295.713 670.136 295.713C676.654 295.713 682.521 300.924 682.521 308.089C682.521 315.254 677.306 320.464 670.136 320.464Z" fill="#064750"/>
<path d="M670.136 353.683C663.617 353.683 657.75 348.472 657.75 341.307C657.75 334.794 662.965 328.931 670.136 328.931C676.654 328.931 682.521 334.142 682.521 341.307C682.521 347.821 677.306 353.683 670.136 353.683Z" fill="#064750"/>
<path d="M625.156 78.162C625.156 84.9968 630.701 90.5376 637.542 90.5376C644.382 90.5376 649.928 84.9968 649.928 78.162C649.928 71.3271 644.382 65.7863 637.542 65.7863C630.701 65.7863 625.156 71.3271 625.156 78.162Z" fill="#064750"/>
<path d="M637.542 123.757C631.023 123.757 625.156 118.546 625.156 111.382C625.156 104.868 630.371 99.006 637.542 99.006C644.061 99.006 649.928 104.217 649.928 111.382C649.928 117.895 644.061 123.757 637.542 123.757Z" fill="#064750"/>
<path d="M637.542 156.325C631.023 156.325 625.156 151.114 625.156 143.949C625.156 137.436 630.371 131.574 637.542 131.574C644.061 131.574 649.928 136.785 649.928 143.949C649.928 151.114 644.061 156.325 637.542 156.325Z" fill="#064750"/>
<path d="M625.156 177.168C625.156 184.003 630.701 189.543 637.542 189.543C644.382 189.543 649.928 184.003 649.928 177.168C649.928 170.333 644.382 164.792 637.542 164.792C630.701 164.792 625.156 170.333 625.156 177.168Z" fill="#064750"/>
<path d="M637.542 222.11C631.023 222.11 625.156 216.899 625.156 209.735C625.156 203.221 630.371 197.359 637.542 197.359C644.061 197.359 649.928 202.57 649.928 209.735C649.928 216.899 644.061 222.11 637.542 222.11Z" fill="#064750"/>
<path d="M625.156 242.954C625.156 249.789 630.701 255.33 637.542 255.33C644.382 255.33 649.928 249.789 649.928 242.954C649.928 236.119 644.382 230.578 637.542 230.578C630.701 230.578 625.156 236.119 625.156 242.954Z" fill="#064750"/>
<path d="M637.542 287.896C631.023 287.896 625.156 282.686 625.156 275.521C625.156 269.007 630.371 263.145 637.542 263.145C644.061 263.145 649.928 268.356 649.928 275.521C649.928 282.034 644.061 287.896 637.542 287.896Z" fill="#064750"/>
<path d="M637.542 320.464C631.023 320.464 625.156 315.254 625.156 308.089C625.156 301.575 630.371 295.713 637.542 295.713C644.061 295.713 649.928 300.924 649.928 308.089C649.928 315.254 644.061 320.464 637.542 320.464Z" fill="#064750"/>
<path d="M625.156 341.307C625.156 348.142 630.701 353.683 637.542 353.683C644.382 353.683 649.928 348.142 649.928 341.307C649.928 334.472 644.382 328.931 637.542 328.931C630.701 328.931 625.156 334.472 625.156 341.307Z" fill="#064750"/>
<path d="M637.542 386.251C631.023 386.251 625.156 381.04 625.156 373.875C625.156 367.362 630.371 361.499 637.542 361.499C644.061 361.499 649.928 366.71 649.928 373.875C649.928 381.04 644.061 386.251 637.542 386.251Z" fill="#064750"/>
<path d="M604.296 90.5376C597.777 90.5376 591.91 85.3268 591.91 78.162C591.91 71.6485 597.125 65.7863 604.296 65.7863C610.815 65.7863 616.682 70.9971 616.682 78.162C616.682 85.3268 611.467 90.5376 604.296 90.5376Z" fill="#064750"/>
<path d="M604.296 123.757C597.777 123.757 591.91 118.546 591.91 111.382C591.91 104.868 597.125 99.006 604.296 99.006C610.815 99.006 616.682 104.217 616.682 111.382C616.682 117.895 611.467 123.757 604.296 123.757Z" fill="#064750"/>
<path d="M604.296 156.325C597.777 156.325 591.91 151.114 591.91 143.949C591.91 137.436 597.125 131.574 604.296 131.574C610.815 131.574 616.682 136.785 616.682 143.949C616.682 151.114 611.467 156.325 604.296 156.325Z" fill="#064750"/>
<path d="M604.296 189.543C597.777 189.543 591.91 184.333 591.91 177.168C591.91 170.654 597.125 164.792 604.296 164.792C610.815 164.792 616.682 170.003 616.682 177.168C616.682 183.681 611.467 189.543 604.296 189.543Z" fill="#064750"/>
<path d="M604.296 222.11C597.777 222.11 591.91 216.899 591.91 209.735C591.91 203.221 597.125 197.359 604.296 197.359C610.815 197.359 616.682 202.57 616.682 209.735C616.682 216.899 611.467 222.11 604.296 222.11Z" fill="#064750"/>
<path d="M604.296 254.678C597.777 254.678 591.91 249.467 591.91 242.302C591.91 235.789 597.125 229.927 604.296 229.927C610.815 229.927 616.682 235.138 616.682 242.302C616.682 249.467 611.467 254.678 604.296 254.678Z" fill="#064750"/>
<path d="M604.296 287.896C597.777 287.896 591.91 282.686 591.91 275.521C591.91 269.007 597.125 263.145 604.296 263.145C610.815 263.145 616.682 268.356 616.682 275.521C616.682 282.034 611.467 287.896 604.296 287.896Z" fill="#064750"/>
<path d="M604.296 320.464C597.777 320.464 591.91 315.254 591.91 308.089C591.91 301.575 597.125 295.713 604.296 295.713C610.815 295.713 616.682 300.924 616.682 308.089C616.682 315.254 611.467 320.464 604.296 320.464Z" fill="#064750"/>
<path d="M604.296 353.683C597.777 353.683 591.91 348.472 591.91 341.307C591.91 334.794 597.125 328.931 604.296 328.931C610.815 328.931 616.682 334.142 616.682 341.307C616.682 347.821 611.467 353.683 604.296 353.683Z" fill="#064750"/>
<path d="M604.296 386.251C597.777 386.251 591.91 381.04 591.91 373.875C591.91 367.362 597.125 361.499 604.296 361.499C610.815 361.499 616.682 366.71 616.682 373.875C616.682 381.04 611.467 386.251 604.296 386.251Z" fill="#064750"/>
<path d="M604.296 419.469C597.777 419.469 591.91 414.258 591.91 407.093C591.91 400.58 597.125 394.718 604.296 394.718C610.815 394.718 616.682 399.929 616.682 407.093C616.682 413.607 611.467 419.469 604.296 419.469Z" fill="#064750"/>
<path d="M604.296 452.036C597.777 452.036 591.91 446.825 591.91 439.66C591.91 433.147 597.125 427.284 604.296 427.284C610.815 427.284 616.682 432.495 616.682 439.66C616.682 446.825 611.467 452.036 604.296 452.036Z" fill="#064750"/>
<path d="M604.296 485.256C597.777 485.256 591.91 480.046 591.91 472.881C591.91 466.367 597.125 460.505 604.296 460.505C610.815 460.505 616.682 465.716 616.682 472.881C616.682 479.394 611.467 485.256 604.296 485.256Z" fill="#064750"/>
<path d="M559.316 78.162C559.316 84.9968 564.862 90.5376 571.702 90.5376C578.543 90.5376 584.088 84.9968 584.088 78.162C584.088 71.3271 578.543 65.7863 571.702 65.7863C564.862 65.7863 559.316 71.3271 559.316 78.162Z" fill="#064750"/>
<path d="M571.702 123.757C565.183 123.757 559.316 118.546 559.316 111.382C559.316 104.868 564.532 99.006 571.702 99.006C578.221 99.006 584.088 104.217 584.088 111.382C584.088 117.895 578.221 123.757 571.702 123.757Z" fill="#064750"/>
<path d="M571.702 156.325C565.183 156.325 559.316 151.114 559.316 143.949C559.316 137.436 564.532 131.574 571.702 131.574C578.221 131.574 584.088 136.785 584.088 143.949C584.088 151.114 578.221 156.325 571.702 156.325Z" fill="#064750"/>
<path d="M559.316 177.168C559.316 184.003 564.862 189.543 571.702 189.543C578.543 189.543 584.088 184.003 584.088 177.168C584.088 170.333 578.543 164.792 571.702 164.792C564.862 164.792 559.316 170.333 559.316 177.168Z" fill="#064750"/>
<path d="M571.702 222.11C565.183 222.11 559.316 216.899 559.316 209.735C559.316 203.221 564.532 197.359 571.702 197.359C578.221 197.359 584.088 202.57 584.088 209.735C584.088 216.899 578.221 222.11 571.702 222.11Z" fill="#064750"/>
<path d="M559.316 242.954C559.316 249.789 564.862 255.33 571.702 255.33C578.543 255.33 584.088 249.789 584.088 242.954C584.088 236.119 578.543 230.579 571.702 230.579C564.862 230.579 559.316 236.119 559.316 242.954Z" fill="#064750"/>
<path d="M571.702 287.896C565.183 287.896 559.316 282.686 559.316 275.521C559.316 269.007 564.531 263.145 571.702 263.145C578.221 263.145 584.088 268.356 584.088 275.521C584.088 282.034 578.221 287.896 571.702 287.896Z" fill="#064750"/>
<path d="M571.702 320.464C565.183 320.464 559.316 315.254 559.316 308.089C559.316 301.575 564.531 295.713 571.702 295.713C578.221 295.713 584.088 300.924 584.088 308.089C584.088 315.254 578.221 320.464 571.702 320.464Z" fill="#064750"/>
<path d="M559.316 341.307C559.316 348.142 564.862 353.683 571.702 353.683C578.543 353.683 584.088 348.142 584.088 341.307C584.088 334.472 578.543 328.931 571.702 328.931C564.862 328.931 559.316 334.472 559.316 341.307Z" fill="#064750"/>
<path d="M571.702 386.251C565.183 386.251 559.316 381.04 559.316 373.875C559.316 367.362 564.531 361.499 571.702 361.499C578.221 361.499 584.088 366.71 584.088 373.875C584.088 381.04 578.221 386.251 571.702 386.251Z" fill="#064750"/>
<path d="M559.316 407.093C559.316 413.928 564.862 419.469 571.702 419.469C578.543 419.469 584.088 413.928 584.088 407.093C584.088 400.258 578.543 394.718 571.702 394.718C564.862 394.718 559.316 400.258 559.316 407.093Z" fill="#064750"/>
<path d="M571.702 452.036C565.183 452.036 559.316 446.825 559.316 439.66C559.316 433.147 564.531 427.284 571.702 427.284C578.221 427.284 584.088 432.495 584.088 439.66C584.088 446.825 578.221 452.036 571.702 452.036Z" fill="#064750"/>
<path d="M571.702 485.256C565.183 485.256 559.316 480.046 559.316 472.881C559.316 466.367 564.531 460.505 571.702 460.505C578.221 460.505 584.088 465.716 584.088 472.881C584.088 479.394 578.221 485.256 571.702 485.256Z" fill="#064750"/>
<path d="M571.702 517.823C565.183 517.823 559.316 512.612 559.316 505.448C559.316 498.934 564.531 493.072 571.702 493.072C578.221 493.072 584.088 498.283 584.088 505.448C584.088 512.612 578.221 517.823 571.702 517.823Z" fill="#064750"/>
<path d="M538.456 90.5376C531.937 90.5376 526.07 85.3268 526.07 78.162C526.07 71.6485 531.285 65.7863 538.456 65.7863C544.975 65.7863 550.842 70.9971 550.842 78.162C550.842 85.3268 545.627 90.5376 538.456 90.5376Z" fill="#064750"/>
<path d="M538.456 123.757C531.937 123.757 526.07 118.546 526.07 111.382C526.07 104.868 531.285 99.006 538.456 99.006C544.975 99.006 550.842 104.217 550.842 111.382C550.842 117.895 545.627 123.757 538.456 123.757Z" fill="#064750"/>
<path d="M538.456 156.325C531.937 156.325 526.07 151.114 526.07 143.949C526.07 137.436 531.285 131.574 538.456 131.574C544.975 131.574 550.842 136.785 550.842 143.949C550.842 151.114 545.627 156.325 538.456 156.325Z" fill="#064750"/>
<path d="M538.456 189.543C531.937 189.543 526.07 184.333 526.07 177.168C526.07 170.654 531.285 164.792 538.456 164.792C544.975 164.792 550.842 170.003 550.842 177.168C550.842 183.681 545.627 189.543 538.456 189.543Z" fill="#064750"/>
<path d="M538.456 222.11C531.937 222.11 526.07 216.899 526.07 209.735C526.07 203.221 531.285 197.359 538.456 197.359C544.975 197.359 550.842 202.57 550.842 209.735C550.842 216.899 545.627 222.11 538.456 222.11Z" fill="#064750"/>
<path d="M538.456 254.678C531.937 254.678 526.07 249.467 526.07 242.303C526.07 235.789 531.285 229.927 538.456 229.927C544.975 229.927 550.842 235.138 550.842 242.303C550.842 249.467 545.627 254.678 538.456 254.678Z" fill="#064750"/>
<path d="M538.456 287.896C531.937 287.896 526.07 282.686 526.07 275.521C526.07 269.007 531.285 263.145 538.456 263.145C544.975 263.145 550.842 268.356 550.842 275.521C550.842 282.034 545.627 287.896 538.456 287.896Z" fill="#064750"/>
<path d="M538.456 320.464C531.937 320.464 526.07 315.254 526.07 308.089C526.07 301.575 531.285 295.713 538.456 295.713C544.975 295.713 550.842 300.924 550.842 308.089C550.842 315.254 545.627 320.464 538.456 320.464Z" fill="#064750"/>
<path d="M538.456 353.683C531.937 353.683 526.07 348.472 526.07 341.307C526.07 334.794 531.285 328.931 538.456 328.931C544.975 328.931 550.842 334.142 550.842 341.307C550.842 347.821 545.627 353.683 538.456 353.683Z" fill="#064750"/>
<path d="M538.456 386.251C531.937 386.251 526.07 381.04 526.07 373.875C526.07 367.362 531.285 361.499 538.456 361.499C544.975 361.499 550.842 366.71 550.842 373.875C550.842 381.04 545.627 386.251 538.456 386.251Z" fill="#064750"/>
<path d="M538.456 419.469C531.937 419.469 526.07 414.258 526.07 407.093C526.07 400.58 531.285 394.718 538.456 394.718C544.975 394.718 550.842 399.929 550.842 407.093C550.842 413.607 545.627 419.469 538.456 419.469Z" fill="#064750"/>
<path d="M538.456 452.036C531.937 452.036 526.07 446.825 526.07 439.66C526.07 433.147 531.285 427.284 538.456 427.284C544.975 427.284 550.842 432.495 550.842 439.66C550.842 446.825 545.627 452.036 538.456 452.036Z" fill="#064750"/>
<path d="M538.456 485.256C531.937 485.256 526.07 480.046 526.07 472.881C526.07 466.367 531.285 460.505 538.456 460.505C544.975 460.505 550.842 465.716 550.842 472.881C550.842 479.394 545.627 485.256 538.456 485.256Z" fill="#064750"/>
<path d="M538.456 517.823C531.937 517.823 526.07 512.612 526.07 505.448C526.07 498.934 531.285 493.072 538.456 493.072C544.975 493.072 550.842 498.283 550.842 505.448C550.842 512.612 545.627 517.823 538.456 517.823Z" fill="#064750"/>
<path d="M505.86 123.757C499.341 123.757 493.474 118.546 493.474 111.382C493.474 104.868 498.69 99.006 505.86 99.006C512.379 99.006 518.246 104.217 518.246 111.382C518.246 117.895 512.379 123.757 505.86 123.757Z" fill="#064750"/>
<path d="M505.86 156.325C499.341 156.325 493.474 151.114 493.474 143.949C493.474 137.436 498.69 131.574 505.86 131.574C512.379 131.574 518.246 136.785 518.246 143.949C518.246 151.114 512.379 156.325 505.86 156.325Z" fill="#064750"/>
<path d="M493.474 177.168C493.474 184.003 499.02 189.543 505.86 189.543C512.701 189.543 518.246 184.003 518.246 177.168C518.246 170.333 512.701 164.792 505.86 164.792C499.02 164.792 493.474 170.333 493.474 177.168Z" fill="#064750"/>
<path d="M505.86 222.11C499.341 222.11 493.474 216.899 493.474 209.735C493.474 203.221 498.69 197.359 505.86 197.359C512.379 197.359 518.246 202.57 518.246 209.735C518.246 216.899 512.379 222.11 505.86 222.11Z" fill="#064750"/>
<path d="M493.474 242.954C493.474 249.789 499.02 255.33 505.86 255.33C512.701 255.33 518.246 249.789 518.246 242.954C518.246 236.119 512.701 230.579 505.86 230.579C499.02 230.579 493.474 236.119 493.474 242.954Z" fill="#064750"/>
<path d="M505.86 287.896C499.341 287.896 493.474 282.686 493.474 275.521C493.474 269.007 498.69 263.145 505.86 263.145C512.379 263.145 518.246 268.356 518.246 275.521C518.246 282.034 512.379 287.896 505.86 287.896Z" fill="#064750"/>
<path d="M505.86 320.464C499.341 320.464 493.474 315.254 493.474 308.089C493.474 301.575 498.69 295.713 505.86 295.713C512.379 295.713 518.246 300.924 518.246 308.089C518.246 315.254 512.379 320.464 505.86 320.464Z" fill="#064750"/>
<path d="M493.474 341.307C493.474 348.142 499.02 353.683 505.86 353.683C512.701 353.683 518.246 348.142 518.246 341.307C518.246 334.472 512.701 328.931 505.86 328.931C499.02 328.931 493.474 334.472 493.474 341.307Z" fill="#064750"/>
<path d="M505.86 386.251C499.341 386.251 493.474 381.04 493.474 373.875C493.474 367.362 498.69 361.499 505.86 361.499C512.379 361.499 518.246 366.71 518.246 373.875C518.246 381.04 512.379 386.251 505.86 386.251Z" fill="#064750"/>
<path d="M493.474 407.093C493.474 413.928 499.02 419.469 505.86 419.469C512.701 419.469 518.246 413.928 518.246 407.093C518.246 400.258 512.701 394.718 505.86 394.718C499.02 394.718 493.474 400.258 493.474 407.093Z" fill="#064750"/>
<path d="M505.86 452.036C499.341 452.036 493.474 446.825 493.474 439.66C493.474 433.147 498.69 427.284 505.86 427.284C512.379 427.284 518.246 432.495 518.246 439.66C518.246 446.825 512.379 452.036 505.86 452.036Z" fill="#064750"/>
<path d="M505.86 485.256C499.341 485.256 493.474 480.046 493.474 472.881C493.474 466.367 498.69 460.505 505.86 460.505C512.379 460.505 518.246 465.716 518.246 472.881C518.246 479.394 512.379 485.256 505.86 485.256Z" fill="#064750"/>
<path d="M505.86 517.823C499.341 517.823 493.474 512.612 493.474 505.448C493.474 498.934 498.69 493.072 505.86 493.072C512.379 493.072 518.246 498.283 518.246 505.448C518.246 512.612 512.379 517.823 505.86 517.823Z" fill="#064750"/>
<path d="M472.614 123.757C466.095 123.757 460.228 118.546 460.228 111.382C460.228 104.868 465.444 99.006 472.614 99.006C479.133 99.006 485 104.217 485 111.382C485 117.895 479.785 123.757 472.614 123.757Z" fill="#064750"/>
<path d="M472.614 156.325C466.095 156.325 460.228 151.114 460.228 143.949C460.228 137.436 465.444 131.574 472.614 131.574C479.133 131.574 485 136.785 485 143.949C485 151.114 479.785 156.325 472.614 156.325Z" fill="#064750"/>
<path d="M472.614 189.543C466.095 189.543 460.228 184.333 460.228 177.168C460.228 170.654 465.444 164.792 472.614 164.792C479.133 164.792 485 170.003 485 177.168C485 183.681 479.785 189.543 472.614 189.543Z" fill="#064750"/>
<path d="M472.614 222.11C466.095 222.11 460.228 216.899 460.228 209.735C460.228 203.221 465.444 197.359 472.614 197.359C479.133 197.359 485 202.57 485 209.735C485 216.899 479.785 222.11 472.614 222.11Z" fill="#064750"/>
<path d="M472.614 254.678C466.095 254.678 460.228 249.467 460.228 242.303C460.228 235.789 465.444 229.927 472.614 229.927C479.133 229.927 485 235.138 485 242.303C485 249.467 479.785 254.678 472.614 254.678Z" fill="#064750"/>
<path d="M472.614 287.896C466.095 287.896 460.228 282.686 460.228 275.521C460.228 269.007 465.444 263.145 472.614 263.145C479.133 263.145 485 268.356 485 275.521C485 282.034 479.785 287.896 472.614 287.896Z" fill="#064750"/>
<path d="M472.614 320.464C466.095 320.464 460.228 315.254 460.228 308.089C460.228 301.575 465.444 295.713 472.614 295.713C479.133 295.713 485 300.924 485 308.089C485 315.254 479.785 320.464 472.614 320.464Z" fill="#064750"/>
<path d="M472.614 353.683C466.095 353.683 460.228 348.472 460.228 341.307C460.228 334.794 465.444 328.931 472.614 328.931C479.133 328.931 485 334.142 485 341.307C485 347.821 479.785 353.683 472.614 353.683Z" fill="#064750"/>
<path d="M472.614 386.251C466.095 386.251 460.228 381.04 460.228 373.875C460.228 367.362 465.444 361.499 472.614 361.499C479.133 361.499 485 366.71 485 373.875C485 381.04 479.785 386.251 472.614 386.251Z" fill="#064750"/>
<path d="M472.614 419.469C466.095 419.469 460.228 414.258 460.228 407.093C460.228 400.58 465.444 394.718 472.614 394.718C479.133 394.718 485 399.929 485 407.093C485 413.607 479.785 419.469 472.614 419.469Z" fill="#064750"/>
<path d="M472.614 452.036C466.095 452.036 460.228 446.825 460.228 439.66C460.228 433.147 465.444 427.284 472.614 427.284C479.133 427.284 485 432.495 485 439.66C485 446.825 479.785 452.036 472.614 452.036Z" fill="#064750"/>
<path d="M472.614 485.256C466.095 485.256 460.228 480.046 460.228 472.881C460.228 466.367 465.444 460.505 472.614 460.505C479.133 460.505 485 465.716 485 472.881C485 479.394 479.785 485.256 472.614 485.256Z" fill="#064750"/>
<path d="M440.021 189.543C433.502 189.543 427.635 184.333 427.635 177.168C427.635 170.654 432.85 164.792 440.021 164.792C446.539 164.792 452.406 170.003 452.406 177.168C452.406 183.681 446.539 189.543 440.021 189.543Z" fill="#064750"/>
<path d="M440.021 222.11C433.502 222.11 427.635 216.899 427.635 209.735C427.635 203.221 432.85 197.359 440.021 197.359C446.539 197.359 452.406 202.57 452.406 209.735C452.406 216.899 446.539 222.11 440.021 222.11Z" fill="#064750"/>
<path d="M440.021 254.678C433.502 254.678 427.635 249.467 427.635 242.303C427.635 235.789 432.85 229.927 440.021 229.927C446.539 229.927 452.406 235.138 452.406 242.303C452.406 249.467 446.539 254.678 440.021 254.678Z" fill="#064750"/>
<path d="M440.02 287.896C433.502 287.896 427.635 282.686 427.635 275.521C427.635 269.007 432.85 263.145 440.02 263.145C446.539 263.145 452.406 268.356 452.406 275.521C452.406 282.034 446.539 287.896 440.02 287.896Z" fill="#064750"/>
<path d="M440.02 320.464C433.502 320.464 427.635 315.254 427.635 308.089C427.635 301.575 432.85 295.713 440.02 295.713C446.539 295.713 452.406 300.924 452.406 308.089C452.406 315.254 446.539 320.464 440.02 320.464Z" fill="#064750"/>
<path d="M440.02 353.683C433.502 353.683 427.635 348.472 427.635 341.307C427.635 334.794 432.85 328.932 440.02 328.932C446.539 328.932 452.406 334.142 452.406 341.307C452.406 347.821 446.539 353.683 440.02 353.683Z" fill="#064750"/>
<path d="M440.02 386.251C433.502 386.251 427.635 381.04 427.635 373.875C427.635 367.362 432.85 361.5 440.02 361.5C446.539 361.5 452.406 366.71 452.406 373.875C452.406 381.04 446.539 386.251 440.02 386.251Z" fill="#064750"/>
<path d="M440.02 419.469C433.502 419.469 427.635 414.258 427.635 407.093C427.635 400.58 432.85 394.718 440.02 394.718C446.539 394.718 452.406 399.929 452.406 407.093C452.406 413.607 446.539 419.469 440.02 419.469Z" fill="#064750"/>
<path d="M440.02 452.036C433.502 452.036 427.635 446.825 427.635 439.66C427.635 433.147 432.85 427.284 440.02 427.284C446.539 427.284 452.406 432.495 452.406 439.66C452.406 446.825 446.539 452.036 440.02 452.036Z" fill="#064750"/>
<path d="M440.02 485.256C433.502 485.256 427.635 480.046 427.635 472.881C427.635 466.367 432.85 460.505 440.02 460.505C446.539 460.505 452.406 465.716 452.406 472.881C452.406 479.394 446.539 485.256 440.02 485.256Z" fill="#064750"/>
<path d="M406.774 189.543C400.256 189.543 394.389 184.333 394.389 177.168C394.389 170.654 399.604 164.792 406.774 164.792C413.293 164.792 419.16 170.003 419.16 177.168C419.16 183.681 413.945 189.543 406.774 189.543Z" fill="#064750"/>
<path d="M406.774 222.11C400.256 222.11 394.389 216.899 394.389 209.734C394.389 203.221 399.604 197.359 406.774 197.359C413.293 197.359 419.16 202.57 419.16 209.734C419.16 216.899 413.945 222.11 406.774 222.11Z" fill="#064750"/>
<path d="M406.774 254.678C400.256 254.678 394.389 249.467 394.389 242.302C394.389 235.789 399.604 229.927 406.774 229.927C413.293 229.927 419.16 235.138 419.16 242.302C419.16 249.467 413.945 254.678 406.774 254.678Z" fill="#064750"/>
<path d="M406.774 287.896C400.256 287.896 394.389 282.686 394.389 275.521C394.389 269.007 399.604 263.145 406.774 263.145C413.293 263.145 419.16 268.356 419.16 275.521C419.16 282.034 413.945 287.896 406.774 287.896Z" fill="#064750"/>
<path d="M406.774 320.464C400.256 320.464 394.389 315.254 394.389 308.089C394.389 301.575 399.604 295.713 406.774 295.713C413.293 295.713 419.16 300.924 419.16 308.089C419.16 315.254 413.945 320.464 406.774 320.464Z" fill="#064750"/>
<path d="M406.774 353.683C400.256 353.683 394.389 348.472 394.389 341.307C394.389 334.794 399.604 328.932 406.774 328.932C413.293 328.932 419.16 334.142 419.16 341.307C419.16 347.821 413.945 353.683 406.774 353.683Z" fill="#064750"/>
<path d="M406.774 386.251C400.256 386.251 394.389 381.04 394.389 373.875C394.389 367.362 399.604 361.5 406.774 361.5C413.293 361.5 419.16 366.71 419.16 373.875C419.16 381.04 413.945 386.251 406.774 386.251Z" fill="#064750"/>
<path d="M406.774 419.469C400.256 419.469 394.389 414.258 394.389 407.093C394.389 400.58 399.604 394.718 406.774 394.718C413.293 394.718 419.16 399.929 419.16 407.093C419.16 413.607 413.945 419.469 406.774 419.469Z" fill="#064750"/>
<path d="M406.774 452.036C400.256 452.036 394.389 446.825 394.389 439.66C394.389 433.147 399.604 427.284 406.774 427.284C413.293 427.284 419.16 432.495 419.16 439.66C419.16 446.825 413.945 452.036 406.774 452.036Z" fill="#064750"/>
<path d="M406.774 485.256C400.256 485.256 394.389 480.046 394.389 472.881C394.389 466.367 399.604 460.505 406.774 460.505C413.293 460.505 419.16 465.716 419.16 472.881C419.16 479.394 413.945 485.256 406.774 485.256Z" fill="#064750"/>
<path d="M374.181 189.543C367.662 189.543 361.795 184.333 361.795 177.168C361.795 170.654 367.01 164.792 374.181 164.792C380.699 164.792 386.566 170.003 386.566 177.168C386.566 183.681 380.699 189.543 374.181 189.543Z" fill="#064750"/>
<path d="M374.181 222.11C367.662 222.11 361.795 216.899 361.795 209.734C361.795 203.221 367.01 197.359 374.181 197.359C380.699 197.359 386.566 202.57 386.566 209.734C386.566 216.899 380.699 222.11 374.181 222.11Z" fill="#064750"/>
<path d="M374.181 254.678C367.662 254.678 361.795 249.467 361.795 242.302C361.795 235.789 367.01 229.927 374.181 229.927C380.699 229.927 386.566 235.138 386.566 242.302C386.566 249.467 380.699 254.678 374.181 254.678Z" fill="#064750"/>
<path d="M374.181 287.896C367.662 287.896 361.795 282.686 361.795 275.521C361.795 269.007 367.01 263.145 374.181 263.145C380.699 263.145 386.566 268.356 386.566 275.521C386.566 282.034 380.699 287.896 374.181 287.896Z" fill="#064750"/>
<path d="M374.181 320.464C367.662 320.464 361.795 315.254 361.795 308.089C361.795 301.575 367.01 295.713 374.181 295.713C380.699 295.713 386.566 300.924 386.566 308.089C386.566 315.254 380.699 320.464 374.181 320.464Z" fill="#064750"/>
<path d="M374.181 353.683C367.662 353.683 361.795 348.472 361.795 341.307C361.795 334.794 367.01 328.932 374.181 328.932C380.699 328.932 386.566 334.142 386.566 341.307C386.566 347.821 380.699 353.683 374.181 353.683Z" fill="#064750"/>
<path d="M374.181 386.251C367.662 386.251 361.795 381.04 361.795 373.875C361.795 367.362 367.01 361.5 374.181 361.5C380.699 361.5 386.566 366.71 386.566 373.875C386.566 381.04 380.699 386.251 374.181 386.251Z" fill="#064750"/>
<path d="M374.181 419.469C367.662 419.469 361.795 414.258 361.795 407.093C361.795 400.58 367.01 394.718 374.181 394.718C380.699 394.718 386.566 399.929 386.566 407.093C386.566 413.607 380.699 419.469 374.181 419.469Z" fill="#064750"/>
<path d="M374.181 452.036C367.662 452.036 361.795 446.825 361.795 439.66C361.795 433.147 367.01 427.284 374.181 427.284C380.699 427.284 386.566 432.495 386.566 439.66C386.566 446.825 380.699 452.036 374.181 452.036Z" fill="#064750"/>
<path d="M341.587 189.543C335.068 189.543 329.201 184.333 329.201 177.168C329.201 170.654 334.416 164.792 341.587 164.792C348.106 164.792 353.973 170.003 353.973 177.168C353.321 183.681 348.106 189.543 341.587 189.543Z" fill="#064750"/>
<path d="M341.587 222.11C335.068 222.11 329.201 216.899 329.201 209.734C329.201 203.221 334.416 197.359 341.587 197.359C348.106 197.359 353.973 202.57 353.973 209.734C353.321 216.899 348.106 222.11 341.587 222.11Z" fill="#064750"/>
<path d="M341.587 254.678C335.068 254.678 329.201 249.467 329.201 242.302C329.201 235.789 334.416 229.927 341.587 229.927C348.106 229.927 353.973 235.138 353.973 242.302C353.321 249.467 348.106 254.678 341.587 254.678Z" fill="#064750"/>
<path d="M341.587 287.896C335.068 287.896 329.201 282.686 329.201 275.521C329.201 269.007 334.416 263.145 341.587 263.145C348.106 263.145 353.973 268.356 353.973 275.521C353.321 282.034 348.106 287.896 341.587 287.896Z" fill="#064750"/>
<path d="M341.587 320.464C335.068 320.464 329.201 315.254 329.201 308.089C329.201 301.575 334.416 295.713 341.587 295.713C348.106 295.713 353.973 300.924 353.973 308.089C353.321 315.254 348.106 320.464 341.587 320.464Z" fill="#064750"/>
<path d="M341.587 353.683C335.068 353.683 329.201 348.472 329.201 341.307C329.201 334.794 334.416 328.932 341.587 328.932C348.106 328.932 353.973 334.142 353.973 341.307C353.321 347.821 348.106 353.683 341.587 353.683Z" fill="#064750"/>
<path d="M341.587 386.251C335.068 386.251 329.201 381.04 329.201 373.875C329.201 367.362 334.416 361.5 341.587 361.5C348.106 361.5 353.973 366.71 353.973 373.875C353.321 381.04 348.106 386.251 341.587 386.251Z" fill="#064750"/>
<path d="M341.587 419.469C335.068 419.469 329.201 414.258 329.201 407.093C329.201 400.58 334.416 394.718 341.587 394.718C348.106 394.718 353.973 399.929 353.973 407.093C353.321 413.607 348.106 419.469 341.587 419.469Z" fill="#064750"/>
<path d="M308.341 189.543C301.822 189.543 295.955 184.333 295.955 177.168C295.955 170.654 301.17 164.792 308.341 164.792C314.86 164.792 320.727 170.003 320.727 177.168C320.727 183.681 315.511 189.543 308.341 189.543Z" fill="#064750"/>
<path d="M308.341 222.11C301.822 222.11 295.955 216.899 295.955 209.734C295.955 203.221 301.17 197.359 308.341 197.359C314.86 197.359 320.727 202.57 320.727 209.734C320.727 216.899 315.511 222.11 308.341 222.11Z" fill="#064750"/>
<path d="M308.341 254.678C301.822 254.678 295.955 249.467 295.955 242.302C295.955 235.789 301.17 229.927 308.341 229.927C314.86 229.927 320.727 235.138 320.727 242.302C320.727 249.467 315.511 254.678 308.341 254.678Z" fill="#064750"/>
<path d="M308.341 287.896C301.822 287.896 295.955 282.686 295.955 275.521C295.955 269.007 301.17 263.145 308.341 263.145C314.86 263.145 320.727 268.356 320.727 275.521C320.727 282.034 315.511 287.896 308.341 287.896Z" fill="#064750"/>
<path d="M308.341 320.464C301.822 320.464 295.955 315.254 295.955 308.089C295.955 301.575 301.17 295.713 308.341 295.713C314.86 295.713 320.727 300.924 320.727 308.089C320.727 315.254 315.511 320.464 308.341 320.464Z" fill="#064750"/>
<path d="M308.341 353.683C301.822 353.683 295.955 348.472 295.955 341.307C295.955 334.794 301.17 328.932 308.341 328.932C314.86 328.932 320.727 334.142 320.727 341.307C320.727 347.821 315.511 353.683 308.341 353.683Z" fill="#064750"/>
<path d="M308.341 386.251C301.822 386.251 295.955 381.04 295.955 373.875C295.955 367.362 301.17 361.5 308.341 361.5C314.86 361.5 320.727 366.71 320.727 373.875C320.727 381.04 315.511 386.251 308.341 386.251Z" fill="#064750"/>
<path d="M308.341 419.469C301.822 419.469 295.955 414.258 295.955 407.093C295.955 400.58 301.17 394.718 308.341 394.718C314.86 394.718 320.727 399.929 320.727 407.093C320.727 413.607 315.511 419.469 308.341 419.469Z" fill="#064750"/>
<path d="M263.361 177.168C263.361 184.003 268.906 189.543 275.747 189.543C282.587 189.543 288.133 184.003 288.133 177.168C288.133 170.333 282.587 164.792 275.747 164.792C268.906 164.792 263.361 170.333 263.361 177.168Z" fill="#064750"/>
<path d="M275.747 222.11C269.228 222.11 263.361 216.899 263.361 209.734C263.361 203.221 268.576 197.359 275.747 197.359C282.266 197.359 288.133 202.57 288.133 209.734C288.133 216.899 282.266 222.11 275.747 222.11Z" fill="#064750"/>
<path d="M263.361 242.954C263.361 249.789 268.906 255.33 275.747 255.33C282.587 255.33 288.133 249.789 288.133 242.954C288.133 236.119 282.587 230.578 275.747 230.578C268.906 230.578 263.361 236.119 263.361 242.954Z" fill="#064750"/>
<path d="M275.747 287.896C269.228 287.896 263.361 282.686 263.361 275.521C263.361 269.007 268.576 263.145 275.747 263.145C282.266 263.145 288.133 268.356 288.133 275.521C288.133 282.034 282.266 287.896 275.747 287.896Z" fill="#064750"/>
<path d="M242.501 189.543C235.982 189.543 230.115 184.333 230.115 177.168C230.115 170.654 235.33 164.792 242.501 164.792C249.02 164.792 254.887 170.003 254.887 177.168C254.887 183.681 249.672 189.543 242.501 189.543Z" fill="#064750"/>
<path d="M242.501 222.11C235.982 222.11 230.115 216.899 230.115 209.735C230.115 203.221 235.33 197.359 242.501 197.359C249.02 197.359 254.887 202.57 254.887 209.735C254.887 216.899 249.672 222.11 242.501 222.11Z" fill="#064750"/>
<path d="M242.501 254.678C235.982 254.678 230.115 249.467 230.115 242.303C230.115 235.789 235.33 229.927 242.501 229.927C249.02 229.927 254.887 235.138 254.887 242.303C254.887 249.467 249.672 254.678 242.501 254.678Z" fill="#064750"/>
<path d="M242.501 287.896C235.982 287.896 230.115 282.686 230.115 275.521C230.115 269.007 235.33 263.145 242.501 263.145C249.02 263.145 254.887 268.356 254.887 275.521C254.887 282.034 249.672 287.896 242.501 287.896Z" fill="#064750"/>
<path d="M197.521 177.168C197.521 184.003 203.067 189.543 209.907 189.543C216.748 189.543 222.293 184.003 222.293 177.168C222.293 170.333 216.748 164.792 209.907 164.792C203.067 164.792 197.521 170.333 197.521 177.168Z" fill="#064750"/>
<path d="M209.907 222.11C203.388 222.11 197.521 216.899 197.521 209.735C197.521 203.221 202.736 197.359 209.907 197.359C216.426 197.359 222.293 202.57 222.293 209.735C222.293 216.899 216.426 222.11 209.907 222.11Z" fill="#064750"/>
<path d="M197.521 242.954C197.521 249.789 203.067 255.33 209.907 255.33C216.748 255.33 222.293 249.789 222.293 242.954C222.293 236.119 216.748 230.579 209.907 230.579C203.067 230.579 197.521 236.119 197.521 242.954Z" fill="#064750"/>
<path d="M209.907 287.896C203.388 287.896 197.521 282.686 197.521 275.521C197.521 269.007 202.736 263.145 209.907 263.145C216.426 263.145 222.293 268.356 222.293 275.521C222.293 282.034 216.426 287.896 209.907 287.896Z" fill="#064750"/>
<path d="M176.661 222.11C170.142 222.11 164.275 216.899 164.275 209.735C164.275 203.221 169.49 197.359 176.661 197.359C183.18 197.359 189.047 202.57 189.047 209.735C189.047 216.899 183.832 222.11 176.661 222.11Z" fill="#064750"/>
<path d="M176.661 254.678C170.142 254.678 164.275 249.467 164.275 242.303C164.275 235.789 169.49 229.927 176.661 229.927C183.18 229.927 189.047 235.138 189.047 242.303C189.047 249.467 183.832 254.678 176.661 254.678Z" fill="#064750"/>
<path d="M176.661 287.896C170.142 287.896 164.275 282.686 164.275 275.521C164.275 269.007 169.49 263.145 176.661 263.145C183.18 263.145 189.047 268.356 189.047 275.521C189.047 282.034 183.832 287.896 176.661 287.896Z" fill="#064750"/>
<path d="M144.065 222.11C137.547 222.11 131.68 216.899 131.68 209.735C131.68 203.221 136.895 197.359 144.065 197.359C150.584 197.359 156.451 202.57 156.451 209.735C156.451 216.899 150.584 222.11 144.065 222.11Z" fill="#064750"/>
<path d="M131.68 242.954C131.68 249.789 137.225 255.33 144.065 255.33C150.906 255.33 156.451 249.789 156.451 242.954C156.451 236.119 150.906 230.579 144.065 230.579C137.225 230.579 131.68 236.119 131.68 242.954Z" fill="#064750"/>
<path d="M144.065 287.896C137.547 287.896 131.68 282.686 131.68 275.521C131.68 269.007 136.895 263.145 144.065 263.145C150.584 263.145 156.451 268.356 156.451 275.521C156.451 282.034 150.584 287.896 144.065 287.896Z" fill="#064750"/>
<path d="M110.819 222.11C104.3 222.11 98.4335 216.899 98.4335 209.735C98.4335 203.221 103.649 197.359 110.819 197.359C117.338 197.359 123.205 202.57 123.205 209.735C123.205 216.899 117.99 222.11 110.819 222.11Z" fill="#064750"/>
<path d="M110.819 254.678C104.3 254.678 98.4335 249.467 98.4335 242.303C98.4335 235.789 103.649 229.927 110.819 229.927C117.338 229.927 123.205 235.138 123.205 242.303C123.205 249.467 117.99 254.678 110.819 254.678Z" fill="#064750"/>
<path d="M110.819 287.896C104.3 287.896 98.4335 282.686 98.4335 275.521C98.4335 269.007 103.649 263.145 110.819 263.145C117.338 263.145 123.205 268.356 123.205 275.521C123.205 282.034 117.99 287.896 110.819 287.896Z" fill="#064750"/>
<path d="M78.2256 222.11C71.7068 222.11 65.8398 216.899 65.8398 209.735C65.8398 203.221 71.0549 197.359 78.2256 197.359C84.7444 197.359 90.6113 202.57 90.6113 209.735C90.6113 216.899 84.7444 222.11 78.2256 222.11Z" fill="#064750"/>
<path d="M65.8398 242.954C65.8398 249.789 71.3852 255.33 78.2256 255.33C85.0661 255.33 90.6113 249.789 90.6113 242.954C90.6113 236.119 85.0661 230.578 78.2256 230.578C71.3852 230.578 65.8398 236.119 65.8398 242.954Z" fill="#064750"/>
<path d="M78.2256 287.896C71.7068 287.896 65.8398 282.686 65.8398 275.521C65.8398 269.007 71.0549 263.145 78.2256 263.145C84.7444 263.145 90.6113 268.356 90.6113 275.521C90.6113 282.034 84.7444 287.896 78.2256 287.896Z" fill="#064750"/>
<path d="M44.9796 254.678C38.4608 254.678 32.5939 249.467 32.5939 242.302C32.5939 235.789 37.8089 229.927 44.9796 229.927C51.4984 229.927 57.3652 235.138 57.3652 242.302C57.3652 249.467 52.1502 254.678 44.9796 254.678Z" fill="#064750"/>
<path d="M44.9796 287.896C38.4608 287.896 32.5939 282.686 32.5939 275.521C32.5939 269.007 37.8089 263.145 44.9796 263.145C51.4984 263.145 57.3652 268.356 57.3652 275.521C57.3652 282.034 52.1502 287.896 44.9796 287.896Z" fill="#064750"/>
<path d="M12.3857 287.896C5.86691 287.896 7.10187e-07 282.686 1.02363e-06 275.521C1.30858e-06 269.007 5.21503 263.145 12.3857 263.145C18.9046 263.145 24.7715 268.356 24.7715 275.521C24.7715 282.034 18.9046 287.896 12.3857 287.896Z" fill="#064750"/>
</g>
</svg>
