<svg width="40" height="40" viewBox="0 0 40 40" fill="none" xmlns="http://www.w3.org/2000/svg">
<circle cx="20" cy="20" r="19.5" stroke="#4E6271"/>
<path d="M31.5015 14.0726C31.1559 14.2259 30.8005 14.3553 30.4374 14.4603C30.8673 13.9742 31.195 13.4022 31.3951 12.7762C31.4399 12.6359 31.3935 12.4824 31.2781 12.3906C31.163 12.2988 31.0029 12.2878 30.8761 12.3629C30.105 12.8202 29.2732 13.1489 28.4009 13.3411C27.5222 12.4825 26.3288 11.9939 25.0951 11.9939C22.491 11.9939 20.3723 14.1125 20.3723 16.7166C20.3723 16.9217 20.3853 17.1256 20.411 17.3268C17.1795 17.043 14.1752 15.4547 12.1122 12.9241C12.0386 12.8339 11.9254 12.7853 11.8094 12.7946C11.6934 12.8036 11.5891 12.8691 11.5305 12.9696C11.1121 13.6876 10.8909 14.5088 10.8909 15.3443C10.8909 16.4823 11.2972 17.562 12.0149 18.4056C11.7966 18.33 11.5849 18.2356 11.3828 18.1234C11.2742 18.063 11.1418 18.0639 11.034 18.1257C10.9261 18.1875 10.8585 18.3012 10.8557 18.4255C10.8552 18.4464 10.8552 18.4674 10.8552 18.4886C10.8552 20.1872 11.7694 21.7165 13.1671 22.55C13.047 22.538 12.927 22.5206 12.8078 22.4978C12.6849 22.4743 12.5585 22.5174 12.4756 22.6112C12.3926 22.7049 12.3651 22.8354 12.4033 22.9547C12.9207 24.5699 14.2527 25.758 15.8629 26.1202C14.5274 26.9567 13.0001 27.3948 11.3968 27.3948C11.0623 27.3948 10.7258 27.3752 10.3965 27.3362C10.2329 27.3168 10.0765 27.4134 10.0208 27.5689C9.9651 27.7245 10.0241 27.8981 10.1633 27.9873C12.223 29.3079 14.6046 30.0059 17.0505 30.0059C21.8589 30.0059 24.8668 27.7385 26.5434 25.8364C28.6342 23.4646 29.8332 20.3252 29.8332 17.2232C29.8332 17.0936 29.8312 16.9628 29.8273 16.8323C30.6521 16.2109 31.3623 15.4588 31.9402 14.5943C32.028 14.463 32.0185 14.2895 31.9168 14.1686C31.8152 14.0477 31.646 14.0086 31.5015 14.0726Z" fill="white"/>
</svg>
